<?xml version="1.0" encoding="UTF-8" standalone="no"?>
<svg
   width="50.8mm"
   height="128.5mm"
   viewBox="0 0 50.8 128.5"
   version="1.1"
   id="svg20"
   sodipodi:docname="AngelGrain.svg"
   xmlns:inkscape="http://www.inkscape.org/namespaces/inkscape"
   xmlns:sodipodi="http://sodipodi.sourceforge.net/DTD/sodipodi-0.dtd"
   xmlns="http://www.w3.org/2000/svg"
   xmlns:svg="http://www.w3.org/2000/svg">
  <sodipodi:namedview
     id="namedview20"
     pagecolor="#ffffff"
     bordercolor="#000000"
     borderopacity="0.25"
     inkscape:showpageshadow="2"
     inkscape:pageopacity="0.0"
     inkscape:pagecheckerboard="0"
     inkscape:deskcolor="#d1d1d1"
     inkscape:document-units="mm" />
  <!-- Background gradient effect -->
  <defs
     id="defs2">
    <linearGradient
       id="bg"
       x1="0%"
       y1="0%"
       x2="0%"
       y2="100%">
      <stop
         offset="0%"
         style="stop-color:#2a2a3a;stop-opacity:1"
         id="stop1" />
      <stop
         offset="100%"
         style="stop-color:#1a1a2a;stop-opacity:1"
         id="stop2" />
    </linearGradient>
  </defs>
  <rect
     width="50.8"
     height="128.5"
     fill="url(#bg)"
     id="rect2" />
  <!-- Panel border -->
  <rect
     x="0.5"
     y="0.5"
     width="49.8"
     height="127.5"
     fill="none"
     stroke="#6666aa"
     stroke-width="0.3"
     id="rect3" />
  <!-- Title -->
  <path
     d="m 12.922827,9 h -0.70752 L 11.934057,8.2683105 H 10.64646 L 10.38059,9 H 9.690649 l 1.254639,-3.2211914 h 0.687744 z M 11.725317,7.7255859 11.281469,6.5302734 10.846411,7.7255859 Z M 13.274389,9 V 5.7788086 h 0.632813 l 1.318359,2.151123 v -2.151123 h 0.604248 V 9 H 15.177221 L 13.878637,6.8994141 V 9 Z M 18.016088,7.8156738 V 7.2729492 h 1.401856 v 1.2832031 q -0.204346,0.197754 -0.593262,0.3493653 -0.386719,0.149414 -0.784424,0.149414 -0.505371,0 -0.881103,-0.2109375 Q 16.783422,8.6308594 16.594458,8.2375488 16.405493,7.842041 16.405493,7.378418 q 0,-0.5031739 0.210937,-0.8942871 0.210938,-0.3911133 0.617432,-0.5998536 0.309814,-0.1604003 0.77124,-0.1604003 0.599854,0 0.936035,0.2526855 0.338379,0.2504883 0.435059,0.6943359 L 18.7302,6.791748 Q 18.662085,6.5544434 18.47312,6.4182129 18.286352,6.2797852 18.005102,6.2797852 q -0.426269,0 -0.678955,0.2702636 -0.250488,0.2702637 -0.250488,0.802002 0,0.5734863 0.254883,0.8613281 0.254882,0.2856445 0.667968,0.2856445 0.204346,0 0.408692,-0.079102 0.206543,-0.081299 0.35376,-0.1955567 V 7.8156738 Z M 20.017797,9 V 5.7788086 h 2.388428 v 0.5449219 h -1.738037 v 0.7141113 h 1.617188 v 0.5427246 h -1.617188 v 0.876709 h 1.799561 V 9 Z M 23.03684,9 V 5.8051758 h 0.650391 v 2.6520996 h 1.617188 V 9 Z M 28.435522,7.8156738 V 7.2729492 h 1.401856 v 1.2832031 q -0.204346,0.197754 -0.593262,0.3493653 -0.386719,0.149414 -0.784424,0.149414 -0.505371,0 -0.881104,-0.2109375 Q 27.202856,8.6308594 27.013891,8.2375488 26.824926,7.842041 26.824926,7.378418 q 0,-0.5031739 0.210938,-0.8942871 0.210937,-0.3911133 0.617432,-0.5998536 0.309814,-0.1604003 0.77124,-0.1604003 0.599853,0 0.936035,0.2526855 0.338379,0.2504883 0.435059,0.6943359 L 29.149633,6.791748 q -0.06812,-0.2373046 -0.25708,-0.3735351 -0.186767,-0.1384277 -0.468017,-0.1384277 -0.42627,0 -0.678955,0.2702636 -0.250489,0.2702637 -0.250489,0.802002 0,0.5734863 0.254883,0.8613281 0.254883,0.2856445 0.667969,0.2856445 0.204346,0 0.408691,-0.079102 0.206543,-0.081299 0.35376,-0.1955567 V 7.8156738 Z M 30.439428,9 V 5.7788086 h 1.368897 q 0.516357,0 0.749267,0.087891 0.235108,0.085693 0.375733,0.3076172 0.140625,0.2219238 0.140625,0.5075684 0,0.3625488 -0.213135,0.5998535 -0.213135,0.2351074 -0.637207,0.2966308 0.210938,0.1230469 0.347168,0.2702637 0.138428,0.1472168 0.371338,0.5229492 L 33.335424,9 H 32.557592 L 32.087378,8.2990723 Q 31.836889,7.9233398 31.744604,7.8266602 31.652319,7.7277832 31.549047,7.692627 31.445776,7.6552734 31.221655,7.6552734 H 31.089819 V 9 Z m 0.650391,-1.8588867 h 0.481201 q 0.468018,0 0.584473,-0.039551 0.116455,-0.039551 0.182373,-0.1362305 0.06592,-0.09668 0.06592,-0.2416992 0,-0.1625976 -0.08789,-0.2614746 -0.08569,-0.1010742 -0.243896,-0.1274414 -0.0791,-0.010986 -0.47461,-0.010986 H 31.089819 Z M 36.591772,9 H 35.884253 L 35.603003,8.2683105 H 34.315405 L 34.049536,9 h -0.689942 l 1.254639,-3.2211914 h 0.687744 z M 35.394262,7.7255859 34.950415,6.5302734 34.515356,7.7255859 Z M 36.916967,9 V 5.7788086 h 0.650391 V 9 Z m 1.276612,0 V 5.7788086 h 0.632812 l 1.31836,2.151123 v -2.151123 h 0.604248 V 9 H 40.096411 L 38.797827,6.8994141 V 9 Z"
     id="text3"
     style="font-weight:bold;font-size:4.5px;font-family:Arial, sans-serif;text-anchor:middle;fill:#aaaaff"
     aria-label="ANGEL GRAIN" />
  <path
     d="m 19.162207,15.085938 0.170898,0.02539 q 0.01074,0.0791 0.05957,0.115235 0.06543,0.04883 0.178711,0.04883 0.122071,0 0.188477,-0.04883 0.06641,-0.04883 0.08984,-0.136719 0.01367,-0.05371 0.0127,-0.225586 Q 19.747168,15 19.575293,15 19.361425,15 19.244238,14.845703 19.12705,14.691406 19.12705,14.475586 q 0,-0.148438 0.05371,-0.273438 0.05371,-0.125976 0.155274,-0.194335 0.102539,-0.06836 0.240234,-0.06836 0.183594,0 0.302735,0.148438 v -0.125 h 0.162109 v 0.896484 q 0,0.242188 -0.0498,0.342773 -0.04883,0.101563 -0.15625,0.160157 -0.106445,0.05859 -0.262695,0.05859 -0.185547,0 -0.299805,-0.08398 -0.114258,-0.08301 -0.110351,-0.250976 z m 0.145507,-0.623047 q 0,0.204101 0.08105,0.297851 0.08105,0.09375 0.203125,0.09375 0.121094,0 0.203125,-0.09277 0.08203,-0.09375 0.08203,-0.292969 0,-0.19043 -0.08496,-0.287109 -0.08398,-0.09668 -0.203125,-0.09668 -0.117187,0 -0.199218,0.0957 -0.08203,0.09473 -0.08203,0.282227 z M 20.304785,15 v -1.037109 h 0.158203 v 0.157226 q 0.06055,-0.110351 0.111328,-0.145508 0.05176,-0.03516 0.113281,-0.03516 0.08887,0 0.180664,0.05664 l -0.06055,0.163086 q -0.06445,-0.03809 -0.128906,-0.03809 -0.05762,0 -0.103515,0.03516 -0.0459,0.03418 -0.06543,0.0957 -0.0293,0.09375 -0.0293,0.205078 V 15 Z m 1.344726,-0.12793 q -0.09766,0.08301 -0.188476,0.117188 -0.08984,0.03418 -0.19336,0.03418 -0.170898,0 -0.262695,-0.08301 -0.0918,-0.08398 -0.0918,-0.213867 0,-0.07617 0.03418,-0.138672 0.03516,-0.06348 0.09082,-0.101563 0.05664,-0.03809 0.126953,-0.05762 0.05176,-0.01367 0.15625,-0.02637 0.212891,-0.02539 0.313477,-0.06055 9.76e-4,-0.03613 9.76e-4,-0.0459 0,-0.107421 -0.0498,-0.151367 -0.06738,-0.05957 -0.200196,-0.05957 -0.124023,0 -0.183593,0.04395 -0.05859,0.04297 -0.08691,0.153321 l -0.171875,-0.02344 q 0.02344,-0.110351 0.07715,-0.177734 0.05371,-0.06836 0.155274,-0.104492 0.101562,-0.03711 0.235351,-0.03711 0.132813,0 0.21582,0.03125 0.08301,0.03125 0.122071,0.0791 0.03906,0.04687 0.05469,0.11914 0.0088,0.04492 0.0088,0.16211 v 0.234375 q 0,0.245117 0.01074,0.310547 0.01172,0.06445 0.04492,0.124023 h -0.183593 q -0.02734,-0.05469 -0.03516,-0.12793 z m -0.01465,-0.392578 q -0.0957,0.03906 -0.287109,0.06641 -0.108399,0.01563 -0.153321,0.03516 -0.04492,0.01953 -0.06934,0.05762 -0.02441,0.03711 -0.02441,0.08301 0,0.07031 0.05273,0.117187 0.05371,0.04687 0.15625,0.04687 0.101562,0 0.180664,-0.04395 0.0791,-0.04492 0.116211,-0.12207 0.02832,-0.05957 0.02832,-0.175782 z M 22.085058,15 v -1.037109 h 0.158203 v 0.147461 q 0.114258,-0.170899 0.330078,-0.170899 0.09375,0 0.171875,0.03418 0.0791,0.0332 0.118165,0.08789 0.03906,0.05469 0.05469,0.129883 0.0098,0.04883 0.0098,0.170899 V 15 H 22.75205 v -0.630859 q 0,-0.107422 -0.02051,-0.160157 -0.02051,-0.05371 -0.07324,-0.08496 -0.05176,-0.03223 -0.12207,-0.03223 -0.112305,0 -0.194336,0.07129 -0.08105,0.07129 -0.08105,0.270508 V 15 Z m 1.791992,0 v -0.152344 q -0.121093,0.175782 -0.329101,0.175782 -0.0918,0 -0.171875,-0.03516 -0.0791,-0.03516 -0.118164,-0.08789 -0.03809,-0.05371 -0.05371,-0.13086 -0.01074,-0.05176 -0.01074,-0.164062 v -0.642578 h 0.175781 v 0.575195 q 0,0.137695 0.01074,0.185547 0.0166,0.06934 0.07031,0.109375 0.05371,0.03906 0.132812,0.03906 0.0791,0 0.148438,-0.04004 0.06934,-0.04101 0.09766,-0.110351 0.0293,-0.07031 0.0293,-0.203125 v -0.555664 h 0.175781 V 15 Z m 0.428711,0 v -1.431641 h 0.175782 V 15 Z m 1.125,-0.12793 q -0.09766,0.08301 -0.188476,0.117188 -0.08984,0.03418 -0.19336,0.03418 -0.170898,0 -0.262695,-0.08301 -0.0918,-0.08398 -0.0918,-0.213867 0,-0.07617 0.03418,-0.138672 0.03516,-0.06348 0.09082,-0.101563 0.05664,-0.03809 0.126953,-0.05762 0.05176,-0.01367 0.15625,-0.02637 0.212891,-0.02539 0.313477,-0.06055 9.76e-4,-0.03613 9.76e-4,-0.0459 0,-0.107421 -0.0498,-0.151367 -0.06738,-0.05957 -0.200196,-0.05957 -0.124023,0 -0.183593,0.04395 -0.05859,0.04297 -0.08691,0.153321 l -0.171875,-0.02344 q 0.02344,-0.110351 0.07715,-0.177734 0.05371,-0.06836 0.155274,-0.104492 0.101562,-0.03711 0.235351,-0.03711 0.132813,0 0.21582,0.03125 0.08301,0.03125 0.122071,0.0791 0.03906,0.04687 0.05469,0.11914 0.0088,0.04492 0.0088,0.16211 v 0.234375 q 0,0.245117 0.01074,0.310547 0.01172,0.06445 0.04492,0.124023 h -0.183593 q -0.02734,-0.05469 -0.03516,-0.12793 z m -0.01465,-0.392578 q -0.0957,0.03906 -0.287109,0.06641 -0.108399,0.01563 -0.153321,0.03516 -0.04492,0.01953 -0.06934,0.05762 -0.02441,0.03711 -0.02441,0.08301 0,0.07031 0.05273,0.117187 0.05371,0.04687 0.15625,0.04687 0.101562,0 0.180664,-0.04395 0.0791,-0.04492 0.116211,-0.12207 0.02832,-0.05957 0.02832,-0.175782 z M 25.864355,15 v -1.037109 h 0.158203 v 0.157226 q 0.06055,-0.110351 0.111328,-0.145508 0.05176,-0.03516 0.113282,-0.03516 0.08887,0 0.180664,0.05664 l -0.06055,0.163086 q -0.06445,-0.03809 -0.128906,-0.03809 -0.05762,0 -0.103516,0.03516 -0.0459,0.03418 -0.06543,0.0957 -0.0293,0.09375 -0.0293,0.205078 V 15 Z m 1.896484,0 v -0.130859 q -0.09863,0.154297 -0.290039,0.154297 -0.124023,0 -0.228515,-0.06836 -0.103516,-0.06836 -0.161133,-0.19043 -0.05664,-0.123046 -0.05664,-0.282226 0,-0.155274 0.05176,-0.28125 0.05176,-0.126953 0.155274,-0.194336 0.103515,-0.06738 0.231445,-0.06738 0.09375,0 0.166992,0.04004 0.07324,0.03906 0.119141,0.102539 v -0.513672 h 0.174804 V 15 Z m -0.555664,-0.517578 q 0,0.199219 0.08398,0.297851 0.08398,0.09863 0.198242,0.09863 0.115234,0 0.195312,-0.09375 0.08105,-0.09473 0.08105,-0.288086 0,-0.21289 -0.08203,-0.3125 -0.08203,-0.09961 -0.202149,-0.09961 -0.117187,0 -0.196289,0.0957 -0.07813,0.0957 -0.07813,0.301758 z m 1.705079,0.183594 0.18164,0.02246 q -0.04297,0.159179 -0.15918,0.24707 -0.11621,0.08789 -0.296875,0.08789 -0.227539,0 -0.361328,-0.139649 -0.132812,-0.140625 -0.132812,-0.393555 0,-0.261718 0.134765,-0.40625 0.134766,-0.144531 0.34961,-0.144531 0.208008,0 0.339844,0.141602 0.131836,0.141601 0.131836,0.398437 0,0.01563 -9.77e-4,0.04687 h -0.773438 q 0.0098,0.170899 0.09668,0.261719 0.08691,0.09082 0.216797,0.09082 0.09668,0 0.165039,-0.05078 0.06836,-0.05078 0.108399,-0.162109 z m -0.577149,-0.28418 h 0.579102 q -0.01172,-0.130859 -0.06641,-0.196289 -0.08398,-0.101563 -0.217773,-0.101563 -0.121094,0 -0.204102,0.08106 -0.08203,0.08105 -0.09082,0.216797 z M 29.308691,15 v -1.431641 h 0.175781 V 15 Z m 1.125,-0.12793 q -0.09766,0.08301 -0.188477,0.117188 -0.08984,0.03418 -0.193359,0.03418 -0.170898,0 -0.262695,-0.08301 -0.0918,-0.08398 -0.0918,-0.213867 0,-0.07617 0.03418,-0.138672 0.03516,-0.06348 0.09082,-0.101563 0.05664,-0.03809 0.126953,-0.05762 0.05176,-0.01367 0.15625,-0.02637 0.212891,-0.02539 0.313477,-0.06055 9.76e-4,-0.03613 9.76e-4,-0.0459 0,-0.107421 -0.0498,-0.151367 -0.06738,-0.05957 -0.200195,-0.05957 -0.124023,0 -0.183594,0.04395 -0.05859,0.04297 -0.08691,0.153321 l -0.171875,-0.02344 q 0.02344,-0.110351 0.07715,-0.177734 0.05371,-0.06836 0.155273,-0.104492 0.101563,-0.03711 0.235352,-0.03711 0.132812,0 0.21582,0.03125 0.08301,0.03125 0.12207,0.0791 0.03906,0.04687 0.05469,0.11914 0.0088,0.04492 0.0088,0.16211 v 0.234375 q 0,0.245117 0.01074,0.310547 0.01172,0.06445 0.04492,0.124023 h -0.183594 q -0.02734,-0.05469 -0.03516,-0.12793 z m -0.01465,-0.392578 q -0.0957,0.03906 -0.28711,0.06641 -0.108398,0.01563 -0.15332,0.03516 -0.04492,0.01953 -0.06934,0.05762 -0.02441,0.03711 -0.02441,0.08301 0,0.07031 0.05273,0.117187 0.05371,0.04687 0.15625,0.04687 0.101563,0 0.180664,-0.04395 0.0791,-0.04492 0.116211,-0.12207 0.02832,-0.05957 0.02832,-0.175782 z m 0.442382,0.919922 -0.01953,-0.165039 q 0.05762,0.01563 0.100586,0.01563 0.05859,0 0.09375,-0.01953 0.03516,-0.01953 0.05762,-0.05469 0.0166,-0.02637 0.05371,-0.130859 0.0049,-0.01465 0.01563,-0.04297 l -0.393554,-1.039062 h 0.189453 l 0.21582,0.600586 q 0.04199,0.114257 0.0752,0.240234 0.03027,-0.121094 0.07227,-0.236328 l 0.22168,-0.604492 h 0.175781 l -0.394531,1.054687 q -0.06348,0.170899 -0.09863,0.235352 -0.04687,0.08691 -0.107422,0.126953 -0.06055,0.04101 -0.144531,0.04101 -0.05078,0 -0.113282,-0.02148 z"
     id="text4"
     style="font-size:2px;font-family:Arial, sans-serif;text-anchor:middle;fill:#8888aa"
     aria-label="granular delay" />
  <!-- Parameter labels - row 1 -->
  <path
     d="m 9.6492186,22 v -1.431641 h 0.4931644 q 0.166992,0 0.254882,0.02051 0.123047,0.02832 0.209961,0.102539 0.113282,0.0957 0.168946,0.245117 0.05664,0.148438 0.05664,0.339844 0,0.163086 -0.03809,0.289063 -0.03809,0.125976 -0.09766,0.208984 -0.05957,0.08203 -0.130859,0.129883 -0.07031,0.04687 -0.170899,0.07129 Q 10.295703,22 10.16582,22 Z m 0.1894531,-0.168945 h 0.3056643 q 0.141601,0 0.221679,-0.02637 0.08105,-0.02637 0.128907,-0.07422 0.06738,-0.06738 0.104492,-0.180664 0.03809,-0.114258 0.03809,-0.276368 0,-0.224609 -0.07422,-0.344726 -0.07324,-0.121094 -0.178711,-0.162109 -0.07617,-0.0293 -0.245117,-0.0293 H 9.8386717 Z M 11.097461,22 v -1.431641 h 1.035156 v 0.168946 h -0.845703 v 0.438476 h 0.791992 v 0.167969 h -0.791992 v 0.487305 H 12.16582 V 22 Z m 1.322265,0 v -1.431641 h 0.189453 v 1.262696 h 0.705079 V 22 Z m 0.962891,0 0.549805,-1.431641 h 0.204101 L 14.722461,22 H 14.50664 L 14.339648,21.566406 H 13.741015 L 13.583789,22 Z m 0.413086,-0.587891 h 0.485351 L 14.13164,21.015625 q -0.06836,-0.180664 -0.101562,-0.296875 -0.02734,0.137695 -0.07715,0.273437 z M 15.128711,22 v -0.606445 l -0.551758,-0.825196 h 0.230469 L 15.089648,21 q 0.07813,0.121094 0.145508,0.242187 0.06445,-0.112304 0.15625,-0.252929 l 0.277344,-0.420899 h 0.220703 l -0.571289,0.825196 V 22 Z"
     id="text5"
     style="font-size:2px;font-family:Arial, sans-serif;text-anchor:middle;fill:#aaaaaa"
     aria-label="DELAY" />
  <path
     d="m 35.967186,21.540039 0.178711,-0.01563 q 0.0127,0.107422 0.05859,0.176758 0.04687,0.06836 0.144531,0.111328 0.09766,0.04199 0.219726,0.04199 0.108399,0 0.191407,-0.03223 0.08301,-0.03223 0.123047,-0.08789 0.04102,-0.05664 0.04102,-0.123047 0,-0.06738 -0.03906,-0.117187 -0.03906,-0.05078 -0.128907,-0.08496 -0.05762,-0.02246 -0.254882,-0.06934 -0.197266,-0.04785 -0.276368,-0.08984 -0.102539,-0.05371 -0.15332,-0.132813 -0.0498,-0.08008 -0.0498,-0.17871 0,-0.108399 0.06152,-0.202149 0.06152,-0.09473 0.179687,-0.143555 0.118164,-0.04883 0.262696,-0.04883 0.159179,0 0.280273,0.05176 0.12207,0.05078 0.1875,0.150391 0.06543,0.09961 0.07031,0.225586 l -0.181641,0.01367 q -0.01465,-0.135743 -0.09961,-0.205079 -0.08398,-0.06934 -0.249024,-0.06934 -0.171875,0 -0.250976,0.06348 -0.07813,0.0625 -0.07813,0.151367 0,0.07715 0.05566,0.126953 0.05469,0.0498 0.285156,0.102539 0.231445,0.05176 0.317383,0.09082 0.125,0.05762 0.18457,0.146484 0.05957,0.08789 0.05957,0.203125 0,0.114258 -0.06543,0.21582 -0.06543,0.100586 -0.188477,0.157227 -0.12207,0.05566 -0.27539,0.05566 -0.194336,0 -0.326172,-0.05664 -0.13086,-0.05664 -0.206055,-0.169921 -0.07422,-0.114258 -0.07813,-0.257813 z M 37.39785,22 v -1.431641 h 0.189453 V 22 Z m 0.40918,0 v -0.175781 l 0.733398,-0.916992 q 0.07813,-0.09766 0.148438,-0.169922 h -0.798828 v -0.168946 h 1.02539 v 0.168946 l -0.803711,0.993164 -0.08691,0.100586 h 0.914063 V 22 Z m 1.339843,0 v -1.431641 h 1.035157 v 0.168946 h -0.845703 v 0.438476 h 0.791992 v 0.167969 h -0.791992 v 0.487305 h 0.878906 V 22 Z"
     id="text6"
     style="font-size:2px;font-family:Arial, sans-serif;text-anchor:middle;fill:#aaaaaa"
     aria-label="SIZE" />
  <!-- Parameter labels - row 2 -->
  <path
     d="m 10.19707,42 v -1.431641 h 0.96582 v 0.168946 h -0.776367 v 0.443359 h 0.671875 v 0.168945 H 10.386523 V 42 Z m 1.211914,0 v -1.431641 h 0.493164 q 0.166992,0 0.254883,0.02051 0.123047,0.02832 0.209961,0.102539 0.113281,0.0957 0.168945,0.245117 0.05664,0.148438 0.05664,0.339844 0,0.163086 -0.03809,0.289063 -0.03809,0.125976 -0.09766,0.208984 -0.05957,0.08203 -0.13086,0.129883 -0.07031,0.04687 -0.170898,0.07129 Q 12.055469,42 11.925586,42 Z m 0.189453,-0.168945 h 0.305664 q 0.141602,0 0.22168,-0.02637 0.08105,-0.02637 0.128906,-0.07422 0.06738,-0.06738 0.104492,-0.180664 0.03809,-0.114258 0.03809,-0.276368 0,-0.224609 -0.07422,-0.344726 -0.07324,-0.121094 -0.178711,-0.162109 -0.07617,-0.0293 -0.245117,-0.0293 H 11.598437 Z M 12.845508,42 v -1.431641 h 0.537109 q 0.164062,0 0.262695,0.04395 0.09961,0.04297 0.155274,0.133789 0.05664,0.08984 0.05664,0.188476 0,0.0918 -0.0498,0.172852 -0.04981,0.08105 -0.150391,0.130859 0.129883,0.03809 0.199219,0.129883 0.07031,0.0918 0.07031,0.216797 0,0.100586 -0.04297,0.1875 -0.04199,0.08594 -0.104493,0.132812 -0.0625,0.04687 -0.157226,0.07129 Q 13.528125,42 13.391406,42 Z m 0.189453,-0.830078 h 0.30957 q 0.125977,0 0.180664,-0.0166 0.07227,-0.02148 0.108399,-0.07129 0.03711,-0.0498 0.03711,-0.125 0,-0.07129 -0.03418,-0.125 -0.03418,-0.05469 -0.09766,-0.07422 -0.06348,-0.02051 -0.217773,-0.02051 h -0.286133 z m 0,0.661133 h 0.356445 q 0.0918,0 0.128906,-0.0068 0.06543,-0.01172 0.109375,-0.03906 0.04395,-0.02734 0.07227,-0.0791 0.02832,-0.05273 0.02832,-0.121094 0,-0.08008 -0.04101,-0.138672 -0.04102,-0.05957 -0.114258,-0.08301 -0.07227,-0.02441 -0.208985,-0.02441 H 13.034961 Z M 14.179492,42 v -1.431641 h 0.189453 v 0.709961 l 0.710938,-0.709961 h 0.256836 L 14.736133,41.148437 15.363086,42 h -0.25 L 14.60332,41.275391 14.368945,41.503906 V 42 Z"
     id="text7"
     style="font-size:2px;font-family:Arial, sans-serif;text-anchor:middle;fill:#aaaaaa"
     aria-label="FDBK" />
  <path
     d="m 35.719627,41.498047 0.189454,0.04785 q -0.05957,0.233399 -0.214844,0.356446 -0.154297,0.12207 -0.37793,0.12207 -0.231445,0 -0.376953,-0.09375 -0.144531,-0.09473 -0.220703,-0.273437 -0.0752,-0.178711 -0.0752,-0.38379 0,-0.223632 0.08496,-0.389648 0.08594,-0.166992 0.243165,-0.25293 0.158203,-0.08691 0.347656,-0.08691 0.214844,0 0.361328,0.109375 0.146484,0.109375 0.204101,0.307617 l -0.186523,0.04395 q -0.0498,-0.15625 -0.144531,-0.227539 -0.09473,-0.07129 -0.238281,-0.07129 -0.16504,0 -0.276368,0.0791 -0.110351,0.0791 -0.155273,0.212891 -0.04492,0.132812 -0.04492,0.274414 0,0.182617 0.05273,0.319336 0.05371,0.135742 0.166016,0.203125 0.112305,0.06738 0.243164,0.06738 0.15918,0 0.269531,-0.0918 0.110352,-0.0918 0.149414,-0.272461 z M 36.148338,42 v -1.431641 h 0.189453 v 0.587891 h 0.744141 v -0.587891 h 0.189453 V 42 H 37.081932 V 41.325195 H 36.337791 V 42 Z m 1.28125,0 0.549805,-1.431641 h 0.204102 L 38.769432,42 h -0.21582 L 38.38662,41.566406 H 37.787987 L 37.63076,42 Z m 0.413086,-0.587891 h 0.485352 l -0.149414,-0.396484 q -0.06836,-0.180664 -0.101563,-0.296875 -0.02734,0.137695 -0.07715,0.273437 z m 1.020508,-0.109375 q 0,-0.356445 0.191406,-0.557617 0.191407,-0.202148 0.494141,-0.202148 0.198242,0 0.357422,0.09473 0.15918,0.09473 0.242187,0.264649 0.08398,0.168945 0.08398,0.383789 0,0.217773 -0.08789,0.389648 -0.08789,0.171875 -0.249023,0.260742 -0.161133,0.08789 -0.347657,0.08789 -0.202148,0 -0.361328,-0.09766 -0.159179,-0.09766 -0.241211,-0.266602 -0.08203,-0.168945 -0.08203,-0.357422 z m 0.195313,0.0029 q 0,0.258789 0.138671,0.408203 0.139649,0.148438 0.34961,0.148438 0.213867,0 0.351562,-0.150391 0.138672,-0.150391 0.138672,-0.426758 0,-0.174804 -0.05957,-0.304687 -0.05859,-0.13086 -0.172852,-0.202149 -0.113281,-0.07227 -0.254882,-0.07227 -0.201172,0 -0.34668,0.138672 -0.144531,0.137695 -0.144531,0.460937 z m 1.353515,0.234375 0.178711,-0.01563 q 0.0127,0.107422 0.05859,0.176758 0.04687,0.06836 0.144531,0.111328 0.09766,0.04199 0.219727,0.04199 0.108398,0 0.191406,-0.03223 0.08301,-0.03223 0.123047,-0.08789 0.04102,-0.05664 0.04102,-0.123047 0,-0.06738 -0.03906,-0.117187 -0.03906,-0.05078 -0.128906,-0.08496 -0.05762,-0.02246 -0.254883,-0.06934 -0.197266,-0.04785 -0.276367,-0.08984 -0.102539,-0.05371 -0.153321,-0.132813 -0.0498,-0.08008 -0.0498,-0.17871 0,-0.108399 0.06152,-0.202149 0.06152,-0.09473 0.179688,-0.143555 0.118164,-0.04883 0.262695,-0.04883 0.15918,0 0.280273,0.05176 0.122071,0.05078 0.1875,0.150391 0.06543,0.09961 0.07031,0.225586 l -0.181641,0.01367 q -0.01465,-0.135743 -0.09961,-0.205079 -0.08398,-0.06934 -0.249024,-0.06934 -0.171875,0 -0.250976,0.06348 -0.07813,0.0625 -0.07813,0.151367 0,0.07715 0.05566,0.126953 0.05469,0.0498 0.285156,0.102539 0.231446,0.05176 0.317383,0.09082 0.125,0.05762 0.18457,0.146484 0.05957,0.08789 0.05957,0.203125 0,0.114258 -0.06543,0.21582 -0.06543,0.100586 -0.188477,0.157227 -0.12207,0.05566 -0.27539,0.05566 -0.194336,0 -0.326172,-0.05664 -0.130859,-0.05664 -0.206055,-0.169921 -0.07422,-0.114258 -0.07813,-0.257813 z"
     id="text8"
     style="font-size:2px;font-family:Arial, sans-serif;text-anchor:middle;fill:#aaaaaa"
     aria-label="CHAOS" />
  <!-- Parameter labels - row 3 -->
  <path
     d="m 11.042285,61.498047 0.189453,0.04785 q -0.05957,0.233399 -0.214844,0.356446 -0.154297,0.12207 -0.377929,0.12207 -0.231446,0 -0.376953,-0.09375 -0.144532,-0.09473 -0.220704,-0.273437 -0.075195,-0.178711 -0.075195,-0.38379 0,-0.223632 0.084961,-0.389648 0.08594,-0.166992 0.243164,-0.25293 0.158203,-0.08691 0.347656,-0.08691 0.214844,0 0.361328,0.109375 0.146485,0.109375 0.204102,0.307617 l -0.186523,0.04395 q -0.04981,-0.15625 -0.144532,-0.227539 -0.09473,-0.07129 -0.238281,-0.07129 -0.165039,0 -0.276367,0.0791 -0.110352,0.0791 -0.155274,0.212891 -0.04492,0.132812 -0.04492,0.274414 0,0.182617 0.05273,0.319336 0.05371,0.135742 0.166016,0.203125 0.112304,0.06738 0.243164,0.06738 0.159179,0 0.269531,-0.0918 0.110351,-0.0918 0.149414,-0.272461 z M 11.470996,62 v -1.431641 h 0.189453 v 0.587891 h 0.744141 v -0.587891 h 0.189453 V 62 H 12.40459 V 61.325195 H 11.660449 V 62 Z m 1.28125,0 0.549805,-1.431641 h 0.204101 L 14.09209,62 H 13.876269 L 13.709277,61.566406 H 13.110644 L 12.953418,62 Z m 0.413086,-0.587891 h 0.485351 l -0.149414,-0.396484 q -0.06836,-0.180664 -0.101562,-0.296875 -0.02734,0.137695 -0.07715,0.273437 z M 14.246387,62 v -1.431641 h 0.634765 q 0.191406,0 0.291016,0.03906 0.09961,0.03809 0.159179,0.135742 0.05957,0.09766 0.05957,0.21582 0,0.152344 -0.09863,0.256836 -0.09863,0.104492 -0.304688,0.132813 0.0752,0.03613 0.114258,0.07129 0.08301,0.07617 0.157227,0.19043 L 15.508105,62 h -0.238281 l -0.189453,-0.297852 q -0.08301,-0.128906 -0.136719,-0.197265 -0.05371,-0.06836 -0.09668,-0.0957 -0.04199,-0.02734 -0.08594,-0.03809 -0.03223,-0.0068 -0.105469,-0.0068 H 14.43584 V 62 Z m 0.189453,-0.799805 h 0.407226 q 0.129883,0 0.203125,-0.02637 0.07324,-0.02734 0.111328,-0.08594 0.03809,-0.05957 0.03809,-0.128907 0,-0.101562 -0.07422,-0.166992 -0.07324,-0.06543 -0.232422,-0.06543 H 14.43584 Z"
     id="text9"
     style="font-size:2px;font-family:Arial, sans-serif;text-anchor:middle;fill:#aaaaaa"
     aria-label="CHAR" />
  <path
     d="m 36.470604,62 v -1.431641 h 0.285156 l 0.338867,1.013672 q 0.04687,0.141602 0.06836,0.211914 0.02441,-0.07813 0.07617,-0.229492 l 0.342773,-0.996094 h 0.254883 V 62 H 37.654198 V 60.801758 L 37.238182,62 H 37.067284 L 36.653221,60.78125 V 62 Z m 1.704102,0 v -1.431641 h 0.189453 V 62 Z m 0.377929,0 0.553711,-0.746094 -0.488281,-0.685547 h 0.225586 l 0.259765,0.367188 q 0.08105,0.114258 0.115235,0.175781 0.04785,-0.07813 0.113281,-0.163086 l 0.288086,-0.379883 h 0.206055 L 39.323143,61.243164 39.865135,62 H 39.63076 l -0.360351,-0.510742 q -0.03027,-0.04395 -0.0625,-0.0957 -0.04785,0.07813 -0.06836,0.107422 L 38.780174,62 Z"
     id="text10"
     style="font-size:2px;font-family:Arial, sans-serif;text-anchor:middle;fill:#aaaaaa"
     aria-label="MIX" />
  <!-- CV section -->
  <path
     d="m 25.207959,81.548242 0.170507,0.04307 q -0.05361,0.210058 -0.193359,0.3208 -0.138867,0.109864 -0.340137,0.109864 -0.2083,0 -0.339257,-0.08438 -0.130079,-0.08525 -0.198633,-0.246094 -0.06768,-0.16084 -0.06768,-0.34541 0,-0.20127 0.07646,-0.350684 0.07734,-0.150293 0.218847,-0.227637 0.142383,-0.07822 0.312891,-0.07822 0.193359,0 0.325195,0.09844 0.131836,0.09844 0.183692,0.276856 l -0.167871,0.03955 q -0.04482,-0.140625 -0.130078,-0.204786 -0.08525,-0.06416 -0.214454,-0.06416 -0.148535,0 -0.24873,0.07119 -0.09932,0.07119 -0.139746,0.191601 -0.04043,0.119531 -0.04043,0.246973 0,0.164355 0.04746,0.287402 0.04834,0.122168 0.149414,0.182813 0.101074,0.06064 0.218848,0.06064 0.143262,0 0.242578,-0.08262 0.09932,-0.08262 0.134473,-0.245215 z M 25.956787,82 25.457568,80.711523 h 0.18457 l 0.334864,0.936036 q 0.04043,0.1125 0.06768,0.210937 0.02988,-0.105469 0.06943,-0.210937 l 0.348047,-0.936036 h 0.174023 L 26.131689,82 Z"
     id="text11"
     style="font-size:1.8px;font-family:Arial, sans-serif;text-anchor:middle;fill:#666688"
     aria-label="CV" />
  <path
     d="m 11.412402,95 v -1.07373 h 0.369873 q 0.125244,0 0.191162,0.01538 0.09228,0.02124 0.157471,0.07691 0.08496,0.07178 0.126709,0.183838 0.04248,0.111328 0.04248,0.254882 0,0.122315 -0.02856,0.216797 -0.02856,0.09448 -0.07324,0.156739 -0.04468,0.06152 -0.09814,0.09741 -0.05273,0.03516 -0.128174,0.05347 Q 11.897265,95 11.799853,95 Z m 0.14209,-0.126709 h 0.229248 q 0.106201,0 0.16626,-0.01977 0.06079,-0.01978 0.09668,-0.05566 0.05054,-0.05054 0.07837,-0.135498 0.02856,-0.08569 0.02856,-0.207276 0,-0.168457 -0.05566,-0.258545 -0.05493,-0.09082 -0.134033,-0.121582 -0.05713,-0.02197 -0.183838,-0.02197 H 11.554492 Z M 12.489795,95 v -1.07373 h 0.14209 v 0.947021 h 0.528808 V 95 Z m 1.03125,0 V 94.545166 L 13.107226,93.92627 h 0.172852 l 0.21167,0.32373 q 0.05859,0.09082 0.109131,0.181641 0.04834,-0.08423 0.117187,-0.189698 l 0.208008,-0.315673 h 0.165527 l -0.428466,0.618896 V 95 Z"
     id="text12"
     style="font-size:1.5px;font-family:Arial, sans-serif;text-anchor:middle;fill:#888888"
     aria-label="DLY" />
  <path
     d="m 24.698339,94.623535 0.14209,0.03589 q -0.04468,0.175049 -0.161133,0.267334 -0.115722,0.09155 -0.283447,0.09155 -0.173584,0 -0.282715,-0.07031 -0.108398,-0.07104 -0.165527,-0.205078 -0.0564,-0.134033 -0.0564,-0.287842 0,-0.167724 0.06372,-0.292236 0.06445,-0.125244 0.182373,-0.189697 0.118653,-0.06519 0.260742,-0.06519 0.161133,0 0.270997,0.08203 0.109863,0.08203 0.153076,0.230713 l -0.139893,0.03296 q -0.03735,-0.117187 -0.108398,-0.170654 -0.07104,-0.05347 -0.178711,-0.05347 -0.123779,0 -0.207276,0.05933 -0.08276,0.05933 -0.116455,0.159668 -0.03369,0.09961 -0.03369,0.205811 0,0.136963 0.03955,0.239502 0.04028,0.101806 0.124511,0.152343 0.08423,0.05054 0.182373,0.05054 0.119385,0 0.202149,-0.06885 0.08276,-0.06885 0.11206,-0.204346 z M 25.019873,95 v -1.07373 h 0.14209 v 0.440917 h 0.558105 V 93.92627 h 0.14209 V 95 h -0.14209 V 94.493896 H 25.161963 V 95 Z m 1.030517,-0.344971 0.134033,-0.01172 q 0.0095,0.08057 0.04395,0.132568 0.03516,0.05127 0.108398,0.0835 0.07324,0.03149 0.164795,0.03149 0.0813,0 0.143555,-0.02417 0.06226,-0.02417 0.09229,-0.06592 0.03076,-0.04248 0.03076,-0.09229 0,-0.05054 -0.0293,-0.08789 -0.0293,-0.03808 -0.09668,-0.06372 -0.04321,-0.01685 -0.191162,-0.052 -0.147949,-0.03589 -0.207275,-0.06738 -0.07691,-0.04028 -0.114991,-0.09961 -0.03735,-0.06006 -0.03735,-0.134034 0,-0.0813 0.04614,-0.151611 0.04614,-0.07104 0.134766,-0.107666 0.08862,-0.03662 0.197022,-0.03662 0.119384,0 0.210205,0.03882 0.09155,0.03809 0.140625,0.112793 0.04907,0.07471 0.05273,0.16919 l -0.13623,0.01025 q -0.01099,-0.101807 -0.07471,-0.153809 -0.06299,-0.052 -0.186768,-0.052 -0.128906,0 -0.188232,0.04761 -0.05859,0.04687 -0.05859,0.113525 0,0.05786 0.04175,0.09521 0.04102,0.03735 0.213867,0.0769 0.173584,0.03882 0.238037,0.06811 0.09375,0.04321 0.138428,0.109864 0.04468,0.06592 0.04468,0.152343 0,0.08569 -0.04907,0.161866 -0.04907,0.07544 -0.141357,0.117919 -0.09155,0.04175 -0.206543,0.04175 -0.145752,0 -0.244629,-0.04248 -0.09815,-0.04248 -0.154541,-0.127441 -0.05566,-0.08569 -0.05859,-0.19336 z"
     id="text13"
     style="font-size:1.5px;font-family:Arial, sans-serif;text-anchor:middle;fill:#888888"
     aria-label="CHS" />
  <path
     d="m 36.877953,95 v -1.07373 h 0.213867 l 0.25415,0.760253 q 0.03516,0.106202 0.05127,0.158936 0.01831,-0.05859 0.05713,-0.172119 l 0.25708,-0.74707 h 0.191162 V 95 H 37.765648 V 94.101318 L 37.453636,95 H 37.325462 L 37.014915,94.085937 V 95 Z m 1.278076,0 v -1.07373 h 0.14209 V 95 Z m 0.283447,0 0.415283,-0.55957 -0.366211,-0.51416 h 0.16919 l 0.194824,0.27539 q 0.06079,0.08569 0.08643,0.131836 0.03589,-0.05859 0.08496,-0.122314 l 0.216064,-0.284912 h 0.154541 L 39.017357,94.432373 39.423851,95 H 39.24807 l -0.270264,-0.383057 q -0.02271,-0.03296 -0.04687,-0.07178 -0.03589,0.05859 -0.05127,0.08057 L 38.61013,95 Z"
     id="text14"
     style="font-size:1.5px;font-family:Arial, sans-serif;text-anchor:middle;fill:#888888"
     aria-label="MIX" />
  <!-- Audio section -->
  <path
     d="m 22.54707,100 0.494824,-1.288477 h 0.183692 L 23.752929,100 H 23.558691 L 23.408398,99.609766 H 22.869629 L 22.728125,100 Z m 0.371777,-0.529102 h 0.436817 l -0.134473,-0.356835 q -0.06152,-0.162598 -0.09141,-0.267188 -0.02461,0.123926 -0.06943,0.246094 z m 1.815821,-0.759375 h 0.170507 v 0.744434 q 0,0.194238 -0.04395,0.308496 -0.04395,0.114258 -0.159082,0.186328 -0.114258,0.07119 -0.300586,0.07119 -0.181054,0 -0.296191,-0.0624 -0.115137,-0.0624 -0.164356,-0.180175 -0.04922,-0.118653 -0.04922,-0.323438 v -0.744434 h 0.170507 v 0.743555 q 0,0.167871 0.03076,0.247852 0.03164,0.0791 0.107227,0.122168 0.07647,0.04307 0.186328,0.04307 0.188086,0 0.268066,-0.08525 0.07998,-0.08525 0.07998,-0.327832 z M 25.189062,100 v -1.288477 h 0.443848 q 0.150293,0 0.229394,0.01846 0.110743,0.02549 0.188965,0.09229 0.101953,0.08613 0.152051,0.220605 0.05098,0.133594 0.05098,0.305859 0,0.146778 -0.03428,0.260157 -0.03428,0.113379 -0.08789,0.188086 -0.05361,0.07383 -0.117774,0.116894 -0.06328,0.04219 -0.153808,0.06416 Q 25.770898,100 25.654004,100 Z m 0.170508,-0.152051 h 0.275098 q 0.127441,0 0.199511,-0.02373 0.07295,-0.02373 0.116016,-0.0668 0.06065,-0.06065 0.09404,-0.162598 0.03428,-0.102832 0.03428,-0.24873 0,-0.202149 -0.0668,-0.310254 -0.06592,-0.108985 -0.160839,-0.145899 -0.06855,-0.02637 -0.220606,-0.02637 H 25.35957 Z M 26.517969,100 v -1.288477 h 0.170507 V 100 Z m 0.419238,-0.627539 q 0,-0.320801 0.172266,-0.501856 0.172265,-0.181933 0.444726,-0.181933 0.178418,0 0.32168,0.08525 0.143261,0.08525 0.217969,0.238183 0.07559,0.152051 0.07559,0.345411 0,0.195996 -0.0791,0.350683 -0.0791,0.154688 -0.224121,0.234668 -0.14502,0.0791 -0.312891,0.0791 -0.181933,0 -0.325195,-0.08789 -0.143262,-0.08789 -0.21709,-0.239941 -0.07383,-0.152051 -0.07383,-0.32168 z m 0.175781,0.0026 q 0,0.23291 0.124805,0.367382 0.125683,0.133594 0.314648,0.133594 0.192481,0 0.316407,-0.135351 0.124804,-0.135352 0.124804,-0.384082 0,-0.157325 -0.05361,-0.274219 -0.05273,-0.117774 -0.155566,-0.181934 -0.101954,-0.06504 -0.229395,-0.06504 -0.181055,0 -0.312012,0.124805 -0.130078,0.123926 -0.130078,0.414844 z"
     id="text15"
     style="font-size:1.8px;font-family:Arial, sans-serif;text-anchor:middle;fill:#666688"
     aria-label="AUDIO" />
  <path
     d="m 11.462207,112 v -1.07373 h 0.14209 v 0.94702 h 0.528808 V 112 Z m 1.225342,0 v -1.07373 h 0.142089 V 112 Z m 0.391113,0 v -1.07373 h 0.145752 l 0.563965,0.84302 v -0.84302 h 0.13623 V 112 h -0.145752 l -0.563965,-0.84375 V 112 Z"
     id="text16"
     style="font-size:1.5px;font-family:Arial, sans-serif;text-anchor:middle;fill:#888888"
     aria-label="L IN" />
  <path
     d="m 36.717918,112 v -1.07373 h 0.476075 q 0.143554,0 0.218261,0.0293 0.07471,0.0286 0.119385,0.1018 0.04468,0.0732 0.04468,0.16187 0,0.11426 -0.07398,0.19263 -0.07397,0.0784 -0.228515,0.0996 0.0564,0.0271 0.08569,0.0535 0.06226,0.0571 0.11792,0.14282 L 37.664207,112 h -0.17871 l -0.14209,-0.22339 q -0.06226,-0.0967 -0.102539,-0.14795 -0.04028,-0.0513 -0.07251,-0.0718 -0.03149,-0.0205 -0.06445,-0.0286 -0.02417,-0.005 -0.0791,-0.005 H 36.860008 V 112 Z m 0.14209,-0.59985 h 0.30542 q 0.09741,0 0.152344,-0.0198 0.05493,-0.0205 0.0835,-0.0644 0.02856,-0.0447 0.02856,-0.0967 0,-0.0762 -0.05566,-0.12525 -0.05493,-0.0491 -0.174316,-0.0491 H 36.860008 Z M 38.239891,112 v -1.07373 h 0.14209 V 112 Z m 0.391113,0 v -1.07373 h 0.145752 l 0.563965,0.84302 v -0.84302 h 0.136231 V 112 H 39.3312 l -0.563965,-0.84375 V 112 Z"
     id="text17"
     style="font-size:1.5px;font-family:Arial, sans-serif;text-anchor:middle;fill:#888888"
     aria-label="R IN" />
  <path
     d="m 10.629077,124 v -1.07373 h 0.14209 v 0.94702 h 0.528808 V 124 Z m 1.157959,-0.52295 q 0,-0.26733 0.143555,-0.41821 0.143554,-0.15161 0.370605,-0.15161 0.148682,0 0.268067,0.071 0.119384,0.071 0.18164,0.19849 0.06299,0.12671 0.06299,0.28784 0,0.16333 -0.06592,0.29224 -0.06592,0.1289 -0.186767,0.19555 -0.12085,0.0659 -0.260742,0.0659 -0.151612,0 -0.270996,-0.0732 -0.119385,-0.0732 -0.180909,-0.19995 -0.06152,-0.12671 -0.06152,-0.26807 z m 0.146484,0.002 q 0,0.19409 0.104004,0.30615 0.104737,0.11133 0.262207,0.11133 0.160401,0 0.263672,-0.11279 0.104004,-0.1128 0.104004,-0.32007 0,-0.13111 -0.04468,-0.22852 -0.04394,-0.0981 -0.129638,-0.15161 -0.08496,-0.0542 -0.191162,-0.0542 -0.150879,0 -0.26001,0.104 -0.108399,0.10328 -0.108399,0.34571 z m 1.768067,-0.55298 h 0.14209 v 0.62036 q 0,0.16187 -0.03662,0.25708 -0.03662,0.0952 -0.132568,0.15527 -0.09521,0.0593 -0.250488,0.0593 -0.150879,0 -0.246826,-0.052 -0.09595,-0.052 -0.136963,-0.15015 -0.04102,-0.0989 -0.04102,-0.26953 v -0.62036 h 0.14209 v 0.61963 q 0,0.13989 0.02563,0.20654 0.02637,0.0659 0.08935,0.10181 0.06372,0.0359 0.155274,0.0359 0.156738,0 0.223388,-0.071 0.06665,-0.071 0.06665,-0.27319 z M 14.353442,124 v -0.94702 h -0.35376 v -0.12671 h 0.851075 v 0.12671 H 14.495532 V 124 Z"
     id="text18"
     style="font-size:1.5px;font-family:Arial, sans-serif;text-anchor:middle;fill:#ffffff"
     aria-label="L OUT" />
  <path
     d="m 35.884789,124 v -1.07373 h 0.476074 q 0.143554,0 0.218261,0.0293 0.07471,0.0286 0.119385,0.1018 0.04468,0.0732 0.04468,0.16187 0,0.11426 -0.07397,0.19263 -0.07397,0.0784 -0.228515,0.0996 0.0564,0.0271 0.08569,0.0535 0.06226,0.0571 0.11792,0.14282 L 36.831078,124 h -0.178711 l -0.14209,-0.22339 q -0.06226,-0.0967 -0.102539,-0.14795 -0.04028,-0.0513 -0.07251,-0.0718 -0.03149,-0.0205 -0.06445,-0.0286 -0.02417,-0.005 -0.0791,-0.005 H 36.026878 V 124 Z m 0.142089,-0.59985 h 0.30542 q 0.09741,0 0.152344,-0.0198 0.05493,-0.0205 0.0835,-0.0644 0.02857,-0.0447 0.02857,-0.0967 0,-0.0762 -0.05566,-0.12525 -0.05493,-0.0491 -0.174317,-0.0491 h -0.339844 z m 1.3125,0.0769 q 0,-0.26733 0.143555,-0.41821 0.143555,-0.15161 0.370606,-0.15161 0.148681,0 0.268066,0.071 0.119385,0.071 0.181641,0.19849 0.06299,0.12671 0.06299,0.28784 0,0.16333 -0.06592,0.29224 -0.06592,0.1289 -0.186768,0.19555 -0.120849,0.0659 -0.260742,0.0659 -0.151611,0 -0.270996,-0.0732 -0.119385,-0.0732 -0.180908,-0.19995 -0.06152,-0.12671 -0.06152,-0.26807 z m 0.146485,0.002 q 0,0.19409 0.104004,0.30615 0.104736,0.11133 0.262207,0.11133 0.1604,0 0.263672,-0.11279 0.104003,-0.1128 0.104003,-0.32007 0,-0.13111 -0.04468,-0.22852 -0.04395,-0.0981 -0.129639,-0.15161 -0.08496,-0.0542 -0.191162,-0.0542 -0.150879,0 -0.26001,0.104 -0.108398,0.10328 -0.108398,0.34571 z m 1.768066,-0.55298 h 0.14209 v 0.62036 q 0,0.16187 -0.03662,0.25708 -0.03662,0.0952 -0.132568,0.15527 -0.09522,0.0593 -0.250489,0.0593 -0.150879,0 -0.246826,-0.052 -0.09595,-0.052 -0.136963,-0.15015 -0.04101,-0.0989 -0.04101,-0.26953 v -0.62036 h 0.142089 v 0.61963 q 0,0.13989 0.02564,0.20654 0.02637,0.0659 0.08936,0.10181 0.06372,0.0359 0.155273,0.0359 0.156738,0 0.223389,-0.071 0.06665,-0.071 0.06665,-0.27319 z M 39.905785,124 v -0.94702 h -0.35376 v -0.12671 h 0.851074 v 0.12671 H 40.047874 V 124 Z"
     id="text19"
     style="font-size:1.5px;font-family:Arial, sans-serif;text-anchor:middle;fill:#ffffff"
     aria-label="R OUT" />
  <!-- Brand -->
  <path
     d="m 22.093847,126.66309 v -0.10079 l 0.363867,-5.8e-4 v 0.31875 q -0.08379,0.0668 -0.172851,0.10078 -0.08906,0.0334 -0.182813,0.0334 -0.126562,0 -0.230273,-0.0539 -0.103125,-0.0545 -0.15586,-0.15703 -0.05273,-0.10254 -0.05273,-0.2291 0,-0.12539 0.05215,-0.23379 0.05273,-0.10898 0.151171,-0.16172 0.09844,-0.0527 0.226758,-0.0527 0.09316,0 0.168164,0.0305 0.07559,0.0299 0.11836,0.0838 0.04277,0.0539 0.06504,0.14063 l -0.102539,0.0281 q -0.01934,-0.0656 -0.04805,-0.10312 -0.02871,-0.0375 -0.08203,-0.0598 -0.05332,-0.0229 -0.11836,-0.0229 -0.07793,0 -0.134765,0.024 -0.05684,0.0234 -0.09199,0.0621 -0.03457,0.0387 -0.05391,0.085 -0.03281,0.0797 -0.03281,0.17285 0,0.11484 0.03926,0.19219 0.03984,0.0773 0.11543,0.11484 0.07559,0.0375 0.160547,0.0375 0.07383,0 0.144141,-0.0281 0.07031,-0.0287 0.10664,-0.0609 v -0.15996 z M 22.620605,127 v -0.85898 h 0.113672 v 0.75761 h 0.423047 V 127 Z m 0.691406,0 v -0.85898 h 0.113672 V 127 Z m 0.226758,0 0.332227,-0.44766 -0.292969,-0.41132 h 0.135351 l 0.15586,0.22031 q 0.04863,0.0686 0.06914,0.10547 0.02871,-0.0469 0.06797,-0.0979 l 0.172852,-0.22793 h 0.123633 L 24.001074,126.5459 24.326269,127 h -0.140625 l -0.216211,-0.30645 q -0.01816,-0.0264 -0.0375,-0.0574 -0.02871,0.0469 -0.04102,0.0645 L 23.675293,127 Z m 1.182422,-0.27598 0.107227,-0.009 q 0.0076,0.0644 0.03516,0.10605 0.02812,0.041 0.08672,0.0668 0.05859,0.0252 0.131835,0.0252 0.06504,0 0.114844,-0.0193 0.04981,-0.0193 0.07383,-0.0527 0.02461,-0.034 0.02461,-0.0738 0,-0.0404 -0.02344,-0.0703 -0.02344,-0.0305 -0.07734,-0.051 -0.03457,-0.0135 -0.152929,-0.0416 -0.11836,-0.0287 -0.165821,-0.0539 -0.06152,-0.0322 -0.09199,-0.0797 -0.02988,-0.048 -0.02988,-0.10722 0,-0.065 0.03692,-0.12129 0.03691,-0.0568 0.107812,-0.0861 0.0709,-0.0293 0.157617,-0.0293 0.09551,0 0.168164,0.0311 0.07324,0.0305 0.1125,0.0902 0.03926,0.0598 0.04219,0.13535 l -0.108985,0.008 q -0.0088,-0.0814 -0.05976,-0.12305 -0.05039,-0.0416 -0.149414,-0.0416 -0.103125,0 -0.150586,0.0381 -0.04687,0.0375 -0.04687,0.0908 0,0.0463 0.0334,0.0762 0.03281,0.0299 0.171094,0.0615 0.138867,0.0311 0.19043,0.0545 0.075,0.0346 0.110742,0.0879 0.03574,0.0527 0.03574,0.12187 0,0.0686 -0.03926,0.12949 -0.03926,0.0604 -0.113086,0.0943 -0.07324,0.0334 -0.165234,0.0334 -0.116602,0 -0.195703,-0.034 -0.07852,-0.034 -0.123633,-0.10195 -0.04453,-0.0686 -0.04687,-0.15469 z M 25.778808,127 v -0.75762 H 25.4958 v -0.10136 h 0.68086 v 0.10136 H 25.89248 V 127 Z m 1.078125,-0.85898 h 0.113672 v 0.49628 q 0,0.1295 -0.0293,0.20567 -0.0293,0.0762 -0.106054,0.12422 -0.07617,0.0475 -0.200391,0.0475 -0.120703,0 -0.197461,-0.0416 -0.07676,-0.0416 -0.10957,-0.12012 -0.03281,-0.0791 -0.03281,-0.21563 v -0.49628 h 0.113672 v 0.4957 q 0,0.11191 0.02051,0.16523 0.02109,0.0527 0.07148,0.0814 0.05098,0.0287 0.124219,0.0287 0.125391,0 0.178711,-0.0568 0.05332,-0.0568 0.05332,-0.21855 z M 27.159863,127 v -0.85898 h 0.295898 q 0.100196,0 0.15293,0.0123 0.07383,0.017 0.125977,0.0615 0.06797,0.0574 0.101367,0.14707 0.03398,0.0891 0.03398,0.20391 0,0.0978 -0.02285,0.17344 -0.02285,0.0756 -0.05859,0.12539 -0.03574,0.0492 -0.07852,0.0779 -0.04219,0.0281 -0.102539,0.0428 Q 27.547754,127 27.469824,127 Z m 0.113672,-0.10137 h 0.183398 q 0.08496,0 0.133008,-0.0158 0.04863,-0.0158 0.07734,-0.0445 0.04043,-0.0404 0.0627,-0.1084 0.02285,-0.0685 0.02285,-0.16582 0,-0.13476 -0.04453,-0.20683 -0.04395,-0.0727 -0.107226,-0.0973 -0.0457,-0.0176 -0.14707,-0.0176 H 27.273535 Z M 28.0458,127 v -0.85898 h 0.113672 V 127 Z m 0.279493,-0.41836 q 0,-0.21387 0.114844,-0.33457 0.114843,-0.12129 0.296484,-0.12129 0.118945,0 0.214453,0.0568 0.09551,0.0568 0.145313,0.15879 0.05039,0.10136 0.05039,0.23027 0,0.13066 -0.05273,0.23379 -0.05273,0.10312 -0.149414,0.15644 -0.09668,0.0527 -0.208594,0.0527 -0.121289,0 -0.216797,-0.0586 -0.09551,-0.0586 -0.144726,-0.15996 -0.04922,-0.10136 -0.04922,-0.21445 z m 0.117187,0.002 q 0,0.15527 0.0832,0.24492 0.08379,0.0891 0.209765,0.0891 0.12832,0 0.210938,-0.0902 0.0832,-0.0902 0.0832,-0.25606 0,-0.10488 -0.03574,-0.18281 -0.03516,-0.0785 -0.103711,-0.12129 -0.06797,-0.0434 -0.15293,-0.0434 -0.120703,0 -0.208008,0.0832 -0.08672,0.0826 -0.08672,0.27656 z"
     id="text20"
     style="font-size:1.2px;font-family:Arial, sans-serif;text-anchor:middle;fill:#444466"
     aria-label="GLIX STUDIO" />
</svg>
