<?xml version="1.0" encoding="UTF-8" standalone="no"?>
<svg
   width="50.8mm"
   height="128.5mm"
   viewBox="0 0 50.8 128.5"
   version="1.1"
   id="svg25"
   xmlns="http://www.w3.org/2000/svg"
   xmlns:svg="http://www.w3.org/2000/svg">
  <defs
     id="defs25" />
  <!-- Background -->
  <rect
     style="fill:#1a1a1a"
     width="50.8"
     height="128.5"
     x="0"
     y="0"
     id="rect1" />
  <!-- Header area -->
  <rect
     style="fill:#252525"
     width="50.8"
     height="14"
     x="0"
     y="0"
     id="rect2" />
  <!-- Blue + Red accent lines -->
  <rect
     style="fill:#0088ff"
     width="50.8"
     height="0.5"
     x="0"
     y="14"
     id="rect3" />
  <rect
     style="fill:#ff4444"
     width="50.8"
     height="0.5"
     x="0"
     y="14.5"
     id="rect4" />
  <!-- Left column background (params) -->
  <rect
     style="fill:#202020"
     width="22"
     height="100"
     x="1.7"
     y="16"
     rx="1"
     id="rect5" />
  <!-- Right column background (I/O) -->
  <rect
     style="fill:#181818"
     width="22"
     height="100"
     x="27.1"
     y="16"
     rx="1"
     id="rect6" />
  <!-- Bottom accent -->
  <rect
     style="fill:#ff4444"
     width="50.8"
     height="0.8"
     x="0"
     y="120"
     id="rect7" />
  <!-- Footer area -->
  <rect
     style="fill:#252525"
     width="50.8"
     height="7.7"
     x="0"
     y="120.8"
     id="rect8" />
  <!-- Panel border -->
  <rect
     style="fill:none;stroke:#333333;stroke-width:0.5"
     width="50.3"
     height="128"
     x="0.25"
     y="0.25"
     id="rect9" />
  <!-- Title text -->
  <path
     d="M 18.131445,5.9472656 V 5.4648437 h 1.246094 v 1.140625 q -0.181641,0.1757813 -0.527344,0.3105469 -0.34375,0.1328125 -0.697266,0.1328125 -0.449218,0 -0.783203,-0.1875 Q 17.035742,6.671875 16.867773,6.3222656 16.699804,5.9707031 16.699804,5.5585937 q 0,-0.4472656 0.1875,-0.7949218 0.1875,-0.3476563 0.548828,-0.5332032 0.275391,-0.1425781 0.685547,-0.1425781 0.533203,0 0.832032,0.2246094 0.300781,0.2226562 0.386718,0.6171875 L 18.766211,5.0371094 Q 18.705664,4.8261719 18.537695,4.7050781 18.371679,4.5820312 18.121679,4.5820312 q -0.378906,0 -0.603515,0.2402344 -0.222657,0.2402344 -0.222657,0.7128906 0,0.5097657 0.226563,0.765625 0.226562,0.2539063 0.59375,0.2539063 0.181641,0 0.363281,-0.070312 0.183594,-0.072266 0.314453,-0.1738281 V 5.9472656 Z M 19.910742,7 V 4.1367187 h 2.123047 v 0.484375 h -1.544922 v 0.6347657 h 1.4375 v 0.4824218 h -1.4375 v 0.7792969 h 1.599609 V 7 Z M 22.58457,7 V 4.1367187 h 0.5625 l 1.171875,1.9121094 V 4.1367187 h 0.537109 V 7 H 24.275976 L 23.121679,5.1328125 V 7 Z m 2.882812,0 V 4.1367187 h 2.123047 v 0.484375 h -1.544922 v 0.6347657 h 1.4375 v 0.4824218 h -1.4375 v 0.7792969 h 1.59961 V 7 Z m 2.521485,-0.9316406 0.5625,-0.054687 q 0.05078,0.2832031 0.205078,0.4160156 0.15625,0.1328125 0.419922,0.1328125 0.279297,0 0.419922,-0.1171875 0.142578,-0.1191406 0.142578,-0.2773438 0,-0.1015625 -0.06055,-0.171875 -0.05859,-0.072266 -0.207031,-0.125 -0.101563,-0.035156 -0.462891,-0.125 -0.464844,-0.1152343 -0.652344,-0.2832031 -0.263672,-0.2363281 -0.263672,-0.5761719 0,-0.21875 0.123047,-0.4082031 0.125,-0.1914062 0.357422,-0.2910156 0.234375,-0.099609 0.564453,-0.099609 0.539063,0 0.810547,0.2363281 0.273438,0.2363282 0.28711,0.6308594 l -0.578125,0.025391 q -0.03711,-0.2207031 -0.160157,-0.3164062 -0.121093,-0.097656 -0.365234,-0.097656 -0.251953,0 -0.394531,0.1035157 -0.0918,0.066406 -0.0918,0.1777343 0,0.1015625 0.08594,0.1738282 0.109375,0.091797 0.53125,0.1914062 0.421875,0.099609 0.623047,0.2070313 0.203125,0.1054687 0.316406,0.2910156 0.115235,0.1835937 0.115235,0.4550781 0,0.2460938 -0.136719,0.4609375 -0.136719,0.2148438 -0.386719,0.3203125 -0.25,0.1035156 -0.623047,0.1035156 -0.542968,0 -0.833984,-0.25 Q 28.045507,6.5488281 27.988867,6.0683594 Z M 30.785742,7 V 4.1367187 h 0.578125 V 7 Z m 0.982422,-0.9316406 0.5625,-0.054687 q 0.05078,0.2832031 0.205078,0.4160156 0.15625,0.1328125 0.419922,0.1328125 0.279297,0 0.419922,-0.1171875 0.142578,-0.1191406 0.142578,-0.2773438 0,-0.1015625 -0.06055,-0.171875 -0.05859,-0.072266 -0.207031,-0.125 -0.101563,-0.035156 -0.462891,-0.125 -0.464844,-0.1152343 -0.652344,-0.2832031 -0.263672,-0.2363281 -0.263672,-0.5761719 0,-0.21875 0.123047,-0.4082031 0.125,-0.1914062 0.357422,-0.2910156 0.234375,-0.099609 0.564453,-0.099609 0.539063,0 0.810547,0.2363281 0.273438,0.2363282 0.287109,0.6308594 l -0.578125,0.025391 q -0.03711,-0.2207031 -0.160156,-0.3164062 -0.121094,-0.097656 -0.365234,-0.097656 -0.251953,0 -0.394531,0.1035157 -0.0918,0.066406 -0.0918,0.1777343 0,0.1015625 0.08594,0.1738282 0.109375,0.091797 0.53125,0.1914062 0.421875,0.099609 0.623047,0.2070313 0.203125,0.1054687 0.316406,0.2910156 0.115235,0.1835937 0.115235,0.4550781 0,0.2460938 -0.136719,0.4609375 -0.136719,0.2148438 -0.386719,0.3203125 -0.25,0.1035156 -0.623047,0.1035156 -0.542968,0 -0.833984,-0.25 -0.291016,-0.2519531 -0.347656,-0.7324218 z"
     id="text9"
     style="font-weight:bold;font-size:4px;font-family:Arial;text-anchor:middle;fill:#ffffff"
     aria-label="GENESIS" />
  <path
     d="M 22.350683,11 V 9.2104492 h 0.675049 q 0.178223,0 0.272217,0.01709 0.131836,0.021973 0.220947,0.084229 0.08911,0.061035 0.142822,0.1721191 0.05493,0.111084 0.05493,0.2441406 0,0.2282715 -0.145264,0.3869627 -0.145263,0.157471 -0.524902,0.157471 H 22.5875 V 11 Z M 22.5875,10.061279 h 0.462646 q 0.229492,0 0.325928,-0.085449 0.09643,-0.085449 0.09643,-0.2404785 0,-0.1123047 -0.05737,-0.1916504 Q 23.358984,9.4631348 23.266211,9.4375 23.206396,9.4216309 23.045263,9.4216309 H 22.5875 Z m 1.358642,0.06714 q 0,-0.4455567 0.239258,-0.6970215 0.239258,-0.2526856 0.617676,-0.2526856 0.247803,0 0.446777,0.1184082 0.198975,0.1184082 0.302735,0.3308106 0.10498,0.2111816 0.10498,0.4797363 0,0.272217 -0.109863,0.487061 -0.109864,0.214843 -0.31128,0.325927 -0.201416,0.109864 -0.43457,0.109864 -0.252685,0 -0.45166,-0.122071 -0.198975,-0.12207 -0.301514,-0.333252 -0.102539,-0.211181 -0.102539,-0.446777 z m 0.244141,0.0037 q 0,0.323486 0.17334,0.510254 0.17456,0.185547 0.437011,0.185547 0.267334,0 0.439454,-0.187988 0.173339,-0.187989 0.173339,-0.533448 0,-0.2185055 -0.07446,-0.3808591 -0.07324,-0.1635742 -0.216064,-0.2526855 -0.141602,-0.090332 -0.318604,-0.090332 -0.251464,0 -0.433349,0.1733398 -0.180664,0.1721191 -0.180664,0.5761718 z M 25.952978,11 V 9.2104492 h 0.236817 v 1.5783688 h 0.881347 V 11 Z m 1.71875,0 V 10.241943 L 26.982031,9.2104492 h 0.288086 L 27.6229,9.75 q 0.09766,0.1513672 0.181885,0.302734 0.08057,-0.1403805 0.195312,-0.3161617 l 0.34668,-0.5261231 h 0.275879 L 27.908545,10.241943 V 11 Z"
     id="text10"
     style="font-size:2.5px;font-family:Arial;text-anchor:middle;fill:#ff6666"
     aria-label="POLY" />
  <!-- Left column labels -->
  <path
     d="m 10.08623,19 v -1.431641 h 0.965821 v 0.168946 h -0.776368 v 0.443359 h 0.671875 v 0.168945 H 10.275683 V 19 Z m 1.214844,0 v -1.431641 h 0.634766 q 0.191406,0 0.291015,0.03906 0.09961,0.03809 0.15918,0.135742 0.05957,0.09766 0.05957,0.21582 0,0.152344 -0.09863,0.256836 -0.09863,0.104492 -0.304687,0.132813 0.0752,0.03613 0.114258,0.07129 0.08301,0.07617 0.157226,0.19043 L 12.562793,19 h -0.238281 l -0.189454,-0.297852 q -0.08301,-0.128906 -0.136718,-0.197265 -0.05371,-0.06836 -0.09668,-0.0957 -0.04199,-0.02734 -0.08594,-0.03809 -0.03223,-0.0068 -0.105468,-0.0068 H 11.490527 V 19 Z m 0.189453,-0.799805 h 0.407227 q 0.129883,0 0.203125,-0.02637 0.07324,-0.02734 0.111328,-0.08594 0.03809,-0.05957 0.03809,-0.128907 0,-0.101562 -0.07422,-0.166992 -0.07324,-0.06543 -0.232422,-0.06543 H 11.490527 Z M 12.746387,19 v -1.431641 h 1.035156 v 0.168946 H 12.93584 v 0.438476 h 0.791992 V 18.34375 H 12.93584 v 0.487305 h 0.878906 V 19 Z m 2.415039,-0.15332 q 0.131836,0.09082 0.243164,0.132812 l -0.05566,0.131836 q -0.154297,-0.05566 -0.307618,-0.175781 -0.159179,0.08887 -0.351562,0.08887 -0.194336,0 -0.352539,-0.09375 -0.158203,-0.09375 -0.244141,-0.263672 -0.08496,-0.169922 -0.08496,-0.382812 0,-0.211914 0.08594,-0.385743 0.08594,-0.173828 0.24414,-0.264648 0.15918,-0.09082 0.355469,-0.09082 0.198242,0 0.357422,0.09473 0.15918,0.09375 0.242188,0.263672 0.08398,0.168945 0.08398,0.381836 0,0.176758 -0.05371,0.318359 -0.05371,0.140625 -0.162109,0.245118 z m -0.416993,-0.242188 q 0.164063,0.0459 0.270508,0.136719 0.166992,-0.152344 0.166992,-0.458008 0,-0.173828 -0.05957,-0.303711 -0.05859,-0.129883 -0.172851,-0.201172 -0.113282,-0.07227 -0.254883,-0.07227 -0.211914,0 -0.351563,0.145507 -0.139648,0.144532 -0.139648,0.432618 0,0.279297 0.137695,0.428711 0.138672,0.149414 0.353516,0.149414 0.101562,0 0.191406,-0.03809 -0.08887,-0.05762 -0.1875,-0.08203 z"
     id="text11"
     style="font-size:2px;font-family:Arial;text-anchor:middle;fill:#aaaaaa"
     aria-label="FREQ" />
  <path
     d="m 10.58623,34 v -1.431641 h 0.965821 v 0.168946 h -0.776368 v 0.443359 h 0.671875 v 0.168945 H 10.775683 V 34 Z m 1.244141,0 v -1.431641 h 0.189453 V 34 Z m 0.521484,0 v -1.431641 h 0.194336 l 0.751953,1.124024 v -1.124024 h 0.181641 V 34 H 13.285449 L 12.533496,32.875 V 34 Z m 1.450196,0 v -1.431641 h 1.035156 v 0.168946 h -0.845703 v 0.438476 h 0.791992 v 0.167969 h -0.791992 v 0.487305 H 14.87041 V 34 Z"
     id="text12"
     style="font-size:2px;font-family:Arial;text-anchor:middle;fill:#aaaaaa"
     aria-label="FINE" />
  <path
     d="M 10.270801,47 9.8909178,45.568359 h 0.1943362 l 0.217773,0.938477 q 0.03516,0.147461 0.06055,0.292969 0.05469,-0.229493 0.06445,-0.264649 l 0.272461,-0.966797 h 0.228516 l 0.205078,0.72461 q 0.07715,0.269531 0.111328,0.506836 0.02734,-0.135743 0.07129,-0.311524 l 0.224609,-0.919922 h 0.19043 L 11.33916,47 h -0.182617 l -0.301758,-1.09082 q -0.03809,-0.136719 -0.04492,-0.167969 -0.02246,0.09863 -0.04199,0.167969 L 10.46416,47 Z m 1.40625,0 0.549804,-1.431641 h 0.204102 L 13.016894,47 h -0.21582 L 12.634082,46.566406 H 12.035449 L 11.878222,47 Z m 0.413086,-0.587891 h 0.485351 l -0.149414,-0.396484 q -0.06836,-0.180664 -0.101562,-0.296875 -0.02734,0.137695 -0.07715,0.273437 z M 13.429004,47 12.874316,45.568359 h 0.205078 l 0.372071,1.040039 q 0.04492,0.125 0.07519,0.234375 0.0332,-0.117187 0.07715,-0.234375 l 0.386719,-1.040039 h 0.19336 L 13.62334,47 Z m 0.928711,0 v -1.431641 h 1.035156 v 0.168946 h -0.845703 v 0.438476 h 0.791992 v 0.167969 h -0.791992 v 0.487305 h 0.878906 V 47 Z"
     id="text13"
     style="font-size:2px;font-family:Arial;text-anchor:middle;fill:#aaaaaa"
     aria-label="WAVE" />
  <path
     d="m 11.243457,60 v -1.431641 h 0.540039 q 0.142578,0 0.217773,0.01367 0.105469,0.01758 0.176758,0.06738 0.07129,0.04883 0.114258,0.137695 0.04395,0.08887 0.04395,0.195313 0,0.182617 -0.116211,0.30957 -0.116211,0.125977 -0.419922,0.125977 H 11.43291 V 60 Z m 0.189453,-0.750977 h 0.370117 q 0.183594,0 0.260742,-0.06836 0.07715,-0.06836 0.07715,-0.192383 0,-0.08984 -0.0459,-0.15332 -0.04492,-0.06445 -0.11914,-0.08496 -0.04785,-0.0127 -0.176758,-0.0127 H 11.43291 Z M 12.827441,60 12.447558,58.568359 h 0.194336 l 0.217774,0.938477 q 0.03516,0.147461 0.06055,0.292969 0.05469,-0.229493 0.06445,-0.264649 l 0.272461,-0.966797 h 0.228515 l 0.205078,0.72461 q 0.07715,0.269531 0.111329,0.506836 0.02734,-0.135743 0.07129,-0.311524 l 0.224609,-0.919922 h 0.19043 L 13.895801,60 h -0.182618 l -0.301757,-1.09082 q -0.03809,-0.136719 -0.04492,-0.167969 -0.02246,0.09863 -0.04199,0.167969 L 13.020801,60 Z"
     id="text14"
     style="font-size:2px;font-family:Arial;text-anchor:middle;fill:#aaaaaa"
     aria-label="PW" />
  <path
     d="m 10.623828,73 v -1.431641 h 0.537109 q 0.164063,0 0.262696,0.04395 0.09961,0.04297 0.155273,0.133789 0.05664,0.08984 0.05664,0.188476 0,0.0918 -0.04981,0.172852 -0.0498,0.08106 -0.150391,0.130859 0.129883,0.03809 0.199219,0.129883 0.07031,0.0918 0.07031,0.216797 0,0.100586 -0.04297,0.1875 -0.04199,0.08594 -0.104492,0.132812 -0.0625,0.04687 -0.157227,0.07129 Q 11.306445,73 11.169726,73 Z m 0.189453,-0.830078 h 0.30957 q 0.125977,0 0.180664,-0.0166 0.07227,-0.02148 0.108399,-0.07129 0.03711,-0.0498 0.03711,-0.125 0,-0.07129 -0.03418,-0.125 -0.03418,-0.05469 -0.09766,-0.07422 -0.06348,-0.02051 -0.217773,-0.02051 h -0.286133 z m 0,0.661133 h 0.356445 q 0.0918,0 0.128907,-0.0068 0.06543,-0.01172 0.109375,-0.03906 0.04394,-0.02734 0.07226,-0.0791 0.02832,-0.05274 0.02832,-0.121094 0,-0.08008 -0.04102,-0.138672 -0.04102,-0.05957 -0.114258,-0.08301 -0.07227,-0.02441 -0.208984,-0.02441 H 10.813281 Z M 11.997851,73 v -1.431641 h 0.189453 V 73 Z m 0.887696,0 v -1.262695 h -0.47168 v -0.168946 h 1.134766 v 0.168946 H 13.075 V 73 Z m 0.792968,-0.459961 0.178711,-0.01563 q 0.0127,0.107422 0.05859,0.176758 0.04687,0.06836 0.144531,0.111328 0.09766,0.04199 0.219727,0.04199 0.108398,0 0.191406,-0.03223 0.08301,-0.03223 0.123047,-0.08789 0.04102,-0.05664 0.04102,-0.123047 0,-0.06738 -0.03906,-0.117187 -0.03906,-0.05078 -0.128906,-0.08496 -0.05762,-0.02246 -0.254883,-0.06934 -0.197266,-0.04785 -0.276367,-0.08984 -0.102539,-0.05371 -0.15332,-0.132813 -0.04981,-0.08008 -0.04981,-0.17871 0,-0.108399 0.06152,-0.202149 0.06152,-0.09473 0.179688,-0.143555 0.118164,-0.04883 0.262695,-0.04883 0.15918,0 0.280274,0.05176 0.12207,0.05078 0.1875,0.150391 0.06543,0.09961 0.07031,0.225586 l -0.181641,0.01367 q -0.01465,-0.135743 -0.09961,-0.205079 -0.08398,-0.06934 -0.249023,-0.06934 -0.171875,0 -0.250977,0.06348 -0.07813,0.0625 -0.07813,0.151367 0,0.07715 0.05566,0.126953 0.05469,0.0498 0.285156,0.102539 0.231446,0.05176 0.317383,0.09082 0.125,0.05762 0.184571,0.146484 0.05957,0.08789 0.05957,0.203125 0,0.114258 -0.06543,0.21582 -0.06543,0.100586 -0.188476,0.157227 -0.122071,0.05566 -0.275391,0.05566 -0.194336,0 -0.326172,-0.05664 -0.130859,-0.05664 -0.206055,-0.169921 -0.07422,-0.114258 -0.07813,-0.257813 z"
     id="text15"
     style="font-size:2px;font-family:Arial;text-anchor:middle;fill:#aaaaaa"
     aria-label="BITS" />
  <path
     d="m 10.264453,86 v -1.431641 h 0.634766 q 0.191406,0 0.291015,0.03906 0.09961,0.03809 0.15918,0.135742 0.05957,0.09766 0.05957,0.21582 0,0.152344 -0.09863,0.256836 -0.09863,0.104492 -0.304687,0.132813 0.0752,0.03613 0.114258,0.07129 0.08301,0.07617 0.157226,0.19043 L 11.526172,86 H 11.28789 l -0.189453,-0.297852 q -0.08301,-0.128906 -0.136718,-0.197265 -0.05371,-0.06836 -0.09668,-0.0957 -0.04199,-0.02734 -0.08594,-0.03809 -0.03223,-0.0068 -0.105468,-0.0068 H 10.453906 V 86 Z m 0.189453,-0.799805 h 0.407227 q 0.129882,0 0.203125,-0.02637 0.07324,-0.02734 0.111328,-0.08594 0.03809,-0.05957 0.03809,-0.128907 0,-0.101562 -0.07422,-0.166992 -0.07324,-0.06543 -0.232422,-0.06543 H 10.453906 Z M 11.548633,86 12.098437,84.568359 h 0.204102 L 12.888476,86 h -0.21582 L 12.505664,85.566406 H 11.907031 L 11.749804,86 Z m 0.413086,-0.587891 h 0.485351 l -0.149414,-0.396484 q -0.06836,-0.180664 -0.101562,-0.296875 -0.02734,0.137695 -0.07715,0.273437 z M 13.255664,86 v -1.262695 h -0.47168 v -0.168946 h 1.134766 v 0.168946 H 13.445117 V 86 Z m 0.861328,0 v -1.431641 h 1.035156 v 0.168946 h -0.845703 v 0.438476 h 0.791992 v 0.167969 h -0.791992 v 0.487305 h 0.878906 V 86 Z"
     id="text16"
     style="font-size:2px;font-family:Arial;text-anchor:middle;fill:#aaaaaa"
     aria-label="RATE" />
  <path
     d="m 9.0867186,99 v -1.431641 h 0.9658204 v 0.168946 H 9.2761717 v 0.443359 h 0.671875 v 0.168945 H 9.2761717 V 99 Z m 1.2060544,0 v -1.431641 h 0.285156 l 0.338868,1.013672 q 0.04687,0.141602 0.06836,0.211914 0.02441,-0.07813 0.07617,-0.229492 l 0.342773,-0.996094 h 0.254883 V 99 H 11.476367 V 97.801758 L 11.060351,99 H 10.889453 L 10.47539,97.78125 V 99 Z m 1.959961,0 0.549805,-1.431641 H 13.00664 L 13.592578,99 h -0.21582 L 13.209765,98.566406 H 12.611133 L 12.453906,99 Z m 0.413086,-0.587891 h 0.485352 l -0.149414,-0.396484 q -0.06836,-0.180664 -0.101563,-0.296875 -0.02734,0.137695 -0.07715,0.273437 z M 13.738086,99 v -1.431641 h 0.285156 l 0.338867,1.013672 q 0.04687,0.141602 0.06836,0.211914 0.02441,-0.07813 0.07617,-0.229492 l 0.342774,-0.996094 h 0.254883 V 99 H 14.921679 V 97.801758 L 14.505664,99 H 14.334765 L 13.920703,97.78125 V 99 Z m 2.036133,0 v -1.262695 h -0.47168 v -0.168946 h 1.134765 v 0.168946 H 15.963672 V 99 Z"
     id="text17"
     style="font-size:2px;font-family:Arial;text-anchor:middle;fill:#aaaaaa"
     aria-label="FM AMT" />
  <path
     d="m 9.8757811,112 v -1.43164 h 0.6347659 q 0.191406,0 0.291015,0.0391 0.09961,0.0381 0.15918,0.13574 0.05957,0.0977 0.05957,0.21582 0,0.15235 -0.09863,0.25684 -0.09863,0.10449 -0.304687,0.13281 0.0752,0.0361 0.114258,0.0713 0.08301,0.0762 0.157226,0.19043 L 11.1375,112 h -0.238281 l -0.189454,-0.29785 q -0.08301,-0.12891 -0.136718,-0.19727 -0.05371,-0.0684 -0.09668,-0.0957 -0.04199,-0.0273 -0.08594,-0.0381 -0.03223,-0.007 -0.105468,-0.007 H 10.065234 V 112 Z m 0.1894529,-0.7998 h 0.407227 q 0.129883,0 0.203125,-0.0264 0.07324,-0.0273 0.111328,-0.0859 0.03809,-0.0596 0.03809,-0.12891 0,-0.10156 -0.07422,-0.16699 -0.07324,-0.0654 -0.232422,-0.0654 h -0.453125 z m 1.094727,0.7998 0.549804,-1.43164 h 0.204102 L 12.499804,112 h -0.21582 l -0.166992,-0.43359 H 11.518359 L 11.361133,112 Z m 0.413086,-0.58789 h 0.485351 l -0.149414,-0.39648 q -0.06836,-0.18067 -0.101562,-0.29688 -0.02734,0.1377 -0.07715,0.27344 z M 12.866992,112 v -1.2627 h -0.47168 v -0.16894 h 1.134766 v 0.16894 H 13.056445 V 112 Z m 0.889648,0 v -1.43164 h 0.189454 V 112 Z m 0.465821,-0.69727 q 0,-0.35644 0.191406,-0.55761 0.191406,-0.20215 0.494141,-0.20215 0.198242,0 0.357421,0.0947 0.15918,0.0947 0.242188,0.26464 0.08398,0.16895 0.08398,0.38379 0,0.21778 -0.08789,0.38965 -0.08789,0.17188 -0.249024,0.26074 -0.161133,0.0879 -0.347656,0.0879 -0.202148,0 -0.361328,-0.0977 -0.15918,-0.0977 -0.241211,-0.2666 -0.08203,-0.16895 -0.08203,-0.35743 z m 0.195312,0.003 q 0,0.25879 0.138672,0.40821 0.139649,0.14843 0.349609,0.14843 0.213868,0 0.351563,-0.15039 0.138672,-0.15039 0.138672,-0.42675 0,-0.17481 -0.05957,-0.30469 -0.05859,-0.13086 -0.172852,-0.20215 -0.113281,-0.0723 -0.254883,-0.0723 -0.201172,0 -0.34668,0.13868 -0.144531,0.13769 -0.144531,0.46093 z"
     id="text18"
     style="font-size:2px;font-family:Arial;text-anchor:middle;fill:#aaaaaa"
     aria-label="RATIO" />
  <!-- Right column labels -->
  <path
     d="m 35.133202,19 v -1.431641 h 0.189453 v 1.262696 h 0.705078 V 19 Z m 1.124023,0 v -1.431641 h 1.035156 v 0.168946 h -0.845703 v 0.438476 h 0.791992 v 0.167969 h -0.791992 v 0.487305 h 0.878906 V 19 Z m 1.739258,0 -0.554688,-1.431641 h 0.205078 l 0.372071,1.040039 q 0.04492,0.125 0.0752,0.234375 0.0332,-0.117187 0.07715,-0.234375 l 0.386718,-1.040039 h 0.19336 L 38.190819,19 Z m 0.928711,0 v -1.431641 h 1.035156 v 0.168946 h -0.845703 v 0.438476 h 0.791992 v 0.167969 h -0.791992 v 0.487305 h 0.878906 V 19 Z m 1.322265,0 v -1.431641 h 0.189454 v 1.262696 h 0.705078 V 19 Z"
     id="text19"
     style="font-size:2px;font-family:Arial;text-anchor:middle;fill:#aaaaaa"
     aria-label="LEVEL" />
  <path
     d="m 35.607811,34 -0.554688,-1.431641 h 0.205079 l 0.37207,1.040039 q 0.04492,0.125 0.0752,0.234375 0.0332,-0.117187 0.07715,-0.234375 l 0.386718,-1.040039 h 0.19336 L 35.802147,34 Z m 0.770508,0.02441 0.415039,-1.480469 h 0.140625 l -0.414063,1.480469 z m 0.652344,-0.72168 q 0,-0.356445 0.191406,-0.557617 0.191406,-0.202148 0.49414,-0.202148 0.198243,0 0.357422,0.09473 0.15918,0.09473 0.242188,0.264649 0.08398,0.168945 0.08398,0.383789 0,0.217773 -0.08789,0.389648 -0.08789,0.171875 -0.249024,0.260742 -0.161133,0.08789 -0.347656,0.08789 -0.202149,0 -0.361328,-0.09766 -0.15918,-0.09766 -0.241211,-0.266602 -0.08203,-0.168945 -0.08203,-0.357422 z m 0.195312,0.0029 q 0,0.258789 0.138672,0.408203 0.139648,0.148438 0.349609,0.148438 0.213867,0 0.351563,-0.150391 0.138672,-0.150391 0.138672,-0.426758 0,-0.174804 -0.05957,-0.304687 -0.05859,-0.13086 -0.172851,-0.202149 -0.113281,-0.07227 -0.254883,-0.07227 -0.201172,0 -0.34668,0.138672 -0.144531,0.137695 -0.144531,0.460937 z m 2.439453,0.192383 0.189453,0.04785 q -0.05957,0.233399 -0.214843,0.356446 -0.154297,0.12207 -0.37793,0.12207 -0.231445,0 -0.376953,-0.09375 -0.144532,-0.09473 -0.220703,-0.273437 -0.0752,-0.178711 -0.0752,-0.38379 0,-0.223632 0.08496,-0.389648 0.08594,-0.166992 0.243164,-0.25293 0.158203,-0.08691 0.347657,-0.08691 0.214843,0 0.361328,0.109375 0.146484,0.109375 0.204101,0.307617 l -0.186523,0.04395 q -0.0498,-0.15625 -0.144531,-0.227539 -0.09473,-0.07129 -0.238282,-0.07129 -0.165039,0 -0.276367,0.0791 -0.110351,0.0791 -0.155273,0.212891 -0.04492,0.132812 -0.04492,0.274414 0,0.182617 0.05273,0.319336 0.05371,0.135742 0.166016,0.203125 0.112304,0.06738 0.243164,0.06738 0.15918,0 0.269531,-0.0918 0.110352,-0.0918 0.149414,-0.272461 z M 40.452538,34 v -1.262695 h -0.47168 v -0.168946 h 1.134765 v 0.168946 H 40.641991 V 34 Z"
     id="text20"
     style="font-size:2px;font-family:Arial;text-anchor:middle;fill:#aaaaaa"
     aria-label="V/OCT" />
  <path
     d="m 36.820213,47 v -1.431641 h 0.965821 v 0.168946 h -0.776368 v 0.443359 h 0.671875 v 0.168945 H 37.009666 V 47 Z m 1.206055,0 v -1.431641 h 0.285156 l 0.338867,1.013672 q 0.04687,0.141602 0.06836,0.211914 0.02441,-0.07813 0.07617,-0.229492 l 0.342773,-0.996094 h 0.254883 V 47 H 39.209862 V 45.801758 L 38.793846,47 H 38.622948 L 38.208885,45.78125 V 47 Z"
     id="text21"
     style="font-size:2px;font-family:Arial;text-anchor:middle;fill:#aaaaaa"
     aria-label="FM" />
  <path
     d="m 35.411522,59.540039 0.178711,-0.01563 q 0.0127,0.107422 0.05859,0.176758 0.04687,0.06836 0.144531,0.111328 0.09766,0.04199 0.219726,0.04199 0.108399,0 0.191407,-0.03223 0.08301,-0.03223 0.123047,-0.08789 0.04102,-0.05664 0.04102,-0.123047 0,-0.06738 -0.03906,-0.117187 -0.03906,-0.05078 -0.128907,-0.08496 -0.05762,-0.02246 -0.254882,-0.06934 -0.197266,-0.04785 -0.276368,-0.08984 -0.102539,-0.05371 -0.15332,-0.132813 -0.0498,-0.08008 -0.0498,-0.17871 0,-0.108399 0.06152,-0.202149 0.06152,-0.09473 0.179687,-0.143555 0.118164,-0.04883 0.262696,-0.04883 0.159179,0 0.280273,0.05176 0.12207,0.05078 0.1875,0.150391 0.06543,0.09961 0.07031,0.225586 l -0.181641,0.01367 q -0.01465,-0.135743 -0.09961,-0.205079 -0.08398,-0.06934 -0.249024,-0.06934 -0.171875,0 -0.250976,0.06348 -0.07813,0.0625 -0.07813,0.151367 0,0.07715 0.05566,0.126953 0.05469,0.0498 0.285156,0.102539 0.231445,0.05176 0.317383,0.09082 0.125,0.05762 0.18457,0.146484 0.05957,0.08789 0.05957,0.203125 0,0.114258 -0.06543,0.21582 -0.06543,0.100586 -0.188477,0.157227 -0.12207,0.05566 -0.275391,0.05566 -0.194335,0 -0.326171,-0.05664 -0.13086,-0.05664 -0.206055,-0.169921 -0.07422,-0.114258 -0.07813,-0.257813 z M 37.21328,60 v -0.606445 l -0.551758,-0.825196 h 0.230469 L 37.174217,59 q 0.07813,0.121094 0.145508,0.242187 0.06445,-0.112304 0.15625,-0.252929 l 0.277344,-0.420899 h 0.220703 l -0.571289,0.825196 V 60 Z m 0.928711,0 v -1.431641 h 0.194336 l 0.751953,1.124024 v -1.124024 h 0.18164 V 60 H 39.075584 L 38.323631,58.875 V 60 Z m 2.467773,-0.501953 0.189453,0.04785 q -0.05957,0.233399 -0.214844,0.356446 -0.154296,0.12207 -0.377929,0.12207 -0.231446,0 -0.376953,-0.09375 -0.144532,-0.09473 -0.220703,-0.273437 -0.0752,-0.178711 -0.0752,-0.38379 0,-0.223632 0.08496,-0.389648 0.08594,-0.166992 0.243164,-0.25293 0.158203,-0.08691 0.347656,-0.08691 0.214844,0 0.361329,0.109375 0.146484,0.109375 0.204101,0.307617 l -0.186523,0.04395 q -0.0498,-0.15625 -0.144532,-0.227539 -0.09473,-0.07129 -0.238281,-0.07129 -0.165039,0 -0.276367,0.0791 -0.110352,0.0791 -0.155273,0.212891 -0.04492,0.132812 -0.04492,0.274414 0,0.182617 0.05273,0.319336 0.05371,0.135742 0.166016,0.203125 0.112304,0.06738 0.243164,0.06738 0.159179,0 0.269531,-0.0918 0.110352,-0.0918 0.149414,-0.272461 z"
     id="text22"
     style="font-size:2px;font-family:Arial;text-anchor:middle;fill:#aaaaaa"
     aria-label="SYNC" />
  <path
     d="m 36.023827,73 v -1.431641 h 0.537109 q 0.164062,0 0.262695,0.04395 0.09961,0.04297 0.155274,0.133789 0.05664,0.08984 0.05664,0.188476 0,0.0918 -0.0498,0.172852 -0.0498,0.08106 -0.150391,0.130859 0.129883,0.03809 0.199219,0.129883 0.07031,0.0918 0.07031,0.216797 0,0.100586 -0.04297,0.1875 -0.04199,0.08594 -0.104493,0.132812 -0.0625,0.04687 -0.157226,0.07129 Q 36.706444,73 36.569725,73 Z m 0.189453,-0.830078 h 0.30957 q 0.125977,0 0.180664,-0.0166 0.07227,-0.02148 0.108399,-0.07129 0.03711,-0.0498 0.03711,-0.125 0,-0.07129 -0.03418,-0.125 -0.03418,-0.05469 -0.09766,-0.07422 -0.06348,-0.02051 -0.217773,-0.02051 H 36.21328 Z m 0,0.661133 h 0.356445 q 0.0918,0 0.128906,-0.0068 0.06543,-0.01172 0.109375,-0.03906 0.04395,-0.02734 0.07227,-0.0791 0.02832,-0.05274 0.02832,-0.121094 0,-0.08008 -0.04102,-0.138672 -0.04102,-0.05957 -0.114258,-0.08301 -0.07227,-0.02441 -0.208985,-0.02441 H 36.21328 Z M 37.39785,73 v -1.431641 h 0.189453 V 73 Z m 0.887695,0 v -1.262695 h -0.471679 v -0.168946 h 1.134765 v 0.168946 H 38.474998 V 73 Z m 0.792969,-0.459961 0.178711,-0.01563 q 0.0127,0.107422 0.05859,0.176758 0.04687,0.06836 0.144531,0.111328 0.09766,0.04199 0.219727,0.04199 0.108398,0 0.191406,-0.03223 0.08301,-0.03223 0.123047,-0.08789 0.04102,-0.05664 0.04102,-0.123047 0,-0.06738 -0.03906,-0.117187 -0.03906,-0.05078 -0.128906,-0.08496 -0.05762,-0.02246 -0.254883,-0.06934 -0.197266,-0.04785 -0.276367,-0.08984 -0.102539,-0.05371 -0.153321,-0.132813 -0.0498,-0.08008 -0.0498,-0.17871 0,-0.108399 0.06152,-0.202149 0.06152,-0.09473 0.179688,-0.143555 0.118164,-0.04883 0.262695,-0.04883 0.15918,0 0.280273,0.05176 0.122071,0.05078 0.1875,0.150391 0.06543,0.09961 0.07031,0.225586 l -0.181641,0.01367 q -0.01465,-0.135743 -0.09961,-0.205079 -0.08398,-0.06934 -0.249024,-0.06934 -0.171875,0 -0.250976,0.06348 -0.07813,0.0625 -0.07813,0.151367 0,0.07715 0.05566,0.126953 0.05469,0.0498 0.285156,0.102539 0.231445,0.05176 0.317383,0.09082 0.125,0.05762 0.18457,0.146484 0.05957,0.08789 0.05957,0.203125 0,0.114258 -0.06543,0.21582 -0.06543,0.100586 -0.188477,0.157227 -0.12207,0.05566 -0.27539,0.05566 -0.194336,0 -0.326172,-0.05664 -0.13086,-0.05664 -0.206055,-0.169921 -0.07422,-0.114258 -0.07813,-0.257813 z"
     id="text23"
     style="font-size:2px;font-family:Arial;text-anchor:middle;fill:#aaaaaa"
     aria-label="BITS" />
  <path
     d="m 36.085838,111.30273 q 0,-0.35644 0.191407,-0.55761 0.191406,-0.20215 0.49414,-0.20215 0.198242,0 0.357422,0.0947 0.15918,0.0947 0.242188,0.26464 0.08398,0.16895 0.08398,0.38379 0,0.21778 -0.08789,0.38965 -0.08789,0.17188 -0.249023,0.26074 -0.161133,0.0879 -0.347656,0.0879 -0.202149,0 -0.361328,-0.0977 -0.15918,-0.0977 -0.241211,-0.2666 -0.08203,-0.16895 -0.08203,-0.35743 z m 0.195313,0.003 q 0,0.25879 0.138672,0.40821 0.139648,0.14843 0.349609,0.14843 0.213867,0 0.351563,-0.15039 0.138671,-0.15039 0.138671,-0.42675 0,-0.17481 -0.05957,-0.30469 -0.05859,-0.13086 -0.172851,-0.20215 -0.113282,-0.0723 -0.254883,-0.0723 -0.201172,0 -0.34668,0.13868 -0.144531,0.13769 -0.144531,0.46093 z m 2.357422,-0.7373 h 0.189453 v 0.82715 q 0,0.21582 -0.04883,0.34277 -0.04883,0.12695 -0.176758,0.20703 -0.126953,0.0791 -0.333984,0.0791 -0.201172,0 -0.329102,-0.0693 -0.12793,-0.0693 -0.182617,-0.2002 -0.05469,-0.13183 -0.05469,-0.35937 v -0.82715 h 0.189453 v 0.82617 q 0,0.18652 0.03418,0.27539 0.03516,0.0879 0.119141,0.13574 0.08496,0.0479 0.207031,0.0479 0.208984,0 0.297852,-0.0947 0.08887,-0.0947 0.08887,-0.36426 z M 39.507713,112 v -1.2627 h -0.471679 v -0.16894 h 1.134765 v 0.16894 H 39.697166 V 112 Z"
     id="text24"
     style="font-size:2px;font-family:Arial;text-anchor:middle;fill:#aaaaaa"
     aria-label="OUT" />
  <!-- Brand -->
  <path
     d="m 21.267309,124.57886 v -0.12598 l 0.454834,-7.3e-4 v 0.39844 q -0.104736,0.0835 -0.216064,0.12597 -0.111328,0.0417 -0.228516,0.0417 -0.158203,0 -0.287842,-0.0674 -0.128906,-0.0681 -0.194824,-0.19629 -0.06592,-0.12818 -0.06592,-0.28638 0,-0.15674 0.06519,-0.29223 0.06592,-0.13624 0.188965,-0.20215 0.123046,-0.0659 0.283447,-0.0659 0.116455,0 0.210205,0.0381 0.09448,0.0374 0.147949,0.10474 0.05347,0.0674 0.0813,0.17578 l -0.128174,0.0352 q -0.02417,-0.082 -0.06006,-0.12891 -0.03589,-0.0469 -0.102539,-0.0747 -0.06665,-0.0286 -0.147949,-0.0286 -0.09741,0 -0.168457,0.03 -0.07105,0.0293 -0.11499,0.0776 -0.04321,0.0483 -0.06738,0.1062 -0.04102,0.0996 -0.04102,0.21606 0,0.14356 0.04907,0.24024 0.0498,0.0967 0.144287,0.14355 0.09448,0.0469 0.200683,0.0469 0.09229,0 0.180176,-0.0352 0.08789,-0.0359 0.133301,-0.0762 v -0.19995 z M 21.925756,125 v -1.07373 h 0.14209 v 0.94702 h 0.528809 V 125 Z m 0.864258,0 v -1.07373 h 0.14209 V 125 Z m 0.283448,0 0.415283,-0.55957 -0.366211,-0.51416 h 0.169189 l 0.194824,0.27539 q 0.06079,0.0857 0.08643,0.13184 0.03589,-0.0586 0.08496,-0.12232 l 0.216065,-0.28491 h 0.154541 l -0.377198,0.5061 L 24.057837,125 h -0.175782 l -0.270263,-0.38306 q -0.02271,-0.033 -0.04687,-0.0718 -0.03589,0.0586 -0.05127,0.0806 L 23.244116,125 Z m 1.478027,-0.34497 0.134033,-0.0117 q 0.0095,0.0806 0.04395,0.13257 0.03516,0.0513 0.108399,0.0835 0.07324,0.0315 0.164795,0.0315 0.0813,0 0.143554,-0.0242 0.06226,-0.0242 0.09229,-0.0659 0.03076,-0.0425 0.03076,-0.0923 0,-0.0505 -0.0293,-0.0879 -0.0293,-0.0381 -0.09668,-0.0637 -0.04321,-0.0168 -0.191162,-0.052 -0.14795,-0.0359 -0.207276,-0.0674 -0.0769,-0.0403 -0.11499,-0.0996 -0.03735,-0.0601 -0.03735,-0.13403 0,-0.0813 0.04614,-0.15161 0.04614,-0.071 0.134766,-0.10767 0.08862,-0.0366 0.197021,-0.0366 0.119385,0 0.210205,0.0388 0.09155,0.0381 0.140625,0.11279 0.04907,0.0747 0.05274,0.16919 l -0.136231,0.0102 q -0.01099,-0.1018 -0.07471,-0.1538 -0.06299,-0.052 -0.186767,-0.052 -0.128907,0 -0.188233,0.0476 -0.05859,0.0469 -0.05859,0.11353 0,0.0579 0.04175,0.0952 0.04102,0.0373 0.213868,0.0769 0.173584,0.0388 0.238037,0.0681 0.09375,0.0432 0.138427,0.10986 0.04468,0.0659 0.04468,0.15235 0,0.0857 -0.04907,0.16186 -0.04907,0.0754 -0.141357,0.11792 -0.09155,0.0417 -0.206543,0.0417 -0.145752,0 -0.244629,-0.0425 -0.09815,-0.0425 -0.154541,-0.12744 -0.05566,-0.0857 -0.05859,-0.19336 z M 25.87351,125 v -0.94702 h -0.353759 v -0.12671 h 0.851074 v 0.12671 H 26.0156 V 125 Z m 1.347657,-1.07373 h 0.142089 v 0.62036 q 0,0.16187 -0.03662,0.25708 -0.03662,0.0952 -0.132568,0.15527 -0.09521,0.0593 -0.250488,0.0593 -0.150879,0 -0.246826,-0.052 -0.09595,-0.052 -0.136963,-0.15015 -0.04102,-0.0989 -0.04102,-0.26953 v -0.62036 h 0.14209 v 0.61963 q 0,0.13989 0.02564,0.20654 0.02637,0.0659 0.08935,0.10181 0.06372,0.0359 0.155274,0.0359 0.156738,0 0.223388,-0.071 0.06665,-0.071 0.06665,-0.27319 z M 27.599829,125 v -1.07373 h 0.369873 q 0.125244,0 0.191162,0.0154 0.09229,0.0212 0.157471,0.0769 0.08496,0.0718 0.126709,0.18384 0.04248,0.11133 0.04248,0.25489 0,0.12231 -0.02856,0.21679 -0.02857,0.0945 -0.07324,0.15674 -0.04468,0.0615 -0.09814,0.0974 -0.05273,0.0352 -0.128174,0.0535 Q 28.084692,125 27.98728,125 Z m 0.14209,-0.12671 h 0.229248 q 0.106201,0 0.166259,-0.0198 0.06079,-0.0198 0.09668,-0.0557 0.05054,-0.0505 0.07837,-0.1355 0.02857,-0.0857 0.02857,-0.20727 0,-0.16846 -0.05566,-0.25855 -0.05493,-0.0908 -0.134034,-0.12158 -0.05713,-0.022 -0.183837,-0.022 H 27.741919 Z M 28.707251,125 v -1.07373 H 28.84934 V 125 Z m 0.349365,-0.52295 q 0,-0.26733 0.143555,-0.41821 0.143554,-0.15161 0.370605,-0.15161 0.148682,0 0.268066,0.071 0.119385,0.071 0.181641,0.19849 0.06299,0.12671 0.06299,0.28784 0,0.16333 -0.06592,0.29224 -0.06592,0.1289 -0.186767,0.19555 -0.12085,0.0659 -0.260742,0.0659 -0.151612,0 -0.270997,-0.0732 -0.119384,-0.0732 -0.180908,-0.19995 -0.06152,-0.12671 -0.06152,-0.26807 z m 0.146484,0.002 q 0,0.19409 0.104004,0.30615 0.104736,0.11133 0.262207,0.11133 0.160401,0 0.263672,-0.11279 0.104004,-0.1128 0.104004,-0.32007 0,-0.13111 -0.04468,-0.22852 -0.04395,-0.0981 -0.129638,-0.15161 -0.08496,-0.0542 -0.191163,-0.0542 -0.150878,0 -0.260009,0.104 -0.108399,0.10328 -0.108399,0.34571 z"
     id="text25"
     style="font-size:1.5px;font-family:Arial;text-anchor:middle;fill:#666666"
     aria-label="GLIX STUDIO" />
</svg>
