<?xml version="1.0" encoding="UTF-8" standalone="no"?>
<svg
   width="81.28mm"
   height="128.5mm"
   viewBox="0 0 81.28 128.5"
   version="1.1"
   id="svg20"
   sodipodi:docname="DrumRoulette.svg"
   xmlns:inkscape="http://www.inkscape.org/namespaces/inkscape"
   xmlns:sodipodi="http://sodipodi.sourceforge.net/DTD/sodipodi-0.dtd"
   xmlns="http://www.w3.org/2000/svg"
   xmlns:svg="http://www.w3.org/2000/svg">
  <defs
     id="defs20" />
  <sodipodi:namedview
     id="namedview20"
     pagecolor="#ffffff"
     bordercolor="#000000"
     borderopacity="0.25"
     inkscape:showpageshadow="2"
     inkscape:pageopacity="0.0"
     inkscape:pagecheckerboard="0"
     inkscape:deskcolor="#d1d1d1"
     inkscape:document-units="mm" />
  <!-- Background -->
  <rect
     width="81.28"
     height="128.5"
     fill="#252525"
     id="rect1" />
  <!-- Panel border -->
  <rect
     x="0.5"
     y="0.5"
     width="80.28"
     height="127.5"
     fill="none"
     stroke="#444"
     stroke-width="0.5"
     id="rect2" />
  <!-- Title -->
  <path
     d="m 23.597031,5.1367187 h 1.05664 q 0.357422,0 0.544922,0.054687 0.251953,0.074219 0.431641,0.2636719 0.179687,0.1894531 0.273437,0.4648438 0.09375,0.2734375 0.09375,0.6757812 0,0.3535156 -0.08789,0.609375 -0.107422,0.3125 -0.306641,0.5058594 Q 25.452499,7.8574219 25.19664,7.9394531 25.005234,8 24.684921,8 h -1.08789 z m 0.578125,0.484375 v 1.8964844 h 0.43164 q 0.242188,0 0.34961,-0.027344 0.140625,-0.035156 0.232422,-0.1191407 0.09375,-0.083984 0.152343,-0.2753906 0.05859,-0.1933594 0.05859,-0.5253906 0,-0.3320313 -0.05859,-0.5097656 Q 25.282578,5.8828125 25.177109,5.7832031 25.07164,5.6835937 24.909531,5.6484375 24.788437,5.6210937 24.434921,5.6210937 Z M 26.489609,8 V 5.1367187 h 1.216797 q 0.458984,0 0.666015,0.078125 0.208985,0.076172 0.333985,0.2734375 0.125,0.1972657 0.125,0.4511719 0,0.3222656 -0.189453,0.5332031 -0.189454,0.2089844 -0.566407,0.2636719 0.1875,0.109375 0.308594,0.2402344 0.123047,0.1308594 0.330078,0.4648437 L 29.063828,8 H 28.372421 L 27.954453,7.3769531 Q 27.731796,7.0429687 27.649765,6.9570312 27.567734,6.8691406 27.475937,6.8378906 27.38414,6.8046875 27.184921,6.8046875 H 27.067734 V 8 Z m 0.578125,-1.6523438 h 0.427734 q 0.416016,0 0.519531,-0.035156 0.103516,-0.035156 0.16211,-0.1210938 0.05859,-0.085937 0.05859,-0.2148437 0,-0.1445313 -0.07813,-0.2324219 -0.07617,-0.089844 -0.216797,-0.1132812 -0.07031,-0.00977 -0.421875,-0.00977 h -0.451172 z m 2.304687,-1.2109375 h 0.578125 V 6.6875 q 0,0.3691406 0.02149,0.4785156 0.03711,0.1757813 0.175781,0.2832031 0.140625,0.1054688 0.382812,0.1054688 0.246094,0 0.371094,-0.099609 0.125,-0.1015625 0.150391,-0.2480469 0.02539,-0.1464843 0.02539,-0.4863281 V 5.1367187 h 0.578125 V 6.640625 q 0,0.515625 -0.04687,0.7285156 -0.04687,0.2128906 -0.173828,0.359375 -0.125,0.1464844 -0.335937,0.234375 -0.210938,0.085937 -0.550781,0.085937 -0.410157,0 -0.623047,-0.09375 Q 29.714218,7.859375 29.591171,7.7089844 29.468124,7.5566406 29.429062,7.390625 29.372421,7.1445312 29.372421,6.6640625 Z M 32.257187,8 V 5.1367187 h 0.865234 l 0.519532,1.953125 0.513671,-1.953125 h 0.867188 V 8 H 34.485703 V 5.7460937 L 33.917343,8 h -0.55664 L 32.794296,5.7460937 V 8 Z m 4.453125,0 V 5.1367187 h 1.216797 q 0.458984,0 0.666015,0.078125 0.208985,0.076172 0.333985,0.2734375 0.125,0.1972657 0.125,0.4511719 0,0.3222656 -0.189453,0.5332031 -0.189453,0.2089844 -0.566407,0.2636719 0.1875,0.109375 0.308594,0.2402344 0.123047,0.1308594 0.330078,0.4648437 L 39.284531,8 H 38.593124 L 38.175156,7.3769531 Q 37.952499,7.0429687 37.870468,6.9570312 37.788437,6.8691406 37.69664,6.8378906 37.604843,6.8046875 37.405624,6.8046875 H 37.288437 V 8 Z m 0.578125,-1.6523438 h 0.427734 q 0.416016,0 0.519532,-0.035156 0.103515,-0.035156 0.162109,-0.1210938 0.05859,-0.085937 0.05859,-0.2148437 0,-0.1445313 -0.07813,-0.2324219 -0.07617,-0.089844 -0.216797,-0.1132812 -0.07031,-0.00977 -0.421875,-0.00977 h -0.451172 z m 2.191406,0.2382813 q 0,-0.4375 0.13086,-0.734375 0.09766,-0.21875 0.265625,-0.3925781 0.169921,-0.1738282 0.371093,-0.2578125 0.267578,-0.1132813 0.617188,-0.1132813 0.632812,0 1.011719,0.3925781 0.380859,0.3925782 0.380859,1.0917969 0,0.6933594 -0.376953,1.0859375 -0.376953,0.390625 -1.007813,0.390625 -0.638672,0 -1.015625,-0.3886719 -0.376953,-0.390625 -0.376953,-1.0742187 z m 0.595703,-0.019531 q 0,0.4863282 0.22461,0.7382813 0.224609,0.25 0.570312,0.25 0.345703,0 0.566406,-0.2480469 0.222657,-0.25 0.222657,-0.7480469 0,-0.4921875 -0.216797,-0.734375 -0.214844,-0.2421875 -0.572266,-0.2421875 -0.357422,0 -0.576172,0.2460938 -0.21875,0.2441406 -0.21875,0.7382812 z m 2.628907,-1.4296875 h 0.578125 V 6.6875 q 0,0.3691406 0.02148,0.4785156 0.03711,0.1757813 0.175781,0.2832031 0.140625,0.1054688 0.382813,0.1054688 0.246093,0 0.371093,-0.099609 0.125,-0.1015625 0.150391,-0.2480469 0.02539,-0.1464843 0.02539,-0.4863281 V 5.1367187 h 0.578125 V 6.640625 q 0,0.515625 -0.04687,0.7285156 -0.04687,0.2128906 -0.173828,0.359375 -0.125,0.1464844 -0.335938,0.234375 -0.210937,0.085937 -0.550781,0.085937 -0.410156,0 -0.623047,-0.09375 Q 43.046249,7.859375 42.923203,7.7089844 42.800156,7.5566406 42.761093,7.390625 42.704453,7.1445312 42.704453,6.6640625 Z M 45.612656,8 V 5.1601562 h 0.578125 v 2.3574219 h 1.4375 V 8 Z M 48.04039,8 V 5.1367187 h 2.123047 v 0.484375 h -1.544922 v 0.6347657 h 1.4375 v 0.4824218 h -1.4375 v 0.7792969 h 1.599609 V 8 Z m 3.3125,0 V 5.6210937 h -0.849609 v -0.484375 h 2.27539 v 0.484375 H 51.931015 V 8 Z m 2.443359,0 V 5.6210937 H 52.94664 v -0.484375 h 2.275391 v 0.484375 H 54.374374 V 8 Z m 1.798829,0 V 5.1367187 h 2.123046 v 0.484375 h -1.544921 v 0.6347657 h 1.4375 v 0.4824218 h -1.4375 v 0.7792969 h 1.599609 V 8 Z"
     id="text2"
     style="font-weight:bold;font-size:4px;font-family:Arial, sans-serif;text-anchor:middle;fill:#ff4488"
     aria-label="DRUM ROULETTE" />
  <!-- Column headers -->
  <path
     d="m 20.316895,16 v -1.136426 h -0.424512 v -0.152051 h 1.021289 v 0.152051 h -0.42627 V 16 Z m 0.774316,0 V 14.711523 H 21.6625 q 0.172266,0 0.261914,0.03516 0.08965,0.03428 0.143262,0.122168 0.05361,0.08789 0.05361,0.194238 0,0.137109 -0.08877,0.231152 -0.08877,0.09404 -0.274219,0.119532 0.06768,0.03252 0.102832,0.06416 0.07471,0.06855 0.141504,0.171386 L 22.226758,16 h -0.214453 l -0.170508,-0.268066 q -0.07471,-0.116016 -0.123047,-0.177539 -0.04834,-0.06152 -0.08701,-0.08613 -0.03779,-0.02461 -0.07734,-0.03428 -0.029,-0.0062 -0.09492,-0.0062 H 21.261719 V 16 Z m 0.170508,-0.719824 h 0.366504 q 0.116894,0 0.182812,-0.02373 0.06592,-0.02461 0.100196,-0.07734 0.03428,-0.05361 0.03428,-0.116016 0,-0.09141 -0.0668,-0.150293 -0.06592,-0.05889 -0.20918,-0.05889 H 21.261719 Z M 22.417481,16 v -1.288477 h 0.170507 V 16 Z m 1.074023,-0.505371 v -0.151172 l 0.545801,-8.79e-4 v 0.478125 q -0.125684,0.100195 -0.259278,0.151172 -0.133593,0.0501 -0.274218,0.0501 -0.189844,0 -0.34541,-0.08086 -0.154688,-0.08174 -0.233789,-0.235547 -0.0791,-0.153808 -0.0791,-0.343652 0,-0.188086 0.07822,-0.350684 0.0791,-0.163476 0.226757,-0.242578 0.147657,-0.0791 0.340137,-0.0791 0.139746,0 0.252246,0.0457 0.113379,0.04482 0.177539,0.125684 0.06416,0.08086 0.09756,0.210937 l -0.153809,0.04219 q -0.029,-0.09844 -0.07207,-0.154688 -0.04307,-0.05625 -0.123047,-0.08965 -0.07998,-0.03428 -0.177539,-0.03428 -0.116894,0 -0.202148,0.03604 -0.08525,0.03516 -0.137989,0.09316 -0.05185,0.05801 -0.08086,0.127442 -0.04922,0.119531 -0.04922,0.259277 0,0.172266 0.05889,0.288281 0.05977,0.116016 0.173144,0.172266 0.113379,0.05625 0.240821,0.05625 0.110742,0 0.216211,-0.04219 0.105468,-0.04307 0.159961,-0.09141 v -0.239941 z"
     id="text3"
     style="font-size:1.8px;font-family:Arial, sans-serif;text-anchor:middle;fill:#888888"
     aria-label="TRIG" />
  <path
     d="m 36.597266,16 v -1.288477 h 0.170507 v 1.136426 h 0.634571 V 16 Z m 1.242773,0 -0.499219,-1.288477 h 0.184571 l 0.334863,0.936036 q 0.04043,0.1125 0.06768,0.210937 0.02988,-0.105469 0.06943,-0.210937 l 0.348047,-0.936036 h 0.174024 L 38.014941,16 Z m 0.825293,0 v -1.288477 h 0.170508 v 1.136426 h 0.63457 V 16 Z"
     id="text4"
     style="font-size:1.8px;font-family:Arial, sans-serif;text-anchor:middle;fill:#888888"
     aria-label="LVL" />
  <path
     d="m 52.508057,15.548242 0.170507,0.04307 q -0.05361,0.210058 -0.193359,0.3208 -0.138867,0.109864 -0.340137,0.109864 -0.2083,0 -0.339257,-0.08437 -0.130079,-0.08525 -0.198633,-0.246094 -0.06768,-0.16084 -0.06768,-0.34541 0,-0.20127 0.07646,-0.350684 0.07734,-0.150293 0.218848,-0.227637 0.142382,-0.07822 0.31289,-0.07822 0.193359,0 0.325195,0.09844 0.131836,0.09844 0.183692,0.276856 l -0.167871,0.03955 q -0.04482,-0.140625 -0.130078,-0.204786 -0.08525,-0.06416 -0.214453,-0.06416 -0.148536,0 -0.248731,0.07119 -0.09932,0.07119 -0.139746,0.191601 -0.04043,0.119531 -0.04043,0.246973 0,0.164355 0.04746,0.287402 0.04834,0.122168 0.149414,0.182813 0.101074,0.06064 0.218848,0.06064 0.143262,0 0.242578,-0.08262 0.09932,-0.08262 0.134473,-0.245215 z M 52.893897,16 v -1.288477 h 0.170507 v 0.529102 h 0.669727 v -0.529102 h 0.170508 V 16 H 53.734131 V 15.392676 H 53.064404 V 16 Z m 1.153125,0 0.494824,-1.288477 h 0.183691 L 55.252881,16 H 55.058643 L 54.90835,15.609766 H 54.36958 L 54.228076,16 Z m 0.371777,-0.529102 h 0.436816 l -0.134472,-0.356835 q -0.06152,-0.162598 -0.09141,-0.267188 -0.02461,0.123926 -0.06943,0.246094 z M 55.391748,16 v -1.288477 h 0.571289 q 0.172266,0 0.261914,0.03516 0.08965,0.03428 0.143262,0.122168 0.05361,0.08789 0.05361,0.194238 0,0.137109 -0.08877,0.231152 -0.08877,0.09404 -0.274219,0.119532 0.06768,0.03252 0.102832,0.06416 0.07471,0.06855 0.141504,0.171386 L 56.527295,16 h -0.214453 l -0.170508,-0.268066 q -0.07471,-0.116016 -0.123047,-0.177539 -0.04834,-0.06152 -0.08701,-0.08613 -0.03779,-0.02461 -0.07734,-0.03428 -0.029,-0.0062 -0.09492,-0.0062 H 55.562256 V 16 Z m 0.170508,-0.719824 h 0.366504 q 0.116894,0 0.182812,-0.02373 0.06592,-0.02461 0.100196,-0.07734 0.03428,-0.05361 0.03428,-0.116016 0,-0.09141 -0.0668,-0.150293 -0.06592,-0.05889 -0.209179,-0.05889 h -0.407813 z"
     id="text5"
     style="font-size:1.8px;font-family:Arial, sans-serif;text-anchor:middle;fill:#888888"
     aria-label="CHAR" />
  <path
     d="m 68.187256,15.372461 q 0,-0.320801 0.172266,-0.501856 0.172265,-0.181933 0.444726,-0.181933 0.178418,0 0.32168,0.08525 0.143261,0.08525 0.217969,0.238183 0.07559,0.152051 0.07559,0.345411 0,0.195996 -0.0791,0.350683 -0.0791,0.154688 -0.224121,0.234668 -0.14502,0.0791 -0.312891,0.0791 -0.181933,0 -0.325195,-0.08789 -0.143262,-0.08789 -0.21709,-0.239941 -0.07383,-0.152051 -0.07383,-0.32168 z m 0.175781,0.0026 q 0,0.23291 0.124805,0.367382 0.125683,0.133594 0.314648,0.133594 0.192481,0 0.316407,-0.135351 0.124804,-0.135352 0.124804,-0.384082 0,-0.157325 -0.05361,-0.274219 -0.05273,-0.117774 -0.155566,-0.181934 -0.101954,-0.06504 -0.229395,-0.06504 -0.181055,0 -0.312012,0.124805 -0.130078,0.123926 -0.130078,0.414844 z m 2.12168,-0.663575 h 0.170508 v 0.744434 q 0,0.194238 -0.04395,0.308496 -0.04394,0.114258 -0.159082,0.186328 -0.114258,0.07119 -0.300586,0.07119 -0.181054,0 -0.296191,-0.0624 -0.115137,-0.0624 -0.164356,-0.180175 -0.04922,-0.118653 -0.04922,-0.323438 v -0.744434 h 0.170508 v 0.743555 q 0,0.167871 0.03076,0.247852 0.03164,0.0791 0.107227,0.122168 0.07646,0.04307 0.186328,0.04307 0.188086,0 0.268066,-0.08525 0.07998,-0.08525 0.07998,-0.327832 z M 71.266943,16 v -1.136426 h -0.424512 v -0.152051 h 1.02129 v 0.152051 h -0.42627 V 16 Z"
     id="text6"
     style="font-size:1.8px;font-family:Arial, sans-serif;text-anchor:middle;fill:#888888"
     aria-label="OUT" />
  <!-- Voice labels -->
  <path
     d="m 6.1318359,25 v -1.288477 h 0.1705078 v 0.638965 L 6.9421875,23.711523 H 7.1733398 L 6.6328125,24.233594 7.1970703,25 h -0.225 L 6.5132812,24.347852 6.3023437,24.553516 V 25 Z m 1.2366212,0 V 23.711523 H 7.5389649 V 25 Z m 1.3904296,-0.451758 0.1705078,0.04307 q -0.053613,0.210058 -0.1933594,0.3208 -0.1388672,0.109864 -0.3401367,0.109864 -0.2083008,0 -0.3392578,-0.08437 -0.1300781,-0.08525 -0.1986328,-0.246094 -0.067676,-0.16084 -0.067676,-0.34541 0,-0.20127 0.076465,-0.350684 0.077344,-0.150293 0.2188476,-0.227637 0.1423828,-0.07822 0.3128906,-0.07822 0.1933594,0 0.3251953,0.09844 0.131836,0.09844 0.1836914,0.276856 l -0.167871,0.03955 q -0.044824,-0.140625 -0.1300782,-0.204786 -0.085254,-0.06416 -0.2144531,-0.06416 -0.1485351,0 -0.2487304,0.07119 -0.099317,0.07119 -0.1397461,0.191601 -0.04043,0.119531 -0.04043,0.246973 0,0.164355 0.047461,0.287402 0.04834,0.122168 0.1494141,0.182813 0.1010742,0.06064 0.2188476,0.06064 0.1432617,0 0.2425781,-0.08262 0.099316,-0.08262 0.1344727,-0.245215 z M 9.132422,25 v -1.288477 h 0.1705078 v 0.638965 L 9.9427735,23.711523 H 10.173926 L 9.6333985,24.233594 10.197656,25 H 9.9726563 L 9.5138673,24.347852 9.3029298,24.553516 V 25 Z"
     id="text7"
     style="font-size:1.8px;font-family:Arial, sans-serif;fill:#ff4444"
     aria-label="KICK" />
  <path
     d="m 6.0808594,35.586035 0.1608398,-0.01406 q 0.011426,0.09668 0.052734,0.159082 0.042188,0.06152 0.1300781,0.100195 0.087891,0.03779 0.1977539,0.03779 0.097559,0 0.1722656,-0.029 0.074707,-0.029 0.1107422,-0.0791 0.036914,-0.05098 0.036914,-0.110743 0,-0.06064 -0.035156,-0.105468 -0.035156,-0.0457 -0.1160156,-0.07646 -0.051855,-0.02022 -0.2293945,-0.0624 Q 6.384082,35.362793 6.3128906,35.325 6.2206055,35.27666 6.1749023,35.205469 q -0.044824,-0.07207 -0.044824,-0.16084 0,-0.09756 0.055371,-0.181934 0.055371,-0.08525 0.1617188,-0.129199 0.1063476,-0.04395 0.2364257,-0.04395 0.1432617,0 0.2522461,0.04658 0.1098633,0.0457 0.16875,0.135351 0.058887,0.08965 0.063281,0.203028 l -0.1634766,0.0123 q -0.013184,-0.122168 -0.089648,-0.18457 -0.075586,-0.0624 -0.2241211,-0.0624 -0.1546875,0 -0.2258789,0.05713 -0.070312,0.05625 -0.070312,0.13623 0,0.06943 0.050098,0.114258 0.049219,0.04482 0.2566407,0.09228 0.2083007,0.04658 0.2856445,0.08174 0.1125,0.05186 0.1661133,0.131836 0.053613,0.0791 0.053613,0.182813 0,0.102832 -0.058887,0.194238 -0.058887,0.09053 -0.1696289,0.141504 -0.1098633,0.0501 -0.2478515,0.0501 -0.1749024,0 -0.2935547,-0.05098 Q 6.2188477,35.92002 6.1511719,35.818066 6.084375,35.715234 6.0808594,35.586035 Z M 7.3376953,36 v -1.288477 h 0.1749024 l 0.6767578,1.011622 V 34.711523 H 8.352832 V 36 H 8.1779297 L 7.5011719,34.9875 V 36 Z m 1.1601563,0 0.4948242,-1.288477 H 9.1763672 L 9.7037109,36 H 9.5094726 L 9.3591797,35.609766 H 8.8204101 L 8.6789062,36 Z M 8.8696289,35.470898 H 9.3064453 L 9.1719726,35.114063 q -0.061523,-0.162598 -0.091406,-0.267188 -0.024609,0.123926 -0.069434,0.246094 z M 9.842578,36 v -1.288477 h 0.571289 q 0.172266,0 0.261914,0.03516 0.08965,0.03428 0.143262,0.122168 0.05361,0.08789 0.05361,0.194238 0,0.137109 -0.08877,0.231152 -0.08877,0.09404 -0.274219,0.119532 0.06768,0.03252 0.102832,0.06416 0.07471,0.06855 0.141504,0.171386 L 10.978125,36 h -0.214453 l -0.170508,-0.268066 q -0.07471,-0.116016 -0.123047,-0.177539 -0.04834,-0.06152 -0.08701,-0.08613 -0.03779,-0.02461 -0.07734,-0.03428 -0.029,-0.0062 -0.09492,-0.0062 H 10.013086 V 36 Z m 0.170508,-0.719824 h 0.366504 q 0.116894,0 0.182812,-0.02373 0.06592,-0.02461 0.100196,-0.07734 0.03428,-0.05361 0.03428,-0.116016 0,-0.09141 -0.0668,-0.150293 -0.06592,-0.05889 -0.20918,-0.05889 H 10.013086 Z M 11.143359,36 V 34.711523 H 12.075 v 0.152051 h -0.761133 v 0.394629 h 0.712793 v 0.151172 h -0.712793 v 0.438574 h 0.791016 V 36 Z"
     id="text8"
     style="font-size:1.8px;font-family:Arial, sans-serif;fill:#ffaa44"
     aria-label="SNARE" />
  <path
     d="m 7.0582031,46.548242 0.1705078,0.04307 q -0.053613,0.210058 -0.1933594,0.3208 -0.1388671,0.109864 -0.3401367,0.109864 -0.2083008,0 -0.3392578,-0.08438 -0.1300781,-0.08525 -0.1986328,-0.246094 -0.067676,-0.16084 -0.067676,-0.34541 0,-0.20127 0.076465,-0.350684 0.077344,-0.150293 0.2188476,-0.227637 0.1423828,-0.07822 0.3128906,-0.07822 0.1933594,0 0.3251953,0.09844 0.131836,0.09844 0.1836914,0.276856 l -0.167871,0.03955 Q 6.9940429,45.96377 6.908789,45.899609 q -0.085254,-0.06416 -0.2144531,-0.06416 -0.1485351,0 -0.2487304,0.07119 -0.099316,0.07119 -0.1397461,0.191601 -0.04043,0.119531 -0.04043,0.246973 0,0.164355 0.047461,0.287402 0.04834,0.122168 0.1494141,0.182813 0.1010742,0.06064 0.2188476,0.06064 0.1432617,0 0.2425781,-0.08262 0.099316,-0.08262 0.1344727,-0.245215 z M 7.4633789,47 V 46.819824 H 7.6435547 V 47 Z m 0.4807617,0 v -1.288477 h 0.1705078 v 0.529102 H 8.7843749 V 45.711523 H 8.9548827 V 47 H 8.7843749 V 46.392676 H 8.1146484 V 47 Z m 1.1531248,0 0.4948242,-1.288477 H 9.775781 L 10.303125,47 H 10.108887 L 9.9585935,46.609766 H 9.419824 L 9.2783201,47 Z M 9.4690428,46.470898 H 9.9058592 L 9.7713865,46.114063 q -0.061523,-0.162598 -0.091406,-0.267188 -0.024609,0.123926 -0.069434,0.246094 z M 10.633594,47 v -1.136426 h -0.424512 v -0.152051 h 1.021289 v 0.152051 h -0.42627 V 47 Z"
     id="text9"
     style="font-size:1.8px;font-family:Arial, sans-serif;fill:#44ff44"
     aria-label="C.HAT" />
  <path
     d="m 6.0870117,57.372461 q 0,-0.320801 0.1722656,-0.501856 0.1722657,-0.181933 0.4447266,-0.181933 0.178418,0 0.3216797,0.08525 0.1432617,0.08525 0.2179687,0.238183 0.075586,0.152051 0.075586,0.345411 0,0.195996 -0.079102,0.350683 -0.079102,0.154688 -0.2241211,0.234668 -0.1450195,0.0791 -0.3128906,0.0791 -0.1819336,0 -0.3251953,-0.08789 -0.1432617,-0.08789 -0.2170899,-0.239941 -0.073828,-0.152051 -0.073828,-0.32168 z m 0.1757813,0.0026 q 0,0.23291 0.1248046,0.367382 0.1256836,0.133594 0.3146485,0.133594 0.1924804,0 0.3164062,-0.135351 0.1248047,-0.135352 0.1248047,-0.384082 0,-0.157325 -0.053613,-0.274219 -0.052734,-0.117774 -0.1555664,-0.181934 -0.1019531,-0.06504 -0.2293945,-0.06504 -0.1810547,0 -0.3120117,0.124805 Q 6.262793,57.08418 6.262793,57.375098 Z M 7.5635742,58 V 57.819824 H 7.7437499 V 58 Z m 0.4807617,0 v -1.288477 h 0.1705078 v 0.529102 H 8.8845702 V 56.711523 H 9.055078 V 58 H 8.8845702 V 57.392676 H 8.2148437 V 58 Z M 9.1974608,58 9.692285,56.711523 H 9.8759764 L 10.40332,58 H 10.209082 L 10.058789,57.609766 H 9.5200194 L 9.3785155,58 Z M 9.5692382,57.470898 H 10.006055 L 9.8715819,57.114063 q -0.061523,-0.162598 -0.091406,-0.267188 -0.024609,0.123926 -0.069434,0.246094 z M 10.733789,58 v -1.136426 h -0.424512 v -0.152051 h 1.021289 v 0.152051 H 10.904297 V 58 Z"
     id="text10"
     style="font-size:1.8px;font-family:Arial, sans-serif;fill:#44ffaa"
     aria-label="O.HAT" />
  <path
     d="m 6.1318359,69 v -1.288477 h 0.1705078 v 1.136426 H 6.936914 V 69 Z m 1.0327149,0 V 68.819824 H 7.3447265 V 69 Z M 7.967871,69 V 67.863574 H 7.5433593 v -0.152051 h 1.0212891 v 0.152051 H 8.1383788 V 69 Z m 0.6873046,-0.627539 q 0,-0.320801 0.1722656,-0.501856 0.1722656,-0.181933 0.4447266,-0.181933 0.1784179,0 0.3216796,0.08525 0.1432618,0.08525 0.2179688,0.238183 0.075586,0.152051 0.075586,0.345411 0,0.195996 -0.079101,0.350683 -0.079102,0.154688 -0.2241211,0.234668 -0.1450196,0.0791 -0.3128906,0.0791 -0.1819336,0 -0.3251954,-0.08789 -0.1432617,-0.08789 -0.2170898,-0.239941 -0.073828,-0.152051 -0.073828,-0.32168 z m 0.1757812,0.0026 q 0,0.23291 0.1248047,0.367382 0.1256836,0.133594 0.3146484,0.133594 0.1924805,0 0.3164063,-0.135351 0.1248047,-0.135352 0.1248047,-0.384082 0,-0.157325 -0.053613,-0.274219 -0.052734,-0.117774 -0.1555664,-0.181934 -0.1019531,-0.06504 -0.2293945,-0.06504 -0.1810547,0 -0.3120117,0.124805 -0.1300782,0.123926 -0.1300782,0.414844 z M 10.101855,69 v -1.288477 h 0.256641 l 0.304981,0.912305 q 0.04219,0.127442 0.06152,0.190723 0.02197,-0.07031 0.06855,-0.206543 l 0.308496,-0.896485 h 0.229394 V 69 H 11.16709 V 67.921582 L 10.792676,69 H 10.638867 L 10.266211,67.903125 V 69 Z"
     id="text11"
     style="font-size:1.8px;font-family:Arial, sans-serif;fill:#44aaff"
     aria-label="L.TOM" />
  <path
     d="m 6.1441406,80 v -1.288477 h 0.1705078 v 0.529102 H 6.984375 V 78.711523 H 7.1548828 V 80 H 6.984375 V 79.392676 H 6.3146484 V 80 Z m 1.3192383,0 V 79.819824 H 7.6435547 V 80 Z m 0.8033203,0 V 78.863574 H 7.8421875 v -0.152051 h 1.021289 v 0.152051 H 8.437207 V 80 Z m 0.6873045,-0.627539 q 0,-0.320801 0.1722656,-0.501856 0.1722657,-0.181933 0.4447266,-0.181933 0.1784179,0 0.3216797,0.08525 0.1432614,0.08525 0.2179684,0.238183 0.07559,0.152051 0.07559,0.345411 0,0.195996 -0.0791,0.350683 -0.0791,0.154688 -0.2241214,0.234668 -0.1450195,0.0791 -0.3128906,0.0791 -0.1819336,0 -0.3251953,-0.08789 Q 9.10166,79.846191 9.0278318,79.694141 8.9540037,79.54209 8.9540037,79.372461 Z m 0.1757813,0.0026 q 0,0.23291 0.1248046,0.367382 0.1256836,0.133594 0.3146485,0.133594 0.1924804,0 0.3164062,-0.135351 0.1248047,-0.135352 0.1248047,-0.384082 0,-0.157325 -0.053613,-0.274219 -0.052734,-0.117774 -0.1555664,-0.181934 -0.1019531,-0.06504 -0.2293945,-0.06504 -0.1810547,0 -0.3120117,0.124805 Q 9.129785,79.08418 9.129785,79.375098 Z M 10.400684,80 v -1.288477 h 0.25664 l 0.304981,0.912305 q 0.04219,0.127442 0.06152,0.190723 0.02197,-0.07031 0.06855,-0.206543 l 0.308496,-0.896485 h 0.229394 V 80 H 11.465918 V 78.921582 L 11.091504,80 H 10.937695 L 10.565039,78.903125 V 80 Z"
     id="text12"
     style="font-size:1.8px;font-family:Arial, sans-serif;fill:#4488ff"
     aria-label="H.TOM" />
  <path
     d="m 7.0582031,90.548242 0.1705078,0.04307 q -0.053613,0.210058 -0.1933594,0.3208 -0.1388671,0.109864 -0.3401367,0.109864 -0.2083008,0 -0.3392578,-0.08438 -0.1300781,-0.08525 -0.1986328,-0.246094 -0.067676,-0.16084 -0.067676,-0.34541 0,-0.20127 0.076465,-0.350684 0.077344,-0.150293 0.2188476,-0.227637 0.1423828,-0.07822 0.3128906,-0.07822 0.1933594,0 0.3251953,0.09844 0.131836,0.09844 0.1836914,0.276856 l -0.167871,0.03955 Q 6.9940429,89.96377 6.908789,89.899609 q -0.085254,-0.06416 -0.2144531,-0.06416 -0.1485351,0 -0.2487304,0.07119 -0.099316,0.07119 -0.1397461,0.191601 -0.04043,0.119531 -0.04043,0.246973 0,0.164355 0.047461,0.287402 0.04834,0.122168 0.1494141,0.182813 0.1010742,0.06064 0.2188476,0.06064 0.1432617,0 0.2425781,-0.08262 0.099316,-0.08262 0.1344727,-0.245215 z M 7.4317383,91 v -1.288477 h 0.1705078 v 1.136426 H 8.2368164 V 91 Z M 8.2983398,91 8.793164,89.711523 H 8.9768554 L 9.5041991,91 H 9.3099609 L 9.1596679,90.609766 H 8.6208984 L 8.4793945,91 Z M 8.6701171,90.470898 H 9.1069335 L 8.9724609,90.114063 q -0.061523,-0.162598 -0.091406,-0.267188 -0.024609,0.123926 -0.069434,0.246094 z M 9.6404298,91 v -1.288477 h 0.4860352 q 0.12832,0 0.195996,0.0123 0.09492,0.01582 0.159082,0.06065 0.06416,0.04394 0.102832,0.123925 0.03955,0.07998 0.03955,0.175782 0,0.164355 -0.10459,0.278613 -0.10459,0.113379 -0.37793,0.113379 H 9.8109376 V 91 Z m 0.1705078,-0.675879 h 0.3331054 q 0.165234,0 0.234668,-0.06152 0.06943,-0.06152 0.06943,-0.173145 0,-0.08086 -0.04131,-0.137988 -0.04043,-0.05801 -0.107227,-0.07646 -0.04307,-0.01143 -0.159082,-0.01143 H 9.8109376 Z"
     id="text13"
     style="font-size:1.8px;font-family:Arial, sans-serif;fill:#aa44ff"
     aria-label="CLAP" />
  <path
     d="m 6.1388672,102 v -1.28848 h 0.4860351 q 0.1283203,0 0.1959961,0.0123 0.094922,0.0158 0.159082,0.0606 0.06416,0.0439 0.1028321,0.12393 0.039551,0.08 0.039551,0.17578 0,0.16436 -0.1045899,0.27861 -0.1045898,0.11338 -0.3779297,0.11338 H 6.309375 V 102 Z m 0.1705078,-0.67588 h 0.3331055 q 0.1652343,0 0.2346679,-0.0615 0.069434,-0.0615 0.069434,-0.17315 0,-0.0809 -0.041309,-0.13799 -0.04043,-0.058 -0.1072265,-0.0765 -0.043067,-0.0114 -0.1590821,-0.0114 H 6.309375 Z M 7.3429688,102 v -1.28848 h 0.9316406 v 0.15205 H 7.5134766 v 0.39463 h 0.7127929 v 0.15118 H 7.5134766 v 0.43857 H 8.3044922 V 102 Z m 1.199707,0 v -1.28848 h 0.5712891 q 0.1722656,0 0.261914,0.0352 0.089648,0.0343 0.1432617,0.12217 0.053613,0.0879 0.053613,0.19424 0,0.13711 -0.088769,0.23115 -0.08877,0.094 -0.2742187,0.11953 0.067676,0.0325 0.102832,0.0642 0.074707,0.0686 0.1415039,0.17139 L 9.6782227,102 H 9.4637696 l -0.1705079,-0.26807 q -0.074707,-0.11601 -0.1230468,-0.17754 -0.04834,-0.0615 -0.087012,-0.0861 -0.037793,-0.0246 -0.077344,-0.0343 -0.029004,-0.006 -0.094922,-0.006 H 8.7131836 V 102 Z m 0.1705078,-0.71982 h 0.3665039 q 0.1168946,0 0.1828125,-0.0237 0.065918,-0.0246 0.1001953,-0.0773 0.034277,-0.0536 0.034277,-0.11601 0,-0.0914 -0.066797,-0.1503 -0.065918,-0.0589 -0.2091797,-0.0589 H 8.7131836 Z m 2.0460934,0.26806 0.170508,0.0431 q -0.05361,0.21006 -0.193359,0.3208 -0.138868,0.10986 -0.340137,0.10986 -0.208301,0 -0.339258,-0.0844 -0.130078,-0.0853 -0.1986327,-0.2461 -0.067676,-0.16084 -0.067676,-0.34541 0,-0.20127 0.076465,-0.35068 0.077344,-0.15029 0.2188476,-0.22764 0.142383,-0.0782 0.312891,-0.0782 0.193359,0 0.325195,0.0984 0.131836,0.0984 0.183691,0.27685 l -0.167871,0.0395 q -0.04482,-0.14062 -0.130078,-0.20478 -0.08525,-0.0642 -0.214453,-0.0642 -0.148535,0 -0.24873,0.0712 -0.09932,0.0712 -0.139747,0.1916 -0.040429,0.11953 -0.040429,0.24697 0,0.16436 0.047461,0.28741 0.04834,0.12217 0.149414,0.18281 0.101074,0.0606 0.218847,0.0606 0.143262,0 0.242579,-0.0826 0.09932,-0.0826 0.134472,-0.24522 z"
     id="text14"
     style="font-size:1.8px;font-family:Arial, sans-serif;fill:#ff44aa"
     aria-label="PERC" />
  <!-- Horizontal dividers -->
  <line
     x1="5"
     y1="18"
     x2="76"
     y2="18"
     stroke="#333"
     stroke-width="0.3"
     id="line14" />
  <line
     x1="5"
     y1="107"
     x2="76"
     y2="107"
     stroke="#444"
     stroke-width="0.5"
     id="line15" />
  <!-- Randomize section -->
  <path
     d="m 12.32373,112 v -1.43164 h 0.634766 q 0.191406,0 0.291016,0.0391 0.09961,0.0381 0.159179,0.13574 0.05957,0.0977 0.05957,0.21582 0,0.15235 -0.09863,0.25684 -0.09863,0.10449 -0.304688,0.13281 0.0752,0.0361 0.114258,0.0713 0.08301,0.0762 0.157227,0.19043 L 13.585449,112 h -0.238281 l -0.189453,-0.29785 q -0.08301,-0.12891 -0.136719,-0.19727 -0.05371,-0.0684 -0.09668,-0.0957 -0.04199,-0.0273 -0.08594,-0.0381 -0.03223,-0.007 -0.105469,-0.007 H 12.513184 V 112 Z m 0.189454,-0.7998 h 0.407226 q 0.129883,0 0.203125,-0.0264 0.07324,-0.0273 0.111328,-0.0859 0.03809,-0.0596 0.03809,-0.12891 0,-0.10156 -0.07422,-0.16699 -0.07324,-0.0654 -0.232421,-0.0654 H 12.513184 Z M 13.60791,112 l 0.549805,-1.43164 h 0.204101 L 14.947754,112 h -0.21582 l -0.166993,-0.43359 H 13.966309 L 13.809082,112 Z m 0.413086,-0.58789 h 0.485352 l -0.149414,-0.39648 q -0.06836,-0.18067 -0.101563,-0.29688 -0.02734,0.1377 -0.07715,0.27344 z M 15.097168,112 v -1.43164 h 0.194336 l 0.751953,1.12402 v -1.12402 h 0.181641 V 112 h -0.194336 l -0.751953,-1.125 V 112 Z m 1.446289,0 v -1.43164 h 0.493164 q 0.166992,0 0.254883,0.0205 0.123047,0.0283 0.209961,0.10254 0.113281,0.0957 0.168945,0.24511 0.05664,0.14844 0.05664,0.33985 0,0.16308 -0.03809,0.28906 -0.03809,0.12598 -0.09766,0.20898 -0.05957,0.082 -0.13086,0.12989 -0.07031,0.0469 -0.170898,0.0713 Q 17.189941,112 17.060059,112 Z m 0.189453,-0.16895 h 0.305664 q 0.141602,0 0.22168,-0.0264 0.08105,-0.0264 0.128906,-0.0742 0.06738,-0.0674 0.104492,-0.18067 0.03809,-0.11425 0.03809,-0.27636 0,-0.22461 -0.07422,-0.34473 -0.07324,-0.12109 -0.178711,-0.16211 -0.07617,-0.0293 -0.245118,-0.0293 H 16.73291 Z"
     id="text15"
     style="font-size:2px;font-family:Arial, sans-serif;text-anchor:middle;fill:#ff4488"
     aria-label="RAND" />
  <path
     d="m 28.597412,122 v -0.94702 h -0.35376 v -0.12671 h 0.851075 v 0.12671 H 28.739502 V 122 Z m 0.645264,0 v -1.07373 h 0.476074 q 0.143555,0 0.218262,0.0293 0.07471,0.0286 0.119384,0.1018 0.04468,0.0732 0.04468,0.16187 0,0.11426 -0.07397,0.19263 -0.07398,0.0784 -0.228516,0.0996 0.0564,0.0271 0.08569,0.0535 0.06226,0.0571 0.11792,0.14282 L 30.188965,122 h -0.178711 l -0.14209,-0.22339 q -0.06226,-0.0967 -0.102539,-0.14795 -0.04028,-0.0513 -0.07251,-0.0718 -0.03149,-0.0205 -0.06445,-0.0286 -0.02417,-0.005 -0.0791,-0.005 H 29.384766 V 122 Z m 0.14209,-0.59985 h 0.30542 q 0.09741,0 0.152343,-0.0198 0.05493,-0.0205 0.0835,-0.0644 0.02857,-0.0447 0.02857,-0.0967 0,-0.0762 -0.05566,-0.12525 -0.05493,-0.0491 -0.174317,-0.0491 H 29.384766 Z M 30.3479,122 v -1.07373 h 0.14209 V 122 Z m 0.89502,-0.42114 v -0.12598 l 0.454834,-7.3e-4 v 0.39844 q -0.104736,0.0835 -0.216065,0.12597 -0.111328,0.0417 -0.228515,0.0417 -0.158203,0 -0.287842,-0.0674 -0.128906,-0.0681 -0.194824,-0.19629 -0.06592,-0.12818 -0.06592,-0.28638 0,-0.15674 0.06518,-0.29223 0.06592,-0.13624 0.188965,-0.20215 0.123047,-0.0659 0.283447,-0.0659 0.116456,0 0.210206,0.0381 0.09448,0.0374 0.147949,0.10474 0.05347,0.0674 0.0813,0.17578 l -0.128174,0.0352 q -0.02417,-0.082 -0.06006,-0.12891 -0.03589,-0.0469 -0.102539,-0.0747 -0.06665,-0.0286 -0.147949,-0.0286 -0.09741,0 -0.168457,0.03 -0.07105,0.0293 -0.11499,0.0776 -0.04321,0.0483 -0.06738,0.1062 -0.04102,0.0996 -0.04102,0.21606 0,0.14356 0.04907,0.24024 0.0498,0.0967 0.144288,0.14355 0.09448,0.0469 0.200683,0.0469 0.09229,0 0.180176,-0.0352 0.08789,-0.0359 0.133301,-0.0762 v -0.19995 z"
     id="text16"
     style="font-size:1.5px;font-family:Arial, sans-serif;text-anchor:middle;fill:#888888"
     aria-label="TRIG" />
  <!-- Main output labels -->
  <path
     d="m 57.759766,112 v -1.43164 h 0.285156 l 0.338867,1.01367 q 0.04687,0.1416 0.06836,0.21192 0.02441,-0.0781 0.07617,-0.2295 l 0.342774,-0.99609 h 0.254883 V 112 h -0.182618 v -1.19824 L 58.527344,112 h -0.170899 l -0.414062,-1.21875 V 112 Z m 1.514648,0 0.549805,-1.43164 H 60.02832 L 60.614258,112 h -0.215821 l -0.166992,-0.43359 H 59.632812 L 59.475586,112 Z m 0.413086,-0.58789 h 0.485352 l -0.149415,-0.39648 q -0.06836,-0.18067 -0.101562,-0.29688 -0.02734,0.1377 -0.07715,0.27344 z M 60.797852,112 v -1.43164 h 0.189453 V 112 Z m 0.521484,0 v -1.43164 h 0.194336 l 0.751953,1.12402 v -1.12402 h 0.181641 V 112 H 62.25293 l -0.751953,-1.125 V 112 Z m 1.944336,-0.69727 q 0,-0.35644 0.191406,-0.55761 0.191406,-0.20215 0.494141,-0.20215 0.198242,0 0.357422,0.0947 0.159179,0.0947 0.242187,0.26464 0.08398,0.16895 0.08398,0.38379 0,0.21778 -0.08789,0.38965 -0.08789,0.17188 -0.249024,0.26074 -0.161132,0.0879 -0.347656,0.0879 -0.202148,0 -0.361328,-0.0977 -0.15918,-0.0977 -0.241211,-0.2666 -0.08203,-0.16895 -0.08203,-0.35743 z m 0.195312,0.003 q 0,0.25879 0.138672,0.40821 0.139649,0.14843 0.34961,0.14843 0.213867,0 0.351562,-0.15039 0.138672,-0.15039 0.138672,-0.42675 0,-0.17481 -0.05957,-0.30469 -0.05859,-0.13086 -0.172852,-0.20215 -0.113281,-0.0723 -0.254883,-0.0723 -0.201172,0 -0.346679,0.13868 -0.144532,0.13769 -0.144532,0.46093 z m 2.357422,-0.7373 h 0.189453 v 0.82715 q 0,0.21582 -0.04883,0.34277 -0.04883,0.12695 -0.176758,0.20703 -0.126953,0.0791 -0.333984,0.0791 -0.201172,0 -0.329102,-0.0693 -0.127929,-0.0693 -0.182617,-0.2002 -0.05469,-0.13183 -0.05469,-0.35937 v -0.82715 h 0.189453 v 0.82617 q 0,0.18652 0.03418,0.27539 0.03516,0.0879 0.11914,0.13574 0.08496,0.0479 0.207031,0.0479 0.208985,0 0.297852,-0.0947 0.08887,-0.0947 0.08887,-0.36426 z M 66.685547,112 v -1.2627 h -0.47168 v -0.16894 h 1.134766 v 0.16894 H 66.875 V 112 Z"
     id="text17"
     style="font-size:2px;font-family:Arial, sans-serif;text-anchor:middle;fill:#ffffff"
     aria-label="MAIN OUT" />
  <path
     d="m 54.692749,122 v -1.07373 h 0.14209 v 0.94702 h 0.528808 V 122 Z"
     id="text18"
     style="font-size:1.5px;font-family:Arial, sans-serif;text-anchor:middle;fill:#888888"
     aria-label="L" />
  <path
     d="m 69.576294,122 v -1.07373 h 0.476074 q 0.143555,0 0.218262,0.0293 0.07471,0.0286 0.119385,0.1018 0.04468,0.0732 0.04468,0.16187 0,0.11426 -0.07397,0.19263 -0.07398,0.0784 -0.228516,0.0996 0.0564,0.0271 0.08569,0.0535 0.06226,0.0571 0.117919,0.14282 L 70.522583,122 h -0.178711 l -0.14209,-0.22339 q -0.06226,-0.0967 -0.102539,-0.14795 -0.04028,-0.0513 -0.07251,-0.0718 -0.03149,-0.0205 -0.06445,-0.0286 -0.02417,-0.005 -0.0791,-0.005 H 69.718384 V 122 Z m 0.14209,-0.59985 h 0.30542 q 0.09741,0 0.152343,-0.0198 0.05493,-0.0205 0.0835,-0.0644 0.02856,-0.0447 0.02856,-0.0967 0,-0.0762 -0.05566,-0.12525 -0.05493,-0.0491 -0.174316,-0.0491 h -0.339844 z"
     id="text19"
     style="font-size:1.5px;font-family:Arial, sans-serif;text-anchor:middle;fill:#888888"
     aria-label="R" />
  <!-- Brand -->
  <path
     d="m 36.507309,126.07886 v -0.12598 l 0.454834,-7.3e-4 v 0.39844 q -0.104736,0.0835 -0.216065,0.12597 -0.111328,0.0417 -0.228515,0.0417 -0.158203,0 -0.287842,-0.0674 -0.128906,-0.0681 -0.194824,-0.19629 -0.06592,-0.12818 -0.06592,-0.28638 0,-0.15674 0.06518,-0.29223 0.06592,-0.13624 0.188965,-0.20215 0.123047,-0.0659 0.283448,-0.0659 0.116455,0 0.210205,0.0381 0.09448,0.0374 0.147949,0.10474 0.05347,0.0674 0.0813,0.17578 l -0.128174,0.0352 q -0.02417,-0.082 -0.06006,-0.12891 -0.03589,-0.0469 -0.102539,-0.0747 -0.06665,-0.0286 -0.147949,-0.0286 -0.09741,0 -0.168457,0.03 -0.07105,0.0293 -0.11499,0.0776 -0.04321,0.0483 -0.06738,0.1062 -0.04102,0.0996 -0.04102,0.21606 0,0.14356 0.04907,0.24024 0.0498,0.0967 0.144287,0.14355 0.09448,0.0469 0.200683,0.0469 0.09228,0 0.180176,-0.0352 0.08789,-0.0359 0.133301,-0.0762 v -0.19995 z M 37.165756,126.5 v -1.07373 h 0.14209 v 0.94702 h 0.528809 V 126.5 Z m 0.864258,0 v -1.07373 h 0.14209 V 126.5 Z m 0.283447,0 0.415284,-0.55957 -0.366211,-0.51416 h 0.169189 l 0.194824,0.27539 q 0.06079,0.0857 0.08643,0.13184 0.03589,-0.0586 0.08496,-0.12232 l 0.216064,-0.28491 h 0.154541 l -0.377197,0.5061 0.406494,0.56763 h -0.175781 l -0.270264,-0.38306 q -0.02271,-0.033 -0.04687,-0.0718 -0.03589,0.0586 -0.05127,0.0806 L 38.484116,126.5 Z m 1.478028,-0.34497 0.134033,-0.0117 q 0.0095,0.0806 0.04395,0.13257 0.03516,0.0513 0.108399,0.0835 0.07324,0.0315 0.164795,0.0315 0.0813,0 0.143554,-0.0242 0.06226,-0.0242 0.09228,-0.0659 0.03076,-0.0425 0.03076,-0.0923 0,-0.0505 -0.0293,-0.0879 -0.0293,-0.0381 -0.09668,-0.0637 -0.04321,-0.0168 -0.191163,-0.052 -0.147949,-0.0359 -0.207275,-0.0674 -0.0769,-0.0403 -0.11499,-0.0996 -0.03735,-0.0601 -0.03735,-0.13403 0,-0.0813 0.04614,-0.15161 0.04614,-0.071 0.134765,-0.10767 0.08862,-0.0366 0.197022,-0.0366 0.119385,0 0.210205,0.0388 0.09155,0.0381 0.140625,0.11279 0.04907,0.0747 0.05273,0.16919 l -0.13623,0.0102 q -0.01099,-0.1018 -0.07471,-0.1538 -0.06299,-0.052 -0.186768,-0.052 -0.128906,0 -0.188232,0.0476 -0.05859,0.0469 -0.05859,0.11353 0,0.0579 0.04175,0.0952 0.04102,0.0373 0.213867,0.0769 0.173584,0.0388 0.238038,0.0681 0.09375,0.0432 0.138427,0.10986 0.04468,0.0659 0.04468,0.15235 0,0.0857 -0.04907,0.16186 -0.04907,0.0754 -0.141358,0.11792 -0.09155,0.0417 -0.206543,0.0417 -0.145752,0 -0.244629,-0.0425 -0.09814,-0.0425 -0.154541,-0.12744 -0.05566,-0.0857 -0.05859,-0.19336 z M 41.11351,126.5 v -0.94702 h -0.35376 v -0.12671 h 0.851075 v 0.12671 H 41.2556 V 126.5 Z m 1.347656,-1.07373 h 0.14209 v 0.62036 q 0,0.16187 -0.03662,0.25708 -0.03662,0.0952 -0.132568,0.15527 -0.09521,0.0593 -0.250489,0.0593 -0.150878,0 -0.246826,-0.052 -0.09595,-0.052 -0.136963,-0.15015 -0.04101,-0.0989 -0.04101,-0.26953 v -0.62036 h 0.14209 v 0.61963 q 0,0.13989 0.02563,0.20654 0.02637,0.0659 0.08936,0.10181 0.06372,0.0359 0.155273,0.0359 0.156739,0 0.223389,-0.071 0.06665,-0.071 0.06665,-0.27319 z M 42.839828,126.5 v -1.07373 h 0.369874 q 0.125244,0 0.191162,0.0154 0.09229,0.0212 0.15747,0.0769 0.08496,0.0718 0.126709,0.18384 0.04248,0.11133 0.04248,0.25489 0,0.12231 -0.02857,0.21679 -0.02856,0.0945 -0.07324,0.15674 -0.04468,0.0615 -0.09814,0.0974 -0.05273,0.0352 -0.128174,0.0535 -0.07471,0.0183 -0.172119,0.0183 z m 0.14209,-0.12671 h 0.229248 q 0.106202,0 0.16626,-0.0198 0.06079,-0.0198 0.09668,-0.0557 0.05054,-0.0505 0.07837,-0.1355 0.02856,-0.0857 0.02856,-0.20727 0,-0.16846 -0.05566,-0.25855 -0.05493,-0.0908 -0.134033,-0.12158 -0.05713,-0.022 -0.183838,-0.022 H 42.981918 Z M 43.94725,126.5 v -1.07373 h 0.14209 V 126.5 Z m 0.349366,-0.52295 q 0,-0.26733 0.143554,-0.41821 0.143555,-0.15161 0.370606,-0.15161 0.148681,0 0.268066,0.071 0.119385,0.071 0.181641,0.19849 0.06299,0.12671 0.06299,0.28784 0,0.16333 -0.06592,0.29224 -0.06592,0.1289 -0.186767,0.19555 -0.12085,0.0659 -0.260743,0.0659 -0.151611,0 -0.270996,-0.0732 -0.119385,-0.0732 -0.180908,-0.19995 -0.06152,-0.12671 -0.06152,-0.26807 z m 0.146484,0.002 q 0,0.19409 0.104004,0.30615 0.104736,0.11133 0.262207,0.11133 0.1604,0 0.263672,-0.11279 0.104004,-0.1128 0.104004,-0.32007 0,-0.13111 -0.04468,-0.22852 -0.04395,-0.0981 -0.129639,-0.15161 -0.08496,-0.0542 -0.191162,-0.0542 -0.150879,0 -0.26001,0.104 -0.108398,0.10328 -0.108398,0.34571 z"
     id="text20"
     style="font-size:1.5px;font-family:Arial, sans-serif;text-anchor:middle;fill:#444444"
     aria-label="VCVRack Freedom" />
</svg>
