<?xml version="1.0" encoding="UTF-8" standalone="no"?>
<svg
   width="50.8mm"
   height="128.5mm"
   viewBox="0 0 50.8 128.5"
   version="1.1"
   id="svg17"
   sodipodi:docname="OrganicHats.svg"
   xmlns:inkscape="http://www.inkscape.org/namespaces/inkscape"
   xmlns:sodipodi="http://sodipodi.sourceforge.net/DTD/sodipodi-0.dtd"
   xmlns="http://www.w3.org/2000/svg"
   xmlns:svg="http://www.w3.org/2000/svg">
  <defs
     id="defs17" />
  <sodipodi:namedview
     id="namedview17"
     pagecolor="#ffffff"
     bordercolor="#000000"
     borderopacity="0.25"
     inkscape:showpageshadow="2"
     inkscape:pageopacity="0.0"
     inkscape:pagecheckerboard="0"
     inkscape:deskcolor="#d1d1d1"
     inkscape:document-units="mm" />
  <!-- Background -->
  <rect
     width="50.8"
     height="128.5"
     fill="#2a2a2a"
     id="rect1" />
  <!-- Panel border -->
  <rect
     x="0.5"
     y="0.5"
     width="49.8"
     height="127.5"
     fill="none"
     stroke="#444"
     stroke-width="0.5"
     id="rect2" />
  <!-- Title -->
  <path
     d="m 10.277929,6.5859375 q 0,-0.4375 0.13086,-0.734375 0.09766,-0.21875 0.265625,-0.3925781 0.169922,-0.1738282 0.371093,-0.2578125 0.267579,-0.1132813 0.617188,-0.1132813 0.632812,0 1.011719,0.3925781 0.380859,0.3925782 0.380859,1.0917969 0,0.6933594 -0.376953,1.0859375 -0.376953,0.390625 -1.007813,0.390625 -0.638671,0 -1.015625,-0.3886719 -0.376953,-0.390625 -0.376953,-1.0742187 z m 0.595703,-0.019531 q 0,0.4863282 0.22461,0.7382813 0.224609,0.25 0.570312,0.25 0.345703,0 0.566407,-0.2480469 0.222656,-0.25 0.222656,-0.7480469 0,-0.4921875 -0.216797,-0.734375 -0.214844,-0.2421875 -0.572266,-0.2421875 -0.357422,0 -0.576172,0.2460938 -0.21875,0.2441406 -0.21875,0.7382812 z M 13.508398,8 V 5.1367187 h 1.216797 q 0.458984,0 0.666016,0.078125 0.208984,0.076172 0.333984,0.2734375 0.125,0.1972657 0.125,0.4511719 0,0.3222656 -0.189453,0.5332031 -0.189453,0.2089844 -0.566406,0.2636719 0.1875,0.109375 0.308593,0.2402344 0.123047,0.1308594 0.330078,0.4648437 L 16.082617,8 H 15.391211 L 14.973242,7.3769531 Q 14.750586,7.0429687 14.668554,6.9570312 14.586523,6.8691406 14.494726,6.8378906 14.402929,6.8046875 14.203711,6.8046875 H 14.086523 V 8 Z m 0.578125,-1.6523438 h 0.427734 q 0.416016,0 0.519532,-0.035156 0.103515,-0.035156 0.162109,-0.1210938 0.05859,-0.085937 0.05859,-0.2148437 0,-0.1445313 -0.07813,-0.2324219 -0.07617,-0.089844 -0.216797,-0.1132812 -0.07031,-0.00977 -0.421875,-0.00977 h -0.451172 z m 3.640625,0.5996094 V 6.4648437 h 1.246094 v 1.140625 q -0.181641,0.1757813 -0.527344,0.3105469 -0.34375,0.1328125 -0.697266,0.1328125 -0.449218,0 -0.783203,-0.1875 Q 16.631445,7.671875 16.463476,7.3222656 16.295507,6.9707031 16.295507,6.5585937 q 0,-0.4472656 0.1875,-0.7949218 0.1875,-0.3476563 0.548829,-0.5332032 0.27539,-0.1425781 0.685546,-0.1425781 0.533204,0 0.832032,0.2246094 0.300781,0.2226562 0.386718,0.6171875 L 18.361914,6.0371094 Q 18.301367,5.8261719 18.133398,5.7050781 17.967382,5.5820312 17.717382,5.5820312 q -0.378906,0 -0.603515,0.2402344 -0.222656,0.2402344 -0.222656,0.7128906 0,0.5097657 0.226562,0.765625 0.226563,0.2539063 0.59375,0.2539063 0.181641,0 0.363281,-0.070312 0.183594,-0.072266 0.314453,-0.1738281 V 6.9472656 Z M 22.088476,8 H 21.45957 l -0.25,-0.6503906 H 20.065039 L 19.828711,8 h -0.613282 l 1.115235,-2.8632813 h 0.611328 z m -1.064453,-1.1328125 -0.394531,-1.0625 -0.386719,1.0625 z M 22.400976,8 V 5.1367187 h 0.5625 l 1.171875,1.9121094 V 5.1367187 h 0.53711 V 8 H 24.092382 L 22.938086,6.1328125 V 8 Z m 2.865235,0 V 5.1367187 h 0.578125 V 8 Z M 28.227148,6.9472656 28.787695,7.125 q -0.128906,0.46875 -0.429688,0.6972656 -0.298828,0.2265625 -0.759765,0.2265625 -0.570313,0 -0.9375,-0.3886719 -0.367188,-0.390625 -0.367188,-1.0664062 0,-0.7148438 0.369141,-1.109375 0.369141,-0.3964844 0.970703,-0.3964844 0.525391,0 0.853516,0.3105469 0.195312,0.1835937 0.292968,0.5273437 L 28.207617,6.0625 Q 28.156836,5.8398437 27.994726,5.7109375 27.83457,5.5820312 27.604101,5.5820312 q -0.318359,0 -0.517578,0.2285157 -0.197266,0.2285156 -0.197266,0.7402343 0,0.5429688 0.195313,0.7734375 0.195312,0.2304688 0.507812,0.2304688 0.230469,0 0.396485,-0.1464844 0.166015,-0.1464844 0.238281,-0.4609375 z M 30.39707,8 V 5.1367187 h 0.578125 v 1.1269532 h 1.132812 V 5.1367187 h 0.578125 V 8 H 32.108007 V 6.7480469 H 30.975195 V 8 Z m 5.46875,0 h -0.628906 l -0.25,-0.6503906 H 33.842382 L 33.606054,8 h -0.613281 l 1.115234,-2.8632813 h 0.611329 z m -1.064453,-1.1328125 -0.394531,-1.0625 -0.386719,1.0625 z M 36.520117,8 V 5.6210937 h -0.84961 v -0.484375 h 2.275391 v 0.484375 H 37.098242 V 8 Z m 1.652344,-0.9316406 0.5625,-0.054687 q 0.05078,0.2832031 0.205078,0.4160156 0.15625,0.1328125 0.419922,0.1328125 0.279296,0 0.419921,-0.1171875 0.142579,-0.1191406 0.142579,-0.2773438 0,-0.1015625 -0.06055,-0.171875 -0.05859,-0.072266 -0.207032,-0.125 -0.101562,-0.035156 -0.46289,-0.125 -0.464844,-0.1152343 -0.652344,-0.2832031 -0.263672,-0.2363281 -0.263672,-0.5761719 0,-0.21875 0.123047,-0.4082031 0.125,-0.1914062 0.357422,-0.2910156 0.234375,-0.099609 0.564453,-0.099609 0.539063,0 0.810547,0.2363281 0.273437,0.2363282 0.287109,0.6308594 l -0.578125,0.025391 q -0.03711,-0.2207031 -0.160156,-0.3164062 -0.121094,-0.097656 -0.365234,-0.097656 -0.251953,0 -0.394532,0.1035157 -0.0918,0.066406 -0.0918,0.1777343 0,0.1015625 0.08594,0.1738282 0.109375,0.091797 0.53125,0.1914062 0.421875,0.099609 0.623047,0.2070313 0.203125,0.1054687 0.316406,0.2910156 0.115235,0.1835937 0.115235,0.4550781 0,0.2460938 -0.136719,0.4609375 -0.136719,0.2148438 -0.386719,0.3203125 -0.25,0.1035157 -0.623047,0.1035157 -0.542969,0 -0.833984,-0.2500001 -0.291016,-0.2519531 -0.347656,-0.7324218 z"
     id="text2"
     style="font-weight:bold;font-size:4px;font-family:Arial, sans-serif;text-anchor:middle;fill:#ffffff"
     aria-label="ORGANIC HATS" />
  <!-- Divider line -->
  <line
     x1="25.4"
     y1="15"
     x2="25.4"
     y2="112"
     stroke="#555"
     stroke-width="0.3"
     id="line2" />
  <!-- Section labels -->
  <path
     d="m 9.0293455,16.372559 0.2368164,0.05981 q -0.074463,0.291748 -0.2685547,0.445557 -0.1928711,0.152588 -0.4724121,0.152588 -0.2893066,0 -0.4711914,-0.117188 -0.180664,-0.118408 -0.2758789,-0.341797 -0.093994,-0.223388 -0.093994,-0.479736 0,-0.279541 0.1062011,-0.487061 0.1074219,-0.20874 0.3039551,-0.316162 0.1977539,-0.108642 0.4345703,-0.108642 0.2685547,0 0.4516602,0.136718 0.1831055,0.136719 0.2551269,0.384522 L 9.00249,15.756104 q -0.062256,-0.195313 -0.180664,-0.284424 -0.1184082,-0.08911 -0.2978516,-0.08911 -0.2062988,0 -0.345459,0.09888 -0.1379394,0.09888 -0.1940918,0.266114 -0.056152,0.166015 -0.056152,0.343017 0,0.228272 0.065918,0.39917 0.067139,0.169678 0.2075195,0.253906 0.1403809,0.08423 0.3039551,0.08423 0.1989746,0 0.336914,-0.114746 0.1379395,-0.114746 0.1867676,-0.340576 z M 9.5481443,17 v -1.789551 h 0.2368164 v 1.578369 H 10.666308 V 17 Z m 1.3281247,-0.871582 q 0,-0.445557 0.239258,-0.697022 0.239258,-0.252685 0.617676,-0.252685 0.247803,0 0.446777,0.118408 0.198975,0.118408 0.302735,0.330811 0.10498,0.211181 0.10498,0.479736 0,0.272217 -0.109863,0.487061 -0.109863,0.214843 -0.311279,0.325927 -0.201416,0.109864 -0.434571,0.109864 -0.252685,0 -0.45166,-0.122071 -0.198975,-0.12207 -0.301514,-0.333252 -0.102539,-0.211181 -0.102539,-0.446777 z m 0.244141,0.0037 q 0,0.323486 0.17334,0.510254 0.17456,0.185547 0.437012,0.185547 0.267334,0 0.439453,-0.187988 0.173339,-0.187989 0.173339,-0.533448 0,-0.218506 -0.07446,-0.380859 -0.07324,-0.163574 -0.216065,-0.252686 -0.141601,-0.09033 -0.318603,-0.09033 -0.251465,0 -0.43335,0.17334 -0.180664,0.172119 -0.180664,0.576172 z m 1.691894,0.292969 0.223389,-0.01953 q 0.01587,0.134277 0.07324,0.220947 0.05859,0.08545 0.180664,0.13916 0.122071,0.05249 0.274659,0.05249 0.135498,0 0.239257,-0.04028 0.10376,-0.04028 0.153809,-0.109863 0.05127,-0.0708 0.05127,-0.153809 0,-0.08423 -0.04883,-0.146484 -0.04883,-0.06348 -0.161132,-0.106201 -0.07202,-0.02808 -0.318604,-0.08667 -0.246582,-0.05982 -0.345459,-0.112305 -0.128174,-0.06714 -0.19165,-0.166016 -0.06226,-0.100097 -0.06226,-0.223388 0,-0.135498 0.0769,-0.252686 0.0769,-0.118408 0.22461,-0.179443 0.147705,-0.06103 0.328369,-0.06103 0.198974,0 0.350341,0.0647 0.152588,0.06348 0.234375,0.187988 0.08179,0.124512 0.08789,0.281983 l -0.227051,0.01709 q -0.01831,-0.169677 -0.124511,-0.256347 -0.104981,-0.08667 -0.31128,-0.08667 -0.214843,0 -0.31372,0.07935 -0.09766,0.07813 -0.09766,0.189209 0,0.09643 0.06958,0.158691 0.06836,0.06226 0.356446,0.128174 0.289306,0.0647 0.396728,0.113525 0.15625,0.07202 0.230713,0.183106 0.07446,0.109863 0.07446,0.253906 0,0.142822 -0.08179,0.269775 -0.08179,0.125733 -0.235596,0.196533 -0.152588,0.06958 -0.344238,0.06958 -0.24292,0 -0.407715,-0.0708 -0.163574,-0.0708 -0.257568,-0.212403 -0.09277,-0.142822 -0.09766,-0.322265 z M 14.565234,17 v -1.789551 h 1.293945 v 0.211182 h -1.057128 v 0.548096 h 0.98999 v 0.20996 h -0.98999 v 0.609131 h 1.098632 V 17 Z m 1.662598,0 v -1.789551 h 0.616455 q 0.20874,0 0.318603,0.02563 0.153809,0.0354 0.262452,0.128174 0.141601,0.119629 0.211181,0.306396 0.0708,0.185547 0.0708,0.424805 0,0.203857 -0.04761,0.361328 -0.04761,0.157471 -0.122071,0.261231 -0.07446,0.102539 -0.163574,0.162353 -0.08789,0.05859 -0.213623,0.08911 Q 17.035937,17 16.873584,17 Z m 0.236816,-0.211182 h 0.38208 q 0.177002,0 0.2771,-0.03296 0.101318,-0.03296 0.161133,-0.09277 0.08423,-0.08423 0.130615,-0.22583 0.04761,-0.142822 0.04761,-0.345459 0,-0.280762 -0.09277,-0.430908 -0.09155,-0.151368 -0.223389,-0.202637 -0.09521,-0.03662 -0.306396,-0.03662 h -0.375977 z"
     id="text3"
     style="font-size:2.5px;font-family:Arial, sans-serif;text-anchor:middle;fill:#ff6666"
     aria-label="CLOSED" />
  <path
     d="m 34.678368,16.128418 q 0,-0.445557 0.239257,-0.697022 0.239258,-0.252685 0.617676,-0.252685 0.247803,0 0.446778,0.118408 0.198974,0.118408 0.302734,0.330811 0.10498,0.211181 0.10498,0.479736 0,0.272217 -0.109863,0.487061 -0.109863,0.214843 -0.311279,0.325927 -0.201416,0.109864 -0.43457,0.109864 -0.252686,0 -0.451661,-0.122071 -0.198974,-0.12207 -0.301513,-0.333252 -0.102539,-0.211181 -0.102539,-0.446777 z m 0.24414,0.0037 q 0,0.323486 0.17334,0.510254 0.174561,0.185547 0.437012,0.185547 0.267334,0 0.439453,-0.187988 0.17334,-0.187989 0.17334,-0.533448 0,-0.218506 -0.07446,-0.380859 -0.07324,-0.163574 -0.216065,-0.252686 -0.141601,-0.09033 -0.318603,-0.09033 -0.251465,0 -0.43335,0.17334 -0.180664,0.172119 -0.180664,0.576172 z M 36.694969,17 v -1.789551 h 0.675049 q 0.178223,0 0.272217,0.01709 0.131836,0.02197 0.220947,0.08423 0.08911,0.06103 0.142822,0.172119 0.05493,0.111084 0.05493,0.24414 0,0.228272 -0.145264,0.386963 -0.145263,0.157471 -0.524902,0.157471 H 36.931786 V 17 Z m 0.236817,-0.938721 h 0.462646 q 0.229492,0 0.325928,-0.08545 0.09643,-0.08545 0.09643,-0.240478 0,-0.112305 -0.05737,-0.191651 -0.05615,-0.08057 -0.148925,-0.106201 -0.05982,-0.01587 -0.220948,-0.01587 H 36.931786 Z M 38.367332,17 v -1.789551 h 1.293946 v 0.211182 h -1.057129 v 0.548096 h 0.98999 v 0.20996 h -0.98999 v 0.609131 h 1.098633 V 17 Z m 1.660157,0 v -1.789551 h 0.24292 l 0.939941,1.40503 v -1.40503 h 0.227051 V 17 h -0.24292 L 40.254539,15.59375 V 17 Z"
     id="text4"
     style="font-size:2.5px;font-family:Arial, sans-serif;text-anchor:middle;fill:#66ff66"
     aria-label="OPEN" />
  <!-- Closed column labels -->
  <path
     d="M 10.458789,47 V 45.737305 H 9.9871092 v -0.168946 h 1.1347658 v 0.168946 H 10.648242 V 47 Z m 0.763672,-0.697266 q 0,-0.356445 0.191406,-0.557617 0.191406,-0.202148 0.494141,-0.202148 0.198242,0 0.357421,0.09473 0.15918,0.09473 0.242188,0.264649 0.08398,0.168945 0.08398,0.383789 0,0.217773 -0.08789,0.389648 -0.08789,0.171875 -0.249024,0.260742 -0.161133,0.08789 -0.347656,0.08789 -0.202148,0 -0.361328,-0.09766 -0.15918,-0.09766 -0.241211,-0.266602 -0.08203,-0.168945 -0.08203,-0.357422 z m 0.195312,0.0029 q 0,0.258789 0.138672,0.408203 0.139649,0.148438 0.349609,0.148438 0.213868,0 0.351563,-0.150391 0.138672,-0.150391 0.138672,-0.426758 0,-0.174804 -0.05957,-0.304687 -0.05859,-0.13086 -0.172852,-0.202149 -0.113281,-0.07227 -0.254883,-0.07227 -0.201172,0 -0.34668,0.138672 -0.144531,0.137695 -0.144531,0.460937 z M 12.833789,47 v -1.431641 h 0.194336 l 0.751953,1.124024 v -1.124024 h 0.181641 V 47 H 13.767383 L 13.015429,45.875 V 47 Z m 1.450195,0 v -1.431641 h 1.035156 v 0.168946 h -0.845703 v 0.438476 h 0.791992 v 0.167969 h -0.791992 v 0.487305 h 0.878907 V 47 Z"
     id="text5"
     style="font-size:2px;font-family:Arial, sans-serif;text-anchor:middle;fill:#aaaaaa"
     aria-label="TONE" />
  <path
     d="M 9.4832029,64 V 62.568359 H 9.976367 q 0.166992,0 0.254883,0.02051 0.123047,0.02832 0.209961,0.102539 0.113281,0.0957 0.168945,0.245117 0.05664,0.148438 0.05664,0.339844 0,0.163086 -0.03809,0.289063 -0.03809,0.125976 -0.09766,0.208984 -0.05957,0.08203 -0.130859,0.129883 -0.07031,0.04687 -0.170898,0.07129 Q 10.129687,64 9.9998045,64 Z m 0.1894532,-0.168945 h 0.305664 q 0.1416019,0 0.2216799,-0.02637 0.08105,-0.02637 0.128906,-0.07422 0.06738,-0.06738 0.104492,-0.180664 0.03809,-0.114258 0.03809,-0.276368 0,-0.224609 -0.07422,-0.344726 -0.07324,-0.121094 -0.178711,-0.162109 -0.07617,-0.0293 -0.2451167,-0.0293 H 9.6726561 Z M 10.931445,64 v -1.431641 h 1.035156 v 0.168946 h -0.845703 v 0.438476 h 0.791992 v 0.167969 h -0.791992 v 0.487305 h 0.878906 V 64 Z m 2.351563,-0.501953 0.189453,0.04785 q -0.05957,0.233399 -0.214844,0.356446 -0.154297,0.12207 -0.37793,0.12207 -0.231445,0 -0.376953,-0.09375 -0.144531,-0.09473 -0.220703,-0.273437 -0.0752,-0.178711 -0.0752,-0.38379 0,-0.223632 0.08496,-0.389648 0.08594,-0.166992 0.243164,-0.25293 0.158203,-0.08691 0.347656,-0.08691 0.214844,0 0.361328,0.109375 0.146484,0.109375 0.204102,0.307617 l -0.186524,0.04395 q -0.0498,-0.15625 -0.144531,-0.227539 -0.09473,-0.07129 -0.238281,-0.07129 -0.165039,0 -0.276367,0.0791 -0.110352,0.0791 -0.155274,0.212891 -0.04492,0.132812 -0.04492,0.274414 0,0.182617 0.05274,0.319336 0.05371,0.135742 0.166015,0.203125 0.112305,0.06738 0.243164,0.06738 0.15918,0 0.269532,-0.0918 0.110351,-0.0918 0.149414,-0.272461 z M 13.548633,64 14.098437,62.568359 h 0.204102 L 14.888476,64 h -0.21582 L 14.505664,63.566406 H 13.907031 L 13.749804,64 Z m 0.413086,-0.587891 h 0.485351 l -0.149414,-0.396484 q -0.06836,-0.180664 -0.101562,-0.296875 -0.02734,0.137695 -0.07715,0.273437 z M 15.294726,64 v -0.606445 l -0.551757,-0.825196 h 0.230468 L 15.255664,63 q 0.07813,0.121094 0.145508,0.242187 0.06445,-0.112304 0.15625,-0.252929 l 0.277343,-0.420899 h 0.220704 l -0.57129,0.825196 V 64 Z"
     id="text6"
     style="font-size:2px;font-family:Arial, sans-serif;text-anchor:middle;fill:#aaaaaa"
     aria-label="DECAY" />
  <path
     d="m 10.319629,80.498047 0.189453,0.04785 q -0.05957,0.233399 -0.214844,0.356446 -0.154297,0.12207 -0.3779296,0.12207 -0.2314453,0 -0.3769531,-0.09375 -0.1445313,-0.09473 -0.2207031,-0.273437 -0.075195,-0.178711 -0.075195,-0.38379 0,-0.223632 0.084961,-0.389648 0.085937,-0.166992 0.243164,-0.25293 0.1582032,-0.08691 0.3476563,-0.08691 0.2148439,0 0.3613279,0.109375 0.146485,0.109375 0.204102,0.307617 l -0.186524,0.04395 q -0.0498,-0.15625 -0.144531,-0.227539 -0.09473,-0.07129 -0.2382812,-0.07129 -0.165039,0 -0.2763671,0.0791 -0.1103516,0.0791 -0.1552735,0.212891 -0.044922,0.132812 -0.044922,0.274414 0,0.182617 0.052734,0.319336 0.053711,0.135742 0.1660156,0.203125 0.1123047,0.06738 0.2431641,0.06738 0.1591796,0 0.2695316,-0.0918 0.110351,-0.0918 0.149414,-0.272461 z m 0.365234,-0.195313 q 0,-0.356445 0.191406,-0.557617 0.191407,-0.202148 0.494141,-0.202148 0.198242,0 0.357422,0.09473 0.15918,0.09473 0.242187,0.264649 0.08399,0.168945 0.08399,0.383789 0,0.217773 -0.08789,0.389648 -0.08789,0.171875 -0.249023,0.260742 -0.161133,0.08789 -0.347657,0.08789 -0.202148,0 -0.361328,-0.09766 -0.159179,-0.09766 -0.241211,-0.266602 -0.08203,-0.168945 -0.08203,-0.357422 z m 0.195313,0.0029 q 0,0.258789 0.138671,0.408203 0.139649,0.148438 0.34961,0.148438 0.213867,0 0.351562,-0.150391 0.138672,-0.150391 0.138672,-0.426758 0,-0.174804 -0.05957,-0.304687 -0.05859,-0.13086 -0.172852,-0.202149 -0.113281,-0.07226 -0.254882,-0.07226 -0.201172,0 -0.34668,0.138672 -0.144531,0.137695 -0.144531,0.460937 z M 12.290332,81 v -1.431641 h 0.189453 v 1.262696 h 0.705078 V 81 Z m 1.0625,-0.697266 q 0,-0.356445 0.191406,-0.557617 0.191406,-0.202148 0.494141,-0.202148 0.198242,0 0.357422,0.09473 0.159179,0.09473 0.242187,0.264649 0.08398,0.168945 0.08398,0.383789 0,0.217773 -0.08789,0.389648 -0.08789,0.171875 -0.249024,0.260742 -0.161132,0.08789 -0.347656,0.08789 -0.202148,0 -0.361328,-0.09766 -0.15918,-0.09766 -0.241211,-0.266602 -0.08203,-0.168945 -0.08203,-0.357422 z m 0.195312,0.0029 q 0,0.258789 0.138672,0.408203 0.139649,0.148438 0.34961,0.148438 0.213867,0 0.351562,-0.150391 0.138672,-0.150391 0.138672,-0.426758 0,-0.174804 -0.05957,-0.304687 -0.05859,-0.13086 -0.172852,-0.202149 -0.113281,-0.07226 -0.254883,-0.07226 -0.201172,0 -0.346679,0.138672 -0.144532,0.137695 -0.144532,0.460937 z M 14.969043,81 v -1.431641 h 0.634765 q 0.191407,0 0.291016,0.03906 0.09961,0.03809 0.15918,0.135742 0.05957,0.09766 0.05957,0.21582 0,0.152344 -0.09863,0.256836 -0.09863,0.104492 -0.304687,0.132813 0.07519,0.03613 0.114258,0.07129 0.08301,0.07617 0.157226,0.19043 L 16.230762,81 H 15.99248 l -0.189453,-0.297852 q -0.08301,-0.128906 -0.136719,-0.197265 -0.05371,-0.06836 -0.09668,-0.0957 -0.04199,-0.02734 -0.08594,-0.03809 -0.03223,-0.0068 -0.105469,-0.0068 H 15.158496 V 81 Z m 0.189453,-0.799805 h 0.407226 q 0.129883,0 0.203125,-0.02637 0.07324,-0.02734 0.111329,-0.08594 0.03809,-0.05957 0.03809,-0.128907 0,-0.101562 -0.07422,-0.166992 -0.07324,-0.06543 -0.232422,-0.06543 h -0.453125 z"
     id="text7"
     style="font-size:2px;font-family:Arial, sans-serif;text-anchor:middle;fill:#aaaaaa"
     aria-label="COLOR" />
  <!-- Open column labels -->
  <path
     d="m 35.858788,47 v -1.262695 h -0.47168 v -0.168946 h 1.134765 v 0.168946 H 36.048241 V 47 Z m 0.763671,-0.697266 q 0,-0.356445 0.191407,-0.557617 0.191406,-0.202148 0.49414,-0.202148 0.198242,0 0.357422,0.09473 0.15918,0.09473 0.242188,0.264649 0.08398,0.168945 0.08398,0.383789 0,0.217773 -0.08789,0.389648 -0.08789,0.171875 -0.249023,0.260742 -0.161133,0.08789 -0.347656,0.08789 -0.202149,0 -0.361328,-0.09766 -0.15918,-0.09766 -0.241211,-0.266602 -0.08203,-0.168945 -0.08203,-0.357422 z m 0.195313,0.0029 q 0,0.258789 0.138672,0.408203 0.139648,0.148438 0.349609,0.148438 0.213867,0 0.351563,-0.150391 0.138672,-0.150391 0.138672,-0.426758 0,-0.174804 -0.05957,-0.304687 -0.05859,-0.13086 -0.172851,-0.202149 -0.113282,-0.07227 -0.254883,-0.07227 -0.201172,0 -0.34668,0.138672 -0.144531,0.137695 -0.144531,0.460937 z M 38.233788,47 v -1.431641 h 0.194335 l 0.751954,1.124024 v -1.124024 h 0.18164 V 47 H 39.167381 L 38.415428,45.875 V 47 Z m 1.450195,0 v -1.431641 h 1.035156 v 0.168946 h -0.845703 v 0.438476 h 0.791992 v 0.167969 h -0.791992 v 0.487305 h 0.878906 V 47 Z"
     id="text8"
     style="font-size:2px;font-family:Arial, sans-serif;text-anchor:middle;fill:#aaaaaa"
     aria-label="TONE" />
  <path
     d="m 33.643944,64 v -1.431641 h 0.634765 q 0.191407,0 0.291016,0.03906 0.09961,0.03809 0.15918,0.135742 0.05957,0.09766 0.05957,0.21582 0,0.152344 -0.09863,0.256836 -0.09863,0.104492 -0.304687,0.132813 0.0752,0.03613 0.114258,0.07129 0.08301,0.07617 0.157226,0.19043 L 34.905663,64 h -0.238282 l -0.189453,-0.297852 q -0.08301,-0.128906 -0.136719,-0.197265 -0.05371,-0.06836 -0.09668,-0.0957 -0.04199,-0.02734 -0.08594,-0.03809 -0.03223,-0.0068 -0.105469,-0.0068 H 33.833397 V 64 Z m 0.189453,-0.799805 h 0.407226 q 0.129883,0 0.203125,-0.02637 0.07324,-0.02734 0.111329,-0.08594 0.03809,-0.05957 0.03809,-0.128907 0,-0.101562 -0.07422,-0.166992 -0.07324,-0.06543 -0.232422,-0.06543 H 33.833397 Z M 35.089256,64 v -1.431641 h 1.035157 v 0.168946 h -0.845704 v 0.438476 h 0.791993 v 0.167969 h -0.791993 v 0.487305 h 0.878907 V 64 Z m 1.322266,0 v -1.431641 h 0.189453 v 1.262696 h 0.705078 V 64 Z m 1.124023,0 v -1.431641 h 1.035157 v 0.168946 h -0.845704 v 0.438476 h 0.791993 v 0.167969 h -0.791993 v 0.487305 h 0.878907 V 64 Z m 1.172852,0 0.549805,-1.431641 h 0.204101 L 40.048241,64 H 39.83242 L 39.665428,63.566406 H 39.066795 L 38.909569,64 Z m 0.413086,-0.587891 h 0.485351 L 39.45742,63.015625 q -0.06836,-0.180664 -0.101562,-0.296875 -0.02734,0.137695 -0.07715,0.273437 z m 1.013672,0.12793 0.178711,-0.01563 q 0.0127,0.107422 0.05859,0.176758 0.04687,0.06836 0.144532,0.111328 0.09766,0.04199 0.219726,0.04199 0.108399,0 0.191406,-0.03223 0.08301,-0.03223 0.123047,-0.08789 0.04102,-0.05664 0.04102,-0.123047 0,-0.06738 -0.03906,-0.117187 -0.03906,-0.05078 -0.128906,-0.08496 -0.05762,-0.02246 -0.254883,-0.06934 -0.197265,-0.04785 -0.276367,-0.08984 -0.102539,-0.05371 -0.15332,-0.132813 -0.0498,-0.08008 -0.0498,-0.17871 0,-0.108399 0.06152,-0.202149 0.06152,-0.09473 0.179687,-0.143555 0.118164,-0.04883 0.262695,-0.04883 0.15918,0 0.280274,0.05176 0.12207,0.05078 0.1875,0.150391 0.06543,0.09961 0.07031,0.225586 l -0.18164,0.01367 q -0.01465,-0.135743 -0.09961,-0.205079 -0.08398,-0.06934 -0.249023,-0.06934 -0.171875,0 -0.250977,0.06348 -0.07813,0.0625 -0.07813,0.151367 0,0.07715 0.05566,0.126953 0.05469,0.0498 0.285157,0.102539 0.231445,0.05176 0.317383,0.09082 0.125,0.05762 0.18457,0.146484 0.05957,0.08789 0.05957,0.203125 0,0.114258 -0.06543,0.21582 -0.06543,0.100586 -0.188476,0.157227 -0.12207,0.05566 -0.275391,0.05566 -0.194336,0 -0.326172,-0.05664 -0.130859,-0.05664 -0.206054,-0.169921 -0.07422,-0.114258 -0.07813,-0.257813 z M 41.537498,64 v -1.431641 h 1.035157 v 0.168946 h -0.845703 v 0.438476 h 0.791992 v 0.167969 h -0.791992 v 0.487305 h 0.878906 V 64 Z"
     id="text9"
     style="font-size:2px;font-family:Arial, sans-serif;text-anchor:middle;fill:#aaaaaa"
     aria-label="RELEASE" />
  <path
     d="m 35.719627,80.498047 0.189454,0.04785 q -0.05957,0.233399 -0.214844,0.356446 -0.154297,0.12207 -0.37793,0.12207 -0.231445,0 -0.376953,-0.09375 -0.144531,-0.09473 -0.220703,-0.273437 -0.0752,-0.178711 -0.0752,-0.38379 0,-0.223632 0.08496,-0.389648 0.08594,-0.166992 0.243165,-0.25293 0.158203,-0.08691 0.347656,-0.08691 0.214844,0 0.361328,0.109375 0.146484,0.109375 0.204101,0.307617 l -0.186523,0.04395 q -0.0498,-0.15625 -0.144531,-0.227539 -0.09473,-0.07129 -0.238281,-0.07129 -0.16504,0 -0.276368,0.0791 -0.110351,0.0791 -0.155273,0.212891 -0.04492,0.132812 -0.04492,0.274414 0,0.182617 0.05273,0.319336 0.05371,0.135742 0.166016,0.203125 0.112305,0.06738 0.243164,0.06738 0.15918,0 0.269531,-0.0918 0.110352,-0.0918 0.149414,-0.272461 z m 0.365235,-0.195313 q 0,-0.356445 0.191406,-0.557617 0.191406,-0.202148 0.494141,-0.202148 0.198242,0 0.357422,0.09473 0.159179,0.09473 0.242187,0.264649 0.08398,0.168945 0.08398,0.383789 0,0.217773 -0.08789,0.389648 -0.08789,0.171875 -0.249024,0.260742 -0.161132,0.08789 -0.347656,0.08789 -0.202148,0 -0.361328,-0.09766 -0.15918,-0.09766 -0.241211,-0.266602 -0.08203,-0.168945 -0.08203,-0.357422 z m 0.195312,0.0029 q 0,0.258789 0.138672,0.408203 0.139649,0.148438 0.34961,0.148438 0.213867,0 0.351562,-0.150391 0.138672,-0.150391 0.138672,-0.426758 0,-0.174804 -0.05957,-0.304687 -0.05859,-0.13086 -0.172852,-0.202149 -0.113281,-0.07226 -0.254883,-0.07226 -0.201172,0 -0.346679,0.138672 -0.144532,0.137695 -0.144532,0.460937 z M 37.690331,81 v -1.431641 h 0.189453 v 1.262696 h 0.705078 V 81 Z m 1.0625,-0.697266 q 0,-0.356445 0.191406,-0.557617 0.191406,-0.202148 0.49414,-0.202148 0.198243,0 0.357422,0.09473 0.15918,0.09473 0.242188,0.264649 0.08398,0.168945 0.08398,0.383789 0,0.217773 -0.08789,0.389648 -0.08789,0.171875 -0.249024,0.260742 -0.161133,0.08789 -0.347656,0.08789 -0.202149,0 -0.361328,-0.09766 -0.15918,-0.09766 -0.241211,-0.266602 -0.08203,-0.168945 -0.08203,-0.357422 z m 0.195312,0.0029 q 0,0.258789 0.138672,0.408203 0.139648,0.148438 0.349609,0.148438 0.213867,0 0.351563,-0.150391 0.138672,-0.150391 0.138672,-0.426758 0,-0.174804 -0.05957,-0.304687 -0.05859,-0.13086 -0.172851,-0.202149 -0.113281,-0.07226 -0.254883,-0.07226 -0.201172,0 -0.34668,0.138672 -0.144531,0.137695 -0.144531,0.460937 z M 40.369041,81 v -1.431641 h 0.634766 q 0.191406,0 0.291016,0.03906 0.09961,0.03809 0.159179,0.135742 0.05957,0.09766 0.05957,0.21582 0,0.152344 -0.09863,0.256836 -0.09863,0.104492 -0.304688,0.132813 0.0752,0.03613 0.114258,0.07129 0.08301,0.07617 0.157227,0.19043 L 41.63076,81 h -0.238281 l -0.189453,-0.297852 q -0.08301,-0.128906 -0.136719,-0.197265 -0.05371,-0.06836 -0.09668,-0.0957 -0.04199,-0.02734 -0.08594,-0.03809 -0.03223,-0.0068 -0.105469,-0.0068 H 40.558495 V 81 Z m 0.189454,-0.799805 h 0.407226 q 0.129883,0 0.203125,-0.02637 0.07324,-0.02734 0.111328,-0.08594 0.03809,-0.05957 0.03809,-0.128907 0,-0.101562 -0.07422,-0.166992 -0.07324,-0.06543 -0.232421,-0.06543 h -0.453125 z"
     id="text10"
     style="font-size:2px;font-family:Arial, sans-serif;text-anchor:middle;fill:#aaaaaa"
     aria-label="COLOR" />
  <!-- CV labels -->
  <path
     d="m 12.507959,89.548242 0.170508,0.04307 q -0.05361,0.210058 -0.19336,0.3208 -0.138867,0.109864 -0.340136,0.109864 -0.208301,0 -0.339258,-0.08438 -0.130078,-0.08525 -0.198633,-0.246094 -0.06768,-0.16084 -0.06768,-0.34541 0,-0.20127 0.07647,-0.350684 0.07734,-0.150293 0.218848,-0.227637 0.142382,-0.07822 0.31289,-0.07822 0.19336,0 0.325196,0.09844 0.131835,0.09844 0.183691,0.276856 l -0.167871,0.03955 q -0.04482,-0.140625 -0.130078,-0.204786 -0.08525,-0.06416 -0.214453,-0.06416 -0.148536,0 -0.248731,0.07119 -0.09932,0.07119 -0.139746,0.191601 -0.04043,0.119531 -0.04043,0.246973 0,0.164355 0.04746,0.287402 0.04834,0.122168 0.149414,0.182813 0.101075,0.06064 0.218848,0.06064 0.143262,0 0.242578,-0.08262 0.09932,-0.08262 0.134473,-0.245215 z M 13.256787,90 12.757568,88.711523 h 0.18457 l 0.334864,0.936036 q 0.04043,0.1125 0.06768,0.210937 0.02988,-0.105469 0.06943,-0.210937 l 0.348047,-0.936036 h 0.174023 L 13.431689,90 Z"
     id="text11"
     style="font-size:1.8px;font-family:Arial, sans-serif;text-anchor:middle;fill:#888888"
     aria-label="CV" />
  <path
     d="m 37.907957,89.548242 0.170508,0.04307 q -0.05361,0.210058 -0.193359,0.3208 -0.138867,0.109864 -0.340137,0.109864 -0.208301,0 -0.339258,-0.08438 -0.130078,-0.08525 -0.198632,-0.246094 -0.06768,-0.16084 -0.06768,-0.34541 0,-0.20127 0.07646,-0.350684 0.07734,-0.150293 0.218847,-0.227637 0.142383,-0.07822 0.312891,-0.07822 0.193359,0 0.325195,0.09844 0.131836,0.09844 0.183692,0.276856 l -0.167871,0.03955 q -0.04482,-0.140625 -0.130079,-0.204786 -0.08525,-0.06416 -0.214453,-0.06416 -0.148535,0 -0.24873,0.07119 -0.09932,0.07119 -0.139746,0.191601 -0.04043,0.119531 -0.04043,0.246973 0,0.164355 0.04746,0.287402 0.04834,0.122168 0.149414,0.182813 0.101074,0.06064 0.218848,0.06064 0.143261,0 0.242578,-0.08262 0.09932,-0.08262 0.134472,-0.245215 z M 38.656786,90 38.157567,88.711523 h 0.18457 L 38.677,89.647559 q 0.04043,0.1125 0.06768,0.210937 0.02988,-0.105469 0.06943,-0.210937 l 0.348047,-0.936036 H 39.33618 L 38.831688,90 Z"
     id="text12"
     style="font-size:1.8px;font-family:Arial, sans-serif;text-anchor:middle;fill:#888888"
     aria-label="CV" />
  <!-- Trigger labels -->
  <path
     d="m 11.016894,115 v -1.13643 h -0.424511 v -0.15205 h 1.021289 v 0.15205 h -0.42627 V 115 Z m 0.774317,0 v -1.28848 H 12.3625 q 0.172265,0 0.261914,0.0352 0.08965,0.0343 0.143262,0.12217 0.05361,0.0879 0.05361,0.19424 0,0.13711 -0.08877,0.23115 -0.08877,0.094 -0.274218,0.11953 0.06767,0.0325 0.102832,0.0642 0.07471,0.0686 0.141504,0.17139 L 12.926758,115 h -0.214453 l -0.170508,-0.26807 q -0.07471,-0.11601 -0.123047,-0.17754 -0.04834,-0.0615 -0.08701,-0.0861 -0.03779,-0.0246 -0.07734,-0.0343 -0.029,-0.006 -0.09492,-0.006 H 11.961719 V 115 Z m 0.170508,-0.71982 h 0.366504 q 0.116894,0 0.182812,-0.0237 0.06592,-0.0246 0.100195,-0.0773 0.03428,-0.0536 0.03428,-0.11601 0,-0.0914 -0.0668,-0.1503 -0.06592,-0.0589 -0.20918,-0.0589 H 11.961719 Z M 13.11748,115 v -1.28848 h 0.170508 V 115 Z m 1.074024,-0.50537 v -0.15117 l 0.545801,-8.8e-4 v 0.47812 q -0.125684,0.1002 -0.259278,0.15118 -0.133593,0.0501 -0.274218,0.0501 -0.189844,0 -0.345411,-0.0809 -0.154687,-0.0817 -0.233789,-0.23554 -0.0791,-0.15381 -0.0791,-0.34366 0,-0.18808 0.07822,-0.35068 0.0791,-0.16348 0.226758,-0.24258 0.147656,-0.0791 0.340137,-0.0791 0.139746,0 0.252246,0.0457 0.113379,0.0448 0.177539,0.12569 0.06416,0.0809 0.09756,0.21094 l -0.153809,0.0422 q -0.029,-0.0984 -0.07207,-0.15468 -0.04307,-0.0562 -0.123047,-0.0896 -0.07998,-0.0343 -0.177539,-0.0343 -0.116895,0 -0.202149,0.036 -0.08525,0.0352 -0.137988,0.0932 -0.05185,0.058 -0.08086,0.12744 -0.04922,0.11953 -0.04922,0.25928 0,0.17226 0.05889,0.28828 0.05976,0.11601 0.173144,0.17226 0.113379,0.0563 0.240821,0.0563 0.110742,0 0.21621,-0.0422 0.105469,-0.0431 0.159961,-0.0914 v -0.23994 z"
     id="text13"
     style="font-size:1.8px;font-family:Arial, sans-serif;text-anchor:middle;fill:#ff6666"
     aria-label="TRIG" />
  <path
     d="m 36.416893,115 v -1.13643 h -0.424512 v -0.15205 h 1.021289 v 0.15205 H 36.587401 V 115 Z m 0.774316,0 v -1.28848 h 0.57129 q 0.172265,0 0.261914,0.0352 0.08965,0.0343 0.143261,0.12217 0.05361,0.0879 0.05361,0.19424 0,0.13711 -0.08877,0.23115 -0.08877,0.094 -0.274219,0.11953 0.06768,0.0325 0.102832,0.0642 0.07471,0.0686 0.141504,0.17139 L 38.326756,115 h -0.214453 l -0.170508,-0.26807 q -0.07471,-0.11601 -0.123046,-0.17754 -0.04834,-0.0615 -0.08701,-0.0861 -0.03779,-0.0246 -0.07734,-0.0343 -0.029,-0.006 -0.09492,-0.006 H 37.361717 V 115 Z m 0.170508,-0.71982 h 0.366504 q 0.116895,0 0.182813,-0.0237 0.06592,-0.0246 0.100195,-0.0773 0.03428,-0.0536 0.03428,-0.11601 0,-0.0914 -0.0668,-0.1503 -0.06592,-0.0589 -0.209179,-0.0589 H 37.361717 Z M 38.517479,115 v -1.28848 h 0.170508 V 115 Z m 1.074024,-0.50537 v -0.15117 l 0.5458,-8.8e-4 v 0.47812 q -0.125683,0.1002 -0.259277,0.15118 -0.133594,0.0501 -0.274219,0.0501 -0.189844,0 -0.34541,-0.0809 -0.154687,-0.0817 -0.233789,-0.23554 -0.0791,-0.15381 -0.0791,-0.34366 0,-0.18808 0.07822,-0.35068 0.0791,-0.16348 0.226758,-0.24258 0.147656,-0.0791 0.340137,-0.0791 0.139746,0 0.252246,0.0457 0.113379,0.0448 0.177539,0.12569 0.06416,0.0809 0.09756,0.21094 l -0.153808,0.0422 q -0.029,-0.0984 -0.07207,-0.15468 -0.04307,-0.0562 -0.123046,-0.0896 -0.07998,-0.0343 -0.177539,-0.0343 -0.116895,0 -0.202149,0.036 -0.08525,0.0352 -0.137988,0.0932 -0.05186,0.058 -0.08086,0.12744 -0.04922,0.11953 -0.04922,0.25928 0,0.17226 0.05889,0.28828 0.05977,0.11601 0.173145,0.17226 0.113379,0.0563 0.24082,0.0563 0.110742,0 0.216211,-0.0422 0.105469,-0.0431 0.159961,-0.0914 v -0.23994 z"
     id="text14"
     style="font-size:1.8px;font-family:Arial, sans-serif;text-anchor:middle;fill:#66ff66"
     aria-label="TRIG" />
  <!-- Output labels -->
  <path
     d="m 10.214892,122 v -1.28848 H 10.3854 v 1.13643 h 0.634571 V 122 Z m 1.389551,-0.62754 q 0,-0.3208 0.172266,-0.50185 0.172265,-0.18194 0.444726,-0.18194 0.178418,0 0.32168,0.0853 0.143262,0.0853 0.217969,0.23818 0.07559,0.15205 0.07559,0.34541 0,0.196 -0.0791,0.35068 -0.0791,0.15469 -0.224121,0.23467 -0.145019,0.0791 -0.312891,0.0791 -0.181933,0 -0.325195,-0.0879 -0.143262,-0.0879 -0.21709,-0.23994 -0.07383,-0.15205 -0.07383,-0.32168 z m 0.175781,0.003 q 0,0.23291 0.124805,0.36738 0.125684,0.13359 0.314649,0.13359 0.19248,0 0.316406,-0.13535 0.124804,-0.13535 0.124804,-0.38408 0,-0.15732 -0.05361,-0.27422 -0.05273,-0.11777 -0.155566,-0.18193 -0.101953,-0.065 -0.229395,-0.065 -0.181054,0 -0.312011,0.1248 -0.130079,0.12393 -0.130079,0.41485 z m 2.12168,-0.66358 h 0.170508 v 0.74444 q 0,0.19424 -0.04395,0.30849 -0.04395,0.11426 -0.159082,0.18633 -0.114258,0.0712 -0.300586,0.0712 -0.181055,0 -0.296192,-0.0624 -0.115136,-0.0624 -0.164355,-0.18018 -0.04922,-0.11865 -0.04922,-0.32343 v -0.74444 h 0.170508 v 0.74356 q 0,0.16787 0.03076,0.24785 0.03164,0.0791 0.107226,0.12217 0.07647,0.0431 0.186328,0.0431 0.188086,0 0.268067,-0.0853 0.07998,-0.0853 0.07998,-0.32783 z M 14.68413,122 v -1.13643 h -0.424511 v -0.15205 h 1.021289 v 0.15205 h -0.42627 V 122 Z"
     id="text15"
     style="font-size:1.8px;font-family:Arial, sans-serif;text-anchor:middle;fill:#ffffff"
     aria-label="L OUT" />
  <path
     d="m 35.441747,122 v -1.28848 h 0.571289 q 0.172265,0 0.261914,0.0352 0.08965,0.0343 0.143261,0.12217 0.05361,0.0879 0.05361,0.19424 0,0.13711 -0.08877,0.23115 -0.08877,0.094 -0.274219,0.11953 0.06768,0.0325 0.102832,0.0642 0.07471,0.0686 0.141504,0.17139 L 36.577293,122 H 36.36284 l -0.170507,-0.26807 q -0.07471,-0.11601 -0.123047,-0.17754 -0.04834,-0.0615 -0.08701,-0.0861 -0.03779,-0.0246 -0.07734,-0.0343 -0.029,-0.006 -0.09492,-0.006 H 35.612254 V 122 Z m 0.170507,-0.71982 h 0.366504 q 0.116895,0 0.182813,-0.0237 0.06592,-0.0246 0.100195,-0.0773 0.03428,-0.0536 0.03428,-0.11601 0,-0.0914 -0.0668,-0.1503 -0.06592,-0.0589 -0.20918,-0.0589 h -0.407813 z m 1.575,0.0923 q 0,-0.3208 0.172266,-0.50185 0.172266,-0.18194 0.444727,-0.18194 0.178417,0 0.321679,0.0853 0.143262,0.0853 0.217969,0.23818 0.07559,0.15205 0.07559,0.34541 0,0.196 -0.0791,0.35068 -0.0791,0.15469 -0.224121,0.23467 -0.145019,0.0791 -0.31289,0.0791 -0.181934,0 -0.325196,-0.0879 -0.143261,-0.0879 -0.21709,-0.23994 -0.07383,-0.15205 -0.07383,-0.32168 z m 0.175782,0.003 q 0,0.23291 0.124804,0.36738 0.125684,0.13359 0.314649,0.13359 0.19248,0 0.316406,-0.13535 0.124805,-0.13535 0.124805,-0.38408 0,-0.15732 -0.05361,-0.27422 -0.05273,-0.11777 -0.155566,-0.18193 -0.101953,-0.065 -0.229395,-0.065 -0.181054,0 -0.312011,0.1248 -0.130078,0.12393 -0.130078,0.41485 z m 2.121679,-0.66358 h 0.170508 v 0.74444 q 0,0.19424 -0.04395,0.30849 -0.04395,0.11426 -0.159082,0.18633 -0.114258,0.0712 -0.300586,0.0712 -0.181055,0 -0.296192,-0.0624 -0.115136,-0.0624 -0.164355,-0.18018 -0.04922,-0.11865 -0.04922,-0.32343 v -0.74444 h 0.170508 v 0.74356 q 0,0.16787 0.03076,0.24785 0.03164,0.0791 0.107226,0.12217 0.07647,0.0431 0.186328,0.0431 0.188086,0 0.268067,-0.0853 0.07998,-0.0853 0.07998,-0.32783 z M 40.266942,122 v -1.13643 H 39.84243 v -0.15205 h 1.021289 v 0.15205 H 40.43745 V 122 Z"
     id="text16"
     style="font-size:1.8px;font-family:Arial, sans-serif;text-anchor:middle;fill:#ffffff"
     aria-label="R OUT" />
  <!-- Brand -->
  <path
     d="m 21.267309,125.57886 v -0.12598 l 0.454834,-7.3e-4 v 0.39844 q -0.104736,0.0835 -0.216064,0.12597 -0.111328,0.0417 -0.228516,0.0417 -0.158203,0 -0.287842,-0.0674 -0.128906,-0.0681 -0.194824,-0.19629 -0.06592,-0.12818 -0.06592,-0.28638 0,-0.15674 0.06519,-0.29223 0.06592,-0.13624 0.188965,-0.20215 0.123046,-0.0659 0.283447,-0.0659 0.116455,0 0.210205,0.0381 0.09448,0.0374 0.147949,0.10474 0.05347,0.0674 0.0813,0.17578 l -0.128174,0.0352 q -0.02417,-0.082 -0.06006,-0.12891 -0.03589,-0.0469 -0.102539,-0.0747 -0.06665,-0.0286 -0.147949,-0.0286 -0.09741,0 -0.168457,0.03 -0.07105,0.0293 -0.11499,0.0776 -0.04321,0.0483 -0.06738,0.1062 -0.04102,0.0996 -0.04102,0.21606 0,0.14356 0.04907,0.24024 0.0498,0.0967 0.144287,0.14355 0.09448,0.0469 0.200683,0.0469 0.09229,0 0.180176,-0.0352 0.08789,-0.0359 0.133301,-0.0762 v -0.19995 z M 21.925756,126 v -1.07373 h 0.14209 v 0.94702 h 0.528809 V 126 Z m 0.864258,0 v -1.07373 h 0.14209 V 126 Z m 0.283448,0 0.415283,-0.55957 -0.366211,-0.51416 h 0.169189 l 0.194824,0.27539 q 0.06079,0.0857 0.08643,0.13184 0.03589,-0.0586 0.08496,-0.12232 l 0.216065,-0.28491 h 0.154541 l -0.377198,0.5061 L 24.057837,126 h -0.175782 l -0.270263,-0.38306 q -0.02271,-0.033 -0.04687,-0.0718 -0.03589,0.0586 -0.05127,0.0806 L 23.244116,126 Z m 1.478027,-0.34497 0.134033,-0.0117 q 0.0095,0.0806 0.04395,0.13257 0.03516,0.0513 0.108399,0.0835 0.07324,0.0315 0.164795,0.0315 0.0813,0 0.143554,-0.0242 0.06226,-0.0242 0.09229,-0.0659 0.03076,-0.0425 0.03076,-0.0923 0,-0.0505 -0.0293,-0.0879 -0.0293,-0.0381 -0.09668,-0.0637 -0.04321,-0.0168 -0.191162,-0.052 -0.14795,-0.0359 -0.207276,-0.0674 -0.0769,-0.0403 -0.11499,-0.0996 -0.03735,-0.0601 -0.03735,-0.13403 0,-0.0813 0.04614,-0.15161 0.04614,-0.071 0.134766,-0.10767 0.08862,-0.0366 0.197021,-0.0366 0.119385,0 0.210205,0.0388 0.09155,0.0381 0.140625,0.11279 0.04907,0.0747 0.05274,0.16919 l -0.136231,0.0102 q -0.01099,-0.1018 -0.07471,-0.1538 -0.06299,-0.052 -0.186767,-0.052 -0.128907,0 -0.188233,0.0476 -0.05859,0.0469 -0.05859,0.11353 0,0.0579 0.04175,0.0952 0.04102,0.0373 0.213868,0.0769 0.173584,0.0388 0.238037,0.0681 0.09375,0.0432 0.138427,0.10986 0.04468,0.0659 0.04468,0.15235 0,0.0857 -0.04907,0.16186 -0.04907,0.0754 -0.141357,0.11792 -0.09155,0.0417 -0.206543,0.0417 -0.145752,0 -0.244629,-0.0425 -0.09815,-0.0425 -0.154541,-0.12744 -0.05566,-0.0857 -0.05859,-0.19336 z M 25.87351,126 v -0.94702 h -0.353759 v -0.12671 h 0.851074 v 0.12671 H 26.0156 V 126 Z m 1.347657,-1.07373 h 0.142089 v 0.62036 q 0,0.16187 -0.03662,0.25708 -0.03662,0.0952 -0.132568,0.15527 -0.09521,0.0593 -0.250488,0.0593 -0.150879,0 -0.246826,-0.052 -0.09595,-0.052 -0.136963,-0.15015 -0.04102,-0.0989 -0.04102,-0.26953 v -0.62036 h 0.14209 v 0.61963 q 0,0.13989 0.02564,0.20654 0.02637,0.0659 0.08935,0.10181 0.06372,0.0359 0.155274,0.0359 0.156738,0 0.223388,-0.071 0.06665,-0.071 0.06665,-0.27319 z M 27.599829,126 v -1.07373 h 0.369873 q 0.125244,0 0.191162,0.0154 0.09229,0.0212 0.157471,0.0769 0.08496,0.0718 0.126709,0.18384 0.04248,0.11133 0.04248,0.25489 0,0.12231 -0.02856,0.21679 -0.02857,0.0945 -0.07324,0.15674 -0.04468,0.0615 -0.09814,0.0974 -0.05273,0.0352 -0.128174,0.0535 Q 28.084692,126 27.98728,126 Z m 0.14209,-0.12671 h 0.229248 q 0.106201,0 0.166259,-0.0198 0.06079,-0.0198 0.09668,-0.0557 0.05054,-0.0505 0.07837,-0.1355 0.02857,-0.0857 0.02857,-0.20727 0,-0.16846 -0.05566,-0.25855 -0.05493,-0.0908 -0.134034,-0.12158 -0.05713,-0.022 -0.183837,-0.022 H 27.741919 Z M 28.707251,126 v -1.07373 H 28.84934 V 126 Z m 0.349365,-0.52295 q 0,-0.26733 0.143555,-0.41821 0.143554,-0.15161 0.370605,-0.15161 0.148682,0 0.268066,0.071 0.119385,0.071 0.181641,0.19849 0.06299,0.12671 0.06299,0.28784 0,0.16333 -0.06592,0.29224 -0.06592,0.1289 -0.186767,0.19555 -0.12085,0.0659 -0.260742,0.0659 -0.151612,0 -0.270997,-0.0732 -0.119384,-0.0732 -0.180908,-0.19995 -0.06152,-0.12671 -0.06152,-0.26807 z m 0.146484,0.002 q 0,0.19409 0.104004,0.30615 0.104736,0.11133 0.262207,0.11133 0.160401,0 0.263672,-0.11279 0.104004,-0.1128 0.104004,-0.32007 0,-0.13111 -0.04468,-0.22852 -0.04395,-0.0981 -0.129638,-0.15161 -0.08496,-0.0542 -0.191163,-0.0542 -0.150878,0 -0.260009,0.104 -0.108399,0.10328 -0.108399,0.34571 z"
     id="text17"
     style="font-size:1.5px;font-family:Arial, sans-serif;text-anchor:middle;fill:#666666"
     aria-label="VCVRack Freedom" />
</svg>
