<?xml version="1.0" encoding="UTF-8" standalone="no"?>
<svg
   width="40.64mm"
   height="128.5mm"
   viewBox="0 0 40.64 128.5"
   version="1.1"
   id="svg24"
   xmlns="http://www.w3.org/2000/svg"
   xmlns:svg="http://www.w3.org/2000/svg">
  <defs
     id="defs24" />
  <!-- Background -->
  <rect
     style="fill:#1a1a1a"
     width="40.64"
     height="128.5"
     x="0"
     y="0"
     id="rect1" />
  <!-- Header area -->
  <rect
     style="fill:#252525"
     width="40.64"
     height="14"
     x="0"
     y="0"
     id="rect2" />
  <!-- Blue accent line -->
  <rect
     style="fill:#0088ff"
     width="40.64"
     height="0.8"
     x="0"
     y="14"
     id="rect3" />
  <!-- Left column background (params) -->
  <rect
     style="fill:#202020"
     width="18"
     height="100"
     x="1.16"
     y="16"
     rx="1"
     id="rect4" />
  <!-- Right column background (I/O) -->
  <rect
     style="fill:#181818"
     width="18"
     height="100"
     x="21.48"
     y="16"
     rx="1"
     id="rect5" />
  <!-- Bottom accent -->
  <rect
     style="fill:#ff4444"
     width="40.64"
     height="0.8"
     x="0"
     y="120"
     id="rect6" />
  <!-- Footer area -->
  <rect
     style="fill:#252525"
     width="40.64"
     height="7.7"
     x="0"
     y="120.8"
     id="rect7" />
  <!-- Panel border -->
  <rect
     style="fill:none;stroke:#333333;stroke-width:0.5"
     width="40.14"
     height="128"
     x="0.25"
     y="0.25"
     id="rect8" />
  <!-- Title text -->
  <path
     d="M 13.051445,5.9472656 V 5.4648437 h 1.246094 v 1.140625 q -0.181641,0.1757813 -0.527344,0.3105469 -0.34375,0.1328125 -0.697266,0.1328125 -0.449218,0 -0.783203,-0.1875 Q 11.955742,6.671875 11.787773,6.3222656 11.619804,5.9707031 11.619804,5.5585937 q 0,-0.4472656 0.1875,-0.7949218 0.1875,-0.3476563 0.548829,-0.5332032 0.27539,-0.1425781 0.685546,-0.1425781 0.533204,0 0.832032,0.2246094 0.300781,0.2226562 0.386718,0.6171875 L 13.686211,5.0371094 Q 13.625664,4.8261719 13.457695,4.7050781 13.291679,4.5820312 13.041679,4.5820312 q -0.378906,0 -0.603515,0.2402344 -0.222656,0.2402344 -0.222656,0.7128906 0,0.5097657 0.226562,0.765625 0.226563,0.2539063 0.59375,0.2539063 0.181641,0 0.363281,-0.070312 0.183594,-0.072266 0.314453,-0.1738281 V 5.9472656 Z M 14.830742,7 V 4.1367187 h 2.123047 v 0.484375 h -1.544922 v 0.6347657 h 1.4375 v 0.4824218 h -1.4375 v 0.7792969 h 1.599609 V 7 Z M 17.50457,7 V 4.1367187 h 0.5625 l 1.171875,1.9121094 V 4.1367187 h 0.537109 V 7 H 19.195976 L 18.041679,5.1328125 V 7 Z m 2.882813,0 V 4.1367187 h 2.123046 v 0.484375 h -1.544921 v 0.6347657 h 1.4375 v 0.4824218 h -1.4375 v 0.7792969 h 1.599609 V 7 Z m 2.521484,-0.9316406 0.5625,-0.054687 q 0.05078,0.2832031 0.205078,0.4160156 0.15625,0.1328125 0.419922,0.1328125 0.279297,0 0.419922,-0.1171875 0.142578,-0.1191406 0.142578,-0.2773438 0,-0.1015625 -0.06055,-0.171875 -0.05859,-0.072266 -0.207031,-0.125 -0.101563,-0.035156 -0.462891,-0.125 -0.464844,-0.1152343 -0.652344,-0.2832031 -0.263671,-0.2363281 -0.263671,-0.5761719 0,-0.21875 0.123046,-0.4082031 0.125,-0.1914062 0.357422,-0.2910156 0.234375,-0.099609 0.564453,-0.099609 0.539063,0 0.810547,0.2363281 0.273438,0.2363282 0.28711,0.6308594 l -0.578125,0.025391 q -0.03711,-0.2207031 -0.160157,-0.3164062 -0.121093,-0.097656 -0.365234,-0.097656 -0.251953,0 -0.394531,0.1035157 -0.0918,0.066406 -0.0918,0.1777343 0,0.1015625 0.08594,0.1738282 0.109375,0.091797 0.53125,0.1914062 0.421875,0.099609 0.623047,0.2070313 0.203125,0.1054687 0.316407,0.2910156 0.115234,0.1835937 0.115234,0.4550781 0,0.2460938 -0.136719,0.4609375 -0.136719,0.2148438 -0.386719,0.3203125 -0.25,0.1035156 -0.623046,0.1035156 -0.542969,0 -0.833985,-0.25 Q 22.965508,6.5488281 22.908867,6.0683594 Z M 25.705742,7 V 4.1367187 h 0.578125 V 7 Z m 0.982422,-0.9316406 0.5625,-0.054687 q 0.05078,0.2832031 0.205078,0.4160156 0.15625,0.1328125 0.419922,0.1328125 0.279297,0 0.419922,-0.1171875 0.142578,-0.1191406 0.142578,-0.2773438 0,-0.1015625 -0.06055,-0.171875 -0.05859,-0.072266 -0.207031,-0.125 -0.101563,-0.035156 -0.462891,-0.125 -0.464844,-0.1152343 -0.652344,-0.2832031 -0.263672,-0.2363281 -0.263672,-0.5761719 0,-0.21875 0.123047,-0.4082031 0.125,-0.1914062 0.357422,-0.2910156 0.234375,-0.099609 0.564453,-0.099609 0.539063,0 0.810547,0.2363281 0.273438,0.2363282 0.28711,0.6308594 l -0.578125,0.025391 q -0.03711,-0.2207031 -0.160157,-0.3164062 -0.121093,-0.097656 -0.365234,-0.097656 -0.251953,0 -0.394531,0.1035157 -0.0918,0.066406 -0.0918,0.1777343 0,0.1015625 0.08594,0.1738282 0.109375,0.091797 0.53125,0.1914062 0.421875,0.099609 0.623047,0.2070313 0.203125,0.1054687 0.316406,0.2910156 0.115235,0.1835937 0.115235,0.4550781 0,0.2460938 -0.136719,0.4609375 -0.136719,0.2148438 -0.386719,0.3203125 -0.25,0.1035156 -0.623047,0.1035156 -0.542968,0 -0.833984,-0.25 -0.291016,-0.2519531 -0.347656,-0.7324218 z"
     id="text8"
     style="font-weight:bold;font-size:4px;font-family:Arial;text-anchor:middle;fill:#ffffff"
     aria-label="GENESIS" />
  <path
     d="M 16.616997,11 V 9.2104492 h 0.356445 l 0.423584,1.2670898 q 0.05859,0.177002 0.08545,0.264893 0.03052,-0.09766 0.09521,-0.286866 L 18.006157,9.2104492 H 18.32476 V 11 H 18.096489 V 9.5021973 L 17.576469,11 H 17.362846 L 16.845268,9.4765625 V 11 Z m 2.017822,-0.871582 q 0,-0.4455567 0.239258,-0.6970215 0.239258,-0.2526856 0.617676,-0.2526856 0.247802,0 0.446777,0.1184082 0.198975,0.1184082 0.302734,0.3308106 0.104981,0.2111816 0.104981,0.4797363 0,0.272217 -0.109863,0.487061 -0.109864,0.214843 -0.31128,0.325927 -0.201416,0.109864 -0.43457,0.109864 -0.252686,0 -0.45166,-0.122071 -0.198975,-0.12207 -0.301514,-0.333252 -0.102539,-0.211181 -0.102539,-0.446777 z m 0.244141,0.0037 q 0,0.323486 0.173339,0.510254 0.174561,0.185547 0.437012,0.185547 0.267334,0 0.439453,-0.187988 0.17334,-0.187989 0.17334,-0.533448 0,-0.2185055 -0.07446,-0.3808591 -0.07324,-0.1635742 -0.216064,-0.2526855 -0.141602,-0.090332 -0.318604,-0.090332 -0.251465,0 -0.433349,0.1733398 Q 18.87896,9.7280273 18.87896,10.13208 Z M 20.648979,11 V 9.2104492 h 0.24292 l 0.939942,1.4050298 V 9.2104492 h 0.22705 V 11 h -0.24292 L 20.87603,9.59375 V 11 Z m 1.73584,-0.871582 q 0,-0.4455567 0.239258,-0.6970215 0.239258,-0.2526856 0.617676,-0.2526856 0.247802,0 0.446777,0.1184082 0.198975,0.1184082 0.302734,0.3308106 0.104981,0.2111816 0.104981,0.4797363 0,0.272217 -0.109863,0.487061 -0.109864,0.214843 -0.31128,0.325927 -0.201416,0.109864 -0.43457,0.109864 -0.252686,0 -0.45166,-0.122071 -0.198975,-0.12207 -0.301514,-0.333252 -0.102539,-0.211181 -0.102539,-0.446777 z m 0.244141,0.0037 q 0,0.323486 0.173339,0.510254 0.174561,0.185547 0.437012,0.185547 0.267334,0 0.439453,-0.187988 0.17334,-0.187989 0.17334,-0.533448 0,-0.2185055 -0.07446,-0.3808591 -0.07324,-0.1635742 -0.216064,-0.2526855 -0.141602,-0.090332 -0.318604,-0.090332 -0.251465,0 -0.433349,0.1733398 Q 22.62896,9.7280273 22.62896,10.13208 Z"
     id="text9"
     style="font-size:2.5px;font-family:Arial;text-anchor:middle;fill:#888888"
     aria-label="MONO" />
  <!-- Left column labels -->
  <path
     d="m 7.5462303,19 v -1.431641 h 0.9658203 v 0.168946 H 7.7356834 v 0.443359 h 0.671875 v 0.168945 H 7.7356834 V 19 Z m 1.2148438,0 v -1.431641 h 0.6347656 q 0.1914062,0 0.2910156,0.03906 0.099609,0.03809 0.1591797,0.135742 0.05957,0.09766 0.05957,0.21582 0,0.152344 -0.098633,0.256836 -0.098633,0.104492 -0.3046875,0.132813 0.075195,0.03613 0.1142578,0.07129 0.083008,0.07617 0.1572266,0.19043 L 10.022793,19 H 9.7845116 L 9.5950584,18.702148 q -0.083008,-0.128906 -0.1367187,-0.197265 -0.053711,-0.06836 -0.09668,-0.0957 -0.041992,-0.02734 -0.085937,-0.03809 -0.032227,-0.0068 -0.1054687,-0.0068 H 8.9505272 V 19 Z m 0.1894531,-0.799805 h 0.4072266 q 0.1298828,0 0.203125,-0.02637 0.073242,-0.02734 0.1113281,-0.08594 0.038086,-0.05957 0.038086,-0.128907 0,-0.101562 -0.074219,-0.166992 -0.073242,-0.06543 -0.2324219,-0.06543 H 8.9505272 Z M 10.206387,19 v -1.431641 h 1.035156 v 0.168946 H 10.39584 v 0.438476 h 0.791992 V 18.34375 H 10.39584 v 0.487305 h 0.878906 V 19 Z m 2.415039,-0.15332 q 0.131836,0.09082 0.243164,0.132812 l -0.05566,0.131836 q -0.154297,-0.05566 -0.307618,-0.175781 -0.159179,0.08887 -0.351562,0.08887 -0.194336,0 -0.352539,-0.09375 -0.158203,-0.09375 -0.244141,-0.263672 -0.08496,-0.169922 -0.08496,-0.382812 0,-0.211914 0.08594,-0.385743 0.08594,-0.173828 0.24414,-0.264648 0.15918,-0.09082 0.355469,-0.09082 0.198242,0 0.357422,0.09473 0.15918,0.09375 0.242188,0.263672 0.08398,0.168945 0.08398,0.381836 0,0.176758 -0.05371,0.318359 -0.05371,0.140625 -0.162109,0.245118 z m -0.416993,-0.242188 q 0.164063,0.0459 0.270508,0.136719 0.166992,-0.152344 0.166992,-0.458008 0,-0.173828 -0.05957,-0.303711 -0.05859,-0.129883 -0.172851,-0.201172 -0.113282,-0.07227 -0.254883,-0.07227 -0.211914,0 -0.351563,0.145507 -0.139648,0.144532 -0.139648,0.432618 0,0.279297 0.137695,0.428711 0.138672,0.149414 0.353516,0.149414 0.101562,0 0.191406,-0.03809 -0.08887,-0.05762 -0.1875,-0.08203 z"
     id="text10"
     style="font-size:2px;font-family:Arial;text-anchor:middle;fill:#aaaaaa"
     aria-label="FREQ" />
  <path
     d="m 8.0462303,34 v -1.431641 h 0.9658203 v 0.168946 H 8.2356834 v 0.443359 h 0.671875 v 0.168945 H 8.2356834 V 34 Z m 1.2441406,0 V 32.568359 H 9.4798241 V 34 Z m 0.5214844,0 v -1.431641 h 0.1943357 l 0.751953,1.124024 v -1.124024 h 0.181641 V 34 H 10.745449 L 9.9934959,32.875 V 34 Z m 1.4501957,0 v -1.431641 h 1.035156 v 0.168946 h -0.845703 v 0.438476 h 0.791992 v 0.167969 h -0.791992 v 0.487305 H 12.33041 V 34 Z"
     id="text11"
     style="font-size:2px;font-family:Arial;text-anchor:middle;fill:#aaaaaa"
     aria-label="FINE" />
  <path
     d="M 7.7308006,47 7.3509178,45.568359 h 0.194336 l 0.2177734,0.938477 q 0.035156,0.147461 0.060547,0.292969 0.054687,-0.229493 0.064453,-0.264649 l 0.2724609,-0.966797 h 0.2285157 l 0.2050781,0.72461 q 0.077148,0.269531 0.1113281,0.506836 0.027344,-0.135743 0.071289,-0.311524 L 9.0013084,45.568359 H 9.1917381 L 8.79916,47 H 8.6165428 L 8.314785,45.90918 q -0.038086,-0.136719 -0.044922,-0.167969 -0.022461,0.09863 -0.041992,0.167969 L 7.92416,47 Z m 1.40625,0 0.5498047,-1.431641 H 9.8909569 L 10.476894,47 h -0.21582 L 10.094082,46.566406 H 9.4954491 L 9.3382225,47 Z m 0.413086,-0.587891 H 10.035488 L 9.8860741,46.015625 Q 9.8177147,45.834961 9.7845116,45.71875 9.7571678,45.856445 9.7073631,45.992187 Z M 10.889004,47 10.334316,45.568359 h 0.205078 l 0.372071,1.040039 q 0.04492,0.125 0.0752,0.234375 0.0332,-0.117187 0.07715,-0.234375 l 0.386719,-1.040039 h 0.19336 L 11.08334,47 Z m 0.928711,0 v -1.431641 h 1.035156 v 0.168946 h -0.845703 v 0.438476 h 0.791992 v 0.167969 h -0.791992 v 0.487305 h 0.878906 V 47 Z"
     id="text12"
     style="font-size:2px;font-family:Arial;text-anchor:middle;fill:#aaaaaa"
     aria-label="WAVE" />
  <path
     d="m 8.7034569,60 v -1.431641 h 0.540039 q 0.1425782,0 0.2177735,0.01367 0.1054687,0.01758 0.1767578,0.06738 0.071289,0.04883 0.1142578,0.137695 0.043945,0.08887 0.043945,0.195313 0,0.182617 -0.1162109,0.30957 -0.116211,0.125977 -0.4199219,0.125977 H 8.89291 V 60 Z M 8.89291,59.249023 h 0.3701172 q 0.1835937,0 0.2607422,-0.06836 0.077148,-0.06836 0.077148,-0.192383 0,-0.08984 -0.045898,-0.15332 -0.044922,-0.06445 -0.1191406,-0.08496 -0.047852,-0.0127 -0.1767579,-0.0127 H 8.89291 Z M 10.287441,60 9.9075584,58.568359 h 0.1943356 l 0.217774,0.938477 q 0.03516,0.147461 0.06055,0.292969 0.05469,-0.229493 0.06445,-0.264649 l 0.272461,-0.966797 h 0.228515 l 0.205079,0.72461 q 0.07715,0.269531 0.111328,0.506836 0.02734,-0.135743 0.07129,-0.311524 l 0.224609,-0.919922 h 0.19043 L 11.355801,60 h -0.182618 l -0.301757,-1.09082 q -0.03809,-0.136719 -0.04492,-0.167969 -0.02246,0.09863 -0.04199,0.167969 L 10.480801,60 Z"
     id="text13"
     style="font-size:2px;font-family:Arial;text-anchor:middle;fill:#aaaaaa"
     aria-label="PW" />
  <path
     d="m 8.083828,73 v -1.431641 h 0.5371093 q 0.1640625,0 0.2626954,0.04395 0.099609,0.04297 0.1552734,0.133789 0.056641,0.08984 0.056641,0.188476 0,0.0918 -0.049805,0.172852 -0.049805,0.08106 -0.1503906,0.130859 0.1298828,0.03809 0.1992188,0.129883 0.070312,0.0918 0.070312,0.216797 0,0.100586 -0.042969,0.1875 -0.041992,0.08594 -0.1044922,0.132812 -0.0625,0.04687 -0.1572265,0.07129 Q 8.7664452,73 8.6297264,73 Z m 0.1894531,-0.830078 h 0.3095703 q 0.1259766,0 0.1806641,-0.0166 0.072266,-0.02148 0.1083984,-0.07129 0.037109,-0.0498 0.037109,-0.125 0,-0.07129 -0.03418,-0.125 -0.03418,-0.05469 -0.097656,-0.07422 -0.063477,-0.02051 -0.2177734,-0.02051 H 8.2732811 Z m 0,0.661133 h 0.3564453 q 0.091797,0 0.1289063,-0.0068 0.06543,-0.01172 0.109375,-0.03906 0.043945,-0.02734 0.072266,-0.0791 0.02832,-0.05274 0.02832,-0.121094 0,-0.08008 -0.041016,-0.138672 -0.041016,-0.05957 -0.1142578,-0.08301 -0.072266,-0.02441 -0.2089844,-0.02441 H 8.2732811 Z M 9.4578514,73 V 71.568359 H 9.6473045 V 73 Z m 0.8876956,0 v -1.262695 h -0.47168 v -0.168946 h 1.134766 v 0.168946 H 10.535 V 73 Z m 0.792968,-0.459961 0.178711,-0.01563 q 0.0127,0.107422 0.05859,0.176758 0.04687,0.06836 0.144531,0.111328 0.09766,0.04199 0.219727,0.04199 0.108398,0 0.191406,-0.03223 0.08301,-0.03223 0.123047,-0.08789 0.04102,-0.05664 0.04102,-0.123047 0,-0.06738 -0.03906,-0.117187 -0.03906,-0.05078 -0.128906,-0.08496 -0.05762,-0.02246 -0.254883,-0.06934 -0.197265,-0.04785 -0.276367,-0.08984 -0.102539,-0.05371 -0.15332,-0.132813 -0.0498,-0.08008 -0.0498,-0.17871 0,-0.108399 0.06152,-0.202149 0.06152,-0.09473 0.179688,-0.143555 0.118164,-0.04883 0.262695,-0.04883 0.15918,0 0.280274,0.05176 0.12207,0.05078 0.1875,0.150391 0.06543,0.09961 0.07031,0.225586 l -0.18164,0.01367 q -0.01465,-0.135743 -0.09961,-0.205079 -0.08398,-0.06934 -0.249023,-0.06934 -0.171875,0 -0.250977,0.06348 -0.07813,0.0625 -0.07813,0.151367 0,0.07715 0.05566,0.126953 0.05469,0.0498 0.285156,0.102539 0.231446,0.05176 0.317383,0.09082 0.125,0.05762 0.184571,0.146484 0.05957,0.08789 0.05957,0.203125 0,0.114258 -0.06543,0.21582 -0.06543,0.100586 -0.188476,0.157227 -0.122071,0.05566 -0.275391,0.05566 -0.194336,0 -0.326172,-0.05664 -0.130859,-0.05664 -0.206055,-0.169921 -0.07422,-0.114258 -0.07813,-0.257813 z"
     id="text14"
     style="font-size:2px;font-family:Arial;text-anchor:middle;fill:#aaaaaa"
     aria-label="BITS" />
  <path
     d="m 7.724453,86 v -1.431641 h 0.6347656 q 0.1914062,0 0.2910156,0.03906 0.099609,0.03809 0.1591797,0.135742 0.05957,0.09766 0.05957,0.21582 0,0.152344 -0.098633,0.256836 -0.098633,0.104492 -0.3046875,0.132813 0.075195,0.03613 0.1142578,0.07129 0.083008,0.07617 0.1572266,0.19043 L 8.9861717,86 H 8.7478905 L 8.5584373,85.702148 q -0.083008,-0.128906 -0.1367187,-0.197265 -0.053711,-0.06836 -0.09668,-0.0957 -0.041992,-0.02734 -0.085937,-0.03809 -0.032227,-0.0068 -0.1054687,-0.0068 H 7.9139061 V 86 Z m 0.1894531,-0.799805 h 0.4072266 q 0.1298828,0 0.203125,-0.02637 0.073242,-0.02734 0.1113281,-0.08594 0.038086,-0.05957 0.038086,-0.128907 0,-0.101562 -0.074219,-0.166992 -0.073242,-0.06543 -0.2324219,-0.06543 H 7.9139061 Z M 9.0086327,86 9.5584373,84.568359 H 9.7625389 L 10.348476,86 h -0.21582 L 9.9656639,85.566406 H 9.3670311 L 9.2098045,86 Z M 9.4217186,85.412109 H 9.9070702 L 9.7576561,85.015625 Q 9.6892967,84.834961 9.6560936,84.71875 9.6287498,84.856445 9.5789452,84.992187 Z M 10.715664,86 v -1.262695 h -0.47168 v -0.168946 h 1.134766 v 0.168946 H 10.905117 V 86 Z m 0.861328,0 v -1.431641 h 1.035156 v 0.168946 h -0.845703 v 0.438476 h 0.791992 v 0.167969 h -0.791992 v 0.487305 h 0.878906 V 86 Z"
     id="text15"
     style="font-size:2px;font-family:Arial;text-anchor:middle;fill:#aaaaaa"
     aria-label="RATE" />
  <path
     d="m 6.5467186,99 v -1.431641 h 0.9658203 v 0.168946 H 6.7361717 v 0.443359 h 0.671875 v 0.168945 H 6.7361717 V 99 Z m 1.2060547,0 v -1.431641 h 0.2851562 l 0.3388672,1.013672 q 0.046875,0.141602 0.068359,0.211914 0.024414,-0.07813 0.076172,-0.229492 L 8.8641014,97.568359 H 9.1189842 V 99 H 8.936367 V 97.801758 L 8.5203514,99 H 8.349453 L 7.9353905,97.78125 V 99 Z m 1.9599609,0 0.5498048,-1.431641 H 10.46664 L 11.052578,99 h -0.21582 L 10.669765,98.566406 H 10.071133 L 9.9139061,99 Z M 10.12582,98.412109 h 0.485352 l -0.149414,-0.396484 q -0.06836,-0.180664 -0.101563,-0.296875 -0.02734,0.137695 -0.07715,0.273437 z M 11.198086,99 v -1.431641 h 0.285156 l 0.338867,1.013672 q 0.04687,0.141602 0.06836,0.211914 0.02441,-0.07813 0.07617,-0.229492 l 0.342774,-0.996094 h 0.254883 V 99 H 12.38168 V 97.801758 L 11.965664,99 H 11.794765 L 11.380703,97.78125 V 99 Z m 2.036133,0 v -1.262695 h -0.47168 v -0.168946 h 1.134766 v 0.168946 H 13.423672 V 99 Z"
     id="text16"
     style="font-size:2px;font-family:Arial;text-anchor:middle;fill:#aaaaaa"
     aria-label="FM AMT" />
  <path
     d="m 7.3357811,112 v -1.43164 h 0.6347656 q 0.1914063,0 0.2910156,0.0391 0.099609,0.0381 0.1591797,0.13574 0.05957,0.0977 0.05957,0.21582 0,0.15235 -0.098633,0.25684 -0.098633,0.10449 -0.3046875,0.13281 0.075195,0.0361 0.1142578,0.0713 0.083008,0.0762 0.1572266,0.19043 L 8.5974998,112 H 8.3592186 l -0.1894531,-0.29785 q -0.083008,-0.12891 -0.1367188,-0.19727 -0.053711,-0.0684 -0.09668,-0.0957 -0.041992,-0.0273 -0.085937,-0.0381 -0.032227,-0.007 -0.1054687,-0.007 H 7.5252342 V 112 Z m 0.1894531,-0.7998 h 0.4072266 q 0.1298828,0 0.203125,-0.0264 0.073242,-0.0273 0.1113281,-0.0859 0.038086,-0.0596 0.038086,-0.12891 0,-0.10156 -0.074219,-0.16699 -0.073242,-0.0654 -0.2324219,-0.0654 H 7.5252342 Z M 8.6199608,112 9.1697655,110.56836 H 9.373867 L 9.9598045,112 H 9.7439842 L 9.576992,111.56641 H 8.9783592 L 8.8211327,112 Z m 0.4130859,-0.58789 h 0.4853516 l -0.1494141,-0.39648 q -0.068359,-0.18067 -0.1015625,-0.29688 -0.027344,0.1377 -0.077148,0.27344 z M 10.326992,112 v -1.2627 H 9.8553123 v -0.16894 h 1.1347657 v 0.16894 H 10.516445 V 112 Z m 0.889648,0 v -1.43164 h 0.189454 V 112 Z m 0.465821,-0.69727 q 0,-0.35644 0.191406,-0.55761 0.191406,-0.20215 0.494141,-0.20215 0.198242,0 0.357422,0.0947 0.159179,0.0947 0.242187,0.26464 0.08398,0.16895 0.08398,0.38379 0,0.21778 -0.08789,0.38965 -0.08789,0.17188 -0.249024,0.26074 -0.161132,0.0879 -0.347656,0.0879 -0.202148,0 -0.361328,-0.0977 -0.15918,-0.0977 -0.241211,-0.2666 -0.08203,-0.16895 -0.08203,-0.35743 z m 0.195312,0.003 q 0,0.25879 0.138672,0.40821 0.139649,0.14843 0.34961,0.14843 0.213867,0 0.351562,-0.15039 0.138672,-0.15039 0.138672,-0.42675 0,-0.17481 -0.05957,-0.30469 -0.05859,-0.13086 -0.172852,-0.20215 -0.113281,-0.0723 -0.254883,-0.0723 -0.201172,0 -0.346679,0.13868 -0.144532,0.13769 -0.144532,0.46093 z"
     id="text17"
     style="font-size:2px;font-family:Arial;text-anchor:middle;fill:#aaaaaa"
     aria-label="RATIO" />
  <!-- Right column labels -->
  <path
     d="m 27.513203,19 v -1.431641 h 0.189453 v 1.262696 h 0.705078 V 19 Z m 1.124023,0 v -1.431641 h 1.035156 v 0.168946 h -0.845703 v 0.438476 h 0.791992 v 0.167969 h -0.791992 v 0.487305 h 0.878906 V 19 Z m 1.739258,0 -0.554688,-1.431641 h 0.205079 l 0.37207,1.040039 q 0.04492,0.125 0.07519,0.234375 0.0332,-0.117187 0.07715,-0.234375 l 0.386718,-1.040039 h 0.19336 L 30.57082,19 Z m 0.928711,0 v -1.431641 h 1.035156 v 0.168946 h -0.845703 v 0.438476 h 0.791992 v 0.167969 h -0.791992 v 0.487305 h 0.878906 V 19 Z m 1.322265,0 v -1.431641 h 0.189454 v 1.262696 h 0.705078 V 19 Z"
     id="text18"
     style="font-size:2px;font-family:Arial;text-anchor:middle;fill:#aaaaaa"
     aria-label="LEVEL" />
  <path
     d="m 27.987812,34 -0.554687,-1.431641 h 0.205078 l 0.37207,1.040039 q 0.04492,0.125 0.07519,0.234375 0.0332,-0.117187 0.07715,-0.234375 l 0.386718,-1.040039 h 0.19336 L 28.182148,34 Z m 0.770508,0.02441 0.415039,-1.480469 h 0.140625 l -0.414063,1.480469 z m 0.652344,-0.72168 q 0,-0.356445 0.191406,-0.557617 0.191406,-0.202148 0.49414,-0.202148 0.198243,0 0.357422,0.09473 0.15918,0.09473 0.242188,0.264649 0.08398,0.168945 0.08398,0.383789 0,0.217773 -0.08789,0.389648 -0.08789,0.171875 -0.249024,0.260742 -0.161133,0.08789 -0.347656,0.08789 -0.202149,0 -0.361328,-0.09766 -0.15918,-0.09766 -0.241211,-0.266602 -0.08203,-0.168945 -0.08203,-0.357422 z m 0.195312,0.0029 q 0,0.258789 0.138672,0.408203 0.139648,0.148438 0.349609,0.148438 0.213868,0 0.351563,-0.150391 0.138672,-0.150391 0.138672,-0.426758 0,-0.174804 -0.05957,-0.304687 -0.05859,-0.13086 -0.172851,-0.202149 -0.113281,-0.07227 -0.254883,-0.07227 -0.201172,0 -0.34668,0.138672 -0.144531,0.137695 -0.144531,0.460937 z m 2.439453,0.192383 0.189453,0.04785 q -0.05957,0.233399 -0.214843,0.356446 -0.154297,0.12207 -0.37793,0.12207 -0.231445,0 -0.376953,-0.09375 -0.144531,-0.09473 -0.220703,-0.273437 -0.0752,-0.178711 -0.0752,-0.38379 0,-0.223632 0.08496,-0.389648 0.08594,-0.166992 0.243164,-0.25293 0.158203,-0.08691 0.347657,-0.08691 0.214843,0 0.361328,0.109375 0.146484,0.109375 0.204101,0.307617 l -0.186523,0.04395 q -0.0498,-0.15625 -0.144531,-0.227539 -0.09473,-0.07129 -0.238282,-0.07129 -0.165039,0 -0.276367,0.0791 -0.110351,0.0791 -0.155273,0.212891 -0.04492,0.132812 -0.04492,0.274414 0,0.182617 0.05273,0.319336 0.05371,0.135742 0.166016,0.203125 0.112305,0.06738 0.243164,0.06738 0.15918,0 0.269531,-0.0918 0.110352,-0.0918 0.149414,-0.272461 z M 32.832539,34 v -1.262695 h -0.47168 v -0.168946 h 1.134766 v 0.168946 H 33.021992 V 34 Z"
     id="text19"
     style="font-size:2px;font-family:Arial;text-anchor:middle;fill:#aaaaaa"
     aria-label="V/OCT" />
  <path
     d="m 29.200214,47 v -1.431641 h 0.965821 v 0.168946 h -0.776367 v 0.443359 h 0.671875 v 0.168945 H 29.389668 V 47 Z m 1.206055,0 v -1.431641 h 0.285156 l 0.338868,1.013672 q 0.04687,0.141602 0.06836,0.211914 0.02441,-0.07813 0.07617,-0.229492 l 0.342773,-0.996094 H 31.77248 V 47 H 31.589863 V 45.801758 L 31.173847,47 H 31.002949 L 30.588886,45.78125 V 47 Z"
     id="text20"
     style="font-size:2px;font-family:Arial;text-anchor:middle;fill:#aaaaaa"
     aria-label="FM" />
  <path
     d="m 27.791523,59.540039 0.178711,-0.01563 q 0.01269,0.107422 0.05859,0.176758 0.04687,0.06836 0.144531,0.111328 0.09766,0.04199 0.219726,0.04199 0.108399,0 0.191407,-0.03223 0.08301,-0.03223 0.123047,-0.08789 0.04101,-0.05664 0.04101,-0.123047 0,-0.06738 -0.03906,-0.117187 -0.03906,-0.05078 -0.128907,-0.08496 -0.05762,-0.02246 -0.254882,-0.06934 -0.197266,-0.04785 -0.276368,-0.08984 -0.102539,-0.05371 -0.15332,-0.132813 -0.0498,-0.08008 -0.0498,-0.17871 0,-0.108399 0.06152,-0.202149 0.06152,-0.09473 0.179687,-0.143555 0.118164,-0.04883 0.262696,-0.04883 0.159179,0 0.280273,0.05176 0.12207,0.05078 0.1875,0.150391 0.06543,0.09961 0.07031,0.225586 l -0.181641,0.01367 q -0.01465,-0.135743 -0.09961,-0.205079 -0.08399,-0.06934 -0.249024,-0.06934 -0.171875,0 -0.250976,0.06348 -0.07813,0.0625 -0.07813,0.151367 0,0.07715 0.05566,0.126953 0.05469,0.0498 0.285156,0.102539 0.231445,0.05176 0.317383,0.09082 0.125,0.05762 0.18457,0.146484 0.05957,0.08789 0.05957,0.203125 0,0.114258 -0.06543,0.21582 -0.06543,0.100586 -0.188477,0.157227 -0.12207,0.05566 -0.27539,0.05566 -0.194336,0 -0.326172,-0.05664 -0.13086,-0.05664 -0.206055,-0.169921 -0.07422,-0.114258 -0.07813,-0.257813 z M 29.593281,60 v -0.606445 l -0.551758,-0.825196 h 0.230469 L 29.554218,59 q 0.07813,0.121094 0.145508,0.242187 0.06445,-0.112304 0.15625,-0.252929 l 0.277344,-0.420899 h 0.220703 l -0.571289,0.825196 V 60 Z m 0.928711,0 v -1.431641 h 0.194336 l 0.751953,1.124024 v -1.124024 h 0.18164 V 60 H 31.455585 L 30.703632,58.875 V 60 Z m 2.467773,-0.501953 0.189453,0.04785 q -0.05957,0.233399 -0.214843,0.356446 -0.154297,0.12207 -0.37793,0.12207 -0.231445,0 -0.376953,-0.09375 -0.144532,-0.09473 -0.220703,-0.273437 -0.0752,-0.178711 -0.0752,-0.38379 0,-0.223632 0.08496,-0.389648 0.08594,-0.166992 0.243164,-0.25293 0.158203,-0.08691 0.347657,-0.08691 0.214843,0 0.361328,0.109375 0.146484,0.109375 0.204101,0.307617 l -0.186523,0.04395 q -0.0498,-0.15625 -0.144531,-0.227539 -0.09473,-0.07129 -0.238282,-0.07129 -0.165039,0 -0.276367,0.0791 -0.110351,0.0791 -0.155273,0.212891 -0.04492,0.132812 -0.04492,0.274414 0,0.182617 0.05273,0.319336 0.05371,0.135742 0.166016,0.203125 0.112304,0.06738 0.243164,0.06738 0.15918,0 0.269531,-0.0918 0.110352,-0.0918 0.149414,-0.272461 z"
     id="text21"
     style="font-size:2px;font-family:Arial;text-anchor:middle;fill:#aaaaaa"
     aria-label="SYNC" />
  <path
     d="m 28.403828,73 v -1.431641 h 0.537109 q 0.164063,0 0.262695,0.04395 0.09961,0.04297 0.155274,0.133789 0.05664,0.08984 0.05664,0.188476 0,0.0918 -0.0498,0.172852 -0.0498,0.08106 -0.150391,0.130859 0.129883,0.03809 0.199219,0.129883 0.07031,0.0918 0.07031,0.216797 0,0.100586 -0.04297,0.1875 -0.04199,0.08594 -0.104493,0.132812 -0.0625,0.04687 -0.157226,0.07129 Q 29.086445,73 28.949726,73 Z m 0.189453,-0.830078 h 0.30957 q 0.125977,0 0.180664,-0.0166 0.07227,-0.02148 0.108399,-0.07129 0.03711,-0.0498 0.03711,-0.125 0,-0.07129 -0.03418,-0.125 -0.03418,-0.05469 -0.09766,-0.07422 -0.06348,-0.02051 -0.217773,-0.02051 h -0.286133 z m 0,0.661133 h 0.356445 q 0.0918,0 0.128906,-0.0068 0.06543,-0.01172 0.109375,-0.03906 0.04395,-0.02734 0.07227,-0.0791 0.02832,-0.05274 0.02832,-0.121094 0,-0.08008 -0.04101,-0.138672 -0.04102,-0.05957 -0.114258,-0.08301 -0.07227,-0.02441 -0.208985,-0.02441 H 28.593281 Z M 29.777851,73 v -1.431641 h 0.189453 V 73 Z m 0.887695,0 v -1.262695 h -0.471679 v -0.168946 h 1.134765 v 0.168946 H 30.855 V 73 Z m 0.792969,-0.459961 0.178711,-0.01563 q 0.0127,0.107422 0.05859,0.176758 0.04687,0.06836 0.144531,0.111328 0.09766,0.04199 0.219727,0.04199 0.108398,0 0.191406,-0.03223 0.08301,-0.03223 0.123047,-0.08789 0.04102,-0.05664 0.04102,-0.123047 0,-0.06738 -0.03906,-0.117187 -0.03906,-0.05078 -0.128906,-0.08496 -0.05762,-0.02246 -0.254883,-0.06934 -0.197266,-0.04785 -0.276367,-0.08984 -0.102539,-0.05371 -0.153321,-0.132813 -0.0498,-0.08008 -0.0498,-0.17871 0,-0.108399 0.06152,-0.202149 0.06152,-0.09473 0.179688,-0.143555 0.118164,-0.04883 0.262695,-0.04883 0.15918,0 0.280273,0.05176 0.122071,0.05078 0.1875,0.150391 0.06543,0.09961 0.07031,0.225586 l -0.181641,0.01367 q -0.01465,-0.135743 -0.09961,-0.205079 -0.08398,-0.06934 -0.249024,-0.06934 -0.171875,0 -0.250976,0.06348 -0.07813,0.0625 -0.07813,0.151367 0,0.07715 0.05566,0.126953 0.05469,0.0498 0.285156,0.102539 0.231445,0.05176 0.317383,0.09082 0.125,0.05762 0.18457,0.146484 0.05957,0.08789 0.05957,0.203125 0,0.114258 -0.06543,0.21582 -0.06543,0.100586 -0.188477,0.157227 -0.12207,0.05566 -0.27539,0.05566 -0.194336,0 -0.326172,-0.05664 -0.13086,-0.05664 -0.206055,-0.169921 -0.07422,-0.114258 -0.07813,-0.257813 z"
     id="text22"
     style="font-size:2px;font-family:Arial;text-anchor:middle;fill:#aaaaaa"
     aria-label="BITS" />
  <path
     d="m 28.465839,111.30273 q 0,-0.35644 0.191407,-0.55761 0.191406,-0.20215 0.49414,-0.20215 0.198242,0 0.357422,0.0947 0.15918,0.0947 0.242188,0.26464 0.08398,0.16895 0.08398,0.38379 0,0.21778 -0.08789,0.38965 -0.08789,0.17188 -0.249023,0.26074 -0.161133,0.0879 -0.347656,0.0879 -0.202149,0 -0.361328,-0.0977 -0.15918,-0.0977 -0.241211,-0.2666 -0.08203,-0.16895 -0.08203,-0.35743 z m 0.195313,0.003 q 0,0.25879 0.138672,0.40821 0.139648,0.14843 0.349609,0.14843 0.213867,0 0.351563,-0.15039 0.138672,-0.15039 0.138672,-0.42675 0,-0.17481 -0.05957,-0.30469 -0.05859,-0.13086 -0.172851,-0.20215 -0.113282,-0.0723 -0.254883,-0.0723 -0.201172,0 -0.34668,0.13868 -0.144531,0.13769 -0.144531,0.46093 z m 2.357422,-0.7373 h 0.189453 v 0.82715 q 0,0.21582 -0.04883,0.34277 -0.04883,0.12695 -0.176758,0.20703 -0.126953,0.0791 -0.333984,0.0791 -0.201172,0 -0.329102,-0.0693 -0.12793,-0.0693 -0.182617,-0.2002 -0.05469,-0.13183 -0.05469,-0.35937 v -0.82715 h 0.189453 v 0.82617 q 0,0.18652 0.03418,0.27539 0.03516,0.0879 0.119141,0.13574 0.08496,0.0479 0.207031,0.0479 0.208984,0 0.297852,-0.0947 0.08887,-0.0947 0.08887,-0.36426 z M 31.887714,112 v -1.2627 h -0.471679 v -0.16894 H 32.5508 v 0.16894 H 32.077168 V 112 Z"
     id="text23"
     style="font-size:2px;font-family:Arial;text-anchor:middle;fill:#aaaaaa"
     aria-label="OUT" />
  <!-- Brand -->
  <path
     d="m 16.187309,124.57886 v -0.12598 l 0.454834,-7.3e-4 v 0.39844 q -0.104736,0.0835 -0.216064,0.12597 -0.111328,0.0417 -0.228516,0.0417 -0.158203,0 -0.287842,-0.0674 -0.128906,-0.0681 -0.194824,-0.19629 -0.06592,-0.12818 -0.06592,-0.28638 0,-0.15674 0.06519,-0.29223 0.06592,-0.13624 0.188965,-0.20215 0.123046,-0.0659 0.283447,-0.0659 0.116455,0 0.210205,0.0381 0.09448,0.0374 0.147949,0.10474 0.05347,0.0674 0.0813,0.17578 l -0.128174,0.0352 q -0.02417,-0.082 -0.06006,-0.12891 -0.03589,-0.0469 -0.10254,-0.0747 -0.06665,-0.0286 -0.147949,-0.0286 -0.09741,0 -0.168457,0.03 -0.07104,0.0293 -0.11499,0.0776 -0.04321,0.0483 -0.06738,0.1062 -0.04101,0.0996 -0.04101,0.21606 0,0.14356 0.04907,0.24024 0.04981,0.0967 0.144287,0.14355 0.09448,0.0469 0.200684,0.0469 0.09229,0 0.180175,-0.0352 0.08789,-0.0359 0.133301,-0.0762 v -0.19995 z M 16.845757,125 v -1.07373 h 0.142089 v 0.94702 h 0.528809 V 125 Z m 0.864257,0 v -1.07373 h 0.14209 V 125 Z m 0.283448,0 0.415283,-0.55957 -0.366211,-0.51416 h 0.169189 l 0.194825,0.27539 q 0.06079,0.0857 0.08642,0.13184 0.03589,-0.0586 0.08496,-0.12232 l 0.216065,-0.28491 h 0.154541 l -0.377198,0.5061 L 18.977837,125 h -0.175782 l -0.270263,-0.38306 q -0.0227,-0.033 -0.04687,-0.0718 -0.03589,0.0586 -0.05127,0.0806 L 18.164116,125 Z m 1.478027,-0.34497 0.134033,-0.0117 q 0.0095,0.0806 0.04395,0.13257 0.03516,0.0513 0.108399,0.0835 0.07324,0.0315 0.164795,0.0315 0.0813,0 0.143555,-0.0242 0.06226,-0.0242 0.09229,-0.0659 0.03076,-0.0425 0.03076,-0.0923 0,-0.0505 -0.0293,-0.0879 -0.0293,-0.0381 -0.09668,-0.0637 -0.04321,-0.0168 -0.191162,-0.052 -0.14795,-0.0359 -0.207276,-0.0674 -0.0769,-0.0403 -0.11499,-0.0996 -0.03735,-0.0601 -0.03735,-0.13403 0,-0.0813 0.04614,-0.15161 0.04614,-0.071 0.134766,-0.10767 0.08862,-0.0366 0.197021,-0.0366 0.119385,0 0.210205,0.0388 0.09155,0.0381 0.140625,0.11279 0.04907,0.0747 0.05273,0.16919 l -0.136231,0.0102 q -0.01099,-0.1018 -0.07471,-0.1538 -0.06299,-0.052 -0.186767,-0.052 -0.128907,0 -0.188233,0.0476 -0.05859,0.0469 -0.05859,0.11353 0,0.0579 0.04175,0.0952 0.04101,0.0373 0.213867,0.0769 0.173584,0.0388 0.238037,0.0681 0.09375,0.0432 0.138428,0.10986 0.04468,0.0659 0.04468,0.15235 0,0.0857 -0.04907,0.16186 -0.04907,0.0754 -0.141357,0.11792 -0.09155,0.0417 -0.206543,0.0417 -0.145752,0 -0.244629,-0.0425 -0.09814,-0.0425 -0.154541,-0.12744 -0.05566,-0.0857 -0.05859,-0.19336 z M 20.79351,125 v -0.94702 h -0.353759 v -0.12671 h 0.851074 v 0.12671 H 20.9356 V 125 Z m 1.347657,-1.07373 h 0.14209 v 0.62036 q 0,0.16187 -0.03662,0.25708 -0.03662,0.0952 -0.132568,0.15527 -0.09521,0.0593 -0.250488,0.0593 -0.150879,0 -0.246826,-0.052 -0.09595,-0.052 -0.136963,-0.15015 -0.04102,-0.0989 -0.04102,-0.26953 v -0.62036 h 0.14209 v 0.61963 q 0,0.13989 0.02564,0.20654 0.02637,0.0659 0.08936,0.10181 0.06372,0.0359 0.155274,0.0359 0.156738,0 0.223388,-0.071 0.06665,-0.071 0.06665,-0.27319 z M 22.519829,125 v -1.07373 h 0.369873 q 0.125244,0 0.191162,0.0154 0.09229,0.0212 0.157471,0.0769 0.08496,0.0718 0.126709,0.18384 0.04248,0.11133 0.04248,0.25489 0,0.12231 -0.02856,0.21679 -0.02857,0.0945 -0.07324,0.15674 -0.04468,0.0615 -0.09814,0.0974 -0.05273,0.0352 -0.128174,0.0535 Q 23.004692,125 22.90728,125 Z m 0.14209,-0.12671 h 0.229248 q 0.106201,0 0.166259,-0.0198 0.06079,-0.0198 0.09668,-0.0557 0.05054,-0.0505 0.07837,-0.1355 0.02857,-0.0857 0.02857,-0.20727 0,-0.16846 -0.05566,-0.25855 -0.05493,-0.0908 -0.134034,-0.12158 -0.05713,-0.022 -0.183837,-0.022 H 22.661919 Z M 23.627251,125 v -1.07373 h 0.14209 V 125 Z m 0.349365,-0.52295 q 0,-0.26733 0.143555,-0.41821 0.143554,-0.15161 0.370605,-0.15161 0.148682,0 0.268066,0.071 0.119385,0.071 0.181641,0.19849 0.06299,0.12671 0.06299,0.28784 0,0.16333 -0.06592,0.29224 -0.06592,0.1289 -0.186767,0.19555 -0.12085,0.0659 -0.260742,0.0659 -0.151612,0 -0.270996,-0.0732 -0.119385,-0.0732 -0.180909,-0.19995 -0.06152,-0.12671 -0.06152,-0.26807 z m 0.146484,0.002 q 0,0.19409 0.104004,0.30615 0.104737,0.11133 0.262207,0.11133 0.160401,0 0.263672,-0.11279 0.104004,-0.1128 0.104004,-0.32007 0,-0.13111 -0.04468,-0.22852 -0.04395,-0.0981 -0.129638,-0.15161 -0.08496,-0.0542 -0.191163,-0.0542 -0.150878,0 -0.260009,0.104 -0.108399,0.10328 -0.108399,0.34571 z"
     id="text24"
     style="font-size:1.5px;font-family:Arial;text-anchor:middle;fill:#666666"
     aria-label="GLIX STUDIO" />
</svg>
