<?xml version="1.0" encoding="UTF-8" standalone="no"?>
<svg
   width="40.64mm"
   height="128.5mm"
   viewBox="0 0 40.64 128.5"
   version="1.1"
   id="svg16"
   sodipodi:docname="TapeAge.svg"
   xmlns:inkscape="http://www.inkscape.org/namespaces/inkscape"
   xmlns:sodipodi="http://sodipodi.sourceforge.net/DTD/sodipodi-0.dtd"
   xmlns="http://www.w3.org/2000/svg"
   xmlns:svg="http://www.w3.org/2000/svg">
  <defs
     id="defs16" />
  <sodipodi:namedview
     id="namedview16"
     pagecolor="#ffffff"
     bordercolor="#000000"
     borderopacity="0.25"
     inkscape:showpageshadow="2"
     inkscape:pageopacity="0.0"
     inkscape:pagecheckerboard="0"
     inkscape:deskcolor="#d1d1d1"
     inkscape:document-units="mm" />
  <!-- Background - warm brown tape color -->
  <rect
     width="40.64"
     height="128.5"
     fill="#3a2a20"
     id="rect1" />
  <!-- Panel border -->
  <rect
     x="0.5"
     y="0.5"
     width="39.64"
     height="127.5"
     fill="none"
     stroke="#6a4a30"
     stroke-width="0.3"
     id="rect2" />
  <!-- Title -->
  <path
     d="M 8.9882126,9 V 6.0263672 H 7.9262009 V 5.4208984 H 10.770439 V 6.0263672 H 9.7108688 V 9 Z M 14.093193,9 H 13.30706 L 12.99456,8.1870117 H 11.563896 L 11.268486,9 h -0.766602 l 1.394043,-3.5791016 h 0.764161 z M 12.762627,7.5839844 12.269463,6.2558594 11.786064,7.5839844 Z M 14.476494,9 V 5.4208984 h 1.159668 q 0.659179,0 0.859375,0.053711 0.307617,0.080566 0.515137,0.3515625 0.207519,0.2685547 0.207519,0.6958008 0,0.3295898 -0.119629,0.5541992 -0.119629,0.2246093 -0.305176,0.3540039 -0.183105,0.1269531 -0.373535,0.168457 -0.258789,0.05127 -0.749512,0.05127 H 15.19915 V 9 Z M 15.19915,6.0263672 v 1.015625 h 0.395508 q 0.427246,0 0.571289,-0.056152 0.144043,-0.056152 0.224609,-0.1757812 0.08301,-0.1196289 0.08301,-0.2783203 0,-0.1953125 -0.114746,-0.3222656 -0.114746,-0.1269532 -0.290527,-0.1586915 -0.129395,-0.024414 -0.52002,-0.024414 z M 17.811455,9 V 5.4208984 h 2.653808 v 0.6054688 h -1.931152 v 0.793457 h 1.796875 v 0.6030274 h -1.796875 v 0.9741211 h 1.999512 V 9 Z m 7.766113,0 h -0.786133 l -0.3125,-0.8129883 H 23.048271 L 22.752861,9 h -0.766602 l 1.394043,-3.5791016 h 0.764161 z M 24.247002,7.5839844 23.753838,6.2558594 23.270439,7.5839844 Z M 27.625908,7.684082 V 7.0810547 h 1.557617 v 1.4257812 q -0.227051,0.2197266 -0.65918,0.3881836 -0.429687,0.1660157 -0.871582,0.1660157 -0.561523,0 -0.979004,-0.234375 -0.41748,-0.2368164 -0.627441,-0.6738282 -0.209961,-0.4394531 -0.209961,-0.9545898 0,-0.559082 0.234375,-0.9936524 0.234375,-0.4345703 0.686035,-0.6665039 0.344239,-0.1782226 0.856934,-0.1782226 0.666504,0 1.040039,0.2807617 0.375976,0.2783203 0.483398,0.7714844 L 28.419365,6.5463867 Q 28.343681,6.2827148 28.13372,6.1313477 27.926201,5.9775391 27.613701,5.9775391 q -0.473633,0 -0.754395,0.3002929 -0.27832,0.300293 -0.27832,0.8911133 0,0.637207 0.283203,0.9570313 0.283203,0.3173828 0.742188,0.3173828 0.22705,0 0.454101,-0.087891 0.229492,-0.090332 0.393067,-0.2172852 V 7.684082 Z M 29.850029,9 V 5.4208984 h 2.653809 v 0.6054688 h -1.931153 v 0.793457 h 1.796875 v 0.6030274 h -1.796875 v 0.9741211 h 1.999512 V 9 Z"
     id="text2"
     style="font-weight:bold;font-size:5px;font-family:Arial, sans-serif;text-anchor:middle;fill:#dda066"
     aria-label="TAPE AGE" />
  <path
     d="M 15.291191,15 14.89666,13.962891 h 0.185547 l 0.222656,0.621093 q 0.03613,0.100586 0.06641,0.208985 0.02344,-0.08203 0.06543,-0.197266 l 0.230469,-0.632812 h 0.180664 L 15.455254,15 Z m 0.712891,-1.229492 v -0.202149 h 0.175781 v 0.202149 z m 0,1.229492 v -1.037109 h 0.175781 V 15 Z m 0.443359,0 v -1.037109 h 0.158203 v 0.147461 q 0.114258,-0.170899 0.330078,-0.170899 0.09375,0 0.171875,0.03418 0.0791,0.0332 0.118164,0.08789 0.03906,0.05469 0.05469,0.129883 0.0098,0.04883 0.0098,0.170899 V 15 h -0.175782 v -0.630859 q 0,-0.107422 -0.02051,-0.160157 -0.02051,-0.05371 -0.07324,-0.08496 -0.05176,-0.03223 -0.12207,-0.03223 -0.112305,0 -0.194336,0.07129 -0.08106,0.07129 -0.08106,0.270508 V 15 Z m 1.496094,-0.157227 0.02539,0.155274 q -0.07422,0.01563 -0.132812,0.01563 -0.0957,0 -0.148438,-0.03027 -0.05273,-0.03027 -0.07422,-0.0791 -0.02149,-0.0498 -0.02149,-0.208008 v -0.59668 h -0.128906 v -0.136718 h 0.128906 v -0.256836 l 0.174805,-0.105469 v 0.362305 h 0.176758 v 0.136718 h -0.176758 v 0.606446 q 0,0.0752 0.0088,0.09668 0.0098,0.02149 0.03027,0.03418 0.02148,0.01269 0.06055,0.01269 0.0293,0 0.07715,-0.0068 z m 0.848633,0.0293 q -0.09766,0.08301 -0.188477,0.117188 -0.08984,0.03418 -0.193359,0.03418 -0.170899,0 -0.262696,-0.08301 -0.0918,-0.08398 -0.0918,-0.213867 0,-0.07617 0.03418,-0.138672 0.03516,-0.06348 0.09082,-0.101563 0.05664,-0.03809 0.126953,-0.05762 0.05176,-0.01367 0.15625,-0.02637 0.21289,-0.02539 0.313476,-0.06055 9.77e-4,-0.03613 9.77e-4,-0.0459 0,-0.107421 -0.0498,-0.151367 -0.06738,-0.05957 -0.200195,-0.05957 -0.124024,0 -0.183594,0.04395 -0.05859,0.04297 -0.08691,0.153321 l -0.171875,-0.02344 q 0.02344,-0.110351 0.07715,-0.177734 0.05371,-0.06836 0.155274,-0.104492 0.101562,-0.03711 0.235351,-0.03711 0.132813,0 0.215821,0.03125 0.08301,0.03125 0.12207,0.0791 0.03906,0.04687 0.05469,0.11914 0.0088,0.04492 0.0088,0.16211 v 0.234375 q 0,0.245117 0.01074,0.310547 0.01172,0.06445 0.04492,0.124023 h -0.183594 q -0.02734,-0.05469 -0.03516,-0.12793 z m -0.01465,-0.392578 q -0.0957,0.03906 -0.287109,0.06641 -0.108399,0.01563 -0.15332,0.03516 -0.04492,0.01953 -0.06934,0.05762 -0.02441,0.03711 -0.02441,0.08301 0,0.07031 0.05273,0.117187 0.05371,0.04687 0.15625,0.04687 0.101562,0 0.180664,-0.04395 0.0791,-0.04492 0.116211,-0.12207 0.02832,-0.05957 0.02832,-0.175782 z m 0.417969,0.606446 0.170898,0.02539 q 0.01074,0.0791 0.05957,0.115235 0.06543,0.04883 0.178711,0.04883 0.12207,0 0.188476,-0.04883 0.06641,-0.04883 0.08984,-0.136719 0.01367,-0.05371 0.01269,-0.225586 Q 19.780449,15 19.608574,15 q -0.213867,0 -0.331055,-0.154297 -0.117187,-0.154297 -0.117187,-0.370117 0,-0.148438 0.05371,-0.273438 0.05371,-0.125976 0.155273,-0.194335 0.102539,-0.06836 0.240234,-0.06836 0.183594,0 0.302735,0.148438 v -0.125 h 0.162109 v 0.896484 q 0,0.242188 -0.0498,0.342773 -0.04883,0.101563 -0.15625,0.160157 -0.106446,0.05859 -0.262696,0.05859 -0.185547,0 -0.299804,-0.08398 -0.114258,-0.08301 -0.110352,-0.250976 z m 0.145508,-0.623047 q 0,0.204101 0.08105,0.297851 0.08106,0.09375 0.203125,0.09375 0.121094,0 0.203125,-0.09277 0.08203,-0.09375 0.08203,-0.292969 0,-0.19043 -0.08496,-0.287109 -0.08399,-0.09668 -0.203125,-0.09668 -0.117188,0 -0.199219,0.0957 -0.08203,0.09473 -0.08203,0.282227 z m 1.708984,0.203125 0.181641,0.02246 q -0.04297,0.159179 -0.15918,0.24707 -0.116211,0.08789 -0.296875,0.08789 -0.227539,0 -0.361328,-0.139649 -0.132813,-0.140625 -0.132813,-0.393555 0,-0.261718 0.134766,-0.40625 0.134766,-0.144531 0.349609,-0.144531 0.208008,0 0.339844,0.141602 0.131836,0.141601 0.131836,0.398437 0,0.01563 -9.76e-4,0.04687 h -0.773438 q 0.0098,0.170899 0.09668,0.261719 0.08691,0.09082 0.216797,0.09082 0.09668,0 0.165039,-0.05078 0.06836,-0.05078 0.108398,-0.162109 z m -0.577148,-0.28418 h 0.579101 q -0.01172,-0.130859 -0.06641,-0.196289 -0.08398,-0.101563 -0.217773,-0.101563 -0.121094,0 -0.204102,0.08106 -0.08203,0.08105 -0.09082,0.216797 z m 1.918945,0.460937 0.02539,0.155274 q -0.07422,0.01563 -0.132813,0.01563 -0.0957,0 -0.148437,-0.03027 -0.05274,-0.03027 -0.07422,-0.0791 -0.02148,-0.0498 -0.02148,-0.208008 v -0.59668 h -0.128907 v -0.136718 h 0.128907 v -0.256836 l 0.174804,-0.105469 v 0.362305 h 0.176758 v 0.136718 h -0.176758 v 0.606446 q 0,0.0752 0.0088,0.09668 0.0098,0.02149 0.03027,0.03418 0.02148,0.01269 0.06055,0.01269 0.0293,0 0.07715,-0.0068 z m 0.848633,0.0293 q -0.09766,0.08301 -0.188477,0.117188 -0.08984,0.03418 -0.193359,0.03418 -0.170899,0 -0.262695,-0.08301 -0.0918,-0.08398 -0.0918,-0.213867 0,-0.07617 0.03418,-0.138672 0.03516,-0.06348 0.09082,-0.101563 0.05664,-0.03809 0.126953,-0.05762 0.05176,-0.01367 0.15625,-0.02637 0.21289,-0.02539 0.313476,-0.06055 9.77e-4,-0.03613 9.77e-4,-0.0459 0,-0.107421 -0.04981,-0.151367 -0.06738,-0.05957 -0.200195,-0.05957 -0.124023,0 -0.183594,0.04395 -0.05859,0.04297 -0.08691,0.153321 l -0.171875,-0.02344 q 0.02344,-0.110351 0.07715,-0.177734 0.05371,-0.06836 0.155273,-0.104492 0.101563,-0.03711 0.235352,-0.03711 0.132812,0 0.21582,0.03125 0.08301,0.03125 0.12207,0.0791 0.03906,0.04687 0.05469,0.11914 0.0088,0.04492 0.0088,0.16211 v 0.234375 q 0,0.245117 0.01074,0.310547 0.01172,0.06445 0.04492,0.124023 h -0.183594 q -0.02734,-0.05469 -0.03516,-0.12793 z m -0.01465,-0.392578 q -0.0957,0.03906 -0.287109,0.06641 -0.108398,0.01563 -0.15332,0.03516 -0.04492,0.01953 -0.06934,0.05762 -0.02441,0.03711 -0.02441,0.08301 0,0.07031 0.05273,0.117187 0.05371,0.04687 0.15625,0.04687 0.101563,0 0.180664,-0.04395 0.0791,-0.04492 0.116211,-0.12207 0.02832,-0.05957 0.02832,-0.175782 z m 0.450196,0.917969 v -1.43457 h 0.160156 v 0.134765 q 0.05664,-0.0791 0.12793,-0.118164 0.07129,-0.04004 0.172851,-0.04004 0.132813,0 0.234375,0.06836 0.101563,0.06836 0.153321,0.193359 0.05176,0.124023 0.05176,0.272461 0,0.15918 -0.05762,0.287109 -0.05664,0.126953 -0.166015,0.195313 -0.108399,0.06738 -0.228516,0.06738 -0.08789,0 -0.158203,-0.03711 -0.06934,-0.03711 -0.114258,-0.09375 v 0.504883 z m 0.159179,-0.910156 q 0,0.200195 0.08106,0.295898 0.08105,0.0957 0.196289,0.0957 0.117188,0 0.200195,-0.09863 0.08399,-0.09961 0.08399,-0.307617 0,-0.198242 -0.08203,-0.296875 -0.08105,-0.09863 -0.194336,-0.09863 -0.112305,0 -0.199219,0.105469 -0.08594,0.104492 -0.08594,0.304688 z m 1.663086,0.178711 0.181641,0.02246 q -0.04297,0.159179 -0.15918,0.24707 -0.116211,0.08789 -0.296875,0.08789 -0.227539,0 -0.361328,-0.139649 -0.132812,-0.140625 -0.132812,-0.393555 0,-0.261718 0.134765,-0.40625 0.134766,-0.144531 0.34961,-0.144531 0.208007,0 0.339843,0.141602 0.131836,0.141601 0.131836,0.398437 0,0.01563 -9.76e-4,0.04687 h -0.773438 q 0.0098,0.170899 0.09668,0.261719 0.08691,0.09082 0.216797,0.09082 0.09668,0 0.165039,-0.05078 0.06836,-0.05078 0.108398,-0.162109 z m -0.577148,-0.28418 h 0.579101 q -0.01172,-0.130859 -0.06641,-0.196289 -0.08398,-0.101563 -0.217773,-0.101563 -0.121094,0 -0.204102,0.08106 -0.08203,0.08105 -0.09082,0.216797 z"
     id="text3"
     style="font-size:2px;font-family:Arial, sans-serif;text-anchor:middle;fill:#aa7744"
     aria-label="vintage tape" />
  <!-- Parameter labels -->
  <path
     d="m 17.506523,20 v -1.431641 h 0.189453 V 20 Z m 0.521485,0 v -1.431641 h 0.194335 l 0.751954,1.124024 v -1.124024 h 0.18164 V 20 H 18.961601 L 18.209648,18.875 V 20 Z m 1.446289,0 v -1.431641 h 0.540039 q 0.142578,0 0.217773,0.01367 0.105469,0.01758 0.176758,0.06738 0.07129,0.04883 0.114258,0.137695 0.04395,0.08887 0.04395,0.195313 0,0.182617 -0.116211,0.30957 -0.116211,0.125977 -0.419922,0.125977 H 19.66375 V 20 Z m 0.189453,-0.750977 h 0.370117 q 0.183594,0 0.260742,-0.06836 0.07715,-0.06836 0.07715,-0.192383 0,-0.08984 -0.0459,-0.15332 -0.04492,-0.06445 -0.119141,-0.08496 -0.04785,-0.0127 -0.176757,-0.0127 H 19.66375 Z m 2.083984,-0.680664 h 0.189453 v 0.827149 q 0,0.21582 -0.04883,0.342773 -0.04883,0.126953 -0.176758,0.207031 -0.126953,0.0791 -0.333984,0.0791 -0.201172,0 -0.329102,-0.06934 -0.127929,-0.06934 -0.182617,-0.200195 -0.05469,-0.131836 -0.05469,-0.359375 v -0.827149 h 0.189453 v 0.826172 q 0,0.186524 0.03418,0.275391 0.03516,0.08789 0.119141,0.135742 0.08496,0.04785 0.207031,0.04785 0.208985,0 0.297852,-0.09473 0.08887,-0.09473 0.08887,-0.364258 z M 22.616875,20 v -1.262695 h -0.47168 v -0.168946 h 1.134766 v 0.168946 H 22.806328 V 20 Z"
     id="text4"
     style="font-size:2px;font-family:Arial, sans-serif;text-anchor:middle;fill:#ccaa88"
     aria-label="INPUT" />
  <path
     d="m 17.418144,38 v -1.431641 h 0.493164 q 0.166992,0 0.254883,0.02051 0.123047,0.02832 0.209961,0.102539 0.113281,0.0957 0.168945,0.245117 0.05664,0.148438 0.05664,0.339844 0,0.163086 -0.03809,0.289063 -0.03809,0.125976 -0.09766,0.208984 -0.05957,0.08203 -0.13086,0.129883 -0.07031,0.04687 -0.170898,0.07129 Q 18.064629,38 17.934746,38 Z m 0.189453,-0.168945 h 0.305664 q 0.141602,0 0.22168,-0.02637 0.08105,-0.02637 0.128906,-0.07422 0.06738,-0.06738 0.104493,-0.180664 0.03808,-0.114258 0.03808,-0.276368 0,-0.224609 -0.07422,-0.344726 -0.07324,-0.121094 -0.178711,-0.162109 -0.07617,-0.0293 -0.245117,-0.0293 H 17.607597 Z M 18.86541,38 v -1.431641 h 0.634765 q 0.191407,0 0.291016,0.03906 0.09961,0.03809 0.15918,0.135742 0.05957,0.09766 0.05957,0.21582 0,0.152344 -0.09863,0.256836 -0.09863,0.104492 -0.304687,0.132813 0.0752,0.03613 0.114258,0.07129 0.08301,0.07617 0.157226,0.19043 L 20.127129,38 h -0.238282 l -0.189453,-0.297852 q -0.08301,-0.128906 -0.136719,-0.197265 -0.05371,-0.06836 -0.09668,-0.0957 -0.04199,-0.02734 -0.08594,-0.03809 -0.03223,-0.0068 -0.105468,-0.0068 H 19.054863 V 38 Z m 0.189453,-0.799805 h 0.407227 q 0.129882,0 0.203125,-0.02637 0.07324,-0.02734 0.111328,-0.08594 0.03809,-0.05957 0.03809,-0.128907 0,-0.101562 -0.07422,-0.166992 -0.07324,-0.06543 -0.232422,-0.06543 H 19.054863 Z M 20.339043,38 v -1.431641 h 0.189453 V 38 Z m 0.932617,0 -0.554688,-1.431641 h 0.205078 l 0.372071,1.040039 q 0.04492,0.125 0.0752,0.234375 0.0332,-0.117187 0.07715,-0.234375 l 0.386718,-1.040039 h 0.19336 L 21.465996,38 Z m 0.928711,0 v -1.431641 h 1.035156 v 0.168946 h -0.845703 v 0.438476 h 0.791992 v 0.167969 h -0.791992 v 0.487305 H 23.26873 V 38 Z"
     id="text5"
     style="font-size:2px;font-family:Arial, sans-serif;text-anchor:middle;fill:#ccaa88"
     aria-label="DRIVE" />
  <path
     d="m 18.205254,56 0.549804,-1.431641 H 18.95916 L 19.545097,56 h -0.21582 L 19.162285,55.566406 H 18.563652 L 18.406425,56 Z m 0.413086,-0.587891 h 0.485351 l -0.149414,-0.396484 q -0.06836,-0.180664 -0.101562,-0.296875 -0.02734,0.137695 -0.07715,0.273437 z m 1.748046,0.02637 v -0.167969 l 0.606446,-9.77e-4 v 0.53125 q -0.139649,0.111328 -0.288086,0.167969 -0.148438,0.05566 -0.304688,0.05566 -0.210937,0 -0.383789,-0.08984 -0.171875,-0.09082 -0.259765,-0.261718 -0.08789,-0.170899 -0.08789,-0.381836 0,-0.208985 0.08691,-0.389649 0.08789,-0.18164 0.251953,-0.269531 0.164063,-0.08789 0.37793,-0.08789 0.155273,0 0.280273,0.05078 0.125977,0.0498 0.197266,0.139648 0.07129,0.08984 0.108398,0.234375 l -0.170898,0.04687 q -0.03223,-0.109375 -0.08008,-0.171875 -0.04785,-0.0625 -0.136719,-0.09961 -0.08887,-0.03809 -0.197266,-0.03809 -0.129882,0 -0.224609,0.04004 -0.09473,0.03906 -0.15332,0.103515 -0.05762,0.06445 -0.08984,0.141602 -0.05469,0.132812 -0.05469,0.288086 0,0.191406 0.06543,0.320312 0.06641,0.128907 0.192383,0.191407 0.125977,0.0625 0.267578,0.0625 0.123047,0 0.240234,-0.04687 0.117188,-0.04785 0.177735,-0.101563 V 55.438477 Z M 21.256035,56 v -1.431641 h 1.035156 v 0.168946 h -0.845703 v 0.438476 h 0.791992 v 0.167969 h -0.791992 v 0.487305 h 0.878906 V 56 Z"
     id="text6"
     style="font-size:2px;font-family:Arial, sans-serif;text-anchor:middle;fill:#ccaa88"
     aria-label="AGE" />
  <path
     d="m 18.690605,74 v -1.431641 h 0.285156 l 0.338868,1.013672 q 0.04687,0.141602 0.06836,0.211914 0.02441,-0.07813 0.07617,-0.229492 l 0.342773,-0.996094 h 0.254883 V 74 H 19.874199 V 72.801758 L 19.458183,74 H 19.287285 L 18.873222,72.78125 V 74 Z m 1.704102,0 V 72.568359 H 20.58416 V 74 Z m 0.377929,0 0.553711,-0.746094 -0.488281,-0.685547 h 0.225586 l 0.259766,0.367188 q 0.08105,0.114258 0.115234,0.175781 0.04785,-0.07813 0.113281,-0.163086 l 0.288086,-0.379883 h 0.206055 L 21.543144,73.243164 22.085136,74 H 21.850761 L 21.49041,73.489258 q -0.03027,-0.04395 -0.0625,-0.0957 -0.04785,0.07813 -0.06836,0.107422 L 21.000175,74 Z"
     id="text7"
     style="font-size:2px;font-family:Arial, sans-serif;text-anchor:middle;fill:#ccaa88"
     aria-label="MIX" />
  <path
     d="m 16.30584,91.302734 q 0,-0.356445 0.191406,-0.557617 0.191406,-0.202148 0.49414,-0.202148 0.198243,0 0.357422,0.09473 0.15918,0.09473 0.242188,0.264649 0.08398,0.168945 0.08398,0.383789 0,0.217773 -0.08789,0.389648 -0.08789,0.171875 -0.249024,0.260742 -0.161133,0.08789 -0.347656,0.08789 -0.202149,0 -0.361328,-0.09766 -0.15918,-0.09766 -0.241211,-0.266602 -0.08203,-0.168945 -0.08203,-0.357422 z m 0.195312,0.0029 q 0,0.258789 0.138672,0.408203 0.139648,0.148438 0.349609,0.148438 0.213867,0 0.351563,-0.150391 0.138672,-0.150391 0.138672,-0.426758 0,-0.174804 -0.05957,-0.304687 -0.05859,-0.13086 -0.172851,-0.202149 -0.113281,-0.07226 -0.254883,-0.07226 -0.201172,0 -0.34668,0.138672 -0.144531,0.137695 -0.144531,0.460937 z m 2.357422,-0.737305 h 0.189453 v 0.827149 q 0,0.21582 -0.04883,0.342773 -0.04883,0.126953 -0.176758,0.207031 -0.126953,0.0791 -0.333984,0.0791 -0.201172,0 -0.329102,-0.06934 -0.12793,-0.06934 -0.182617,-0.200195 -0.05469,-0.131836 -0.05469,-0.359375 v -0.827149 h 0.189454 v 0.826172 q 0,0.186524 0.03418,0.275391 0.03516,0.08789 0.119141,0.135742 0.08496,0.04785 0.207031,0.04785 0.208985,0 0.297852,-0.09473 0.08887,-0.09473 0.08887,-0.364258 z M 19.727715,92 v -1.262695 h -0.47168 V 90.568359 H 20.3908 v 0.168946 H 19.917168 V 92 Z m 0.857421,0 v -1.431641 h 0.540039 q 0.142579,0 0.217774,0.01367 0.105469,0.01758 0.176758,0.06738 0.07129,0.04883 0.114258,0.137695 0.04395,0.08887 0.04395,0.195313 0,0.182617 -0.116211,0.30957 -0.116211,0.125977 -0.419922,0.125977 H 20.77459 V 92 Z m 0.189454,-0.750977 h 0.370117 q 0.183593,0 0.260742,-0.06836 0.07715,-0.06836 0.07715,-0.192383 0,-0.08984 -0.0459,-0.15332 -0.04492,-0.06445 -0.119141,-0.08496 -0.04785,-0.01269 -0.176758,-0.01269 h -0.36621 z m 2.083984,-0.680664 h 0.189453 v 0.827149 q 0,0.21582 -0.04883,0.342773 -0.04883,0.126953 -0.176758,0.207031 -0.126953,0.0791 -0.333984,0.0791 -0.201172,0 -0.329102,-0.06934 -0.12793,-0.06934 -0.182617,-0.200195 -0.05469,-0.131836 -0.05469,-0.359375 v -0.827149 h 0.189454 v 0.826172 q 0,0.186524 0.03418,0.275391 0.03516,0.08789 0.119141,0.135742 0.08496,0.04785 0.207031,0.04785 0.208985,0 0.297852,-0.09473 0.08887,-0.09473 0.08887,-0.364258 z M 23.727715,92 v -1.262695 h -0.47168 V 90.568359 H 24.3908 v 0.168946 H 23.917168 V 92 Z"
     id="text8"
     style="font-size:2px;font-family:Arial, sans-serif;text-anchor:middle;fill:#ccaa88"
     aria-label="OUTPUT" />
  <!-- CV section -->
  <path
     d="m 20.127959,103.54824 0.170507,0.0431 q -0.05361,0.21006 -0.193359,0.3208 -0.138867,0.10986 -0.340137,0.10986 -0.2083,0 -0.339257,-0.0844 -0.130079,-0.0853 -0.198633,-0.2461 -0.06768,-0.16084 -0.06768,-0.34541 0,-0.20127 0.07647,-0.35068 0.07734,-0.15029 0.218848,-0.22764 0.142382,-0.0782 0.31289,-0.0782 0.19336,0 0.325195,0.0984 0.131836,0.0984 0.183692,0.27685 l -0.167871,0.0395 q -0.04482,-0.14062 -0.130078,-0.20478 -0.08525,-0.0642 -0.214453,-0.0642 -0.148536,0 -0.248731,0.0712 -0.09932,0.0712 -0.139746,0.1916 -0.04043,0.11953 -0.04043,0.24697 0,0.16436 0.04746,0.28741 0.04834,0.12217 0.149414,0.18281 0.101074,0.0606 0.218848,0.0606 0.143262,0 0.242578,-0.0826 0.09932,-0.0826 0.134473,-0.24522 z M 20.876787,104 20.377568,102.71152 h 0.18457 l 0.334864,0.93604 q 0.04043,0.1125 0.06767,0.21094 0.02988,-0.10547 0.06943,-0.21094 l 0.348047,-0.93604 h 0.174023 L 21.051689,104 Z"
     id="text9"
     style="font-size:1.8px;font-family:Arial, sans-serif;text-anchor:middle;fill:#886644"
     aria-label="CV" />
  <path
     d="m 8.7396729,107 v -0.93057 h 0.3205566 q 0.1085449,0 0.1656738,0.0133 0.07998,0.0184 0.1364747,0.0667 0.073633,0.0622 0.1098144,0.15933 0.036816,0.0965 0.036816,0.2209 0,0.106 -0.024756,0.18789 -0.024756,0.0819 -0.063477,0.13584 -0.038721,0.0533 -0.085059,0.0844 -0.045703,0.0305 -0.111084,0.0463 Q 9.1598877,107 9.0754639,107 Z m 0.1231445,-0.10981 h 0.1986817 q 0.092041,0 0.1440917,-0.0171 0.052686,-0.0171 0.083789,-0.0483 0.043799,-0.0438 0.06792,-0.11743 0.024756,-0.0743 0.024756,-0.17964 0,-0.14599 -0.048242,-0.22407 -0.047607,-0.0787 -0.1161621,-0.10537 -0.049512,-0.019 -0.1593262,-0.019 H 8.8628174 Z M 9.6803955,107 v -0.93057 h 0.4125975 q 0.124414,0 0.18916,0.0254 0.06475,0.0248 0.103467,0.0882 0.03872,0.0635 0.03872,0.14028 0,0.099 -0.06411,0.16694 -0.06411,0.0679 -0.198046,0.0863 0.04888,0.0235 0.07427,0.0463 0.05396,0.0495 0.102197,0.12378 L 10.500513,107 H 10.34563 l -0.123145,-0.1936 q -0.05396,-0.0838 -0.08887,-0.12823 -0.03491,-0.0444 -0.06284,-0.0622 -0.0273,-0.0178 -0.05586,-0.0248 -0.020947,-0.004 -0.068555,-0.004 H 9.8035401 V 107 Z m 0.1231446,-0.51987 h 0.2646969 q 0.08442,0 0.132032,-0.0171 0.04761,-0.0178 0.07236,-0.0559 0.02476,-0.0387 0.02476,-0.0838 0,-0.066 -0.04824,-0.10855 -0.04761,-0.0425 -0.151075,-0.0425 H 9.8035401 Z M 10.85979,107 10.499243,106.06943 h 0.133301 l 0.241846,0.67603 q 0.0292,0.0813 0.04888,0.15234 0.02158,-0.0762 0.05015,-0.15234 l 0.251367,-0.67603 h 0.125684 L 10.986108,107 Z"
     id="text10"
     style="font-size:1.3px;font-family:Arial, sans-serif;text-anchor:middle;fill:#aa8866"
     aria-label="DRV" />
  <path
     d="m 28.625415,107 0.357373,-0.93057 h 0.132666 L 29.496313,107 H 29.35603 l -0.108545,-0.28184 H 28.858374 L 28.756177,107 Z m 0.268506,-0.38213 h 0.315478 l -0.09712,-0.25771 q -0.04443,-0.11744 -0.06602,-0.19297 -0.01777,0.0895 -0.05015,0.17773 z m 1.13623,0.0171 v -0.10918 l 0.39419,-6.3e-4 v 0.34531 q -0.09077,0.0724 -0.187256,0.10918 -0.09648,0.0362 -0.198047,0.0362 -0.137109,0 -0.249463,-0.0584 -0.111719,-0.059 -0.168847,-0.17012 -0.05713,-0.11108 -0.05713,-0.24819 0,-0.13584 0.05649,-0.25327 0.05713,-0.11807 0.163769,-0.1752 0.106641,-0.0571 0.245655,-0.0571 0.100927,0 0.182177,0.033 0.08188,0.0324 0.128223,0.0908 0.04634,0.0584 0.07046,0.15235 l -0.111084,0.0305 q -0.02095,-0.0711 -0.05205,-0.11172 -0.0311,-0.0406 -0.08887,-0.0648 -0.05776,-0.0247 -0.128223,-0.0247 -0.08442,0 -0.145996,0.026 -0.06157,0.0254 -0.09966,0.0673 -0.03745,0.0419 -0.0584,0.092 -0.03555,0.0863 -0.03555,0.18725 0,0.12442 0.04253,0.20821 0.04316,0.0838 0.125049,0.12441 0.08188,0.0406 0.173926,0.0406 0.07998,0 0.156152,-0.0305 0.07617,-0.0311 0.115527,-0.066 v -0.17329 z M 30.608423,107 v -0.93057 h 0.672851 v 0.10982 h -0.549707 v 0.28501 h 0.514795 v 0.10918 h -0.514795 v 0.31675 h 0.571289 V 107 Z"
     id="text11"
     style="font-size:1.3px;font-family:Arial, sans-serif;text-anchor:middle;fill:#aa8866"
     aria-label="AGE" />
  <!-- I/O labels -->
  <path
     d="m 9.7337158,117 v -0.93057 h 0.1231446 v 0.82076 H 10.315161 V 117 Z"
     id="text12"
     style="font-size:1.3px;font-family:Arial, sans-serif;text-anchor:middle;fill:#aa8866"
     aria-label="L" />
  <path
     d="m 19.952788,117 v -0.93057 h 0.412597 q 0.124414,0 0.189161,0.0254 0.06475,0.0248 0.103466,0.0882 0.03872,0.0635 0.03872,0.14028 0,0.099 -0.06411,0.16694 -0.06411,0.0679 -0.198047,0.0863 0.04888,0.0235 0.07427,0.0463 0.05396,0.0495 0.102198,0.12378 L 20.772905,117 h -0.154883 l -0.123144,-0.1936 q -0.05395,-0.0838 -0.08887,-0.12823 -0.03491,-0.0444 -0.06284,-0.0622 -0.02729,-0.0178 -0.05586,-0.0248 -0.02095,-0.004 -0.06855,-0.004 H 20.075932 V 117 Z m 0.123144,-0.51987 h 0.264698 q 0.08442,0 0.132031,-0.0171 0.04761,-0.0178 0.07236,-0.0559 0.02476,-0.0387 0.02476,-0.0838 0,-0.066 -0.04824,-0.10855 -0.04761,-0.0425 -0.151074,-0.0425 h -0.294532 z"
     id="text13"
     style="font-size:1.3px;font-family:Arial, sans-serif;text-anchor:middle;fill:#aa8866"
     aria-label="R" />
  <path
     d="m 29.733716,126 v -0.93057 h 0.123144 v 0.82076 h 0.458301 V 126 Z"
     id="text14"
     style="font-size:1.3px;font-family:Arial, sans-serif;text-anchor:middle;fill:#ffffff"
     aria-label="L" />
  <path
     d="m 37.632788,126 v -0.93057 h 0.412598 q 0.124414,0 0.18916,0.0254 0.06475,0.0248 0.103467,0.0882 0.03872,0.0635 0.03872,0.14028 0,0.099 -0.06411,0.16694 -0.06411,0.0679 -0.198047,0.0863 0.04888,0.0235 0.07427,0.0463 0.05396,0.0495 0.102197,0.12378 L 38.452905,126 h -0.154883 l -0.123144,-0.1936 q -0.05396,-0.0838 -0.08887,-0.12823 -0.03491,-0.0444 -0.06284,-0.0622 -0.0273,-0.0178 -0.05586,-0.0248 -0.02095,-0.004 -0.06855,-0.004 H 37.755933 V 126 Z m 0.123145,-0.51987 h 0.264697 q 0.08442,0 0.132031,-0.0171 0.04761,-0.0178 0.07236,-0.0559 0.02476,-0.0387 0.02476,-0.0838 0,-0.066 -0.04824,-0.10855 -0.04761,-0.0425 -0.151074,-0.0425 h -0.294531 z"
     id="text15"
     style="font-size:1.3px;font-family:Arial, sans-serif;text-anchor:middle;fill:#ffffff"
     aria-label="R" />
  <!-- Brand -->
  <path
     d="m 17.013847,126.66309 v -0.10079 l 0.363867,-5.8e-4 v 0.31875 q -0.08379,0.0668 -0.172851,0.10078 -0.08906,0.0334 -0.182813,0.0334 -0.126562,0 -0.230273,-0.0539 -0.103125,-0.0545 -0.155859,-0.15703 -0.05274,-0.10254 -0.05274,-0.2291 0,-0.12539 0.05215,-0.23379 0.05273,-0.10898 0.151171,-0.16172 0.09844,-0.0527 0.226758,-0.0527 0.09316,0 0.168164,0.0305 0.07559,0.0299 0.11836,0.0838 0.04277,0.0539 0.06504,0.14063 l -0.102539,0.0281 q -0.01934,-0.0656 -0.04805,-0.10312 -0.02871,-0.0375 -0.08203,-0.0598 -0.05332,-0.0229 -0.11836,-0.0229 -0.07793,0 -0.134765,0.024 -0.05684,0.0234 -0.09199,0.0621 -0.03457,0.0387 -0.05391,0.085 -0.03281,0.0797 -0.03281,0.17285 0,0.11484 0.03926,0.19219 0.03984,0.0773 0.11543,0.11484 0.07559,0.0375 0.160547,0.0375 0.07383,0 0.144141,-0.0281 0.07031,-0.0287 0.10664,-0.0609 v -0.15996 z M 17.540605,127 v -0.85898 h 0.113672 v 0.75761 h 0.423047 V 127 Z m 0.691406,0 v -0.85898 h 0.113672 V 127 Z m 0.226758,0 0.332227,-0.44766 -0.292969,-0.41132 h 0.135352 l 0.155859,0.22031 q 0.04863,0.0686 0.06914,0.10547 0.02871,-0.0469 0.06797,-0.0979 l 0.172852,-0.22793 h 0.123633 L 18.921074,126.5459 19.246269,127 h -0.140625 l -0.216211,-0.30645 q -0.01816,-0.0264 -0.0375,-0.0574 -0.02871,0.0469 -0.04101,0.0645 L 18.595293,127 Z m 1.182422,-0.27598 0.107227,-0.009 q 0.0076,0.0644 0.03516,0.10605 0.02812,0.041 0.08672,0.0668 0.05859,0.0252 0.131836,0.0252 0.06504,0 0.114843,-0.0193 0.0498,-0.0193 0.07383,-0.0527 0.02461,-0.034 0.02461,-0.0738 0,-0.0404 -0.02344,-0.0703 -0.02344,-0.0305 -0.07734,-0.051 -0.03457,-0.0135 -0.15293,-0.0416 -0.11836,-0.0287 -0.16582,-0.0539 -0.06152,-0.0322 -0.09199,-0.0797 -0.02988,-0.048 -0.02988,-0.10722 0,-0.065 0.03691,-0.12129 0.03691,-0.0568 0.107812,-0.0861 0.0709,-0.0293 0.157617,-0.0293 0.09551,0 0.168164,0.0311 0.07324,0.0305 0.1125,0.0902 0.03926,0.0598 0.04219,0.13535 l -0.108984,0.008 q -0.0088,-0.0814 -0.05977,-0.12305 -0.05039,-0.0416 -0.149414,-0.0416 -0.103125,0 -0.150586,0.0381 -0.04687,0.0375 -0.04687,0.0908 0,0.0463 0.0334,0.0762 0.03281,0.0299 0.171094,0.0615 0.138867,0.0311 0.19043,0.0545 0.075,0.0346 0.110742,0.0879 0.03574,0.0527 0.03574,0.12187 0,0.0686 -0.03926,0.12949 -0.03926,0.0604 -0.113086,0.0943 -0.07324,0.0334 -0.165234,0.0334 -0.116602,0 -0.195703,-0.034 -0.07852,-0.034 -0.123633,-0.10195 -0.04453,-0.0686 -0.04687,-0.15469 z M 20.698808,127 v -0.75762 h -0.283007 v -0.10136 h 0.680859 v 0.10136 H 20.81248 V 127 Z m 1.078125,-0.85898 h 0.113672 v 0.49628 q 0,0.1295 -0.0293,0.20567 -0.0293,0.0762 -0.106054,0.12422 -0.07617,0.0475 -0.200391,0.0475 -0.120703,0 -0.197461,-0.0416 -0.07676,-0.0416 -0.10957,-0.12012 -0.03281,-0.0791 -0.03281,-0.21563 v -0.49628 h 0.113672 v 0.4957 q 0,0.11191 0.02051,0.16523 0.02109,0.0527 0.07148,0.0814 0.05098,0.0287 0.124219,0.0287 0.125391,0 0.178711,-0.0568 0.05332,-0.0568 0.05332,-0.21855 z M 22.079863,127 v -0.85898 h 0.295898 q 0.100196,0 0.15293,0.0123 0.07383,0.017 0.125977,0.0615 0.06797,0.0574 0.101367,0.14707 0.03398,0.0891 0.03398,0.20391 0,0.0978 -0.02285,0.17344 -0.02285,0.0756 -0.05859,0.12539 -0.03574,0.0492 -0.07852,0.0779 -0.04219,0.0281 -0.102539,0.0428 Q 22.467754,127 22.389824,127 Z m 0.113672,-0.10137 h 0.183398 q 0.08496,0 0.133008,-0.0158 0.04863,-0.0158 0.07734,-0.0445 0.04043,-0.0404 0.06269,-0.1084 0.02285,-0.0685 0.02285,-0.16582 0,-0.13476 -0.04453,-0.20683 -0.04395,-0.0727 -0.107227,-0.0973 -0.0457,-0.0176 -0.14707,-0.0176 H 22.193535 Z M 22.9658,127 v -0.85898 h 0.113672 V 127 Z m 0.279493,-0.41836 q 0,-0.21387 0.114844,-0.33457 0.114844,-0.12129 0.296484,-0.12129 0.118945,0 0.214453,0.0568 0.09551,0.0568 0.145313,0.15879 0.05039,0.10136 0.05039,0.23027 0,0.13066 -0.05273,0.23379 -0.05273,0.10312 -0.149414,0.15644 -0.09668,0.0527 -0.208594,0.0527 -0.121289,0 -0.216797,-0.0586 -0.09551,-0.0586 -0.144726,-0.15996 -0.04922,-0.10136 -0.04922,-0.21445 z m 0.117187,0.002 q 0,0.15527 0.0832,0.24492 0.08379,0.0891 0.209765,0.0891 0.128321,0 0.210938,-0.0902 0.0832,-0.0902 0.0832,-0.25606 0,-0.10488 -0.03574,-0.18281 -0.03516,-0.0785 -0.103711,-0.12129 -0.06797,-0.0434 -0.15293,-0.0434 -0.120703,0 -0.208008,0.0832 -0.08672,0.0826 -0.08672,0.27656 z"
     id="text16"
     style="font-size:1.2px;font-family:Arial, sans-serif;text-anchor:middle;fill:#553322"
     aria-label="GLIX STUDIO" />
</svg>
