<?xml version="1.0" encoding="UTF-8" standalone="no"?>
<svg
   width="50.8mm"
   height="128.5mm"
   viewBox="0 0 50.8 128.5"
   version="1.1"
   id="svg17"
   sodipodi:docname="FlutterVerb.svg"
   xmlns:inkscape="http://www.inkscape.org/namespaces/inkscape"
   xmlns:sodipodi="http://sodipodi.sourceforge.net/DTD/sodipodi-0.dtd"
   xmlns="http://www.w3.org/2000/svg"
   xmlns:svg="http://www.w3.org/2000/svg">
  <defs
     id="defs17" />
  <sodipodi:namedview
     id="namedview17"
     pagecolor="#ffffff"
     bordercolor="#000000"
     borderopacity="0.25"
     inkscape:showpageshadow="2"
     inkscape:pageopacity="0.0"
     inkscape:pagecheckerboard="0"
     inkscape:deskcolor="#d1d1d1"
     inkscape:document-units="mm" />
  <rect
     x="0"
     y="0"
     width="50.8"
     height="128.5"
     fill="#1a1a2e"
     id="rect1" />
  <rect
     x="0"
     y="0"
     width="50.8"
     height="3"
     fill="#e94560"
     id="rect2" />
  <path
     d="m 17.998632,10.654297 h -1.33789 v 0.541016 h 1.240234 v 0.5625 H 16.660742 V 13 h -0.746094 v -2.908203 h 2.083984 z M 20.613867,13 h -2.097656 v -2.908203 h 0.75 V 12.4375 h 1.347656 z m 2.998047,-1.052734 q 0,0.539062 -0.328125,0.826172 -0.328125,0.287109 -0.966797,0.287109 -0.638672,0 -0.966797,-0.287109 -0.326172,-0.28711 -0.326172,-0.824219 v -1.857422 h 0.753906 v 1.814453 q 0,0.302734 0.126953,0.451172 0.126954,0.148437 0.41211,0.148437 0.28125,0 0.410156,-0.142578 0.130859,-0.142578 0.130859,-0.457031 v -1.814453 h 0.753907 z m 2.976562,-1.292969 H 25.680273 V 13 h -0.75 V 10.654297 H 24.02207 v -0.5625 h 2.566406 z m 2.726563,0 H 28.406836 V 13 h -0.75 v -2.345703 h -0.908204 v -0.5625 h 2.566407 z M 31.869726,13 h -2.103515 v -2.908203 h 2.103515 v 0.5625 h -1.357422 v 0.501953 h 1.259766 v 0.5625 h -1.259766 v 0.71875 h 1.357422 z m 2.259766,-2.017578 q 0,-0.109375 -0.04492,-0.1875 -0.04492,-0.07813 -0.154297,-0.123047 -0.07617,-0.03125 -0.177734,-0.03711 -0.101563,-0.0078 -0.236328,-0.0078 h -0.271485 v 0.783203 h 0.230469 q 0.179687,0 0.300781,-0.01758 0.121094,-0.01758 0.203125,-0.08008 0.07813,-0.06055 0.113281,-0.132812 0.03711,-0.07422 0.03711,-0.197266 z M 35.299414,13 H 34.383398 L 33.590429,11.933594 H 33.244726 V 13 h -0.746094 v -2.908203 h 1.257813 q 0.257812,0 0.443359,0.0293 0.185547,0.0293 0.347657,0.126953 0.164062,0.09766 0.259765,0.253906 0.09766,0.154297 0.09766,0.388672 0,0.322266 -0.15039,0.525391 -0.148438,0.203125 -0.425781,0.33789 z"
     id="text2"
     style="font-weight:bold;font-size:4px;text-anchor:middle;fill:#ffffff"
     aria-label="FLUTTER" />
  <path
     d="M 22.426367,16.091797 21.36582,19 h -0.839844 l -1.060547,-2.908203 h 0.78711 l 0.703125,2.042969 0.703125,-2.042969 z M 24.947851,19 h -2.103515 v -2.908203 h 2.103515 v 0.5625 h -1.357422 v 0.501953 h 1.259766 v 0.5625 h -1.259766 v 0.71875 h 1.357422 z m 2.259766,-2.017578 q 0,-0.109375 -0.04492,-0.1875 -0.04492,-0.07813 -0.154297,-0.123047 -0.07617,-0.03125 -0.177734,-0.03711 -0.101563,-0.0078 -0.236328,-0.0078 h -0.271485 v 0.783203 h 0.230469 q 0.179687,0 0.300781,-0.01758 0.121094,-0.01758 0.203125,-0.08008 0.07813,-0.06055 0.113281,-0.132813 0.03711,-0.07422 0.03711,-0.197265 z M 28.377539,19 H 27.461523 L 26.668554,17.933594 H 26.322851 V 19 h -0.746094 v -2.908203 h 1.257813 q 0.257812,0 0.443359,0.0293 0.185547,0.0293 0.347657,0.126953 0.164062,0.09766 0.259765,0.253906 0.09766,0.154297 0.09766,0.388672 0,0.322266 -0.15039,0.525391 -0.148438,0.203125 -0.425781,0.33789 z m 2.816406,-0.890625 q 0,0.210937 -0.08594,0.376953 -0.08398,0.166016 -0.232421,0.275391 -0.171875,0.128906 -0.378907,0.183593 Q 30.291601,19 29.975195,19 h -1.269531 v -2.908203 h 1.128906 q 0.351562,0 0.513672,0.02344 0.164062,0.02344 0.324219,0.103516 0.166015,0.08398 0.246093,0.226562 0.08203,0.140625 0.08203,0.322266 0,0.210938 -0.111329,0.373047 -0.111328,0.160156 -0.314453,0.25 v 0.01563 q 0.285157,0.05664 0.451172,0.234375 0.167969,0.177734 0.167969,0.46875 z m -0.960938,-1.195313 q 0,-0.07227 -0.03711,-0.144531 -0.03516,-0.07227 -0.126953,-0.107422 -0.08203,-0.03125 -0.205078,-0.0332 Q 29.742773,16.625 29.52207,16.625 h -0.07031 v 0.615234 h 0.117188 q 0.177734,0 0.302734,-0.0059 0.125,-0.0059 0.197266,-0.03906 0.101562,-0.04492 0.132812,-0.115234 0.03125,-0.07227 0.03125,-0.166016 z m 0.183594,1.183594 q 0,-0.138672 -0.05469,-0.21289 -0.05273,-0.07617 -0.181641,-0.113282 -0.08789,-0.02539 -0.242187,-0.02734 -0.154297,-0.002 -0.322266,-0.002 h -0.164063 v 0.72461 h 0.05469 q 0.316406,0 0.453125,-0.002 0.136719,-0.002 0.251953,-0.05078 0.117188,-0.04883 0.160156,-0.128906 0.04492,-0.08203 0.04492,-0.1875 z"
     id="text3"
     style="font-weight:bold;font-size:4px;text-anchor:middle;fill:#e94560"
     aria-label="VERB" />
  <path
     d="m 8.8300781,36.584961 q 0,0.08496 -0.040039,0.167969 -0.039063,0.08301 -0.1103516,0.140625 -0.078125,0.0625 -0.1826172,0.09766 -0.1035156,0.03516 -0.25,0.03516 -0.1572265,0 -0.2832031,-0.0293 -0.125,-0.0293 -0.2548828,-0.08691 v -0.242187 h 0.013672 q 0.1103516,0.0918 0.2548829,0.141601 0.1445312,0.0498 0.2714843,0.0498 0.1796875,0 0.2792969,-0.06738 0.100586,-0.06738 0.100586,-0.179687 0,-0.09668 -0.047852,-0.142578 -0.046875,-0.0459 -0.1435547,-0.07129 -0.073242,-0.01953 -0.1591797,-0.03223 -0.084961,-0.0127 -0.180664,-0.03223 -0.1933594,-0.04102 -0.2871094,-0.139648 -0.092774,-0.09961 -0.092774,-0.258789 0,-0.182617 0.1542969,-0.298828 0.1542969,-0.117188 0.3916016,-0.117188 0.1533203,0 0.28125,0.0293 0.1279297,0.0293 0.2265625,0.07227 v 0.228515 h -0.013672 q -0.083008,-0.07031 -0.21875,-0.116211 -0.1347656,-0.04687 -0.2763672,-0.04687 -0.1552734,0 -0.25,0.06445 -0.09375,0.06445 -0.09375,0.166015 0,0.09082 0.046875,0.142578 0.046875,0.05176 0.1650391,0.0791 0.0625,0.01367 0.1777344,0.0332 0.1152343,0.01953 0.1953125,0.04004 0.1621093,0.04297 0.2441406,0.129883 0.082031,0.08691 0.082031,0.243164 z M 9.6533203,37 H 9.0791016 V 36.851562 H 9.2695313 V 35.694336 H 9.0791016 v -0.148438 h 0.5742187 v 0.148438 H 9.4628906 v 1.157226 h 0.1904297 z m 1.3916017,0 H 9.9101563 V 36.820312 L 10.801758,35.717773 H 9.9433594 v -0.171875 h 1.0800786 v 0.174805 l -0.900391,1.107422 h 0.921875 z m 1.265625,0 h -0.958008 v -1.454102 h 0.958008 v 0.171875 h -0.764649 v 0.398438 h 0.764649 v 0.171875 h -0.764649 v 0.540039 h 0.764649 z"
     id="text4"
     style="font-size:2px;text-anchor:middle;fill:#666666"
     aria-label="SIZE" />
  <path
     d="m 23.462988,36.274414 q 0,0.198242 -0.08691,0.359375 -0.08594,0.161133 -0.229492,0.25 -0.09961,0.06152 -0.222657,0.08887 Q 22.801855,37 22.60166,37 h -0.367188 v -1.454102 h 0.363282 q 0.21289,0 0.33789,0.03125 0.125977,0.03027 0.212891,0.08398 0.148437,0.09277 0.231445,0.24707 0.08301,0.154297 0.08301,0.366211 z m -0.202149,-0.0029 q 0,-0.170898 -0.05957,-0.288086 -0.05957,-0.117187 -0.177734,-0.18457 -0.08594,-0.04883 -0.182617,-0.06738 -0.09668,-0.01953 -0.231446,-0.01953 h -0.18164 v 1.12207 h 0.18164 q 0.139649,0 0.243164,-0.02051 0.104493,-0.02051 0.191407,-0.07617 0.108398,-0.06934 0.162109,-0.182618 0.05469,-0.113281 0.05469,-0.283203 z M 24.733496,37 h -0.958008 v -1.454102 h 0.958008 v 0.171875 h -0.764649 v 0.398438 h 0.764649 v 0.171875 h -0.764649 v 0.540039 h 0.764649 z m 1.429687,-0.105469 q -0.05371,0.02344 -0.09766,0.04395 -0.04297,0.02051 -0.113281,0.04297 -0.05957,0.01855 -0.129883,0.03125 -0.06934,0.01367 -0.15332,0.01367 -0.158204,0 -0.288086,-0.04395 -0.128907,-0.04492 -0.22461,-0.139649 -0.09375,-0.09277 -0.146484,-0.235351 -0.05273,-0.143555 -0.05273,-0.333008 0,-0.179687 0.05078,-0.321289 0.05078,-0.141602 0.146484,-0.239258 0.09277,-0.09473 0.223633,-0.144531 0.131836,-0.0498 0.291992,-0.0498 0.117188,0 0.233399,0.02832 0.117187,0.02832 0.259765,0.09961 v 0.229492 h -0.01465 q -0.120117,-0.100586 -0.238281,-0.146484 -0.118165,-0.0459 -0.25293,-0.0459 -0.110352,0 -0.199219,0.03613 -0.08789,0.03516 -0.157226,0.110352 -0.06738,0.07324 -0.105469,0.185547 -0.03711,0.111328 -0.03711,0.257812 0,0.15332 0.04102,0.263672 0.04199,0.110351 0.107422,0.179687 0.06836,0.07227 0.15918,0.107422 0.0918,0.03418 0.193359,0.03418 0.139648,0 0.261719,-0.04785 0.12207,-0.04785 0.228515,-0.143554 h 0.01367 z M 27.583105,37 H 27.37705 L 27.234472,36.594727 H 26.605566 L 26.462988,37 h -0.196289 l 0.529297,-1.454102 h 0.257812 z m -0.408203,-0.571289 -0.254883,-0.713867 -0.255859,0.713867 z m 1.580078,-0.882813 -0.511719,0.816407 V 37 H 28.049902 V 36.382812 L 27.53623,35.545898 h 0.213867 l 0.397461,0.650391 0.401367,-0.650391 z"
     id="text5"
     style="font-size:2px;text-anchor:middle;fill:#666666"
     aria-label="DECAY" />
  <path
     d="m 40.341503,37 h -0.193359 v -1.25293 l -0.404297,0.852539 H 39.628613 L 39.227245,35.74707 V 37 h -0.180664 v -1.454102 h 0.263672 l 0.387695,0.809571 0.375,-0.809571 h 0.268555 z m 0.90332,0 h -0.574218 v -0.148438 h 0.190429 v -1.157226 h -0.190429 v -0.148438 h 0.574218 v 0.148438 h -0.190429 v 1.157226 h 0.190429 z M 42.6833,35.545898 42.181347,36.264648 42.682323,37 H 42.458691 L 42.062206,36.401367 41.655956,37 h -0.210937 l 0.506836,-0.726563 -0.495117,-0.727539 h 0.222656 l 0.391601,0.590821 0.400391,-0.590821 z"
     id="text6"
     style="font-size:2px;text-anchor:middle;fill:#666666"
     aria-label="MIX" />
  <path
     d="M 9.2504883,62 H 9.0444336 L 8.9018555,61.594727 H 8.2729492 L 8.1303711,62 H 7.934082 L 8.4633789,60.545898 H 8.7211914 Z M 8.8422852,61.428711 8.5874023,60.714844 8.331543,61.428711 Z m 1.8417968,0.463867 q -0.119141,0.05469 -0.260742,0.0957 -0.140625,0.04004 -0.272461,0.04004 -0.169922,0 -0.3115235,-0.04687 -0.1416016,-0.04687 -0.241211,-0.140625 -0.1005859,-0.09473 -0.1552734,-0.236328 -0.054687,-0.142578 -0.054687,-0.333008 0,-0.348632 0.203125,-0.549804 0.2041016,-0.202149 0.5595704,-0.202149 0.124023,0 0.25293,0.03027 0.129882,0.0293 0.279296,0.100586 v 0.229492 h -0.01758 q -0.03027,-0.02344 -0.08789,-0.06152 -0.05762,-0.03809 -0.113282,-0.06348 -0.06738,-0.03027 -0.15332,-0.0498 -0.08496,-0.02051 -0.193359,-0.02051 -0.2441408,0 -0.386719,0.157227 -0.1416015,0.15625 -0.1416015,0.423828 0,0.282227 0.1484375,0.439453 0.1484375,0.15625 0.404297,0.15625 0.09375,0 0.186523,-0.01855 0.09375,-0.01855 0.164063,-0.04785 v -0.356445 h -0.389649 v -0.169922 h 0.581055 z M 11.97998,62 h -0.958007 v -1.454102 h 0.958007 v 0.171875 h -0.764648 v 0.398438 h 0.764648 v 0.171875 h -0.764648 v 0.540039 h 0.764648 z"
     id="text7"
     style="font-size:2px;text-anchor:middle;fill:#666666"
     aria-label="AGE" />
  <path
     d="m 23.621191,61.274414 q 0,0.198242 -0.08691,0.359375 -0.08594,0.161133 -0.229492,0.25 -0.09961,0.06152 -0.222656,0.08887 Q 22.960058,62 22.759863,62 h -0.367188 v -1.454102 h 0.363282 q 0.21289,0 0.33789,0.03125 0.125977,0.03027 0.212891,0.08398 0.148437,0.09277 0.231445,0.24707 0.08301,0.154297 0.08301,0.366211 z m -0.202148,-0.0029 q 0,-0.170898 -0.05957,-0.288086 -0.05957,-0.117187 -0.177734,-0.18457 -0.08594,-0.04883 -0.182617,-0.06738 -0.09668,-0.01953 -0.231446,-0.01953 h -0.18164 v 1.12207 h 0.18164 q 0.139649,0 0.243164,-0.02051 0.104493,-0.02051 0.191407,-0.07617 0.108398,-0.06934 0.162109,-0.182618 0.05469,-0.113281 0.05469,-0.283203 z M 25.136816,62 H 24.885839 L 24.399511,61.421875 H 24.12705 V 62 h -0.193359 v -1.454102 h 0.407227 q 0.131836,0 0.219726,0.01758 0.08789,0.0166 0.158203,0.06055 0.0791,0.0498 0.123047,0.125977 0.04492,0.0752 0.04492,0.191406 0,0.157227 -0.0791,0.263672 -0.0791,0.105469 -0.217773,0.15918 z m -0.452148,-1.044922 q 0,-0.0625 -0.02246,-0.110351 -0.02148,-0.04883 -0.07227,-0.08203 -0.04199,-0.02832 -0.09961,-0.03906 -0.05762,-0.01172 -0.135743,-0.01172 H 24.12705 v 0.548828 h 0.195313 q 0.0918,0 0.160156,-0.01563 0.06836,-0.0166 0.116211,-0.06055 0.04395,-0.04102 0.06445,-0.09375 0.02148,-0.05371 0.02148,-0.135742 z M 25.837011,62 h -0.574218 v -0.148438 h 0.190429 v -1.157226 h -0.190429 v -0.148438 h 0.574218 v 0.148438 h -0.190429 v 1.157226 h 0.190429 z M 27.312597,60.545898 26.7833,62 h -0.257812 l -0.529297,-1.454102 h 0.207031 l 0.456055,1.279297 0.456055,-1.279297 z M 28.491308,62 H 27.5333 v -1.454102 h 0.958008 v 0.171875 H 27.72666 v 0.398438 h 0.764648 v 0.171875 H 27.72666 v 0.540039 h 0.764648 z"
     id="text8"
     style="font-size:2px;text-anchor:middle;fill:#666666"
     aria-label="DRIVE" />
  <path
     d="M 39.273144,60.717773 H 38.753613 V 62 h -0.19336 v -1.282227 h -0.519531 v -0.171875 h 1.232422 z m 1.230469,-0.0049 q 0.08887,0.09766 0.135742,0.239257 0.04785,0.141602 0.04785,0.321289 0,0.179688 -0.04883,0.322266 -0.04785,0.141602 -0.134765,0.236328 -0.08984,0.09863 -0.212891,0.148438 -0.12207,0.0498 -0.279297,0.0498 -0.15332,0 -0.279297,-0.05078 -0.125,-0.05078 -0.21289,-0.147461 -0.08789,-0.09668 -0.135743,-0.237304 -0.04687,-0.140625 -0.04687,-0.32129 0,-0.177734 0.04687,-0.318359 0.04687,-0.141601 0.136719,-0.242187 0.08594,-0.0957 0.212891,-0.146485 0.127929,-0.05078 0.27832,-0.05078 0.15625,0 0.280273,0.05176 0.125,0.05078 0.211915,0.145508 z m -0.01758,0.560546 q 0,-0.283203 -0.126953,-0.436523 -0.126953,-0.154297 -0.346679,-0.154297 -0.22168,0 -0.348633,0.154297 -0.125977,0.15332 -0.125977,0.436523 0,0.286133 0.128906,0.438477 0.128907,0.151367 0.345704,0.151367 0.216796,0 0.344726,-0.151367 0.128906,-0.152344 0.128906,-0.438477 z M 42.103222,62 H 41.863964 L 41.174511,60.699219 V 62 h -0.180664 v -1.454102 h 0.299805 l 0.628906,1.1875 v -1.1875 h 0.180664 z m 1.344726,0 h -0.958007 v -1.454102 h 0.958007 v 0.171875 H 42.6833 v 0.398438 h 0.764648 v 0.171875 H 42.6833 v 0.540039 h 0.764648 z"
     id="text9"
     style="font-size:2px;text-anchor:middle;fill:#666666"
     aria-label="TONE" />
  <path
     d="M 19.469336,83.545898 19.091406,85 H 18.873632 L 18.567968,83.792969 18.26914,85 h -0.21289 l -0.384766,-1.454102 h 0.198242 l 0.305664,1.208985 0.300781,-1.208985 h 0.19629 l 0.30371,1.220704 0.303711,-1.220704 z M 20.7125,85 H 19.754492 V 83.545898 H 20.7125 v 0.171875 h -0.764649 v 0.398438 H 20.7125 v 0.171875 h -0.764649 v 0.540039 H 20.7125 Z m 1.34375,-1.282227 H 21.536718 V 85 h -0.193359 v -1.282227 h -0.519531 v -0.171875 h 1.232422 z m 0.839843,-0.237304 -0.700195,1.816406 h -0.168945 l 0.697265,-1.816406 z m 1.956055,0.06543 L 24.474218,85 H 24.256445 L 23.950781,83.792969 23.651953,85 h -0.212891 l -0.384766,-1.454102 h 0.198243 l 0.305664,1.208985 0.300781,-1.208985 h 0.196289 l 0.303711,1.220704 0.303711,-1.220704 z M 26.095312,85 h -0.958008 v -1.454102 h 0.958008 v 0.171875 h -0.764648 v 0.398438 h 0.764648 v 0.171875 h -0.764648 v 0.540039 h 0.764648 z m 1.34375,-1.282227 H 26.919531 V 85 h -0.19336 V 83.717773 H 26.20664 v -0.171875 h 1.232422 z m 1.431641,0.723633 h -0.532227 v 0.532227 H 28.176367 V 84.441406 H 27.64414 v -0.15625 h 0.532227 V 83.75293 h 0.162109 v 0.532226 h 0.532227 z m 1.628906,-0.166992 q 0,0.198242 -0.08691,0.359375 -0.08594,0.161133 -0.229492,0.25 -0.09961,0.06152 -0.222657,0.08887 Q 29.838476,85 29.638281,85 h -0.367188 v -1.454102 h 0.363282 q 0.21289,0 0.33789,0.03125 0.125977,0.03027 0.212891,0.08399 0.148437,0.09277 0.231445,0.24707 0.08301,0.154297 0.08301,0.366211 z m -0.202148,-0.0029 q 0,-0.170898 -0.05957,-0.288086 -0.05957,-0.117187 -0.177734,-0.18457 -0.08594,-0.04883 -0.182617,-0.06738 -0.09668,-0.01953 -0.231446,-0.01953 h -0.18164 v 1.12207 h 0.18164 q 0.139649,0 0.243164,-0.02051 0.104493,-0.02051 0.191407,-0.07617 0.108398,-0.06934 0.162109,-0.182618 0.05469,-0.113281 0.05469,-0.283203 z M 32.015234,85 H 31.764257 L 31.277929,84.421875 H 31.005468 V 85 h -0.193359 v -1.454102 h 0.407227 q 0.131835,0 0.219726,0.01758 0.08789,0.0166 0.158203,0.06055 0.0791,0.04981 0.123047,0.125977 0.04492,0.07519 0.04492,0.191406 0,0.157227 -0.0791,0.263672 -0.0791,0.105469 -0.217773,0.15918 z m -0.452148,-1.044922 q 0,-0.0625 -0.02246,-0.110351 -0.02148,-0.04883 -0.07227,-0.08203 -0.04199,-0.02832 -0.09961,-0.03906 -0.05762,-0.01172 -0.135743,-0.01172 h -0.227539 v 0.548828 h 0.195313 q 0.0918,0 0.160156,-0.01563 0.06836,-0.0166 0.116211,-0.06055 0.04395,-0.04101 0.06445,-0.09375 0.02148,-0.05371 0.02148,-0.135742 z m 1.649414,-0.40918 -0.511719,0.816407 V 85 h -0.19336 V 84.382812 L 31.99375,83.545898 h 0.213867 l 0.397461,0.650391 0.401367,-0.650391 z"
     id="text10"
     style="font-size:2px;text-anchor:middle;fill:#666666"
     aria-label="WET/WET+DRY" />
  <path
     d="m 9.9523926,101.9209 q -0.040283,0.0176 -0.073242,0.033 -0.032227,0.0154 -0.084961,0.0322 -0.044678,0.0139 -0.097412,0.0234 -0.052002,0.0103 -0.1149902,0.0103 -0.1186523,0 -0.2160644,-0.033 -0.09668,-0.0337 -0.1684571,-0.10474 -0.070312,-0.0696 -0.1098633,-0.17651 -0.039551,-0.10767 -0.039551,-0.24976 0,-0.13477 0.038086,-0.24097 0.038086,-0.1062 0.1098633,-0.17944 0.06958,-0.071 0.1677246,-0.1084 0.098877,-0.0374 0.2189941,-0.0374 0.087891,0 0.1750489,0.0212 0.087891,0.0212 0.1948242,0.0747 v 0.17211 h -0.010986 q -0.090088,-0.0754 -0.178711,-0.10986 -0.088623,-0.0344 -0.1896973,-0.0344 -0.082764,0 -0.149414,0.0271 -0.065918,0.0264 -0.1179199,0.0828 -0.050537,0.0549 -0.079102,0.13916 -0.027832,0.0835 -0.027832,0.19336 0,0.11499 0.030762,0.19775 0.031494,0.0828 0.080566,0.13477 0.05127,0.0542 0.1193848,0.0806 0.068848,0.0256 0.1450195,0.0256 0.1047363,0 0.1962891,-0.0359 0.091553,-0.0359 0.1713867,-0.10766 h 0.010254 z M 11.017334,100.90942 10.620361,102 h -0.193359 l -0.396973,-1.09058 h 0.155274 l 0.342041,0.95948 0.342041,-0.95948 z"
     id="text11"
     style="font-size:1.5px;text-anchor:middle;fill:#555555"
     aria-label="CV" />
  <path
     d="M 10.418945,120 H 9.7290039 v -1.09058 h 0.1450195 v 0.96167 h 0.5449216 z"
     id="text12"
     style="font-size:1.5px;text-anchor:middle;fill:#555555"
     aria-label="L" />
  <path
     d="m 22.527344,120 h -0.188233 l -0.364746,-0.43359 H 21.77002 V 120 H 21.625 v -1.09058 h 0.30542 q 0.09888,0 0.164795,0.0132 0.06592,0.0124 0.118652,0.0454 0.05933,0.0374 0.09229,0.0945 0.03369,0.0564 0.03369,0.14355 0,0.11792 -0.05933,0.19776 -0.05933,0.0791 -0.163331,0.11938 z m -0.339112,-0.78369 q 0,-0.0469 -0.01685,-0.0828 -0.01611,-0.0366 -0.0542,-0.0615 -0.03149,-0.0212 -0.07471,-0.0293 -0.04321,-0.009 -0.101806,-0.009 H 21.77002 v 0.41162 h 0.146484 q 0.06885,0 0.120117,-0.0117 0.05127,-0.0125 0.08716,-0.0454 0.03296,-0.0308 0.04834,-0.0703 0.01611,-0.0403 0.01611,-0.10181 z"
     id="text13"
     style="font-size:1.5px;text-anchor:middle;fill:#555555"
     aria-label="R" />
  <path
     d="m 34.418945,120 h -0.689941 v -1.09058 h 0.145019 v 0.96167 h 0.544922 z"
     id="text14"
     style="font-size:1.5px;text-anchor:middle;fill:#555555"
     aria-label="L" />
  <path
     d="m 46.527344,120 h -0.188233 l -0.364746,-0.43359 H 45.77002 V 120 H 45.625 v -1.09058 h 0.30542 q 0.09888,0 0.164795,0.0132 0.06592,0.0124 0.118652,0.0454 0.05933,0.0374 0.09228,0.0945 0.03369,0.0564 0.03369,0.14355 0,0.11792 -0.05933,0.19776 -0.05933,0.0791 -0.163331,0.11938 z m -0.339112,-0.78369 q 0,-0.0469 -0.01684,-0.0828 -0.01611,-0.0366 -0.0542,-0.0615 -0.03149,-0.0212 -0.07471,-0.0293 -0.04321,-0.009 -0.101806,-0.009 H 45.77002 v 0.41162 h 0.146484 q 0.06885,0 0.120117,-0.0117 0.05127,-0.0125 0.08716,-0.0454 0.03296,-0.0308 0.04834,-0.0703 0.01611,-0.0403 0.01611,-0.10181 z"
     id="text15"
     style="font-size:1.5px;text-anchor:middle;fill:#555555"
     aria-label="R" />
  <path
     d="m 15.654297,125 h -0.430664 v -0.11133 h 0.142822 v -0.86792 h -0.142822 v -0.11133 h 0.430664 v 0.11133 h -0.142822 v 0.86792 h 0.142822 z m 1.078857,0 h -0.179443 l -0.51709,-0.97559 V 125 h -0.135498 v -1.09058 h 0.224854 l 0.471679,0.89063 v -0.89063 h 0.135498 z"
     id="text16"
     style="font-size:1.5px;text-anchor:middle;fill:#444444"
     aria-label="IN" />
  <path
     d="m 39.358032,124.03467 q 0.06665,0.0732 0.101807,0.17944 0.03589,0.1062 0.03589,0.24097 0,0.13476 -0.03662,0.2417 -0.03589,0.1062 -0.101074,0.17724 -0.06738,0.074 -0.159668,0.11133 -0.09155,0.0374 -0.209472,0.0374 -0.114991,0 -0.209473,-0.0381 -0.09375,-0.0381 -0.159668,-0.1106 -0.06592,-0.0725 -0.101807,-0.17798 -0.03516,-0.10546 -0.03516,-0.24096 0,-0.1333 0.03516,-0.23877 0.03516,-0.1062 0.102539,-0.18164 0.06445,-0.0718 0.159668,-0.10987 0.09595,-0.0381 0.208741,-0.0381 0.117187,0 0.210205,0.0388 0.09375,0.0381 0.158935,0.10913 z m -0.01318,0.42041 q 0,-0.2124 -0.09522,-0.32739 -0.09522,-0.11573 -0.26001,-0.11573 -0.16626,0 -0.261475,0.11573 -0.09448,0.11499 -0.09448,0.32739 0,0.2146 0.09668,0.32886 0.09668,0.11352 0.259277,0.11352 0.162598,0 0.258545,-0.11352 0.09668,-0.11426 0.09668,-0.32886 z m 1.201904,0.10693 q 0,0.11865 -0.02637,0.20728 -0.02564,0.0879 -0.08496,0.14648 -0.0564,0.0557 -0.131836,0.0813 -0.07544,0.0256 -0.175781,0.0256 -0.102539,0 -0.178711,-0.0271 -0.07617,-0.0271 -0.128174,-0.0798 -0.05933,-0.0601 -0.08569,-0.14502 -0.02563,-0.085 -0.02563,-0.20874 v -0.65259 h 0.145019 v 0.65992 q 0,0.0886 0.01172,0.13989 0.01245,0.0513 0.04102,0.093 0.03223,0.0476 0.08716,0.0718 0.05566,0.0242 0.133301,0.0242 0.07837,0 0.1333,-0.0234 0.05493,-0.0242 0.08789,-0.0725 0.02856,-0.0418 0.04028,-0.0952 0.01245,-0.0542 0.01245,-0.13403 v -0.66358 h 0.14502 z m 1.054687,-0.52368 H 41.211792 V 125 h -0.14502 v -0.96167 h -0.389648 v -0.12891 h 0.924316 z"
     id="text17"
     style="font-size:1.5px;text-anchor:middle;fill:#444444"
     aria-label="OUT" />
  <rect
     x="0"
     y="125.5"
     width="50.8"
     height="3"
     fill="#e94560"
     id="rect17" />
</svg>
