<?xml version="1.0" encoding="UTF-8" standalone="no"?>
<svg
   width="40.64mm"
   height="128.5mm"
   viewBox="0 0 40.64 128.5"
   version="1.1"
   id="svg15"
   sodipodi:docname="LushPad.svg"
   xmlns:inkscape="http://www.inkscape.org/namespaces/inkscape"
   xmlns:sodipodi="http://sodipodi.sourceforge.net/DTD/sodipodi-0.dtd"
   xmlns="http://www.w3.org/2000/svg"
   xmlns:svg="http://www.w3.org/2000/svg">
  <sodipodi:namedview
     id="namedview15"
     pagecolor="#ffffff"
     bordercolor="#000000"
     borderopacity="0.25"
     inkscape:showpageshadow="2"
     inkscape:pageopacity="0.0"
     inkscape:pagecheckerboard="0"
     inkscape:deskcolor="#d1d1d1"
     inkscape:document-units="mm" />
  <!-- Background - deep purple/blue -->
  <defs
     id="defs2">
    <linearGradient
       id="bg"
       x1="0%"
       y1="0%"
       x2="0%"
       y2="100%">
      <stop
         offset="0%"
         style="stop-color:#2a2040;stop-opacity:1"
         id="stop1" />
      <stop
         offset="100%"
         style="stop-color:#1a1030;stop-opacity:1"
         id="stop2" />
    </linearGradient>
  </defs>
  <rect
     width="40.64"
     height="128.5"
     fill="url(#bg)"
     id="rect2" />
  <!-- Panel border -->
  <rect
     x="0.5"
     y="0.5"
     width="39.64"
     height="127.5"
     fill="none"
     stroke="#6644aa"
     stroke-width="0.3"
     id="rect3" />
  <!-- Title -->
  <path
     d="M 8.110527,9 V 5.4501953 H 8.8331833 V 8.3969727 H 10.630058 V 9 Z m 3.029785,-3.5791016 h 0.722656 V 7.359375 q 0,0.4614258 0.02686,0.5981445 0.04639,0.2197266 0.219726,0.3540039 0.175782,0.131836 0.478516,0.131836 0.307617,0 0.463867,-0.1245117 0.15625,-0.1269532 0.187989,-0.3100586 0.03174,-0.1831055 0.03174,-0.6079102 V 5.4208984 h 0.722656 v 1.8798828 q 0,0.6445313 -0.05859,0.9106446 -0.05859,0.2661133 -0.217285,0.4492187 -0.15625,0.1831055 -0.419922,0.2929688 -0.263672,0.1074219 -0.688476,0.1074219 -0.512696,0 -0.778809,-0.1171875 -0.263672,-0.1196289 -0.41748,-0.3076172 -0.153809,-0.1904297 -0.202637,-0.3979492 -0.0708,-0.3076172 -0.0708,-0.9082032 z m 3.432617,2.4145508 0.703125,-0.068359 q 0.06348,0.354004 0.256348,0.5200196 0.195313,0.1660156 0.524902,0.1660156 0.349121,0 0.524903,-0.1464844 0.178222,-0.1489258 0.178222,-0.3466797 0,-0.1269531 -0.07568,-0.2148437 -0.07324,-0.090332 -0.258789,-0.15625 -0.126953,-0.043945 -0.578614,-0.15625 -0.581054,-0.144043 -0.815429,-0.3540039 -0.32959,-0.2954102 -0.32959,-0.7202149 0,-0.2734375 0.153809,-0.5102539 0.15625,-0.2392578 0.446777,-0.3637695 0.292969,-0.1245117 0.705566,-0.1245117 0.673828,0 1.013184,0.2954101 0.341797,0.2954102 0.358887,0.7885743 L 16.65789,6.4755859 Q 16.611504,6.199707 16.457695,6.0800781 16.306328,5.9580078 16.001152,5.9580078 q -0.314941,0 -0.493164,0.1293945 -0.114746,0.083008 -0.114746,0.222168 0,0.1269531 0.107422,0.2172852 0.136719,0.1147461 0.664062,0.2392578 0.527344,0.1245117 0.778809,0.258789 0.253906,0.131836 0.395508,0.3637696 0.144043,0.2294922 0.144043,0.5688476 0,0.3076172 -0.170899,0.5761719 -0.170898,0.2685547 -0.483398,0.4003906 -0.3125,0.1293946 -0.778809,0.1293946 -0.678711,0 -1.04248,-0.3125 Q 14.64373,8.4360352 14.572929,7.8354492 Z M 18.093437,9 V 5.4208984 h 0.722656 v 1.4086914 h 1.416016 V 5.4208984 h 0.722656 V 9 H 20.232109 V 7.4350586 H 18.816093 V 9 Z m 4.997559,0 V 5.4208984 h 1.159668 q 0.659179,0 0.859375,0.053711 0.307617,0.080566 0.515136,0.3515625 0.20752,0.2685547 0.20752,0.6958008 0,0.3295898 -0.119629,0.5541992 -0.119629,0.2246093 -0.305176,0.3540039 -0.183105,0.1269531 -0.373535,0.168457 -0.258789,0.05127 -0.749512,0.05127 H 23.813652 V 9 Z m 0.722656,-2.9736328 v 1.015625 h 0.395508 q 0.427246,0 0.571289,-0.056152 0.144043,-0.056152 0.224609,-0.1757812 0.08301,-0.1196289 0.08301,-0.2783203 0,-0.1953125 -0.114746,-0.3222656 -0.114746,-0.1269532 -0.290527,-0.1586915 -0.129395,-0.024414 -0.52002,-0.024414 z M 29.282402,9 h -0.786133 l -0.3125,-0.8129883 H 26.753105 L 26.457695,9 h -0.766602 l 1.394043,-3.5791016 h 0.764161 z m -1.330566,-1.4160156 -0.493164,-1.328125 -0.483399,1.328125 z m 1.711425,-2.163086 h 1.320801 q 0.446778,0 0.681153,0.068359 0.314941,0.092773 0.53955,0.3295899 0.22461,0.2368164 0.341797,0.5810546 0.117188,0.3417969 0.117188,0.8447266 0,0.4418945 -0.109864,0.7617188 -0.134277,0.390625 -0.3833,0.6323242 Q 31.982597,8.8217773 31.662773,8.9243164 31.423515,9 31.023125,9 h -1.359864 z m 0.722657,0.6054688 v 2.3706055 h 0.53955 q 0.302735,0 0.437012,-0.03418 0.175781,-0.043945 0.290528,-0.1489258 0.117187,-0.1049805 0.190429,-0.3442383 0.07324,-0.2416992 0.07324,-0.6567383 0,-0.415039 -0.07324,-0.637207 -0.07324,-0.222168 -0.205078,-0.3466797 -0.131836,-0.1245117 -0.334473,-0.168457 -0.151367,-0.03418 -0.593261,-0.03418 z"
     id="text3"
     style="font-weight:bold;font-size:5px;font-family:Arial, sans-serif;text-anchor:middle;fill:#cc88ff"
     aria-label="LUSH PAD" />
  <path
     d="m 15.949394,15.397461 v -1.43457 h 0.160156 v 0.134765 q 0.05664,-0.0791 0.12793,-0.118164 0.07129,-0.04004 0.172852,-0.04004 0.132812,0 0.234375,0.06836 0.101562,0.06836 0.15332,0.193359 0.05176,0.124023 0.05176,0.272461 0,0.15918 -0.05762,0.287109 -0.05664,0.126953 -0.166016,0.195313 -0.108398,0.06738 -0.228516,0.06738 -0.08789,0 -0.158203,-0.03711 -0.06934,-0.03711 -0.114258,-0.09375 v 0.504883 z m 0.15918,-0.910156 q 0,0.200195 0.08105,0.295898 0.08105,0.0957 0.196289,0.0957 0.117187,0 0.200195,-0.09863 0.08398,-0.09961 0.08398,-0.307617 0,-0.198242 -0.08203,-0.296875 -0.08106,-0.09863 -0.194336,-0.09863 -0.112305,0 -0.199219,0.105469 -0.08594,0.104492 -0.08594,0.304688 z m 0.887695,-0.0059 q 0,-0.288086 0.160156,-0.426757 0.13379,-0.115235 0.326172,-0.115235 0.213868,0 0.34961,0.140625 0.135742,0.139649 0.135742,0.386719 0,0.200195 -0.06055,0.31543 -0.05957,0.114257 -0.174805,0.177734 -0.114257,0.06348 -0.25,0.06348 -0.217773,0 -0.352539,-0.139649 -0.133789,-0.139648 -0.133789,-0.402344 z m 0.180664,0 q 0,0.199219 0.08691,0.298828 0.08691,0.09863 0.21875,0.09863 0.13086,0 0.217774,-0.09961 0.08691,-0.09961 0.08691,-0.303711 0,-0.192383 -0.08789,-0.291016 -0.08691,-0.09961 -0.216797,-0.09961 -0.131836,0 -0.21875,0.09863 -0.08691,0.09863 -0.08691,0.297851 z M 18.170097,15 v -1.431641 h 0.175782 V 15 Z m 0.44043,0.399414 -0.01953,-0.165039 q 0.05762,0.01563 0.100586,0.01563 0.05859,0 0.09375,-0.01953 0.03516,-0.01953 0.05762,-0.05469 0.0166,-0.02637 0.05371,-0.130859 0.0049,-0.01465 0.01563,-0.04297 L 18.51873,13.962891 h 0.189453 l 0.215821,0.600586 q 0.04199,0.114257 0.0752,0.240234 0.03027,-0.121094 0.07227,-0.236328 l 0.221679,-0.604492 h 0.175781 l -0.394531,1.054687 q -0.06348,0.170899 -0.09863,0.235352 -0.04687,0.08691 -0.107421,0.126953 -0.06055,0.04101 -0.144532,0.04101 -0.05078,0 -0.113281,-0.02148 z m 1.493164,-0.708984 0.173828,-0.02734 q 0.01465,0.104492 0.08105,0.160156 0.06738,0.05566 0.1875,0.05566 0.121094,0 0.179687,-0.04883 0.05859,-0.04981 0.05859,-0.116211 0,-0.05957 -0.05176,-0.09375 -0.03613,-0.02344 -0.179687,-0.05957 -0.19336,-0.04883 -0.268555,-0.08398 -0.07422,-0.03613 -0.113281,-0.09863 -0.03809,-0.06348 -0.03809,-0.139649 0,-0.06934 0.03125,-0.127929 0.03223,-0.05957 0.08691,-0.09863 0.04102,-0.03027 0.111328,-0.05078 0.07129,-0.02149 0.152344,-0.02149 0.12207,0 0.213867,0.03516 0.09277,0.03516 0.136719,0.0957 0.04395,0.05957 0.06055,0.160156 l -0.171875,0.02344 q -0.01172,-0.08008 -0.06836,-0.125 -0.05566,-0.04492 -0.158203,-0.04492 -0.121094,0 -0.172851,0.04004 -0.05176,0.04004 -0.05176,0.09375 0,0.03418 0.02148,0.06152 0.02148,0.02832 0.06738,0.04687 0.02637,0.0098 0.155273,0.04492 0.186524,0.0498 0.259766,0.08203 0.07422,0.03125 0.116211,0.0918 0.04199,0.06055 0.04199,0.150391 0,0.08789 -0.05176,0.166015 -0.05078,0.07715 -0.147461,0.120117 -0.09668,0.04199 -0.21875,0.04199 -0.202148,0 -0.308593,-0.08399 -0.105469,-0.08398 -0.134766,-0.249023 z m 1.0625,0.708984 -0.01953,-0.165039 q 0.05762,0.01563 0.100586,0.01563 0.05859,0 0.09375,-0.01953 0.03516,-0.01953 0.05762,-0.05469 0.0166,-0.02637 0.05371,-0.130859 0.0049,-0.01465 0.01563,-0.04297 l -0.393555,-1.039062 h 0.189453 l 0.215821,0.600586 q 0.04199,0.114257 0.0752,0.240234 0.03027,-0.121094 0.07227,-0.236328 l 0.221679,-0.604492 h 0.175782 l -0.394532,1.054687 q -0.06348,0.170899 -0.09863,0.235352 -0.04687,0.08691 -0.107421,0.126953 -0.06055,0.04101 -0.144532,0.04101 -0.05078,0 -0.113281,-0.02148 z M 22.174004,15 v -1.037109 h 0.158203 v 0.147461 q 0.114258,-0.170899 0.330078,-0.170899 0.09375,0 0.171875,0.03418 0.0791,0.0332 0.118164,0.08789 0.03906,0.05469 0.05469,0.129883 0.0098,0.04883 0.0098,0.170899 V 15 h -0.175781 v -0.630859 q 0,-0.107422 -0.02051,-0.160157 -0.02051,-0.05371 -0.07324,-0.08496 -0.05176,-0.03223 -0.122071,-0.03223 -0.112304,0 -0.194335,0.07129 -0.08105,0.07129 -0.08105,0.270508 V 15 Z m 1.496093,-0.157227 0.02539,0.155274 q -0.07422,0.01563 -0.132813,0.01563 -0.0957,0 -0.148437,-0.03027 -0.05273,-0.03027 -0.07422,-0.0791 -0.02148,-0.0498 -0.02148,-0.208008 v -0.59668 h -0.128906 v -0.136718 h 0.128906 v -0.256836 l 0.174805,-0.105469 v 0.362305 h 0.176757 v 0.136718 H 23.49334 v 0.606446 q 0,0.0752 0.0088,0.09668 0.0098,0.02149 0.03027,0.03418 0.02148,0.01269 0.06055,0.01269 0.0293,0 0.07715,-0.0068 z M 23.841972,15 v -1.431641 h 0.175782 v 0.513672 q 0.123046,-0.142578 0.310546,-0.142578 0.115235,0 0.200196,0.0459 0.08496,0.04492 0.121094,0.125 0.03711,0.08008 0.03711,0.232421 V 15 h -0.175781 v -0.657227 q 0,-0.131835 -0.05762,-0.191406 -0.05664,-0.06055 -0.161132,-0.06055 -0.07813,0 -0.147461,0.04102 -0.06836,0.04004 -0.09766,0.109375 -0.0293,0.06934 -0.0293,0.191406 V 15 Z"
     id="text4"
     style="font-size:2px;font-family:Arial, sans-serif;text-anchor:middle;fill:#8866aa"
     aria-label="poly synth" />
  <!-- Parameter labels -->
  <path
     d="m 17.060722,22 v -1.262695 h -0.471679 v -0.168946 h 1.134765 v 0.168946 H 17.250175 V 22 Z m 0.889649,0 v -1.431641 h 0.189453 V 22 Z m 0.517578,0 v -1.431641 h 0.285156 l 0.338867,1.013672 q 0.04687,0.141602 0.06836,0.211914 0.02441,-0.07813 0.07617,-0.229492 l 0.342773,-0.996094 H 19.83416 V 22 H 19.651543 V 20.801758 L 19.235527,22 H 19.064629 L 18.650566,20.78125 V 22 Z m 1.664062,0 v -1.431641 h 0.53711 q 0.164062,0 0.262695,0.04395 0.09961,0.04297 0.155274,0.133789 0.05664,0.08984 0.05664,0.188476 0,0.0918 -0.04981,0.172852 -0.0498,0.08105 -0.15039,0.130859 0.129883,0.03809 0.199219,0.129883 0.07031,0.0918 0.07031,0.216797 0,0.100586 -0.04297,0.1875 -0.04199,0.08594 -0.104492,0.132812 -0.0625,0.04687 -0.157226,0.07129 Q 20.814629,22 20.67791,22 Z m 0.189454,-0.830078 h 0.30957 q 0.125976,0 0.180664,-0.0166 0.07227,-0.02148 0.108398,-0.07129 0.03711,-0.0498 0.03711,-0.125 0,-0.07129 -0.03418,-0.125 -0.03418,-0.05469 -0.09766,-0.07422 -0.06348,-0.02051 -0.217774,-0.02051 h -0.286132 z m 0,0.661133 h 0.356445 q 0.0918,0 0.128906,-0.0068 0.06543,-0.01172 0.109375,-0.03906 0.04394,-0.02734 0.07227,-0.0791 0.02832,-0.05273 0.02832,-0.121094 0,-0.08008 -0.04102,-0.138672 -0.04101,-0.05957 -0.114257,-0.08301 -0.07227,-0.02441 -0.208985,-0.02441 H 20.321465 Z M 21.476738,22 v -1.431641 h 0.634766 q 0.191406,0 0.291015,0.03906 0.09961,0.03809 0.15918,0.135742 0.05957,0.09766 0.05957,0.21582 0,0.152344 -0.09863,0.256836 -0.09863,0.104492 -0.304687,0.132813 0.0752,0.03613 0.114258,0.07129 0.08301,0.07617 0.157226,0.19043 L 22.738457,22 h -0.238282 l -0.189453,-0.297852 q -0.08301,-0.128906 -0.136718,-0.197265 -0.05371,-0.06836 -0.09668,-0.0957 -0.04199,-0.02734 -0.08594,-0.03809 -0.03223,-0.0068 -0.105468,-0.0068 H 21.666191 V 22 Z m 0.189453,-0.799805 h 0.407227 q 0.129882,0 0.203125,-0.02637 0.07324,-0.02734 0.111328,-0.08594 0.03809,-0.05957 0.03809,-0.128907 0,-0.101562 -0.07422,-0.166992 -0.07324,-0.06543 -0.232422,-0.06543 H 21.666191 Z M 22.92205,22 v -1.431641 h 1.035157 v 0.168946 h -0.845703 v 0.438476 h 0.791992 v 0.167969 h -0.791992 v 0.487305 H 23.99041 V 22 Z"
     id="text5"
     style="font-size:2px;font-family:Arial, sans-serif;text-anchor:middle;fill:#aa88cc"
     aria-label="TIMBRE" />
  <path
     d="m 17.113457,44 v -1.431641 h 0.96582 v 0.168946 H 17.30291 v 0.443359 h 0.671875 v 0.168945 H 17.30291 V 44 Z m 1.24414,0 V 42.568359 H 18.54705 V 44 Z m 0.515625,0 v -1.431641 h 0.189453 v 1.262696 h 0.705079 V 44 Z m 1.335938,0 v -1.262695 h -0.47168 v -0.168946 h 1.134766 v 0.168946 H 20.398613 V 44 Z m 0.861328,0 v -1.431641 h 1.035156 v 0.168946 h -0.845703 v 0.438476 h 0.791992 v 0.167969 h -0.791992 v 0.487305 h 0.878906 V 44 Z m 1.333008,0 v -1.431641 h 0.634765 q 0.191407,0 0.291016,0.03906 0.09961,0.03809 0.15918,0.135742 0.05957,0.09766 0.05957,0.21582 0,0.152344 -0.09863,0.256836 -0.09863,0.104492 -0.304687,0.132813 0.0752,0.03613 0.114258,0.07129 0.08301,0.07617 0.157226,0.19043 L 23.665215,44 H 23.426933 L 23.23748,43.702148 q -0.08301,-0.128906 -0.136719,-0.197265 -0.05371,-0.06836 -0.09668,-0.0957 -0.04199,-0.02734 -0.08594,-0.03809 -0.03223,-0.0068 -0.105469,-0.0068 H 22.592949 V 44 Z m 0.189453,-0.799805 h 0.407226 q 0.129883,0 0.203125,-0.02637 0.07324,-0.02734 0.111329,-0.08594 0.03809,-0.05957 0.03809,-0.128907 0,-0.101562 -0.07422,-0.166992 -0.07324,-0.06543 -0.232422,-0.06543 h -0.453125 z"
     id="text6"
     style="font-size:2px;font-family:Arial, sans-serif;text-anchor:middle;fill:#aa88cc"
     aria-label="FILTER" />
  <path
     d="m 16.364922,66 v -1.431641 h 0.634765 q 0.191406,0 0.291016,0.03906 0.09961,0.03809 0.15918,0.135742 0.05957,0.09766 0.05957,0.21582 0,0.152344 -0.09863,0.256836 -0.09863,0.104492 -0.304687,0.132813 0.0752,0.03613 0.114257,0.07129 0.08301,0.07617 0.157227,0.19043 L 17.62664,66 h -0.238281 l -0.189453,-0.297852 q -0.08301,-0.128906 -0.136719,-0.197265 -0.05371,-0.06836 -0.09668,-0.0957 -0.04199,-0.02734 -0.08594,-0.03809 -0.03223,-0.0068 -0.105469,-0.0068 H 16.554375 V 66 Z m 0.189453,-0.799805 h 0.407226 q 0.129883,0 0.203125,-0.02637 0.07324,-0.02734 0.111328,-0.08594 0.03809,-0.05957 0.03809,-0.128907 0,-0.101562 -0.07422,-0.166992 -0.07324,-0.06543 -0.232422,-0.06543 H 16.554375 Z M 17.810234,66 v -1.431641 h 1.035156 v 0.168946 h -0.845703 v 0.438476 h 0.791992 v 0.167969 h -0.791992 v 0.487305 h 0.878906 V 66 Z m 1.739258,0 -0.554688,-1.431641 h 0.205079 l 0.37207,1.040039 q 0.04492,0.125 0.0752,0.234375 0.0332,-0.117187 0.07715,-0.234375 l 0.386718,-1.040039 h 0.19336 L 19.743828,66 Z m 0.928711,0 v -1.431641 h 1.035156 v 0.168946 h -0.845703 v 0.438476 h 0.791992 v 0.167969 h -0.791992 v 0.487305 h 0.878906 V 66 Z m 1.333008,0 v -1.431641 h 0.634765 q 0.191407,0 0.291016,0.03906 0.09961,0.03809 0.15918,0.135742 0.05957,0.09766 0.05957,0.21582 0,0.152344 -0.09863,0.256836 -0.09863,0.104492 -0.304687,0.132813 0.0752,0.03613 0.114257,0.07129 0.08301,0.07617 0.157227,0.19043 L 23.072929,66 h -0.238281 l -0.189453,-0.297852 q -0.08301,-0.128906 -0.136719,-0.197265 -0.05371,-0.06836 -0.09668,-0.0957 -0.04199,-0.02734 -0.08594,-0.03809 -0.03223,-0.0068 -0.105469,-0.0068 H 22.000664 V 66 Z m 0.189453,-0.799805 h 0.407226 q 0.129883,0 0.203125,-0.02637 0.07324,-0.02734 0.111328,-0.08594 0.03809,-0.05957 0.03809,-0.128907 0,-0.101562 -0.07422,-0.166992 -0.07324,-0.06543 -0.232422,-0.06543 H 22.000664 Z M 23.244804,66 v -1.431641 h 0.53711 q 0.164062,0 0.262695,0.04395 0.09961,0.04297 0.155274,0.133789 0.05664,0.08984 0.05664,0.188476 0,0.0918 -0.04981,0.172852 -0.0498,0.08106 -0.15039,0.130859 0.129883,0.03809 0.199219,0.129883 0.07031,0.0918 0.07031,0.216797 0,0.100586 -0.04297,0.1875 -0.04199,0.08594 -0.104492,0.132812 -0.0625,0.04687 -0.157226,0.07129 Q 23.927422,66 23.790703,66 Z m 0.189454,-0.830078 h 0.30957 q 0.125976,0 0.180664,-0.0166 0.07227,-0.02148 0.108398,-0.07129 0.03711,-0.0498 0.03711,-0.125 0,-0.07129 -0.03418,-0.125 -0.03418,-0.05469 -0.09766,-0.07422 -0.06348,-0.02051 -0.217774,-0.02051 h -0.286132 z m 0,0.661133 h 0.356445 q 0.0918,0 0.128906,-0.0068 0.06543,-0.01172 0.109375,-0.03906 0.04394,-0.02734 0.07227,-0.0791 0.02832,-0.05274 0.02832,-0.121094 0,-0.08008 -0.04102,-0.138672 -0.04101,-0.05957 -0.114257,-0.08301 -0.07227,-0.02441 -0.208985,-0.02441 h -0.331054 z"
     id="text7"
     style="font-size:2px;font-family:Arial, sans-serif;text-anchor:middle;fill:#aa88cc"
     aria-label="REVERB" />
  <!-- CV labels -->
  <path
     d="m 20.127959,83.548242 0.170507,0.04307 q -0.05361,0.210058 -0.193359,0.3208 -0.138867,0.109864 -0.340137,0.109864 -0.2083,0 -0.339257,-0.08438 -0.130079,-0.08525 -0.198633,-0.246094 -0.06768,-0.16084 -0.06768,-0.34541 0,-0.20127 0.07647,-0.350684 0.07734,-0.150293 0.218848,-0.227637 0.142382,-0.07822 0.31289,-0.07822 0.19336,0 0.325195,0.09844 0.131836,0.09844 0.183692,0.276856 l -0.167871,0.03955 q -0.04482,-0.140625 -0.130078,-0.204786 -0.08525,-0.06416 -0.214453,-0.06416 -0.148536,0 -0.248731,0.07119 -0.09932,0.07119 -0.139746,0.191601 -0.04043,0.119531 -0.04043,0.246973 0,0.164355 0.04746,0.287402 0.04834,0.122168 0.149414,0.182813 0.101074,0.06064 0.218848,0.06064 0.143262,0 0.242578,-0.08262 0.09932,-0.08262 0.134473,-0.245215 z M 20.876787,84 20.377568,82.711523 h 0.18457 l 0.334864,0.936036 q 0.04043,0.1125 0.06767,0.210937 0.02988,-0.105469 0.06943,-0.210937 l 0.348047,-0.936036 h 0.174023 L 21.051689,84 Z"
     id="text8"
     style="font-size:1.8px;font-family:Arial, sans-serif;text-anchor:middle;fill:#664488"
     aria-label="CV" />
  <path
     d="M 8.9650147,89 V 88.179248 H 8.6584229 v -0.109814 h 0.7375976 v 0.109814 H 9.0881592 V 89 Z m 0.5535156,0 v -0.930566 h 0.1853515 l 0.2202637,0.658886 q 0.030469,0.09204 0.044434,0.137744 0.015869,-0.05078 0.049512,-0.149169 l 0.222803,-0.647461 h 0.165673 V 89 H 10.287866 V 88.221143 L 10.017456,89 H 9.9063721 L 9.6372315,88.207813 V 89 Z m 1.0816407,0 v -0.930566 h 0.349121 q 0.10664,0 0.170752,0.02856 0.06475,0.02793 0.100928,0.08696 0.03682,0.0584 0.03682,0.12251 0,0.05967 -0.03237,0.112353 -0.03237,0.05269 -0.09775,0.08506 0.08442,0.02476 0.129492,0.08442 0.0457,0.05967 0.0457,0.140918 0,0.06538 -0.02793,0.121875 -0.0273,0.05586 -0.06792,0.08633 -0.04063,0.03047 -0.102198,0.04634 Q 11.043872,89 10.955005,89 Z m 0.123144,-0.539551 h 0.201221 q 0.08188,0 0.117432,-0.01079 0.04697,-0.01396 0.07046,-0.04634 0.02412,-0.03237 0.02412,-0.08125 0,-0.04634 -0.02222,-0.08125 -0.02222,-0.03555 -0.06348,-0.04824 -0.04126,-0.01333 -0.141552,-0.01333 h -0.185987 z m 0,0.429737 h 0.23169 q 0.05967,0 0.08379,-0.0044 0.04253,-0.0076 0.07109,-0.02539 0.02856,-0.01777 0.04697,-0.05142 0.01841,-0.03428 0.01841,-0.07871 0,-0.05205 -0.02666,-0.09014 -0.02666,-0.03872 -0.07427,-0.05396 -0.04697,-0.01587 -0.13584,-0.01587 h -0.215186 z"
     id="text9"
     style="font-size:1.3px;font-family:Arial, sans-serif;text-anchor:middle;fill:#8866aa"
     aria-label="TMB" />
  <path
     d="m 28.999292,89 v -0.930566 h 0.627783 v 0.109814 h -0.504638 v 0.288184 h 0.436718 v 0.109814 H 29.122437 V 89 Z m 0.782666,0 v -0.930566 h 0.123145 v 0.820752 h 0.4583 V 89 Z m 0.868359,0 v -0.820752 h -0.306591 v -0.109814 h 0.737597 v 0.109814 H 30.773462 V 89 Z"
     id="text10"
     style="font-size:1.3px;font-family:Arial, sans-serif;text-anchor:middle;fill:#8866aa"
     aria-label="FLT" />
  <!-- Input labels -->
  <path
     d="m 8.1308594,105 -0.4160157,-1.07373 h 0.1538086 l 0.2790528,0.78003 q 0.033691,0.0937 0.056396,0.17578 0.024902,-0.0879 0.057861,-0.17578 L 8.552002,103.92627 H 8.6970215 L 8.2766113,105 Z m 0.5778808,0.0183 0.3112793,-1.11035 h 0.1054688 l -0.3105469,1.11035 z m 0.4892578,-0.54126 q 0,-0.26733 0.1435547,-0.41821 0.1435547,-0.15161 0.3706055,-0.15161 0.1486816,0 0.2680664,0.071 0.1193844,0.071 0.1816404,0.19849 0.06299,0.12671 0.06299,0.28784 0,0.16333 -0.06592,0.29224 -0.06592,0.1289 -0.186768,0.19555 -0.1208496,0.0659 -0.2607422,0.0659 -0.1516113,0 -0.2709961,-0.0732 -0.1193848,-0.0732 -0.1809082,-0.19995 -0.061523,-0.12671 -0.061523,-0.26807 z m 0.1464844,0.002 q 0,0.19409 0.1040039,0.30615 0.1047364,0.11133 0.2622071,0.11133 0.1604004,0 0.2636718,-0.11279 0.1040038,-0.1128 0.1040038,-0.32007 0,-0.13111 -0.04468,-0.22852 -0.043945,-0.0981 -0.1296383,-0.15161 -0.084961,-0.0542 -0.1911621,-0.0542 -0.1508789,0 -0.2600097,0.104 -0.1083985,0.10328 -0.1083985,0.34571 z m 1.8295896,0.14429 0.14209,0.0359 q -0.04468,0.17505 -0.161133,0.26734 -0.115722,0.0915 -0.283447,0.0915 -0.173584,0 -0.282715,-0.0703 -0.108398,-0.071 -0.165527,-0.20508 -0.0564,-0.13403 -0.0564,-0.28784 0,-0.16773 0.06372,-0.29224 0.06445,-0.12524 0.182373,-0.1897 0.118652,-0.0652 0.260742,-0.0652 0.161133,0 0.270996,0.082 0.109864,0.082 0.153077,0.23071 l -0.139893,0.033 q -0.03735,-0.11719 -0.108398,-0.17065 -0.07104,-0.0535 -0.178711,-0.0535 -0.12378,0 -0.207276,0.0593 -0.08276,0.0593 -0.116455,0.15967 -0.03369,0.0996 -0.03369,0.20581 0,0.13696 0.03955,0.2395 0.04028,0.1018 0.124511,0.15234 0.08423,0.0505 0.182373,0.0505 0.119385,0 0.202149,-0.0689 0.08276,-0.0688 0.11206,-0.20434 z M 11.764404,105 v -0.94702 h -0.353759 v -0.12671 h 0.851074 v 0.12671 H 11.906494 V 105 Z"
     id="text11"
     style="font-size:1.5px;font-family:Arial, sans-serif;text-anchor:middle;fill:#8866aa"
     aria-label="V/OCT" />
  <path
     d="m 28.631836,104.57886 v -0.12598 l 0.454834,-7.3e-4 v 0.39844 q -0.104736,0.0835 -0.216065,0.12597 -0.111328,0.0417 -0.228515,0.0417 -0.158203,0 -0.287842,-0.0674 -0.128906,-0.0681 -0.194824,-0.19629 -0.06592,-0.12818 -0.06592,-0.28638 0,-0.15674 0.06518,-0.29223 0.06592,-0.13624 0.188965,-0.20215 0.123047,-0.0659 0.283448,-0.0659 0.116455,0 0.210205,0.0381 0.09448,0.0374 0.147949,0.10474 0.05347,0.0674 0.0813,0.17578 l -0.128174,0.0352 q -0.02417,-0.082 -0.06006,-0.12891 -0.03589,-0.0469 -0.102539,-0.0747 -0.06665,-0.0286 -0.147949,-0.0286 -0.09741,0 -0.168457,0.03 -0.07104,0.0293 -0.11499,0.0776 -0.04321,0.0483 -0.06738,0.1062 -0.04102,0.0996 -0.04102,0.21606 0,0.14356 0.04907,0.24024 0.0498,0.0967 0.144288,0.14355 0.09448,0.0469 0.200683,0.0469 0.09229,0 0.180176,-0.0352 0.08789,-0.0359 0.133301,-0.0762 v -0.19995 z M 29.178223,105 l 0.412353,-1.07373 h 0.153076 L 30.183105,105 H 30.02124 l -0.125244,-0.3252 H 29.447021 L 29.329102,105 Z m 0.309814,-0.44092 h 0.364014 l -0.112061,-0.29736 q -0.05127,-0.1355 -0.07617,-0.22266 -0.02051,0.10327 -0.05786,0.20508 z M 30.458496,105 v -0.94702 h -0.35376 v -0.12671 h 0.851075 v 0.12671 H 30.600586 V 105 Z m 0.645996,0 v -1.07373 h 0.776367 v 0.12671 h -0.634277 v 0.32886 h 0.593994 v 0.12597 h -0.593994 v 0.36548 h 0.65918 V 105 Z"
     id="text12"
     style="font-size:1.5px;font-family:Arial, sans-serif;text-anchor:middle;fill:#8866aa"
     aria-label="GATE" />
  <!-- Output labels -->
  <path
     d="m 7.9290771,127 v -1.07373 H 8.071167 v 0.94702 H 8.5999756 V 127 Z m 1.157959,-0.52295 q 0,-0.26733 0.1435547,-0.41821 0.1435547,-0.15161 0.3706055,-0.15161 0.1486816,0 0.2680664,0.071 0.1193848,0.071 0.1816403,0.19849 0.06299,0.12671 0.06299,0.28784 0,0.16333 -0.06592,0.29224 -0.065918,0.1289 -0.1867679,0.19555 -0.1208497,0.0659 -0.2607422,0.0659 -0.1516114,0 -0.2709961,-0.0732 -0.1193848,-0.0732 -0.1809082,-0.19995 -0.061523,-0.12671 -0.061523,-0.26807 z m 0.1464844,0.002 q 0,0.19409 0.1040039,0.30615 0.1047363,0.11133 0.262207,0.11133 0.1604004,0 0.2636719,-0.11279 0.1040039,-0.1128 0.1040039,-0.32007 0,-0.13111 -0.044678,-0.22852 -0.043945,-0.0981 -0.1296387,-0.15161 -0.084961,-0.0542 -0.1911621,-0.0542 -0.1508789,0 -0.2600098,0.104 -0.1083984,0.10328 -0.1083984,0.34571 z m 1.7680665,-0.55298 h 0.14209 v 0.62036 q 0,0.16187 -0.03662,0.25708 -0.03662,0.0952 -0.132569,0.15527 -0.09521,0.0593 -0.250488,0.0593 -0.150879,0 -0.246826,-0.052 -0.09595,-0.052 -0.136963,-0.15015 -0.04102,-0.0989 -0.04102,-0.26953 v -0.62036 h 0.14209 v 0.61963 q 0,0.13989 0.02564,0.20654 0.02637,0.0659 0.08935,0.10181 0.06372,0.0359 0.155274,0.0359 0.156738,0 0.223389,-0.071 0.06665,-0.071 0.06665,-0.27319 z M 11.653442,127 v -0.94702 h -0.353759 v -0.12671 h 0.851074 v 0.12671 H 11.795532 V 127 Z"
     id="text13"
     style="font-size:1.5px;font-family:Arial, sans-serif;text-anchor:middle;fill:#ffffff"
     aria-label="L OUT" />
  <path
     d="m 27.78479,127 v -1.07373 h 0.476074 q 0.143555,0 0.218262,0.0293 0.07471,0.0286 0.119385,0.1018 0.04468,0.0732 0.04468,0.16187 0,0.11426 -0.07397,0.19263 -0.07397,0.0784 -0.228516,0.0996 0.0564,0.0271 0.08569,0.0535 0.06226,0.0571 0.11792,0.14282 L 28.731079,127 h -0.178711 l -0.14209,-0.22339 q -0.06226,-0.0967 -0.102539,-0.14795 -0.04028,-0.0513 -0.07251,-0.0718 -0.03149,-0.0205 -0.06445,-0.0286 -0.02417,-0.005 -0.0791,-0.005 H 27.92688 V 127 Z m 0.14209,-0.59985 h 0.30542 q 0.09741,0 0.152344,-0.0198 0.05493,-0.0205 0.0835,-0.0644 0.02856,-0.0447 0.02856,-0.0967 0,-0.0762 -0.05566,-0.12525 -0.05493,-0.0491 -0.174316,-0.0491 H 27.92688 Z m 1.3125,0.0769 q 0,-0.26733 0.143555,-0.41821 0.143554,-0.15161 0.370605,-0.15161 0.148682,0 0.268066,0.071 0.119385,0.071 0.181641,0.19849 0.06299,0.12671 0.06299,0.28784 0,0.16333 -0.06592,0.29224 -0.06592,0.1289 -0.186767,0.19555 -0.12085,0.0659 -0.260742,0.0659 -0.151612,0 -0.270996,-0.0732 -0.119385,-0.0732 -0.180909,-0.19995 -0.06152,-0.12671 -0.06152,-0.26807 z m 0.146484,0.002 q 0,0.19409 0.104004,0.30615 0.104736,0.11133 0.262207,0.11133 0.160401,0 0.263672,-0.11279 0.104004,-0.1128 0.104004,-0.32007 0,-0.13111 -0.04468,-0.22852 -0.04395,-0.0981 -0.129638,-0.15161 -0.08496,-0.0542 -0.191163,-0.0542 -0.150878,0 -0.260009,0.104 -0.108399,0.10328 -0.108399,0.34571 z m 1.768067,-0.55298 h 0.14209 v 0.62036 q 0,0.16187 -0.03662,0.25708 -0.03662,0.0952 -0.132568,0.15527 -0.09521,0.0593 -0.250488,0.0593 -0.150879,0 -0.246826,-0.052 -0.09595,-0.052 -0.136963,-0.15015 -0.04102,-0.0989 -0.04102,-0.26953 v -0.62036 h 0.14209 v 0.61963 q 0,0.13989 0.02564,0.20654 0.02637,0.0659 0.08936,0.10181 0.06372,0.0359 0.155274,0.0359 0.156738,0 0.223388,-0.071 0.06665,-0.071 0.06665,-0.27319 z M 31.805786,127 v -0.94702 h -0.35376 v -0.12671 h 0.851075 v 0.12671 H 31.947876 V 127 Z"
     id="text14"
     style="font-size:1.5px;font-family:Arial, sans-serif;text-anchor:middle;fill:#ffffff"
     aria-label="R OUT" />
  <!-- Brand -->
  <path
     d="m 17.013847,126.66309 v -0.10079 l 0.363867,-5.8e-4 v 0.31875 q -0.08379,0.0668 -0.172851,0.10078 -0.08906,0.0334 -0.182813,0.0334 -0.126562,0 -0.230273,-0.0539 -0.103125,-0.0545 -0.155859,-0.15703 -0.05274,-0.10254 -0.05274,-0.2291 0,-0.12539 0.05215,-0.23379 0.05273,-0.10898 0.151171,-0.16172 0.09844,-0.0527 0.226758,-0.0527 0.09316,0 0.168164,0.0305 0.07559,0.0299 0.11836,0.0838 0.04277,0.0539 0.06504,0.14063 l -0.102539,0.0281 q -0.01934,-0.0656 -0.04805,-0.10312 -0.02871,-0.0375 -0.08203,-0.0598 -0.05332,-0.0229 -0.11836,-0.0229 -0.07793,0 -0.134765,0.024 -0.05684,0.0234 -0.09199,0.0621 -0.03457,0.0387 -0.05391,0.085 -0.03281,0.0797 -0.03281,0.17285 0,0.11484 0.03926,0.19219 0.03984,0.0773 0.11543,0.11484 0.07559,0.0375 0.160547,0.0375 0.07383,0 0.144141,-0.0281 0.07031,-0.0287 0.10664,-0.0609 v -0.15996 z M 17.540605,127 v -0.85898 h 0.113672 v 0.75761 h 0.423047 V 127 Z m 0.691406,0 v -0.85898 h 0.113672 V 127 Z m 0.226758,0 0.332227,-0.44766 -0.292969,-0.41132 h 0.135352 l 0.155859,0.22031 q 0.04863,0.0686 0.06914,0.10547 0.02871,-0.0469 0.06797,-0.0979 l 0.172852,-0.22793 h 0.123633 L 18.921074,126.5459 19.246269,127 h -0.140625 l -0.216211,-0.30645 q -0.01816,-0.0264 -0.0375,-0.0574 -0.02871,0.0469 -0.04101,0.0645 L 18.595293,127 Z m 1.182422,-0.27598 0.107227,-0.009 q 0.0076,0.0644 0.03516,0.10605 0.02812,0.041 0.08672,0.0668 0.05859,0.0252 0.131836,0.0252 0.06504,0 0.114843,-0.0193 0.0498,-0.0193 0.07383,-0.0527 0.02461,-0.034 0.02461,-0.0738 0,-0.0404 -0.02344,-0.0703 -0.02344,-0.0305 -0.07734,-0.051 -0.03457,-0.0135 -0.15293,-0.0416 -0.11836,-0.0287 -0.16582,-0.0539 -0.06152,-0.0322 -0.09199,-0.0797 -0.02988,-0.048 -0.02988,-0.10722 0,-0.065 0.03691,-0.12129 0.03691,-0.0568 0.107812,-0.0861 0.0709,-0.0293 0.157617,-0.0293 0.09551,0 0.168164,0.0311 0.07324,0.0305 0.1125,0.0902 0.03926,0.0598 0.04219,0.13535 l -0.108984,0.008 q -0.0088,-0.0814 -0.05977,-0.12305 -0.05039,-0.0416 -0.149414,-0.0416 -0.103125,0 -0.150586,0.0381 -0.04687,0.0375 -0.04687,0.0908 0,0.0463 0.0334,0.0762 0.03281,0.0299 0.171094,0.0615 0.138867,0.0311 0.19043,0.0545 0.075,0.0346 0.110742,0.0879 0.03574,0.0527 0.03574,0.12187 0,0.0686 -0.03926,0.12949 -0.03926,0.0604 -0.113086,0.0943 -0.07324,0.0334 -0.165234,0.0334 -0.116602,0 -0.195703,-0.034 -0.07852,-0.034 -0.123633,-0.10195 -0.04453,-0.0686 -0.04687,-0.15469 z M 20.698808,127 v -0.75762 h -0.283007 v -0.10136 h 0.680859 v 0.10136 H 20.81248 V 127 Z m 1.078125,-0.85898 h 0.113672 v 0.49628 q 0,0.1295 -0.0293,0.20567 -0.0293,0.0762 -0.106054,0.12422 -0.07617,0.0475 -0.200391,0.0475 -0.120703,0 -0.197461,-0.0416 -0.07676,-0.0416 -0.10957,-0.12012 -0.03281,-0.0791 -0.03281,-0.21563 v -0.49628 h 0.113672 v 0.4957 q 0,0.11191 0.02051,0.16523 0.02109,0.0527 0.07148,0.0814 0.05098,0.0287 0.124219,0.0287 0.125391,0 0.178711,-0.0568 0.05332,-0.0568 0.05332,-0.21855 z M 22.079863,127 v -0.85898 h 0.295898 q 0.100196,0 0.15293,0.0123 0.07383,0.017 0.125977,0.0615 0.06797,0.0574 0.101367,0.14707 0.03398,0.0891 0.03398,0.20391 0,0.0978 -0.02285,0.17344 -0.02285,0.0756 -0.05859,0.12539 -0.03574,0.0492 -0.07852,0.0779 -0.04219,0.0281 -0.102539,0.0428 Q 22.467754,127 22.389824,127 Z m 0.113672,-0.10137 h 0.183398 q 0.08496,0 0.133008,-0.0158 0.04863,-0.0158 0.07734,-0.0445 0.04043,-0.0404 0.06269,-0.1084 0.02285,-0.0685 0.02285,-0.16582 0,-0.13476 -0.04453,-0.20683 -0.04395,-0.0727 -0.107227,-0.0973 -0.0457,-0.0176 -0.14707,-0.0176 H 22.193535 Z M 22.9658,127 v -0.85898 h 0.113672 V 127 Z m 0.279493,-0.41836 q 0,-0.21387 0.114844,-0.33457 0.114844,-0.12129 0.296484,-0.12129 0.118945,0 0.214453,0.0568 0.09551,0.0568 0.145313,0.15879 0.05039,0.10136 0.05039,0.23027 0,0.13066 -0.05273,0.23379 -0.05273,0.10312 -0.149414,0.15644 -0.09668,0.0527 -0.208594,0.0527 -0.121289,0 -0.216797,-0.0586 -0.09551,-0.0586 -0.144726,-0.15996 -0.04922,-0.10136 -0.04922,-0.21445 z m 0.117187,0.002 q 0,0.15527 0.0832,0.24492 0.08379,0.0891 0.209765,0.0891 0.128321,0 0.210938,-0.0902 0.0832,-0.0902 0.0832,-0.25606 0,-0.10488 -0.03574,-0.18281 -0.03516,-0.0785 -0.103711,-0.12129 -0.06797,-0.0434 -0.15293,-0.0434 -0.120703,0 -0.208008,0.0832 -0.08672,0.0826 -0.08672,0.27656 z"
     id="text15"
     style="font-size:1.2px;font-family:Arial, sans-serif;text-anchor:middle;fill:#442266"
     aria-label="GLIX STUDIO" />
</svg>
