<?xml version="1.0" encoding="UTF-8" standalone="no"?>
<svg
   width="30.48mm"
   height="128.5mm"
   viewBox="0 0 30.48 128.5"
   version="1.1"
   id="svg10"
   sodipodi:docname="AutoClip.svg"
   xmlns:inkscape="http://www.inkscape.org/namespaces/inkscape"
   xmlns:sodipodi="http://sodipodi.sourceforge.net/DTD/sodipodi-0.dtd"
   xmlns="http://www.w3.org/2000/svg"
   xmlns:svg="http://www.w3.org/2000/svg">
  <defs
     id="defs10" />
  <sodipodi:namedview
     id="namedview10"
     pagecolor="#ffffff"
     bordercolor="#000000"
     borderopacity="0.25"
     inkscape:showpageshadow="2"
     inkscape:pageopacity="0.0"
     inkscape:pagecheckerboard="0"
     inkscape:deskcolor="#d1d1d1"
     inkscape:document-units="mm" />
  <!-- Panel background -->
  <rect
     x="0"
     y="0"
     width="30.48"
     height="128.5"
     fill="#262626"
     id="rect1" />
  <!-- Top accent -->
  <rect
     x="0"
     y="0"
     width="30.48"
     height="3"
     fill="#f39c12"
     id="rect2" />
  <!-- Module name -->
  <path
     d="M 12.456064,13 H 11.777597 L 11.601572,12.485596 H 10.658213 L 10.482187,13 H 9.8208103 l 0.9399417,-2.544678 h 0.755371 z m -1.013428,-0.980957 -0.312744,-0.912598 -0.312744,0.912598 z m 3.607667,0.05981 q 0,0.47168 -0.28711,0.722901 -0.287109,0.251221 -0.845947,0.251221 -0.558838,0 -0.845947,-0.251221 -0.285401,-0.251221 -0.285401,-0.721192 v -1.625244 h 0.659668 v 1.587647 q 0,0.264892 0.111084,0.394775 0.111084,0.129883 0.360596,0.129883 0.246094,0 0.358887,-0.124756 0.114502,-0.124756 0.114502,-0.399902 v -1.587647 h 0.659668 z M 17.654795,10.94751 H 16.860117 V 13 h -0.65625 v -2.05249 h -0.794678 v -0.492188 h 2.245606 z m 2.869384,0.781006 q 0,0.608398 -0.348632,0.967285 -0.348633,0.357178 -0.963868,0.357178 -0.613525,0 -0.962158,-0.357178 -0.348633,-0.358887 -0.348633,-0.967285 0,-0.613526 0.348633,-0.968995 0.348633,-0.357177 0.962158,-0.357177 0.611817,0 0.962159,0.357177 0.350341,0.355469 0.350341,0.968995 z m -0.869873,0.644287 q 0.0957,-0.116211 0.141846,-0.273438 0.04614,-0.158935 0.04614,-0.372558 0,-0.229004 -0.05298,-0.389649 -0.05298,-0.160644 -0.138428,-0.259765 -0.08716,-0.102539 -0.20166,-0.148682 -0.112793,-0.04614 -0.23584,-0.04614 -0.124755,0 -0.235839,0.04443 -0.109375,0.04443 -0.201661,0.146973 -0.08545,0.0957 -0.140136,0.264892 -0.05298,0.167481 -0.05298,0.389649 0,0.227295 0.05127,0.387939 0.05298,0.158936 0.138427,0.259766 0.08545,0.10083 0.199952,0.148681 0.114502,0.04785 0.240966,0.04785 0.126465,0 0.240967,-0.04785 0.114502,-0.04956 0.199951,-0.152099 z"
     id="text2"
     style="font-weight:bold;font-size:3.5px;text-anchor:middle;fill:#ffffff"
     aria-label="AUTO" />
  <path
     d="m 12.095469,18.049561 q -0.283692,0 -0.524659,-0.08374 -0.239257,-0.08374 -0.411865,-0.249511 -0.172607,-0.165772 -0.26831,-0.413575 -0.09399,-0.247802 -0.09399,-0.572509 0,-0.302491 0.09058,-0.548584 0.09058,-0.246094 0.263183,-0.42212 0.165772,-0.169189 0.410156,-0.261474 0.246094,-0.09229 0.536622,-0.09229 0.160644,0 0.288818,0.0188 0.129883,0.01709 0.239258,0.04614 0.114502,0.03247 0.206787,0.07349 0.09399,0.03931 0.164062,0.07349 v 0.616943 h -0.07519 q -0.04785,-0.04101 -0.121338,-0.09741 -0.07178,-0.0564 -0.164062,-0.111084 -0.09399,-0.05469 -0.20337,-0.09228 -0.109375,-0.0376 -0.23413,-0.0376 -0.138428,0 -0.263184,0.04443 -0.124756,0.04272 -0.230713,0.143555 -0.10083,0.09741 -0.164062,0.258056 -0.06152,0.160645 -0.06152,0.389649 0,0.239257 0.06665,0.399902 0.06836,0.160644 0.170898,0.25293 0.104248,0.09399 0.232422,0.135009 0.128174,0.03931 0.25293,0.03931 0.119628,0 0.235839,-0.03589 0.11792,-0.03589 0.217041,-0.09741 0.08374,-0.04956 0.155518,-0.105957 0.07178,-0.0564 0.11792,-0.09741 h 0.06836 v 0.608399 q -0.0957,0.04272 -0.182861,0.08032 -0.08716,0.0376 -0.182861,0.06494 -0.124756,0.03589 -0.234131,0.05469 -0.109375,0.0188 -0.300781,0.0188 z M 15.313486,18 h -1.835449 v -2.544678 h 0.65625 v 2.05249 h 1.179199 z m 1.770508,0 H 15.59376 v -0.451172 h 0.416992 V 15.906494 H 15.59376 v -0.451172 h 1.490234 v 0.451172 h -0.416992 v 1.642334 h 0.416992 z m 2.635254,-1.741455 q 0,0.170898 -0.05982,0.334961 -0.05981,0.162353 -0.170898,0.273437 -0.1521,0.150391 -0.340088,0.227295 -0.186279,0.07691 -0.464844,0.07691 H 18.275156 V 18 h -0.65625 v -2.544678 h 1.080078 q 0.242676,0 0.408447,0.04272 0.167481,0.04102 0.295655,0.124756 0.153808,0.10083 0.234131,0.258056 0.08203,0.157227 0.08203,0.377686 z m -0.678467,0.01538 q 0,-0.107666 -0.0581,-0.184571 -0.05811,-0.07861 -0.13501,-0.109375 -0.102539,-0.04101 -0.199951,-0.04443 -0.09741,-0.0051 -0.259766,-0.0051 h -0.112793 v 0.762207 h 0.187988 q 0.167481,0 0.275147,-0.02051 0.109375,-0.02051 0.182861,-0.08203 0.06323,-0.05469 0.09058,-0.129883 0.02905,-0.0769 0.02905,-0.186279 z"
     id="text3"
     style="font-weight:bold;font-size:3.5px;text-anchor:middle;fill:#f39c12"
     aria-label="CLIP" />
  <!-- Knob label -->
  <path
     d="M 8.974741,53.397217 H 8.3253269 V 55 H 8.0836277 V 53.397217 H 7.4342136 V 53.182373 H 8.974741 Z M 10.609262,55 H 10.367563 V 54.110107 H 9.4605808 V 55 H 9.2188816 v -1.817627 h 0.2416992 v 0.712891 h 0.9069822 v -0.712891 h 0.241699 z m 1.992188,0 h -0.313721 l -0.60791,-0.722656 H 11.339243 V 55 h -0.241699 v -1.817627 h 0.509033 q 0.164795,0 0.274658,0.02197 0.109863,0.02075 0.197754,0.07568 0.09888,0.06226 0.153809,0.157471 0.05615,0.09399 0.05615,0.239258 0,0.196533 -0.09888,0.32959 -0.09888,0.131836 -0.272217,0.198974 z m -0.565186,-1.306152 q 0,-0.07813 -0.02808,-0.13794 -0.02686,-0.06104 -0.09033,-0.102539 -0.05249,-0.0354 -0.124512,-0.04883 -0.07202,-0.01465 -0.169677,-0.01465 h -0.284424 v 0.686035 h 0.244141 q 0.114746,0 0.200195,-0.01953 0.08545,-0.02075 0.145264,-0.07568 0.05493,-0.05127 0.08057,-0.117188 0.02685,-0.06714 0.02685,-0.169677 z M 14.033335,55 h -1.19751 v -1.817627 h 1.19751 v 0.214844 h -0.955811 v 0.498047 h 0.955811 v 0.214843 h -0.955811 v 0.675049 h 0.955811 z m 1.704101,-0.518799 q 0,0.106201 -0.05005,0.209961 -0.04883,0.10376 -0.137939,0.175781 -0.09766,0.07813 -0.228271,0.122071 -0.129395,0.04395 -0.3125,0.04395 -0.196534,0 -0.354004,-0.03662 -0.15625,-0.03662 -0.318604,-0.108643 v -0.302734 h 0.01709 q 0.137939,0.114746 0.318603,0.177002 0.180665,0.06226 0.339356,0.06226 0.224609,0 0.349121,-0.08423 0.125732,-0.08423 0.125732,-0.224609 0,-0.12085 -0.05981,-0.178223 -0.05859,-0.05737 -0.179443,-0.08911 -0.09155,-0.02441 -0.198975,-0.04028 -0.106201,-0.01587 -0.22583,-0.04028 -0.241699,-0.05127 -0.358887,-0.17456 -0.115967,-0.124512 -0.115967,-0.323486 0,-0.228272 0.192872,-0.373536 0.192871,-0.146484 0.489501,-0.146484 0.191651,0 0.351563,0.03662 0.159912,0.03662 0.283203,0.09033 v 0.285645 h -0.01709 q -0.10376,-0.08789 -0.273437,-0.145264 -0.168457,-0.05859 -0.345459,-0.05859 -0.194092,0 -0.3125,0.08057 -0.117188,0.08057 -0.117188,0.207519 0,0.113526 0.05859,0.178223 0.05859,0.0647 0.206299,0.09888 0.07813,0.01709 0.222168,0.0415 0.144043,0.02441 0.24414,0.05005 0.202637,0.05371 0.305176,0.162353 0.102539,0.108643 0.102539,0.303955 z M 17.516001,55 H 17.274302 V 54.110107 H 16.367319 V 55 H 16.12562 v -1.817627 h 0.241699 v 0.712891 h 0.906983 v -0.712891 h 0.241699 z m 1.843261,-1.608887 q 0.111084,0.122071 0.169678,0.299073 0.05982,0.177001 0.05982,0.401611 0,0.224609 -0.06104,0.402832 -0.05981,0.177002 -0.168457,0.29541 -0.112304,0.123291 -0.266113,0.185547 -0.152588,0.06226 -0.349121,0.06226 -0.19165,0 -0.349121,-0.06348 -0.15625,-0.06348 -0.266113,-0.184326 -0.109864,-0.12085 -0.169678,-0.296631 -0.05859,-0.175781 -0.05859,-0.401611 0,-0.222168 0.05859,-0.397949 0.05859,-0.177002 0.170898,-0.302735 0.107422,-0.119629 0.266114,-0.183105 0.159912,-0.06348 0.3479,-0.06348 0.195313,0 0.350342,0.0647 0.15625,0.06348 0.264892,0.181884 z m -0.02197,0.700684 q 0,-0.354004 -0.158692,-0.545654 -0.158691,-0.192872 -0.433349,-0.192872 -0.2771,0 -0.435791,0.192872 -0.157471,0.19165 -0.157471,0.545654 0,0.357666 0.161133,0.548096 0.161133,0.189209 0.432129,0.189209 0.270996,0 0.430908,-0.189209 0.161133,-0.19043 0.161133,-0.548096 z M 21.121958,55 h -1.149903 v -1.817627 h 0.2417 v 1.602783 h 0.908203 z m 1.777344,-0.906982 q 0,0.247802 -0.108643,0.449218 -0.107422,0.201416 -0.286865,0.3125 -0.124512,0.0769 -0.278321,0.111084 Q 22.072886,55 21.822641,55 h -0.458984 v -1.817627 h 0.454102 q 0.266113,0 0.422363,0.03906 0.157471,0.03784 0.266113,0.10498 0.185547,0.115967 0.289307,0.308838 0.10376,0.192871 0.10376,0.457764 z m -0.252686,-0.0037 q 0,-0.213623 -0.07446,-0.360107 -0.07446,-0.146484 -0.222168,-0.230713 -0.107422,-0.06103 -0.228271,-0.08423 -0.12085,-0.02441 -0.289307,-0.02441 h -0.227051 v 1.402587 h 0.227051 q 0.174561,0 0.303955,-0.02563 0.130615,-0.02564 0.239258,-0.09522 0.135498,-0.08667 0.202637,-0.228272 0.06836,-0.141601 0.06836,-0.354004 z"
     id="text4"
     style="font-size:2.5px;text-anchor:middle;fill:#666666"
     aria-label="THRESHOLD" />
  <!-- Solo label -->
  <path
     d="m 13.687265,71.584961 q 0,0.08496 -0.04004,0.167969 -0.03906,0.08301 -0.110351,0.140625 -0.07813,0.0625 -0.182617,0.09766 -0.103516,0.03516 -0.25,0.03516 -0.157227,0 -0.283204,-0.0293 -0.125,-0.0293 -0.254882,-0.08691 v -0.242187 h 0.01367 q 0.110351,0.0918 0.254882,0.141601 0.144532,0.04981 0.271485,0.04981 0.179687,0 0.279297,-0.06738 0.100586,-0.06738 0.100586,-0.179687 0,-0.09668 -0.04785,-0.142578 -0.04687,-0.0459 -0.143555,-0.07129 -0.07324,-0.01953 -0.159179,-0.03223 -0.08496,-0.0127 -0.180664,-0.03223 -0.19336,-0.04102 -0.28711,-0.139648 -0.09277,-0.09961 -0.09277,-0.258789 0,-0.182617 0.154297,-0.298828 0.154296,-0.117188 0.391601,-0.117188 0.15332,0 0.28125,0.0293 0.12793,0.0293 0.226563,0.07227 v 0.228515 H 13.615 q -0.08301,-0.07031 -0.21875,-0.116211 -0.134766,-0.04687 -0.276367,-0.04687 -0.155274,0 -0.25,0.06445 -0.09375,0.06445 -0.09375,0.166015 0,0.09082 0.04687,0.142578 0.04687,0.05176 0.165039,0.0791 0.0625,0.01367 0.177734,0.0332 0.115234,0.01953 0.195313,0.04004 0.162109,0.04297 0.24414,0.129883 0.08203,0.08691 0.08203,0.243164 z m 1.394532,-0.87207 q 0.08887,0.09766 0.135742,0.239257 0.04785,0.141602 0.04785,0.321289 0,0.179688 -0.04883,0.322266 -0.04785,0.141602 -0.134765,0.236328 -0.08984,0.09863 -0.212891,0.148438 -0.12207,0.0498 -0.279297,0.0498 -0.15332,0 -0.279297,-0.05078 -0.125,-0.05078 -0.21289,-0.147461 -0.08789,-0.09668 -0.135743,-0.237304 -0.04687,-0.140625 -0.04687,-0.32129 0,-0.177734 0.04687,-0.318359 0.04687,-0.141601 0.136719,-0.242187 0.08594,-0.0957 0.212891,-0.146485 0.12793,-0.05078 0.27832,-0.05078 0.15625,0 0.280274,0.05176 0.125,0.05078 0.211914,0.145508 z m -0.01758,0.560546 q 0,-0.283203 -0.126954,-0.436523 -0.126953,-0.154297 -0.346679,-0.154297 -0.22168,0 -0.348633,0.154297 -0.125977,0.15332 -0.125977,0.436523 0,0.286133 0.128907,0.438477 0.128906,0.151367 0.345703,0.151367 0.216797,0 0.344726,-0.151367 0.128907,-0.152344 0.128907,-0.438477 z M 16.491953,72 h -0.919922 v -1.454102 h 0.193359 v 1.282227 h 0.726563 z m 1.257812,-1.287109 q 0.08887,0.09766 0.135743,0.239257 0.04785,0.141602 0.04785,0.321289 0,0.179688 -0.04883,0.322266 -0.04785,0.141602 -0.134766,0.236328 -0.08984,0.09863 -0.21289,0.148438 -0.122071,0.0498 -0.279297,0.0498 -0.15332,0 -0.279297,-0.05078 -0.125,-0.05078 -0.212891,-0.147461 -0.08789,-0.09668 -0.135742,-0.237304 -0.04687,-0.140625 -0.04687,-0.32129 0,-0.177734 0.04687,-0.318359 0.04687,-0.141601 0.136719,-0.242187 0.08594,-0.0957 0.212891,-0.146485 0.127929,-0.05078 0.27832,-0.05078 0.15625,0 0.280273,0.05176 0.125,0.05078 0.211914,0.145508 z m -0.01758,0.560546 q 0,-0.283203 -0.126953,-0.436523 -0.126953,-0.154297 -0.34668,-0.154297 -0.221679,0 -0.348632,0.154297 -0.125977,0.15332 -0.125977,0.436523 0,0.286133 0.128906,0.438477 0.128907,0.151367 0.345703,0.151367 0.216797,0 0.344727,-0.151367 0.128906,-0.152344 0.128906,-0.438477 z"
     id="text5"
     style="font-size:2px;text-anchor:middle;fill:#666666"
     aria-label="SOLO" />
  <!-- CV label -->
  <path
     d="m 15.182871,101.90508 q -0.04834,0.0211 -0.08789,0.0396 -0.03867,0.0185 -0.101953,0.0387 -0.05361,0.0167 -0.116894,0.0281 -0.0624,0.0123 -0.137989,0.0123 -0.142382,0 -0.259277,-0.0396 -0.116016,-0.0404 -0.202148,-0.12568 -0.08437,-0.0835 -0.131836,-0.21182 -0.04746,-0.1292 -0.04746,-0.29971 0,-0.16172 0.0457,-0.28916 0.0457,-0.12744 0.131836,-0.21533 0.0835,-0.0852 0.201269,-0.13008 0.118653,-0.0448 0.262793,-0.0448 0.105469,0 0.210059,0.0255 0.105469,0.0255 0.233789,0.0896 v 0.20655 h -0.01318 q -0.108105,-0.0905 -0.214453,-0.13184 -0.106347,-0.0413 -0.227637,-0.0413 -0.09932,0 -0.179296,0.0325 -0.0791,0.0316 -0.141504,0.0993 -0.06064,0.0659 -0.09492,0.16699 -0.0334,0.1002 -0.0334,0.23203 0,0.13799 0.03691,0.23731 0.03779,0.0993 0.09668,0.16172 0.06152,0.065 0.143262,0.0967 0.08262,0.0308 0.174023,0.0308 0.125684,0 0.235547,-0.0431 0.109863,-0.0431 0.205664,-0.1292 h 0.0123 z m 1.27793,-1.21377 L 15.984433,102 h -0.232031 l -0.476367,-1.30869 h 0.186328 l 0.410449,1.15137 0.410449,-1.15137 z"
     id="text6"
     style="font-size:1.8px;text-anchor:middle;fill:#555555"
     aria-label="CV" />
  <!-- I/O labels -->
  <path
     d="M 7.5851563,107 H 7.0683594 v -0.13359 H 7.2397461 V 105.8249 H 7.0683594 v -0.13359 h 0.5167969 v 0.13359 H 7.4137695 v 1.04151 h 0.1713868 z m 1.2946288,0 H 8.6644531 L 8.0439453,105.8293 V 107 H 7.8813477 v -1.30869 h 0.2698242 l 0.5660156,1.06875 v -1.06875 h 0.1625976 z"
     id="text7"
     style="font-size:1.8px;text-anchor:middle;fill:#555555"
     aria-label="IN" />
  <path
     d="m 22.065156,107 h -0.516797 v -0.13359 h 0.171387 v -1.04151 h -0.171387 v -0.13359 h 0.516797 v 0.13359 h -0.171387 v 1.04151 h 0.171387 z m 1.294629,0 h -0.215332 l -0.620508,-1.1707 V 107 h -0.162598 v -1.30869 h 0.269824 l 0.566016,1.06875 v -1.06875 h 0.162598 z"
     id="text8"
     style="font-size:1.8px;text-anchor:middle;fill:#555555"
     aria-label="IN" />
  <path
     d="M 8.5027344,127 H 7.6748047 v -1.30869 h 0.1740234 v 1.154 h 0.6539063 z"
     id="text9"
     style="font-size:1.8px;text-anchor:middle;fill:#555555"
     aria-label="L" />
  <path
     d="m 23.112812,127 h -0.225879 l -0.437695,-0.52031 H 22.204023 V 127 H 22.03 v -1.30869 h 0.366503 q 0.118653,0 0.197754,0.0158 0.0791,0.0149 0.142383,0.0545 0.07119,0.0448 0.110742,0.11338 0.04043,0.0677 0.04043,0.17227 0,0.1415 -0.07119,0.2373 -0.07119,0.0949 -0.195996,0.14326 z m -0.406934,-0.94043 q 0,-0.0562 -0.02021,-0.0993 -0.01934,-0.0439 -0.06504,-0.0738 -0.03779,-0.0255 -0.08965,-0.0352 -0.05185,-0.0105 -0.122168,-0.0105 h -0.204785 v 0.49395 h 0.175781 q 0.08262,0 0.144141,-0.0141 0.06152,-0.0149 0.10459,-0.0545 0.03955,-0.0369 0.05801,-0.0844 0.01933,-0.0483 0.01933,-0.12217 z"
     id="text10"
     style="font-size:1.8px;text-anchor:middle;fill:#555555"
     aria-label="R" />
  <!-- Bottom accent -->
  <rect
     x="0"
     y="125.5"
     width="30.48"
     height="3"
     fill="#f39c12"
     id="rect10" />
</svg>
