<?xml version="1.0" encoding="UTF-8" standalone="no"?>
<svg
   width="30.48mm"
   height="128.5mm"
   viewBox="0 0 30.48 128.5"
   version="1.1"
   id="svg12"
   sodipodi:docname="GainKnob.svg"
   xmlns:inkscape="http://www.inkscape.org/namespaces/inkscape"
   xmlns:sodipodi="http://sodipodi.sourceforge.net/DTD/sodipodi-0.dtd"
   xmlns="http://www.w3.org/2000/svg"
   xmlns:svg="http://www.w3.org/2000/svg">
  <defs
     id="defs12" />
  <sodipodi:namedview
     id="namedview12"
     pagecolor="#ffffff"
     bordercolor="#000000"
     borderopacity="0.25"
     inkscape:showpageshadow="2"
     inkscape:pageopacity="0.0"
     inkscape:pagecheckerboard="0"
     inkscape:deskcolor="#d1d1d1"
     inkscape:document-units="mm" />
  <!-- Panel background -->
  <rect
     x="0"
     y="0"
     width="30.48"
     height="128.5"
     fill="#2d2d2d"
     id="rect1" />
  <!-- Top decorative stripe -->
  <rect
     x="0"
     y="0"
     width="30.48"
     height="3"
     fill="#4a90d9"
     id="rect2" />
  <!-- Module name (simplified text as paths would be needed for production) -->
  <path
     d="m 12.223398,13.833984 q -0.195312,0.07617 -0.517578,0.152344 -0.322266,0.07422 -0.642578,0.07422 -0.742188,0 -1.1621094,-0.402344 -0.4199219,-0.404297 -0.4199219,-1.115234 0,-0.677735 0.4238281,-1.091797 0.4238282,-0.416016 1.1816402,-0.416016 0.28711,0 0.546875,0.05274 0.259766,0.05078 0.578125,0.205078 v 0.68164 h -0.08398 q -0.05469,-0.04101 -0.160156,-0.115234 -0.105469,-0.07617 -0.203125,-0.128906 -0.113281,-0.0625 -0.265625,-0.107422 -0.150391,-0.04492 -0.320313,-0.04492 -0.199218,0 -0.361328,0.05859 -0.162109,0.05859 -0.291015,0.179687 -0.123047,0.117188 -0.195313,0.298828 -0.07031,0.179688 -0.07031,0.416016 0,0.482422 0.255859,0.738281 0.255859,0.25586 0.755859,0.25586 0.04297,0 0.09375,-0.002 0.05274,-0.002 0.0957,-0.0059 v -0.570312 h -0.580078 v -0.548828 h 1.341797 z M 15.582773,14 h -0.77539 L 14.606211,13.412109 H 13.528086 L 13.326914,14 h -0.75586 l 1.074219,-2.908203 h 0.863281 z M 14.42457,12.878906 14.067148,11.835938 13.709726,12.878906 Z M 17.573008,14 h -1.703125 v -0.515625 h 0.476562 v -1.876953 h -0.476562 v -0.515625 h 1.703125 v 0.515625 h -0.476563 v 1.876953 h 0.476563 z m 3.255859,0 H 20.106211 L 18.871836,12.003906 V 14 h -0.6875 v -2.908203 h 0.896484 l 1.060547,1.666016 v -1.666016 h 0.6875 z"
     id="text2"
     style="font-weight:bold;font-size:4px;text-anchor:middle;fill:#ffffff"
     aria-label="GAIN" />
  <path
     d="M 12.916025,19 H 12.53956 L 11.676767,18.028809 11.45997,18.260254 V 19 h -0.290039 v -2.181152 h 0.290039 v 1.138183 l 1.059083,-1.138183 h 0.351562 l -0.974121,1.02539 z m 1.989258,0 H 14.546396 L 13.512217,17.048828 V 19 H 13.24122 v -2.181152 h 0.449708 l 0.943359,1.78125 v -1.78125 h 0.270996 z m 2.206055,-1.930664 q 0.1333,0.146484 0.203613,0.358887 0.07178,0.212402 0.07178,0.481933 0,0.269531 -0.07324,0.483399 -0.07178,0.212402 -0.202148,0.354492 -0.134766,0.147949 -0.319336,0.222656 -0.183106,0.07471 -0.418946,0.07471 -0.22998,0 -0.418945,-0.07617 -0.1875,-0.07617 -0.319336,-0.221191 -0.131836,-0.14502 -0.203613,-0.355957 -0.07031,-0.210938 -0.07031,-0.481934 0,-0.266601 0.07031,-0.477539 0.07031,-0.212402 0.205078,-0.363281 0.128906,-0.143555 0.319336,-0.219727 0.191894,-0.07617 0.41748,-0.07617 0.234375,0 0.420411,0.07764 0.1875,0.07617 0.317871,0.218262 z m -0.02637,0.84082 q 0,-0.424804 -0.190429,-0.654785 -0.19043,-0.231445 -0.52002,-0.231445 -0.332519,0 -0.522949,0.231445 -0.188965,0.229981 -0.188965,0.654785 0,0.429199 0.19336,0.657715 0.193359,0.227051 0.518554,0.227051 0.325196,0 0.51709,-0.227051 0.193359,-0.228516 0.193359,-0.657715 z m 2.406739,0.418946 q 0,0.162597 -0.06152,0.287109 -0.06152,0.124512 -0.165527,0.205078 -0.123047,0.09668 -0.270996,0.137695 Q 18.847178,19 18.620127,19 h -0.773438 v -2.181152 h 0.645996 q 0.23877,0 0.357422,0.01758 0.118653,0.01758 0.227051,0.07324 0.120117,0.06299 0.174316,0.162598 0.0542,0.09814 0.0542,0.235839 0,0.155274 -0.0791,0.265137 -0.0791,0.108399 -0.210937,0.174317 v 0.01172 q 0.221191,0.04541 0.348632,0.194825 0.127442,0.147949 0.127442,0.375 z m -0.487793,-0.982911 q 0,-0.0791 -0.02637,-0.1333 -0.02637,-0.0542 -0.08496,-0.08789 -0.06885,-0.03955 -0.166993,-0.04834 -0.09814,-0.01025 -0.243164,-0.01025 h -0.345703 v 0.629883 h 0.375 q 0.136231,0 0.216797,-0.01318 0.08057,-0.01465 0.149414,-0.05859 0.06885,-0.04395 0.09668,-0.112793 0.0293,-0.07031 0.0293,-0.165528 z m 0.186035,0.994629 q 0,-0.131836 -0.03955,-0.209472 -0.03955,-0.07764 -0.143555,-0.131836 -0.07031,-0.03662 -0.171386,-0.04687 -0.09961,-0.01172 -0.243164,-0.01172 h -0.455567 v 0.811523 h 0.383789 q 0.19043,0 0.312012,-0.01904 0.121582,-0.02051 0.199219,-0.07324 0.08203,-0.05713 0.120117,-0.130371 0.03809,-0.07324 0.03809,-0.188965 z"
     id="text3"
     style="font-size:3px;text-anchor:middle;fill:#888888"
     aria-label="KNOB" />
  <!-- Knob labels -->
  <path
     d="m 13.715342,41.865723 q -0.148926,0.06836 -0.325928,0.119629 -0.175781,0.05005 -0.340576,0.05005 -0.212403,0 -0.389405,-0.05859 -0.177002,-0.05859 -0.301513,-0.175782 -0.125733,-0.118408 -0.194092,-0.29541 -0.06836,-0.178222 -0.06836,-0.41626 0,-0.435791 0.253906,-0.687255 0.255127,-0.252686 0.699463,-0.252686 0.155029,0 0.316162,0.03784 0.162353,0.03662 0.349121,0.125732 v 0.286866 h -0.02197 q -0.03784,-0.0293 -0.109863,-0.07691 -0.07202,-0.04761 -0.141602,-0.07934 -0.08423,-0.03784 -0.19165,-0.06226 -0.106201,-0.02564 -0.241699,-0.02564 -0.305176,0 -0.483399,0.196533 -0.177002,0.195313 -0.177002,0.529785 0,0.352783 0.185547,0.549317 0.185547,0.195312 0.505371,0.195312 0.117188,0 0.233155,-0.02319 0.117187,-0.02319 0.205078,-0.05982 v -0.445556 h -0.487061 v -0.212403 h 0.726319 z M 15.57081,42 H 15.313242 L 15.135019,41.493408 H 14.348886 L 14.170664,42 h -0.245361 l 0.661621,-1.817627 h 0.322265 z m -0.510254,-0.714111 -0.318603,-0.892334 -0.319824,0.892334 z M 16.487558,42 h -0.717773 v -0.185547 h 0.238037 V 40.36792 h -0.238037 v -0.185547 h 0.717773 v 0.185547 h -0.238037 v 1.446533 h 0.238037 z m 1.798096,0 H 17.986582 L 17.124765,40.374023 V 42 h -0.22583 v -1.817627 h 0.374756 l 0.786133,1.484375 v -1.484375 h 0.22583 z"
     id="text4"
     style="font-size:2.5px;text-anchor:middle;fill:#666666"
     aria-label="GAIN" />
  <path
     d="m 14.160288,64.731689 q 0,0.12085 -0.04272,0.22461 -0.0415,0.102539 -0.117187,0.178222 -0.09399,0.09399 -0.222168,0.141602 -0.128174,0.04639 -0.323487,0.04639 H 13.213022 V 66 h -0.241699 v -1.817627 h 0.493164 q 0.163574,0 0.2771,0.02808 0.113525,0.02686 0.201416,0.08545 0.103759,0.06958 0.159912,0.17334 0.05737,0.10376 0.05737,0.262451 z m -0.251465,0.0061 q 0,-0.09399 -0.03296,-0.163574 -0.03296,-0.06958 -0.100098,-0.113526 -0.05859,-0.03784 -0.134277,-0.05371 -0.07446,-0.01709 -0.189209,-0.01709 h -0.239258 v 0.726318 h 0.203858 q 0.146484,0 0.238037,-0.02564 0.09155,-0.02685 0.148926,-0.08423 0.05737,-0.05859 0.08057,-0.123291 0.02441,-0.0647 0.02441,-0.145264 z M 15.850962,66 H 15.593393 L 15.415171,65.493408 H 14.629038 L 14.450815,66 h -0.245361 l 0.661621,-1.817627 h 0.322266 z M 15.340708,65.285889 15.022104,64.393555 14.70228,65.285889 Z M 17.513559,66 H 17.214487 L 16.352671,64.374023 V 66 h -0.22583 v -1.817627 h 0.374755 l 0.786133,1.484375 v -1.484375 h 0.22583 z"
     id="text5"
     style="font-size:2.5px;text-anchor:middle;fill:#666666"
     aria-label="PAN" />
  <path
     d="m 12.378672,88.397217 h -0.91919 v 0.512695 h 0.789795 v 0.214844 H 11.459482 V 90 h -0.241699 v -1.817627 h 1.160889 z M 13.29542,90 h -0.717774 v -0.185547 h 0.238037 V 88.36792 h -0.238037 v -0.185547 h 0.717774 v 0.185547 h -0.238037 v 1.446533 h 0.238037 z m 1.561279,0 h -1.149902 v -1.817627 h 0.241699 v 1.602783 h 0.908203 z m 1.330566,-1.602783 H 15.537851 V 90 h -0.241699 v -1.602783 h -0.649414 v -0.214844 h 1.540527 z M 17.628916,90 h -1.19751 v -1.817627 h 1.19751 v 0.214844 h -0.955811 v 0.498047 h 0.955811 v 0.214843 h -0.955811 v 0.675049 h 0.955811 z m 1.887207,0 h -0.313721 l -0.60791,-0.722656 H 18.253916 V 90 h -0.241699 v -1.817627 h 0.509033 q 0.164795,0 0.274658,0.02197 0.109863,0.02075 0.197754,0.07568 0.09888,0.06226 0.153808,0.157471 0.05615,0.09399 0.05615,0.239258 0,0.196533 -0.09888,0.32959 -0.09888,0.131836 -0.272217,0.198974 z m -0.565186,-1.306152 q 0,-0.07813 -0.02808,-0.13794 -0.02686,-0.06104 -0.09033,-0.102539 -0.05249,-0.0354 -0.124512,-0.04883 -0.07202,-0.01465 -0.169677,-0.01465 h -0.284424 v 0.686035 h 0.24414 q 0.114747,0 0.200196,-0.01953 0.08545,-0.02075 0.145263,-0.07568 0.05493,-0.05127 0.08057,-0.117188 0.02686,-0.06714 0.02686,-0.169677 z"
     id="text6"
     style="font-size:2.5px;text-anchor:middle;fill:#666666"
     aria-label="FILTER" />
  <!-- Port labels -->
  <path
     d="m 8.1895311,92.90332 q -0.1072265,0.04922 -0.2346679,0.08613 -0.1265625,0.03603 -0.2452149,0.03603 -0.1529297,0 -0.2803711,-0.04219 -0.1274414,-0.04219 -0.2170898,-0.126563 -0.090527,-0.08525 -0.1397461,-0.212695 -0.049219,-0.12832 -0.049219,-0.299707 0,-0.31377 0.1828125,-0.494824 0.1836914,-0.181934 0.5036132,-0.181934 0.1116211,0 0.2276367,0.02725 0.1168946,0.02637 0.2513672,0.09053 v 0.206543 h -0.01582 q -0.027246,-0.02109 -0.079102,-0.05537 -0.051855,-0.03428 -0.1019531,-0.05713 -0.060644,-0.02725 -0.1379883,-0.04483 -0.076465,-0.01846 -0.1740234,-0.01846 -0.2197265,0 -0.3480469,0.141504 -0.1274414,0.140625 -0.1274414,0.381446 0,0.254003 0.1335938,0.395507 0.1335937,0.140625 0.3638672,0.140625 0.084375,0 0.1678711,-0.0167 0.084375,-0.0167 0.1476562,-0.04307 V 92.494629 H 7.6665819 v -0.15293 h 0.5229492 z"
     id="text7"
     style="font-size:1.8px;text-anchor:middle;fill:#555555"
     aria-label="G" />
  <path
     d="m 8.1091112,104.08682 q 0,0.087 -0.030762,0.16172 -0.029883,0.0738 -0.084375,0.12832 -0.067676,0.0677 -0.1599609,0.10195 -0.092285,0.0334 -0.2329102,0.0334 H 7.42708 V 105 H 7.2530565 v -1.30869 h 0.3550782 q 0.1177734,0 0.1995117,0.0202 0.081738,0.0193 0.1450195,0.0615 0.074707,0.0501 0.1151367,0.1248 0.041309,0.0747 0.041309,0.18897 z m -0.1810547,0.004 q 0,-0.0677 -0.023731,-0.11777 -0.02373,-0.0501 -0.07207,-0.0817 -0.042187,-0.0272 -0.09668,-0.0387 -0.053613,-0.0123 -0.1362305,-0.0123 H 7.42708 v 0.52295 h 0.1467773 q 0.1054688,0 0.1713867,-0.0185 0.065918,-0.0193 0.1072266,-0.0606 0.041309,-0.0422 0.058008,-0.0888 0.017578,-0.0466 0.017578,-0.10459 z"
     id="text8"
     style="font-size:1.8px;text-anchor:middle;fill:#555555"
     aria-label="P" />
  <path
     d="m 23.354385,91.845996 h -0.661816 v 0.369141 h 0.568652 v 0.154687 H 22.692569 V 93 h -0.174023 v -1.308691 h 0.835839 z"
     id="text9"
     style="font-size:1.8px;text-anchor:middle;fill:#555555"
     aria-label="F" />
  <path
     d="M 8.1227342,127 H 7.2948046 v -1.30869 H 7.468828 v 1.154 h 0.6539062 z"
     id="text10"
     style="font-size:1.8px;text-anchor:middle;fill:#555555"
     aria-label="L" />
  <path
     d="m 15.872812,127 h -0.225879 l -0.437695,-0.52031 H 14.964023 V 127 H 14.79 v -1.30869 h 0.366504 q 0.118652,0 0.197754,0.0158 0.0791,0.0149 0.142382,0.0545 0.07119,0.0448 0.110743,0.11338 0.04043,0.0677 0.04043,0.17227 0,0.1415 -0.07119,0.2373 -0.07119,0.0949 -0.195996,0.14326 z m -0.406933,-0.94043 q 0,-0.0562 -0.02021,-0.0993 -0.01934,-0.0439 -0.06504,-0.0738 -0.03779,-0.0255 -0.08965,-0.0352 -0.05185,-0.0105 -0.122168,-0.0105 h -0.204785 v 0.49395 h 0.175781 q 0.08262,0 0.144141,-0.0141 0.06152,-0.0149 0.10459,-0.0545 0.03955,-0.0369 0.05801,-0.0844 0.01934,-0.0483 0.01934,-0.12217 z"
     id="text11"
     style="font-size:1.8px;text-anchor:middle;fill:#555555"
     aria-label="R" />
  <path
     d="m 22.218033,114.53467 q 0.06665,0.0732 0.101806,0.17944 0.03589,0.1062 0.03589,0.24097 0,0.13476 -0.03662,0.2417 -0.03589,0.1062 -0.101074,0.17724 -0.06738,0.074 -0.159668,0.11133 -0.09155,0.0374 -0.209473,0.0374 -0.11499,0 -0.209472,-0.0381 -0.09375,-0.0381 -0.159668,-0.1106 -0.06592,-0.0725 -0.101807,-0.17798 -0.03516,-0.10546 -0.03516,-0.24096 0,-0.1333 0.03516,-0.23877 0.03516,-0.1062 0.102539,-0.18164 0.06445,-0.0718 0.159668,-0.10987 0.09595,-0.0381 0.20874,-0.0381 0.117188,0 0.210205,0.0388 0.09375,0.0381 0.158936,0.10913 z m -0.01318,0.42041 q 0,-0.2124 -0.09521,-0.32739 -0.09521,-0.11573 -0.260009,-0.11573 -0.16626,0 -0.261475,0.11573 -0.09448,0.11499 -0.09448,0.32739 0,0.2146 0.09668,0.32886 0.09668,0.11352 0.259278,0.11352 0.162597,0 0.258545,-0.11352 0.09668,-0.11426 0.09668,-0.32886 z m 1.201905,0.10693 q 0,0.11865 -0.02637,0.20728 -0.02563,0.0879 -0.08496,0.14648 -0.0564,0.0557 -0.131836,0.0813 -0.07544,0.0256 -0.175781,0.0256 -0.102539,0 -0.178711,-0.0271 -0.07617,-0.0271 -0.128174,-0.0798 -0.05933,-0.0601 -0.08569,-0.14502 -0.02564,-0.085 -0.02564,-0.20874 v -0.65259 h 0.14502 v 0.65992 q 0,0.0886 0.01172,0.13989 0.01245,0.0513 0.04101,0.093 0.03223,0.0476 0.08716,0.0718 0.05566,0.0242 0.133301,0.0242 0.07837,0 0.133301,-0.0234 0.05493,-0.0242 0.08789,-0.0725 0.02856,-0.0418 0.04028,-0.0952 0.01245,-0.0542 0.01245,-0.13403 v -0.66358 h 0.14502 z m 1.054687,-0.52368 H 24.071793 V 115.5 h -0.14502 v -0.96167 h -0.389648 v -0.12891 h 0.924316 z"
     id="text12"
     style="font-size:1.5px;text-anchor:middle;fill:#555555"
     aria-label="OUT" />
  <!-- IN/OUT section dividers -->
  <line
     x1="3"
     y1="113"
     x2="27.48"
     y2="113"
     stroke="#444444"
     stroke-width="0.3"
     id="line12" />
  <!-- Bottom decorative stripe -->
  <rect
     x="0"
     y="125.5"
     width="30.48"
     height="3"
     fill="#4a90d9"
     id="rect12" />
</svg>
