<?xml version="1.0" encoding="UTF-8" standalone="no"?>
<svg
   width="30.48mm"
   height="128.5mm"
   viewBox="0 0 30.48 128.5"
   version="1.1"
   id="svg11"
   sodipodi:docname="MinimalKick.svg"
   xmlns:inkscape="http://www.inkscape.org/namespaces/inkscape"
   xmlns:sodipodi="http://sodipodi.sourceforge.net/DTD/sodipodi-0.dtd"
   xmlns="http://www.w3.org/2000/svg"
   xmlns:svg="http://www.w3.org/2000/svg">
  <defs
     id="defs11" />
  <sodipodi:namedview
     id="namedview11"
     pagecolor="#ffffff"
     bordercolor="#000000"
     borderopacity="0.25"
     inkscape:showpageshadow="2"
     inkscape:pageopacity="0.0"
     inkscape:pagecheckerboard="0"
     inkscape:deskcolor="#d1d1d1"
     inkscape:document-units="mm" />
  <!-- Panel background -->
  <rect
     x="0"
     y="0"
     width="30.48"
     height="128.5"
     fill="#1a1a1a"
     id="rect1" />
  <!-- Top accent -->
  <rect
     x="0"
     y="0"
     width="30.48"
     height="3"
     fill="#e74c3c"
     id="rect2" />
  <!-- Module name -->
  <path
     d="M 9.0492039,13 H 8.3963718 V 11.296143 L 7.9246922,12.401855 H 7.4718113 L 7.0001316,11.296143 V 13 H 6.3814793 v -2.544678 h 0.762207 l 0.5725098,1.276612 0.5708007,-1.276612 H 9.0492039 Z M 11.07435,13 H 9.584116 v -0.451172 h 0.416992 V 10.906494 H 9.584116 v -0.451172 h 1.490234 v 0.451172 h -0.416992 v 1.642334 h 0.416992 z m 2.848877,0 H 13.290903 L 12.210825,11.253418 V 13 h -0.601563 v -2.544678 h 0.784424 l 0.927979,1.457764 v -1.457764 h 0.601562 z m 2.025147,0 h -1.490235 v -0.451172 h 0.416993 v -1.642334 h -0.416993 v -0.451172 h 1.490235 v 0.451172 h -0.416992 v 1.642334 h 0.416992 z m 3.202637,0 h -0.652833 v -1.703857 l -0.471679,1.105712 h -0.452881 l -0.47168,-1.105712 V 13 h -0.618652 v -2.544678 h 0.762207 l 0.57251,1.276612 0.5708,-1.276612 h 0.762208 z m 3.000976,0 H 21.47352 L 21.297495,12.485596 H 20.354136 L 20.17811,13 h -0.661377 l 0.939942,-2.544678 h 0.755371 z m -1.013428,-0.980957 -0.312744,-0.912598 -0.312744,0.912598 z M 24.353159,13 H 22.51771 v -2.544678 h 0.65625 v 2.052491 h 1.179199 z"
     id="text2"
     style="font-weight:bold;font-size:3.5px;text-anchor:middle;fill:#ffffff"
     aria-label="MINIMAL" />
  <path
     d="m 13.020029,18 h -0.804932 l -0.760498,-1.018555 -0.153808,0.18628 V 18 h -0.65625 v -2.544678 h 0.65625 v 1.151856 l 0.909179,-1.151856 h 0.760499 l -0.994629,1.17749 z m 1.698731,0 h -1.490235 v -0.451172 h 0.416992 v -1.642334 h -0.416992 v -0.451172 h 1.490235 v 0.451172 h -0.416993 v 1.642334 h 0.416993 z m 1.685058,0.04956 q -0.283691,0 -0.524658,-0.08374 -0.239258,-0.08374 -0.411865,-0.249511 -0.172608,-0.165772 -0.268311,-0.413575 -0.09399,-0.247802 -0.09399,-0.572509 0,-0.302491 0.09058,-0.548584 0.09058,-0.246094 0.263184,-0.42212 0.165771,-0.169189 0.410156,-0.261474 0.246094,-0.09229 0.536621,-0.09229 0.160645,0 0.288818,0.0188 0.129883,0.01709 0.239258,0.04614 0.114502,0.03247 0.206787,0.07349 0.09399,0.03931 0.164063,0.07349 v 0.616943 h -0.07519 q -0.04785,-0.04101 -0.121338,-0.09741 -0.07178,-0.0564 -0.164063,-0.111084 -0.09399,-0.05469 -0.203369,-0.09228 -0.109375,-0.0376 -0.234131,-0.0376 -0.138428,0 -0.263183,0.04443 -0.124756,0.04272 -0.230713,0.143555 -0.10083,0.09741 -0.164063,0.258056 -0.06152,0.160645 -0.06152,0.389649 0,0.239257 0.06665,0.399902 0.06836,0.160644 0.170899,0.25293 0.104248,0.09399 0.232421,0.135009 0.128174,0.03931 0.25293,0.03931 0.119629,0 0.23584,-0.03589 0.11792,-0.03589 0.217041,-0.09741 0.08374,-0.04956 0.155518,-0.105957 0.07178,-0.0564 0.11792,-0.09741 h 0.06836 v 0.608399 q -0.0957,0.04272 -0.182861,0.08032 -0.08716,0.0376 -0.182862,0.06494 -0.124756,0.03589 -0.234131,0.05469 -0.109375,0.0188 -0.300781,0.0188 z M 20.161875,18 h -0.804932 l -0.760498,-1.018555 -0.153809,0.18628 V 18 h -0.65625 v -2.544678 h 0.65625 v 1.151856 l 0.90918,-1.151856 h 0.760498 l -0.994629,1.17749 z"
     id="text3"
     style="font-weight:bold;font-size:3.5px;text-anchor:middle;fill:#e74c3c"
     aria-label="KICK" />
  <!-- Knob labels -->
  <path
     d="m 5.7119141,39.584961 q 0,0.08496 -0.040039,0.167969 -0.039063,0.08301 -0.1103516,0.140625 -0.078125,0.0625 -0.1826172,0.09766 -0.1035156,0.03516 -0.25,0.03516 -0.1572265,0 -0.2832031,-0.0293 -0.125,-0.0293 -0.2548828,-0.08691 v -0.242187 h 0.013672 q 0.1103515,0.0918 0.2548828,0.141601 0.1445312,0.0498 0.2714844,0.0498 0.1796875,0 0.2792968,-0.06738 0.100586,-0.06738 0.100586,-0.179687 0,-0.09668 -0.047852,-0.142578 -0.046875,-0.0459 -0.1435547,-0.07129 -0.073242,-0.01953 -0.1591797,-0.03223 -0.084961,-0.0127 -0.180664,-0.03223 -0.1933594,-0.04102 -0.2871094,-0.139648 -0.092773,-0.09961 -0.092773,-0.258789 0,-0.182617 0.1542968,-0.298828 0.1542969,-0.117188 0.3916016,-0.117188 0.1533203,0 0.28125,0.0293 0.1279297,0.0293 0.2265625,0.07227 v 0.228515 h -0.013672 q -0.083008,-0.07031 -0.21875,-0.116211 -0.1347656,-0.04687 -0.2763672,-0.04687 -0.1552734,0 -0.25,0.06445 -0.09375,0.06445 -0.09375,0.166015 0,0.09082 0.046875,0.142578 0.046875,0.05176 0.1650391,0.0791 0.0625,0.01367 0.1777344,0.0332 0.1152344,0.01953 0.1953125,0.04004 0.1621094,0.04297 0.2441406,0.129883 0.082031,0.08691 0.082031,0.243164 z M 7.7148437,38.545898 7.3369141,40 H 7.1191406 L 6.8134766,38.792969 6.5146484,40 H 6.3017578 L 5.9169922,38.545898 h 0.1982422 l 0.305664,1.208985 0.3007813,-1.208985 h 0.196289 l 0.303711,1.220704 0.3037109,-1.220704 z M 8.9580078,40 H 8 v -1.454102 h 0.9580078 v 0.171875 H 8.1933594 v 0.398438 h 0.7646484 v 0.171875 H 8.1933594 v 0.540039 h 0.7646484 z m 1.2646482,0 H 9.2646484 v -1.454102 h 0.9580076 v 0.171875 H 9.4580078 v 0.398438 h 0.7646482 v 0.171875 H 9.4580078 v 0.540039 h 0.7646482 z m 1.257813,-1.014648 q 0,0.09668 -0.03418,0.179687 -0.0332,0.08203 -0.09375,0.142578 -0.0752,0.0752 -0.177734,0.113281 -0.102539,0.03711 -0.258789,0.03711 h -0.19336 V 40 h -0.193359 v -1.454102 h 0.394531 q 0.13086,0 0.22168,0.02246 0.09082,0.02148 0.161133,0.06836 0.08301,0.05566 0.127929,0.138672 0.0459,0.08301 0.0459,0.209961 z m -0.201172,0.0049 q 0,-0.0752 -0.02637,-0.130859 -0.02637,-0.05566 -0.08008,-0.09082 -0.04687,-0.03027 -0.107422,-0.04297 -0.05957,-0.01367 -0.151367,-0.01367 h -0.191407 v 0.581055 h 0.163086 q 0.117188,0 0.19043,-0.02051 0.07324,-0.02148 0.119141,-0.06738 0.0459,-0.04687 0.06445,-0.09863 0.01953,-0.05176 0.01953,-0.116211 z"
     id="text4"
     style="font-size:2px;text-anchor:middle;fill:#666666"
     aria-label="SWEEP" />
  <path
     d="M 21.200214,38.717773 H 20.680683 V 40 h -0.193359 v -1.282227 h -0.519531 v -0.171875 h 1.232421 z M 21.908222,40 h -0.574219 v -0.148438 h 0.19043 v -1.157226 h -0.19043 v -0.148438 h 0.574219 v 0.148438 h -0.190429 v 1.157226 h 0.190429 z m 1.624024,0 h -0.19336 v -1.25293 l -0.404297,0.852539 H 22.819355 L 22.417988,38.74707 V 40 h -0.180664 v -1.454102 h 0.263672 l 0.387695,0.809571 0.375,-0.809571 h 0.268555 z m 1.348632,0 h -0.958007 v -1.454102 h 0.958007 v 0.171875 H 24.11623 v 0.398438 h 0.764648 v 0.171875 H 24.11623 v 0.540039 h 0.764648 z"
     id="text5"
     style="font-size:2px;text-anchor:middle;fill:#666666"
     aria-label="TIME" />
  <path
     d="M 7.4077148,64 H 7.2016602 L 7.059082,63.594727 H 6.4301758 L 6.2875977,64 H 6.0913086 L 6.6206055,62.545898 H 6.878418 Z M 6.9995117,63.428711 6.7446289,62.714844 6.4887695,63.428711 Z M 8.5483398,62.717773 H 8.0288086 V 64 H 7.8354492 V 62.717773 H 7.315918 V 62.545898 H 8.5483398 Z M 9.9125977,64 H 9.6616211 L 9.0864258,63.352539 8.9418945,63.506836 V 64 H 8.7485352 v -1.454102 h 0.1933593 v 0.758789 l 0.7060547,-0.758789 h 0.234375 l -0.649414,0.683594 z"
     id="text6"
     style="font-size:2px;text-anchor:middle;fill:#666666"
     aria-label="ATK" />
  <path
     d="m 21.802753,63.274414 q 0,0.198242 -0.08691,0.359375 -0.08594,0.161133 -0.229492,0.25 -0.09961,0.06152 -0.222656,0.08887 Q 21.141621,64 20.941425,64 h -0.367187 v -1.454102 h 0.363281 q 0.212891,0 0.337891,0.03125 0.125976,0.03027 0.21289,0.08398 0.148438,0.09277 0.231446,0.24707 0.08301,0.154297 0.08301,0.366211 z m -0.202148,-0.0029 q 0,-0.170898 -0.05957,-0.288086 -0.05957,-0.117187 -0.177735,-0.18457 -0.08594,-0.04883 -0.182617,-0.06738 -0.09668,-0.01953 -0.231445,-0.01953 h -0.181641 v 1.12207 h 0.181641 q 0.139648,0 0.243164,-0.02051 0.104492,-0.02051 0.191406,-0.07617 0.108399,-0.06934 0.16211,-0.182618 0.05469,-0.113281 0.05469,-0.283203 z M 23.073261,64 h -0.958008 v -1.454102 h 0.958008 v 0.171875 h -0.764648 v 0.398438 h 0.764648 v 0.171875 h -0.764648 v 0.540039 h 0.764648 z m 1.429688,-0.105469 q -0.05371,0.02344 -0.09766,0.04395 -0.04297,0.02051 -0.113282,0.04297 -0.05957,0.01855 -0.129883,0.03125 -0.06933,0.01367 -0.15332,0.01367 -0.158203,0 -0.288086,-0.04394 -0.128906,-0.04492 -0.224609,-0.139649 -0.09375,-0.09277 -0.146485,-0.235351 -0.05273,-0.143555 -0.05273,-0.333008 0,-0.179687 0.05078,-0.321289 0.05078,-0.141602 0.146485,-0.239258 0.09277,-0.09473 0.223633,-0.144531 0.131835,-0.0498 0.291992,-0.0498 0.117187,0 0.233398,0.02832 0.117188,0.02832 0.259766,0.09961 v 0.229492 H 24.4883 q -0.120117,-0.100586 -0.238281,-0.146484 -0.118164,-0.0459 -0.25293,-0.0459 -0.110351,0 -0.199218,0.03613 -0.08789,0.03516 -0.157227,0.110352 -0.06738,0.07324 -0.105469,0.185547 -0.03711,0.111328 -0.03711,0.257812 0,0.15332 0.04102,0.263672 0.04199,0.110351 0.107421,0.179687 0.06836,0.07227 0.15918,0.107422 0.0918,0.03418 0.19336,0.03418 0.139648,0 0.261718,-0.04785 0.122071,-0.04785 0.228516,-0.143554 h 0.01367 z"
     id="text7"
     style="font-size:2px;text-anchor:middle;fill:#666666"
     aria-label="DEC" />
  <path
     d="m 13.461191,87.274414 q 0,0.198242 -0.08691,0.359375 -0.08594,0.161133 -0.229492,0.25 -0.09961,0.06152 -0.222656,0.08887 Q 12.800058,88 12.599863,88 h -0.367187 v -1.454102 h 0.363281 q 0.21289,0 0.33789,0.03125 0.125977,0.03027 0.212891,0.08399 0.148438,0.09277 0.231445,0.24707 0.08301,0.154297 0.08301,0.366211 z m -0.202148,-0.0029 q 0,-0.170898 -0.05957,-0.288086 -0.05957,-0.117187 -0.177734,-0.18457 -0.08594,-0.04883 -0.182617,-0.06738 -0.09668,-0.01953 -0.231445,-0.01953 h -0.181641 v 1.12207 h 0.181641 q 0.139648,0 0.243164,-0.02051 0.104492,-0.02051 0.191406,-0.07617 0.108398,-0.06934 0.162109,-0.182618 0.05469,-0.113281 0.05469,-0.283203 z M 14.976816,88 H 14.72584 l -0.486329,-0.578125 h -0.27246 V 88 h -0.19336 v -1.454102 h 0.407227 q 0.131836,0 0.219726,0.01758 0.08789,0.0166 0.158203,0.06055 0.0791,0.04981 0.123047,0.125977 0.04492,0.07519 0.04492,0.191406 0,0.157227 -0.0791,0.263672 -0.0791,0.105469 -0.217774,0.15918 z m -0.452148,-1.044922 q 0,-0.0625 -0.02246,-0.110351 -0.02149,-0.04883 -0.07227,-0.08203 -0.04199,-0.02832 -0.09961,-0.03906 -0.05762,-0.01172 -0.135742,-0.01172 h -0.227539 v 0.548828 h 0.195312 q 0.0918,0 0.160156,-0.01563 0.06836,-0.0166 0.116211,-0.06055 0.04395,-0.04101 0.06445,-0.09375 0.02149,-0.05371 0.02149,-0.135742 z M 15.677011,88 h -0.574218 v -0.148438 h 0.190429 v -1.157226 h -0.190429 v -0.148438 h 0.574218 v 0.148438 h -0.190429 v 1.157226 h 0.190429 z M 17.152597,86.545898 16.623301,88 h -0.257813 l -0.529297,-1.454102 h 0.207031 l 0.456055,1.279297 0.456055,-1.279297 z M 18.331308,88 h -0.958007 v -1.454102 h 0.958007 v 0.171875 H 17.56666 v 0.398438 h 0.764648 v 0.171875 H 17.56666 v 0.540039 h 0.764648 z"
     id="text8"
     style="font-size:2px;text-anchor:middle;fill:#666666"
     aria-label="DRIVE" />
  <!-- Input/Output labels -->
  <path
     d="M 6.8521485,106.846 H 6.3845704 V 108 H 6.2105469 v -1.154 H 5.7429688 v -0.15469 H 6.8521485 Z M 8.1107421,108 H 7.8848632 L 7.4471679,107.47969 H 7.2019531 V 108 H 7.0279297 v -1.30869 h 0.3665039 q 0.1186523,0 0.1977539,0.0158 0.079102,0.0149 0.1423828,0.0545 0.071191,0.0448 0.1107422,0.11338 0.04043,0.0677 0.04043,0.17227 0,0.1415 -0.071191,0.2373 -0.071191,0.0949 -0.195996,0.14326 z m -0.4069335,-0.94043 q 0,-0.0562 -0.020215,-0.0993 -0.019336,-0.0439 -0.065039,-0.0738 -0.037793,-0.0255 -0.089649,-0.0352 -0.051855,-0.0105 -0.1221679,-0.0105 H 7.2019531 v 0.49395 h 0.1757812 q 0.082617,0 0.1441407,-0.0141 0.061523,-0.0149 0.1045898,-0.0545 0.039551,-0.0369 0.058008,-0.0844 0.019336,-0.0483 0.019336,-0.12217 z M 8.7409179,108 H 8.2241211 v -0.13359 H 8.3955078 V 106.8249 H 8.2241211 v -0.13359 h 0.5167968 v 0.13359 H 8.5695312 v 1.04151 h 0.1713867 z m 1.3877931,-0.0967 q -0.107227,0.0492 -0.234668,0.0861 -0.1265625,0.036 -0.2452149,0.036 -0.1529297,0 -0.2803711,-0.0422 -0.1274414,-0.0422 -0.2170898,-0.12656 -0.090527,-0.0853 -0.1397461,-0.2127 -0.049219,-0.12832 -0.049219,-0.2997 0,-0.31377 0.1828124,-0.49483 0.1836914,-0.18193 0.5036133,-0.18193 0.1116211,0 0.2276367,0.0272 0.1168946,0.0264 0.2513672,0.0905 v 0.20654 h -0.01582 q -0.02725,-0.0211 -0.0791,-0.0554 -0.051855,-0.0343 -0.101953,-0.0571 -0.060644,-0.0272 -0.1379883,-0.0448 -0.076465,-0.0185 -0.1740234,-0.0185 -0.2197266,0 -0.3480469,0.14151 -0.1274414,0.14062 -0.1274414,0.38144 0,0.25401 0.1335938,0.39551 0.1335937,0.14063 0.3638672,0.14063 0.084375,0 0.167871,-0.0167 0.084375,-0.0167 0.1476563,-0.0431 v -0.3208 H 9.6057617 v -0.15293 h 0.5229493 z"
     id="text9"
     style="font-size:1.8px;text-anchor:middle;fill:#555555"
     aria-label="TRIG" />
  <path
     d="M 20.772285,106.69131 20.295918,108 h -0.232032 l -0.476367,-1.30869 h 0.186328 l 0.410449,1.15137 0.41045,-1.15137 z m 0.778711,-0.0589 -0.630176,1.63477 h -0.152051 l 0.627539,-1.63477 z m 1.21289,0.20918 q 0.07998,0.0879 0.122168,0.21533 0.04307,0.12745 0.04307,0.28916 0,0.16172 -0.04395,0.29004 -0.04307,0.12744 -0.121289,0.2127 -0.08086,0.0888 -0.191601,0.13359 -0.109864,0.0448 -0.251367,0.0448 -0.137989,0 -0.251368,-0.0457 -0.1125,-0.0457 -0.191601,-0.13271 -0.0791,-0.087 -0.122168,-0.21358 -0.04219,-0.12656 -0.04219,-0.28916 0,-0.15996 0.04219,-0.28652 0.04219,-0.12744 0.123047,-0.21797 0.07734,-0.0861 0.191601,-0.13183 0.115137,-0.0457 0.250489,-0.0457 0.140625,0 0.252246,0.0466 0.1125,0.0457 0.190722,0.13096 z m -0.01582,0.50449 q 0,-0.25488 -0.114258,-0.39287 -0.114258,-0.13886 -0.312012,-0.13886 -0.199511,0 -0.313769,0.13886 -0.113379,0.13799 -0.113379,0.39287 0,0.25752 0.116016,0.39463 0.116015,0.13623 0.311132,0.13623 0.195118,0 0.310254,-0.13623 0.116016,-0.13711 0.116016,-0.39463 z m 1.467773,0.55899 q -0.04834,0.0211 -0.08789,0.0396 -0.03867,0.0185 -0.101954,0.0387 -0.05361,0.0167 -0.116894,0.0281 -0.0624,0.0123 -0.137988,0.0123 -0.142383,0 -0.259278,-0.0396 -0.116015,-0.0404 -0.202148,-0.12568 -0.08438,-0.0835 -0.131836,-0.21182 -0.04746,-0.1292 -0.04746,-0.29971 0,-0.16172 0.0457,-0.28916 0.0457,-0.12744 0.131836,-0.21533 0.0835,-0.0852 0.20127,-0.13008 0.118652,-0.0448 0.262793,-0.0448 0.105468,0 0.210058,0.0255 0.105469,0.0255 0.233789,0.0896 v 0.20655 h -0.01318 q -0.108106,-0.0905 -0.214453,-0.13184 -0.106348,-0.0413 -0.227637,-0.0413 -0.09932,0 -0.179297,0.0325 -0.0791,0.0316 -0.141504,0.0993 -0.06064,0.0659 -0.09492,0.16699 -0.0334,0.1002 -0.0334,0.23203 0,0.13799 0.03691,0.23731 0.03779,0.0993 0.09668,0.16172 0.06152,0.065 0.143262,0.0967 0.08262,0.0308 0.174024,0.0308 0.125683,0 0.235546,-0.0431 0.109864,-0.0431 0.205665,-0.1292 h 0.0123 z M 25.395331,106.846 H 24.927753 V 108 H 24.75373 v -1.154 h -0.467578 v -0.15469 h 1.109179 z"
     id="text10"
     style="font-size:1.8px;text-anchor:middle;fill:#555555"
     aria-label="V/OCT" />
  <path
     d="m 14.469638,120.8416 q 0.07998,0.0879 0.122168,0.21533 0.04307,0.12745 0.04307,0.28916 0,0.16172 -0.04395,0.29004 -0.04307,0.12744 -0.12129,0.2127 -0.08086,0.0888 -0.191601,0.13359 -0.109863,0.0448 -0.251367,0.0448 -0.137989,0 -0.251367,-0.0457 -0.1125,-0.0457 -0.191602,-0.13271 -0.0791,-0.087 -0.122168,-0.21358 -0.04219,-0.12656 -0.04219,-0.28916 0,-0.15996 0.04219,-0.28652 0.04219,-0.12744 0.123047,-0.21797 0.07734,-0.0861 0.191601,-0.13183 0.115137,-0.0457 0.250489,-0.0457 0.140625,0 0.252246,0.0466 0.1125,0.0457 0.190722,0.13096 z m -0.01582,0.50449 q 0,-0.25488 -0.114258,-0.39287 -0.114257,-0.13886 -0.312011,-0.13886 -0.199512,0 -0.31377,0.13886 -0.113379,0.13799 -0.113379,0.39287 0,0.25752 0.116016,0.39463 0.116015,0.13623 0.311133,0.13623 0.195117,0 0.310254,-0.13623 0.116015,-0.13711 0.116015,-0.39463 z m 1.442285,0.12832 q 0,0.14239 -0.03164,0.24873 -0.03076,0.10547 -0.101954,0.17579 -0.06767,0.0668 -0.158203,0.0976 -0.09053,0.0308 -0.210937,0.0308 -0.123047,0 -0.214453,-0.0325 -0.09141,-0.0325 -0.153809,-0.0958 -0.07119,-0.0721 -0.102832,-0.17403 -0.03076,-0.10195 -0.03076,-0.25049 v -0.7831 h 0.174024 v 0.79189 q 0,0.10635 0.01406,0.16787 0.01494,0.0615 0.04922,0.11163 0.03867,0.0571 0.10459,0.0861 0.0668,0.029 0.159961,0.029 0.09404,0 0.159961,-0.0281 0.06592,-0.029 0.105469,-0.087 0.03428,-0.0501 0.04834,-0.11426 0.01494,-0.065 0.01494,-0.16084 v -0.79629 h 0.174023 z M 17.161728,120.846 H 16.69415 V 122 h -0.174023 v -1.154 h -0.467578 v -0.15469 h 1.109179 z"
     id="text11"
     style="font-size:1.8px;text-anchor:middle;fill:#555555"
     aria-label="OUT" />
  <!-- Bottom accent -->
  <rect
     x="0"
     y="125.5"
     width="30.48"
     height="3"
     fill="#e74c3c"
     id="rect11" />
</svg>
