<?xml version="1.0" encoding="UTF-8" standalone="no"?>
<svg
   width="81.28mm"
   height="128.5mm"
   viewBox="0 0 81.28 128.5"
   version="1.1"
   id="svg21"
   sodipodi:docname="Drum808.svg"
   xmlns:inkscape="http://www.inkscape.org/namespaces/inkscape"
   xmlns:sodipodi="http://sodipodi.sourceforge.net/DTD/sodipodi-0.dtd"
   xmlns="http://www.w3.org/2000/svg"
   xmlns:svg="http://www.w3.org/2000/svg">
  <defs
     id="defs21" />
  <sodipodi:namedview
     id="namedview21"
     pagecolor="#ffffff"
     bordercolor="#000000"
     borderopacity="0.25"
     inkscape:showpageshadow="2"
     inkscape:pageopacity="0.0"
     inkscape:pagecheckerboard="0"
     inkscape:deskcolor="#d1d1d1"
     inkscape:document-units="mm" />
  <!-- Background -->
  <rect
     width="81.28"
     height="128.5"
     fill="#1a1a1a"
     id="rect1" />
  <!-- Panel border -->
  <rect
     x="0.5"
     y="0.5"
     width="80.28"
     height="127.5"
     fill="none"
     stroke="#333"
     stroke-width="0.5"
     id="rect2" />
  <!-- Title -->
  <path
     d="m 28.636826,4.4208984 h 1.3208 q 0.446778,0 0.681153,0.068359 0.314941,0.092773 0.53955,0.3295899 0.22461,0.2368164 0.341797,0.5810546 0.117188,0.3417969 0.117188,0.8447266 0,0.4418945 -0.109863,0.7617188 Q 31.393173,7.3969727 31.14415,7.6386719 30.956161,7.8217773 30.636337,7.9243164 30.397079,8 29.996689,8 h -1.359863 z m 0.722656,0.6054688 v 2.3706055 h 0.539551 q 0.302734,0 0.437011,-0.03418 0.175782,-0.043945 0.290528,-0.1489258 0.117187,-0.1049805 0.190429,-0.3442383 0.07324,-0.2416992 0.07324,-0.6567383 0,-0.415039 -0.07324,-0.637207 -0.07324,-0.222168 -0.205078,-0.3466797 -0.131836,-0.1245117 -0.334472,-0.168457 -0.151368,-0.03418 -0.593262,-0.03418 z M 32.252548,8 V 4.4208984 h 1.520996 q 0.573731,0 0.83252,0.097656 0.26123,0.095215 0.41748,0.3417969 0.15625,0.246582 0.15625,0.5639648 0,0.402832 -0.236816,0.6665039 -0.236817,0.2612305 -0.708008,0.3295899 0.234375,0.1367187 0.385742,0.3002929 0.153809,0.1635742 0.412598,0.5810547 L 35.470322,8 H 34.606064 L 34.083603,7.2211914 Q 33.805283,6.8037109 33.702744,6.6962891 33.600204,6.5864258 33.485458,6.5473633 33.370712,6.5058594 33.121689,6.5058594 H 32.975204 V 8 Z m 0.722656,-2.0654297 h 0.534668 q 0.52002,0 0.649414,-0.043945 0.129395,-0.043945 0.202637,-0.1513672 0.07324,-0.1074219 0.07324,-0.2685547 0,-0.180664 -0.09766,-0.2905273 -0.09521,-0.1123047 -0.270996,-0.1416016 -0.08789,-0.012207 -0.527344,-0.012207 h -0.563965 z m 2.88086,-1.5136719 H 36.57872 V 6.359375 q 0,0.4614258 0.02686,0.5981445 0.04639,0.2197266 0.219726,0.3540039 0.175781,0.131836 0.478516,0.131836 0.307617,0 0.463867,-0.1245117 0.15625,-0.1269532 0.187988,-0.3100586 0.03174,-0.1831055 0.03174,-0.6079102 V 4.4208984 h 0.722657 v 1.8798828 q 0,0.6445313 -0.05859,0.9106446 -0.05859,0.2661133 -0.217285,0.4492187 -0.15625,0.1831055 -0.419922,0.2929688 -0.263672,0.1074219 -0.688477,0.1074219 -0.512695,0 -0.778808,-0.1171875 Q 36.28331,7.8242187 36.129501,7.6362305 35.975693,7.4458008 35.926865,7.2382812 35.856064,6.9306641 35.856064,6.3300781 Z M 39.462021,8 V 4.4208984 h 1.081543 l 0.649414,2.4414063 0.64209,-2.4414063 h 1.083984 V 8 H 42.247665 V 5.1826172 L 41.537216,8 H 40.841415 L 40.133408,5.1826172 V 8 Z M 45.462997,6.0688477 Q 45.196884,5.956543 45.074814,5.7612305 44.955185,5.5634766 44.955185,5.3291016 q 0,-0.4003907 0.27832,-0.6616211 0.280762,-0.2612305 0.795899,-0.2612305 0.510254,0 0.791015,0.2612305 0.283203,0.2612304 0.283203,0.6616211 0,0.2490234 -0.129394,0.4443359 -0.129395,0.1928711 -0.36377,0.2954102 0.297852,0.1196289 0.451661,0.349121 0.15625,0.2294922 0.15625,0.5297852 0,0.4956055 -0.317383,0.8056641 -0.314942,0.3100586 -0.839844,0.3100586 -0.488281,0 -0.812988,-0.2563477 -0.383301,-0.3027344 -0.383301,-0.8300781 0,-0.2905274 0.144043,-0.5322266 0.144043,-0.2441406 0.454101,-0.3759765 z m 0.141602,-0.690918 q 0,0.2050781 0.114746,0.3198242 0.117188,0.1147461 0.310059,0.1147461 0.195312,0 0.3125,-0.1147461 0.117187,-0.1171875 0.117187,-0.3222656 0,-0.1928711 -0.117187,-0.3076172 -0.114746,-0.1171875 -0.305176,-0.1171875 -0.197754,0 -0.314942,0.1171875 -0.117187,0.1171875 -0.117187,0.3100586 z m -0.06348,1.5332031 q 0,0.2832031 0.144043,0.4418945 0.146485,0.1586914 0.36377,0.1586914 0.212402,0 0.351562,-0.1513671 0.139161,-0.1538086 0.139161,-0.4418946 0,-0.2514648 -0.141602,-0.402832 -0.141602,-0.1538086 -0.358887,-0.1538086 -0.251465,0 -0.375976,0.1733398 -0.122071,0.1733399 -0.122071,0.3759766 z M 48.815048,4.40625 q 0.52002,0 0.812988,0.3710937 0.349122,0.4394532 0.349122,1.4575196 0,1.015625 -0.351563,1.4599609 -0.290527,0.366211 -0.810547,0.366211 -0.522461,0 -0.842285,-0.4003907 -0.319824,-0.402832 -0.319824,-1.4331054 0,-1.0107422 0.351562,-1.4550782 Q 48.295029,4.40625 48.815048,4.40625 Z m 0,0.5688477 q -0.124512,0 -0.222168,0.080566 -0.09766,0.078125 -0.151367,0.2832031 -0.0708,0.2661133 -0.0708,0.8959961 0,0.6298828 0.06348,0.8666992 0.06348,0.234375 0.158691,0.3125 0.09766,0.078125 0.222168,0.078125 0.124512,0 0.222168,-0.078125 0.09766,-0.080566 0.151367,-0.2856445 0.0708,-0.2636719 0.0708,-0.8935547 0,-0.6298828 -0.06348,-0.8642578 -0.06348,-0.2368164 -0.161133,-0.3149414 -0.09522,-0.080566 -0.219727,-0.080566 z m 2.209473,1.09375 Q 50.758408,5.956543 50.636337,5.7612305 50.516708,5.5634766 50.516708,5.3291016 q 0,-0.4003907 0.278321,-0.6616211 Q 51.07579,4.40625 51.590927,4.40625 q 0.510254,0 0.791016,0.2612305 0.283203,0.2612304 0.283203,0.6616211 0,0.2490234 -0.129395,0.4443359 -0.129394,0.1928711 -0.363769,0.2954102 0.297851,0.1196289 0.45166,0.349121 0.15625,0.2294922 0.15625,0.5297852 0,0.4956055 -0.317383,0.8056641 -0.314941,0.3100586 -0.839844,0.3100586 -0.488281,0 -0.812988,-0.2563477 -0.383301,-0.3027344 -0.383301,-0.8300781 0,-0.2905274 0.144043,-0.5322266 0.144043,-0.2441406 0.454102,-0.3759765 z m 0.141601,-0.690918 q 0,0.2050781 0.114747,0.3198242 0.117187,0.1147461 0.310058,0.1147461 0.195313,0 0.3125,-0.1147461 0.117188,-0.1171875 0.117188,-0.3222656 0,-0.1928711 -0.117188,-0.3076172 -0.114746,-0.1171875 -0.305176,-0.1171875 -0.197754,0 -0.314941,0.1171875 -0.117188,0.1171875 -0.117188,0.3100586 z m -0.06348,1.5332031 q 0,0.2832031 0.144043,0.4418945 0.146484,0.1586914 0.363769,0.1586914 0.212403,0 0.351563,-0.1513671 0.13916,-0.1538086 0.13916,-0.4418946 0,-0.2514648 -0.141602,-0.402832 -0.141601,-0.1538086 -0.358886,-0.1538086 -0.251465,0 -0.375977,0.1733398 -0.12207,0.1733399 -0.12207,0.3759766 z"
     id="text2"
     style="font-weight:bold;font-size:5px;font-family:Arial, sans-serif;text-anchor:middle;fill:#ff6600"
     aria-label="DRUM 808" />
  <!-- Column headers -->
  <path
     d="m 20.316895,18 v -1.136426 h -0.424512 v -0.152051 h 1.021289 v 0.152051 h -0.42627 V 18 Z m 0.774316,0 V 16.711523 H 21.6625 q 0.172266,0 0.261914,0.03516 0.08965,0.03428 0.143262,0.122168 0.05361,0.08789 0.05361,0.194238 0,0.137109 -0.08877,0.231152 -0.08877,0.09404 -0.274219,0.119532 0.06768,0.03252 0.102832,0.06416 0.07471,0.06855 0.141504,0.171386 L 22.226758,18 h -0.214453 l -0.170508,-0.268066 q -0.07471,-0.116016 -0.123047,-0.177539 -0.04834,-0.06152 -0.08701,-0.08613 -0.03779,-0.02461 -0.07734,-0.03428 -0.029,-0.0062 -0.09492,-0.0062 H 21.261719 V 18 Z m 0.170508,-0.719824 h 0.366504 q 0.116894,0 0.182812,-0.02373 0.06592,-0.02461 0.100196,-0.07734 0.03428,-0.05361 0.03428,-0.116016 0,-0.09141 -0.0668,-0.150293 -0.06592,-0.05889 -0.20918,-0.05889 H 21.261719 Z M 22.417481,18 v -1.288477 h 0.170507 V 18 Z m 1.074023,-0.505371 v -0.151172 l 0.545801,-8.79e-4 v 0.478125 q -0.125684,0.100195 -0.259278,0.151172 -0.133593,0.0501 -0.274218,0.0501 -0.189844,0 -0.34541,-0.08086 -0.154688,-0.08174 -0.233789,-0.235547 -0.0791,-0.153808 -0.0791,-0.343652 0,-0.188086 0.07822,-0.350684 0.0791,-0.163476 0.226757,-0.242578 0.147657,-0.0791 0.340137,-0.0791 0.139746,0 0.252246,0.0457 0.113379,0.04482 0.177539,0.125684 0.06416,0.08086 0.09756,0.210937 l -0.153809,0.04219 q -0.029,-0.09844 -0.07207,-0.154688 -0.04307,-0.05625 -0.123047,-0.08965 -0.07998,-0.03428 -0.177539,-0.03428 -0.116894,0 -0.202148,0.03603 -0.08525,0.03516 -0.137989,0.09316 -0.05185,0.05801 -0.08086,0.127442 -0.04922,0.119531 -0.04922,0.259277 0,0.172266 0.05889,0.288281 0.05977,0.116016 0.173144,0.172266 0.113379,0.05625 0.240821,0.05625 0.110742,0 0.216211,-0.04219 0.105468,-0.04307 0.159961,-0.09141 v -0.239941 z"
     id="text3"
     style="font-size:1.8px;font-family:Arial, sans-serif;text-anchor:middle;fill:#888888"
     aria-label="TRIG" />
  <path
     d="m 36.597266,18 v -1.288477 h 0.170507 v 1.136426 h 0.634571 V 18 Z m 1.242773,0 -0.499219,-1.288477 h 0.184571 l 0.334863,0.936036 q 0.04043,0.1125 0.06768,0.210937 0.02988,-0.105469 0.06943,-0.210937 l 0.348047,-0.936036 h 0.174024 L 38.014941,18 Z m 0.825293,0 v -1.288477 h 0.170508 v 1.136426 h 0.63457 V 18 Z"
     id="text4"
     style="font-size:1.8px;font-family:Arial, sans-serif;text-anchor:middle;fill:#888888"
     aria-label="LVL" />
  <path
     d="m 56.238672,18 v -1.288477 h 0.443848 q 0.150293,0 0.229394,0.01846 0.110742,0.02549 0.188965,0.09229 0.101953,0.08613 0.152051,0.220605 0.05098,0.133594 0.05098,0.305859 0,0.146778 -0.03428,0.260157 -0.03428,0.113379 -0.08789,0.188086 -0.05361,0.07383 -0.117773,0.116894 -0.06328,0.04219 -0.153809,0.06416 Q 56.820508,18 56.703613,18 Z m 0.170508,-0.152051 h 0.275097 q 0.127442,0 0.199512,-0.02373 0.07295,-0.02373 0.116016,-0.0668 0.06064,-0.06064 0.09404,-0.162598 0.03428,-0.102832 0.03428,-0.24873 0,-0.202149 -0.0668,-0.310254 -0.06592,-0.108985 -0.16084,-0.145899 -0.06855,-0.02637 -0.220605,-0.02637 H 56.40918 Z M 57.54209,18 v -1.288477 h 0.93164 v 0.152051 h -0.761132 v 0.394629 h 0.712793 v 0.151172 h -0.712793 v 0.438574 h 0.791015 V 18 Z m 2.116406,-0.451758 0.170508,0.04307 q -0.05361,0.210058 -0.193359,0.3208 -0.138868,0.109864 -0.340137,0.109864 -0.208301,0 -0.339258,-0.08437 -0.130078,-0.08525 -0.198633,-0.246094 -0.06768,-0.16084 -0.06768,-0.34541 0,-0.20127 0.07647,-0.350684 0.07734,-0.150293 0.218848,-0.227637 0.142383,-0.07822 0.312891,-0.07822 0.193359,0 0.325195,0.09844 0.131836,0.09844 0.183691,0.276856 l -0.167871,0.03955 q -0.04482,-0.140625 -0.130078,-0.204786 -0.08525,-0.06416 -0.214453,-0.06416 -0.148535,0 -0.248731,0.07119 -0.09932,0.07119 -0.139746,0.191601 -0.04043,0.119531 -0.04043,0.246973 0,0.164355 0.04746,0.287402 0.04834,0.122168 0.149414,0.182813 0.101074,0.06064 0.218847,0.06064 0.143262,0 0.242578,-0.08262 0.09932,-0.08262 0.134473,-0.245215 z"
     id="text5"
     style="font-size:1.8px;font-family:Arial, sans-serif;text-anchor:middle;fill:#888888"
     aria-label="DEC" />
  <path
     d="m 72.187256,17.372461 q 0,-0.320801 0.172266,-0.501856 0.172265,-0.181933 0.444726,-0.181933 0.178418,0 0.32168,0.08525 0.143261,0.08525 0.217969,0.238183 0.07559,0.152051 0.07559,0.345411 0,0.195996 -0.0791,0.350683 -0.0791,0.154688 -0.224121,0.234668 -0.14502,0.0791 -0.312891,0.0791 -0.181933,0 -0.325195,-0.08789 -0.143262,-0.08789 -0.21709,-0.239941 -0.07383,-0.152051 -0.07383,-0.32168 z m 0.175781,0.0026 q 0,0.23291 0.124805,0.367382 0.125683,0.133594 0.314648,0.133594 0.192481,0 0.316407,-0.135351 0.124804,-0.135352 0.124804,-0.384082 0,-0.157325 -0.05361,-0.274219 -0.05273,-0.117774 -0.155566,-0.181934 -0.101954,-0.06504 -0.229395,-0.06504 -0.181055,0 -0.312012,0.124805 -0.130078,0.123926 -0.130078,0.414844 z m 2.12168,-0.663575 h 0.170508 v 0.744434 q 0,0.194238 -0.04395,0.308496 -0.04394,0.114258 -0.159082,0.186328 -0.114258,0.07119 -0.300586,0.07119 -0.181054,0 -0.296191,-0.0624 -0.115137,-0.0624 -0.164356,-0.180175 -0.04922,-0.118653 -0.04922,-0.323438 v -0.744434 h 0.170508 v 0.743555 q 0,0.167871 0.03076,0.247852 0.03164,0.0791 0.107227,0.122168 0.07646,0.04307 0.186328,0.04307 0.188086,0 0.268066,-0.08525 0.07998,-0.08525 0.07998,-0.327832 z M 75.266943,18 v -1.136426 h -0.424512 v -0.152051 h 1.02129 v 0.152051 h -0.42627 V 18 Z"
     id="text6"
     style="font-size:1.8px;font-family:Arial, sans-serif;text-anchor:middle;fill:#888888"
     aria-label="OUT" />
  <!-- Voice labels -->
  <path
     d="M 6.1464844,29 V 27.568359 H 6.3359375 V 28.27832 L 7.046875,27.568359 H 7.3037109 L 6.703125,28.148437 7.3300781,29 h -0.25 L 6.5703125,28.275391 6.3359375,28.503906 V 29 Z m 1.3740234,0 V 27.568359 H 7.7099609 V 29 Z m 1.5449219,-0.501953 0.1894531,0.04785 q -0.05957,0.233399 -0.2148437,0.356446 -0.1542969,0.12207 -0.3779297,0.12207 -0.2314453,0 -0.3769531,-0.09375 -0.1445313,-0.09473 -0.2207032,-0.273437 -0.075195,-0.178711 -0.075195,-0.38379 0,-0.223632 0.084961,-0.389648 0.085937,-0.166992 0.243164,-0.25293 0.1582031,-0.08691 0.3476563,-0.08691 0.2148437,0 0.3613281,0.109375 0.1464844,0.109375 0.2041016,0.307617 l -0.1865235,0.04395 q -0.049805,-0.15625 -0.1445312,-0.227539 -0.094727,-0.07129 -0.2382813,-0.07129 -0.165039,0 -0.2763672,0.0791 -0.1103515,0.0791 -0.1552734,0.212891 -0.044922,0.132812 -0.044922,0.274414 0,0.182617 0.052734,0.319336 0.053711,0.135742 0.1660156,0.203125 0.1123047,0.06738 0.2431641,0.06738 0.1591797,0 0.2695312,-0.0918 0.1103516,-0.0918 0.1494141,-0.272461 z M 9.4804688,29 v -1.431641 h 0.1894531 v 0.709961 l 0.7109371,-0.709961 h 0.256836 L 10.037109,28.148437 10.664063,29 h -0.25 L 9.9042969,28.275391 9.6699219,28.503906 V 29 Z"
     id="text7"
     style="font-size:2px;font-family:Arial, sans-serif;fill:#ff4444"
     aria-label="KICK" />
  <path
     d="m 6.1464844,44 v -1.431641 h 0.1894531 v 1.262696 H 7.0410156 V 44 Z m 1.1474609,0 V 43.799805 H 7.4941406 V 44 Z m 0.8925781,0 V 42.737305 H 7.7148437 v -0.168946 h 1.1347657 v 0.168946 H 8.3759766 V 44 Z m 0.7636719,-0.697266 q 0,-0.356445 0.1914063,-0.557617 0.1914062,-0.202148 0.4941406,-0.202148 0.1982422,0 0.3574219,0.09473 0.1591799,0.09473 0.2421879,0.264649 0.08398,0.168945 0.08398,0.383789 0,0.217773 -0.08789,0.389648 -0.08789,0.171875 -0.2490231,0.260742 -0.1611328,0.08789 -0.3476563,0.08789 -0.2021484,0 -0.3613281,-0.09766 -0.1591797,-0.09766 -0.2412109,-0.266602 -0.082031,-0.168945 -0.082031,-0.357422 z m 0.1953125,0.0029 q 0,0.258789 0.1386719,0.408203 0.1396484,0.148438 0.3496094,0.148438 0.2138672,0 0.3515625,-0.150391 0.1386714,-0.150391 0.1386714,-0.426758 0,-0.174804 -0.05957,-0.304687 -0.05859,-0.13086 -0.1728514,-0.202149 -0.1132813,-0.07227 -0.2548828,-0.07227 -0.2011719,0 -0.3466797,0.138672 -0.1445313,0.137695 -0.1445313,0.460937 z M 10.557617,44 v -1.431641 h 0.285156 l 0.338868,1.013672 q 0.04687,0.141602 0.06836,0.211914 0.02441,-0.07813 0.07617,-0.229492 l 0.342773,-0.996094 h 0.254883 V 44 H 11.741211 V 42.801758 L 11.325195,44 H 11.154297 L 10.740234,42.78125 V 44 Z"
     id="text8"
     style="font-size:2px;font-family:Arial, sans-serif;fill:#ff8800"
     aria-label="L.TOM" />
  <path
     d="m 6.1484375,59 v -1.431641 h 0.2851562 l 0.3388672,1.013672 q 0.046875,0.141602 0.068359,0.211914 0.024414,-0.07813 0.076172,-0.229492 L 7.2597656,57.568359 H 7.5146484 V 59 H 7.3320312 V 57.801758 L 6.9160156,59 H 6.7451172 L 6.3310547,57.78125 V 59 Z m 1.6992187,0 V 58.799805 H 8.0478516 V 59 Z m 0.8925782,0 V 57.737305 H 8.2685547 v -0.168946 h 1.1347656 v 0.168946 H 8.9296875 V 59 Z m 0.7636719,-0.697266 q 0,-0.356445 0.1914062,-0.557617 0.1914063,-0.202148 0.4941405,-0.202148 0.198242,0 0.357422,0.09473 0.15918,0.09473 0.242188,0.264649 0.08398,0.168945 0.08398,0.383789 0,0.217773 -0.08789,0.389648 -0.08789,0.171875 -0.249023,0.260742 -0.161133,0.08789 -0.347656,0.08789 -0.2021489,0 -0.3613286,-0.09766 -0.1591796,-0.09766 -0.2412109,-0.266602 -0.082031,-0.168945 -0.082031,-0.357422 z m 0.1953125,0.0029 q 0,0.258789 0.1386718,0.408203 0.1396485,0.148438 0.3496094,0.148438 0.213867,0 0.351563,-0.150391 0.138671,-0.150391 0.138671,-0.426758 0,-0.174804 -0.05957,-0.304687 -0.05859,-0.13086 -0.172851,-0.202149 -0.113282,-0.07227 -0.254883,-0.07227 -0.2011722,0 -0.34668,0.138672 -0.1445312,0.137695 -0.1445312,0.460937 z M 11.111328,59 v -1.431641 h 0.285156 l 0.338868,1.013672 q 0.04687,0.141602 0.06836,0.211914 0.02441,-0.07813 0.07617,-0.229492 l 0.342773,-0.996094 h 0.254883 V 59 H 12.294922 V 57.801758 L 11.878906,59 H 11.708008 L 11.293945,57.78125 V 59 Z"
     id="text9"
     style="font-size:2px;font-family:Arial, sans-serif;fill:#ffcc00"
     aria-label="M.TOM" />
  <path
     d="m 7.1757812,73.498047 0.1894532,0.04785 q -0.05957,0.233399 -0.2148438,0.356446 -0.1542969,0.12207 -0.3779297,0.12207 -0.2314453,0 -0.3769531,-0.09375 -0.1445312,-0.09473 -0.2207031,-0.273437 -0.075195,-0.178711 -0.075195,-0.38379 0,-0.223632 0.084961,-0.389648 0.085937,-0.166992 0.2431641,-0.25293 0.1582031,-0.08691 0.3476562,-0.08691 0.2148438,0 0.3613281,0.109375 0.1464844,0.109375 0.2041016,0.307617 l -0.1865234,0.04395 q -0.049805,-0.15625 -0.1445313,-0.227539 -0.094726,-0.07129 -0.2382812,-0.07129 -0.1650391,0 -0.2763672,0.0791 -0.1103516,0.0791 -0.1552735,0.212891 -0.044922,0.132812 -0.044922,0.274414 0,0.182617 0.052734,0.319336 0.053711,0.135742 0.1660157,0.203125 0.1123047,0.06738 0.243164,0.06738 0.1591797,0 0.2695313,-0.0918 0.1103515,-0.0918 0.149414,-0.272461 z M 7.5908203,74 v -1.431641 h 0.1894531 v 1.262696 H 8.4853516 V 74 Z m 0.9628906,0 0.5498047,-1.431641 H 9.3076172 L 9.8935547,74 H 9.6777344 L 9.5107422,73.566406 H 8.9121094 L 8.7548828,74 Z m 0.413086,-0.587891 H 9.4521484 L 9.3027344,73.015625 Q 9.234375,72.834961 9.2011719,72.71875 9.1738281,72.856445 9.1240234,72.992187 Z M 10.044922,74 v -1.431641 h 0.540039 q 0.142578,0 0.217773,0.01367 0.105469,0.01758 0.176758,0.06738 0.07129,0.04883 0.114258,0.137695 0.04395,0.08887 0.04395,0.195313 0,0.182617 -0.116211,0.30957 -0.116211,0.125977 -0.419921,0.125977 H 10.234375 V 74 Z m 0.189453,-0.750977 h 0.370117 q 0.183594,0 0.260742,-0.06836 0.07715,-0.06836 0.07715,-0.192383 0,-0.08984 -0.0459,-0.15332 -0.04492,-0.06445 -0.11914,-0.08496 -0.04785,-0.01269 -0.176758,-0.01269 h -0.366211 z"
     id="text10"
     style="font-size:2px;font-family:Arial, sans-serif;fill:#ffffff"
     aria-label="CLAP" />
  <path
     d="m 7.1757812,88.498047 0.1894532,0.04785 q -0.05957,0.233399 -0.2148438,0.356446 -0.1542969,0.12207 -0.3779297,0.12207 -0.2314453,0 -0.3769531,-0.09375 -0.1445312,-0.09473 -0.2207031,-0.273437 -0.075195,-0.178711 -0.075195,-0.38379 0,-0.223632 0.084961,-0.389648 0.085937,-0.166992 0.2431641,-0.25293 0.1582031,-0.08691 0.3476562,-0.08691 0.2148438,0 0.3613281,0.109375 0.1464844,0.109375 0.2041016,0.307617 l -0.1865234,0.04395 q -0.049805,-0.15625 -0.1445313,-0.227539 -0.094726,-0.07129 -0.2382812,-0.07129 -0.1650391,0 -0.2763672,0.0791 -0.1103516,0.0791 -0.1552735,0.212891 -0.044922,0.132812 -0.044922,0.274414 0,0.182617 0.052734,0.319336 0.053711,0.135742 0.1660157,0.203125 0.1123047,0.06738 0.243164,0.06738 0.1591797,0 0.2695313,-0.0918 0.1103515,-0.0918 0.149414,-0.272461 z M 7.6259766,89 V 88.799805 H 7.8261719 V 89 Z m 0.5341797,0 V 87.568359 H 8.3496094 V 88.15625 H 9.09375 V 87.568359 H 9.2832031 V 89 H 9.09375 V 88.325195 H 8.3496094 V 89 Z m 1.28125,0 0.5498046,-1.431641 H 10.195313 L 10.78125,89 H 10.56543 L 10.398438,88.566406 H 9.7998047 L 9.6425781,89 Z M 9.8544922,88.412109 H 10.339844 L 10.19043,88.015625 q -0.06836,-0.180664 -0.101563,-0.296875 -0.02734,0.137695 -0.07715,0.273437 z M 11.148438,89 v -1.262695 h -0.47168 v -0.168946 h 1.134765 v 0.168946 H 11.337891 V 89 Z"
     id="text11"
     style="font-size:2px;font-family:Arial, sans-serif;fill:#44ff44"
     aria-label="C.HAT" />
  <path
     d="m 6.0966797,103.30273 q 0,-0.35644 0.1914062,-0.55761 0.1914063,-0.20215 0.4941407,-0.20215 0.1982421,0 0.3574218,0.0947 0.1591797,0.0947 0.2421875,0.26464 0.083984,0.16895 0.083984,0.38379 0,0.21778 -0.087891,0.38965 -0.087891,0.17188 -0.2490235,0.26074 -0.1611328,0.0879 -0.3476562,0.0879 -0.2021484,0 -0.3613281,-0.0977 -0.1591797,-0.0977 -0.241211,-0.2666 -0.082031,-0.16895 -0.082031,-0.35743 z m 0.1953125,0.003 q 0,0.25879 0.1386719,0.40821 0.1396484,0.14843 0.3496093,0.14843 0.2138672,0 0.3515625,-0.15039 0.1386719,-0.15039 0.1386719,-0.42675 0,-0.17481 -0.05957,-0.30469 -0.058594,-0.13086 -0.1728516,-0.20215 -0.1132812,-0.0723 -0.2548828,-0.0723 -0.2011719,0 -0.3466797,0.13868 -0.1445312,0.13769 -0.1445312,0.46093 z M 7.7373047,104 v -0.2002 H 7.9375 V 104 Z m 0.5341797,0 v -1.43164 h 0.1894531 v 0.58789 h 0.7441406 v -0.58789 H 9.3945313 V 104 H 9.2050781 v -0.6748 H 8.4609375 V 104 Z m 1.28125,0 0.5498046,-1.43164 h 0.204102 L 10.892578,104 h -0.21582 l -0.166992,-0.43359 H 9.9111328 L 9.7539063,104 Z m 0.4130859,-0.58789 h 0.4853517 l -0.149414,-0.39648 q -0.06836,-0.18067 -0.101563,-0.29688 -0.02734,0.1377 -0.07715,0.27344 z M 11.259766,104 v -1.2627 h -0.47168 v -0.16894 h 1.134766 v 0.16894 H 11.449219 V 104 Z"
     id="text12"
     style="font-size:2px;font-family:Arial, sans-serif;fill:#4488ff"
     aria-label="O.HAT" />
  <!-- Horizontal dividers -->
  <line
     x1="5"
     y1="21"
     x2="76"
     y2="21"
     stroke="#333"
     stroke-width="0.3"
     id="line12" />
  <line
     x1="5"
     y1="36"
     x2="76"
     y2="36"
     stroke="#333"
     stroke-width="0.3"
     id="line13" />
  <line
     x1="5"
     y1="51"
     x2="76"
     y2="51"
     stroke="#333"
     stroke-width="0.3"
     id="line14" />
  <line
     x1="5"
     y1="66"
     x2="76"
     y2="66"
     stroke="#333"
     stroke-width="0.3"
     id="line15" />
  <line
     x1="5"
     y1="81"
     x2="76"
     y2="81"
     stroke="#333"
     stroke-width="0.3"
     id="line16" />
  <line
     x1="5"
     y1="96"
     x2="76"
     y2="96"
     stroke="#333"
     stroke-width="0.3"
     id="line17" />
  <line
     x1="5"
     y1="111"
     x2="76"
     y2="111"
     stroke="#333"
     stroke-width="0.3"
     id="line18" />
  <!-- Main output section -->
  <path
     d="m 35.899765,114 v -1.43164 h 0.285156 l 0.338867,1.01367 q 0.04687,0.1416 0.06836,0.21192 0.02441,-0.0781 0.07617,-0.2295 l 0.342773,-0.99609 h 0.254883 V 114 h -0.182617 v -1.19824 L 36.667343,114 h -0.170898 l -0.414063,-1.21875 V 114 Z m 1.514648,0 0.549805,-1.43164 H 38.16832 L 38.754257,114 h -0.21582 l -0.166992,-0.43359 H 37.772812 L 37.615585,114 Z m 0.413086,-0.58789 h 0.485352 l -0.149414,-0.39648 q -0.06836,-0.18067 -0.101563,-0.29688 -0.02734,0.1377 -0.07715,0.27344 z M 38.937851,114 v -1.43164 h 0.189453 V 114 Z m 0.521484,0 v -1.43164 h 0.194336 l 0.751953,1.12402 v -1.12402 h 0.181641 V 114 h -0.194336 l -0.751953,-1.125 V 114 Z m 1.944336,-0.69727 q 0,-0.35644 0.191407,-0.55761 0.191406,-0.20215 0.49414,-0.20215 0.198242,0 0.357422,0.0947 0.15918,0.0947 0.242188,0.26464 0.08398,0.16895 0.08398,0.38379 0,0.21778 -0.08789,0.38965 -0.08789,0.17188 -0.249023,0.26074 -0.161133,0.0879 -0.347656,0.0879 -0.202149,0 -0.361329,-0.0977 -0.159179,-0.0977 -0.24121,-0.2666 -0.08203,-0.16895 -0.08203,-0.35743 z m 0.195313,0.003 q 0,0.25879 0.138672,0.40821 0.139648,0.14843 0.349609,0.14843 0.213867,0 0.351563,-0.15039 0.138671,-0.15039 0.138671,-0.42675 0,-0.17481 -0.05957,-0.30469 -0.05859,-0.13086 -0.172851,-0.20215 -0.113282,-0.0723 -0.254883,-0.0723 -0.201172,0 -0.34668,0.13868 -0.144531,0.13769 -0.144531,0.46093 z m 2.357422,-0.7373 h 0.189453 v 0.82715 q 0,0.21582 -0.04883,0.34277 -0.04883,0.12695 -0.176758,0.20703 -0.126953,0.0791 -0.333985,0.0791 -0.201171,0 -0.329101,-0.0693 -0.12793,-0.0693 -0.182617,-0.2002 -0.05469,-0.13183 -0.05469,-0.35937 v -0.82715 h 0.189453 v 0.82617 q 0,0.18652 0.03418,0.27539 0.03516,0.0879 0.119141,0.13574 0.08496,0.0479 0.207031,0.0479 0.208984,0 0.297851,-0.0947 0.08887,-0.0947 0.08887,-0.36426 z M 44.825546,114 v -1.2627 h -0.471679 v -0.16894 h 1.134765 v 0.16894 H 45.014999 V 114 Z"
     id="text18"
     style="font-size:2px;font-family:Arial, sans-serif;text-anchor:middle;fill:#ffffff"
     aria-label="MAIN OUT" />
  <path
     d="m 29.631299,124 v -1.28848 h 0.170508 v 1.13643 h 0.63457 V 124 Z"
     id="text19"
     style="font-size:1.8px;font-family:Arial, sans-serif;text-anchor:middle;fill:#888888"
     aria-label="L" />
  <path
     d="m 49.491553,124 v -1.28848 h 0.571289 q 0.172265,0 0.261914,0.0352 0.08965,0.0343 0.143262,0.12217 0.05361,0.0879 0.05361,0.19424 0,0.13711 -0.08877,0.23115 -0.08877,0.094 -0.274218,0.11953 0.06768,0.0325 0.102832,0.0642 0.07471,0.0686 0.141504,0.17139 L 50.6271,124 h -0.214454 l -0.170507,-0.26807 q -0.07471,-0.11601 -0.123047,-0.17754 -0.04834,-0.0615 -0.08701,-0.0861 -0.03779,-0.0246 -0.07734,-0.0343 -0.029,-0.006 -0.09492,-0.006 H 49.662061 V 124 Z m 0.170508,-0.71982 h 0.366503 q 0.116895,0 0.182813,-0.0237 0.06592,-0.0246 0.100195,-0.0773 0.03428,-0.0536 0.03428,-0.11601 0,-0.0914 -0.0668,-0.1503 -0.06592,-0.0589 -0.20918,-0.0589 h -0.407812 z"
     id="text20"
     style="font-size:1.8px;font-family:Arial, sans-serif;text-anchor:middle;fill:#888888"
     aria-label="R" />
  <!-- Brand -->
  <path
     d="m 61.116455,125.57886 v -0.12598 l 0.454834,-7.3e-4 v 0.39844 q -0.104736,0.0835 -0.216064,0.12597 -0.111329,0.0417 -0.228516,0.0417 -0.158203,0 -0.287842,-0.0674 -0.128906,-0.0681 -0.194824,-0.19629 -0.06592,-0.12818 -0.06592,-0.28638 0,-0.15674 0.06519,-0.29223 0.06592,-0.13624 0.188964,-0.20215 0.123047,-0.0659 0.283448,-0.0659 0.116455,0 0.210205,0.0381 0.09448,0.0374 0.147949,0.10474 0.05347,0.0674 0.0813,0.17578 l -0.128174,0.0352 q -0.02417,-0.082 -0.06006,-0.12891 -0.03589,-0.0469 -0.102539,-0.0747 -0.06665,-0.0286 -0.147949,-0.0286 -0.09741,0 -0.168457,0.03 -0.07104,0.0293 -0.11499,0.0776 -0.04321,0.0483 -0.06738,0.1062 -0.04102,0.0996 -0.04102,0.21606 0,0.14356 0.04907,0.24024 0.0498,0.0967 0.144287,0.14355 0.09448,0.0469 0.200683,0.0469 0.09229,0 0.180176,-0.0352 0.08789,-0.0359 0.133301,-0.0762 v -0.19995 z M 61.774902,126 v -1.07373 h 0.14209 v 0.94702 h 0.528809 V 126 Z m 0.864258,0 v -1.07373 h 0.14209 V 126 Z m 0.283447,0 0.415284,-0.55957 -0.366211,-0.51416 h 0.169189 l 0.194824,0.27539 q 0.06079,0.0857 0.08643,0.13184 0.03589,-0.0586 0.08496,-0.12232 l 0.216065,-0.28491 h 0.154541 l -0.377198,0.5061 L 63.906982,126 h -0.175781 l -0.270264,-0.38306 q -0.02271,-0.033 -0.04687,-0.0718 -0.03589,0.0586 -0.05127,0.0806 L 63.093262,126 Z m 1.478028,-0.34497 0.134033,-0.0117 q 0.0095,0.0806 0.04395,0.13257 0.03516,0.0513 0.108399,0.0835 0.07324,0.0315 0.164795,0.0315 0.0813,0 0.143554,-0.0242 0.06226,-0.0242 0.09229,-0.0659 0.03076,-0.0425 0.03076,-0.0923 0,-0.0505 -0.0293,-0.0879 -0.0293,-0.0381 -0.09668,-0.0637 -0.04321,-0.0168 -0.191162,-0.052 -0.14795,-0.0359 -0.207276,-0.0674 -0.0769,-0.0403 -0.11499,-0.0996 -0.03735,-0.0601 -0.03735,-0.13403 0,-0.0813 0.04614,-0.15161 0.04614,-0.071 0.134766,-0.10767 0.08862,-0.0366 0.197021,-0.0366 0.119385,0 0.210205,0.0388 0.09155,0.0381 0.140625,0.11279 0.04907,0.0747 0.05273,0.16919 l -0.136231,0.0102 q -0.01099,-0.1018 -0.07471,-0.1538 -0.06299,-0.052 -0.186768,-0.052 -0.128906,0 -0.188232,0.0476 -0.05859,0.0469 -0.05859,0.11353 0,0.0579 0.04175,0.0952 0.04102,0.0373 0.213868,0.0769 0.173583,0.0388 0.238037,0.0681 0.09375,0.0432 0.138427,0.10986 0.04468,0.0659 0.04468,0.15235 0,0.0857 -0.04907,0.16186 -0.04907,0.0754 -0.141358,0.11792 -0.09155,0.0417 -0.206543,0.0417 -0.145752,0 -0.244628,-0.0425 -0.09815,-0.0425 -0.154541,-0.12744 -0.05566,-0.0857 -0.05859,-0.19336 z M 65.722656,126 v -0.94702 h -0.35376 v -0.12671 h 0.851075 v 0.12671 H 65.864746 V 126 Z m 1.347656,-1.07373 h 0.14209 v 0.62036 q 0,0.16187 -0.03662,0.25708 -0.03662,0.0952 -0.132568,0.15527 -0.09521,0.0593 -0.250488,0.0593 -0.150879,0 -0.246827,-0.052 -0.09595,-0.052 -0.136962,-0.15015 -0.04102,-0.0989 -0.04102,-0.26953 v -0.62036 h 0.14209 v 0.61963 q 0,0.13989 0.02564,0.20654 0.02637,0.0659 0.08935,0.10181 0.06372,0.0359 0.155273,0.0359 0.156739,0 0.223389,-0.071 0.06665,-0.071 0.06665,-0.27319 z M 67.448975,126 v -1.07373 h 0.369873 q 0.125244,0 0.191162,0.0154 0.09229,0.0212 0.15747,0.0769 0.08496,0.0718 0.126709,0.18384 0.04248,0.11133 0.04248,0.25489 0,0.12231 -0.02857,0.21679 -0.02856,0.0945 -0.07324,0.15674 -0.04468,0.0615 -0.09814,0.0974 -0.05273,0.0352 -0.128174,0.0535 Q 67.933838,126 67.836426,126 Z m 0.142089,-0.12671 h 0.229248 q 0.106202,0 0.16626,-0.0198 0.06079,-0.0198 0.09668,-0.0557 0.05054,-0.0505 0.07837,-0.1355 0.02857,-0.0857 0.02857,-0.20727 0,-0.16846 -0.05566,-0.25855 -0.05493,-0.0908 -0.134033,-0.12158 -0.05713,-0.022 -0.183838,-0.022 H 67.591064 Z M 68.556396,126 v -1.07373 h 0.14209 V 126 Z m 0.349366,-0.52295 q 0,-0.26733 0.143554,-0.41821 0.143555,-0.15161 0.370606,-0.15161 0.148682,0 0.268066,0.071 0.119385,0.071 0.181641,0.19849 0.06299,0.12671 0.06299,0.28784 0,0.16333 -0.06592,0.29224 -0.06592,0.1289 -0.186767,0.19555 -0.12085,0.0659 -0.260743,0.0659 -0.151611,0 -0.270996,-0.0732 -0.119384,-0.0732 -0.180908,-0.19995 -0.06152,-0.12671 -0.06152,-0.26807 z m 0.146484,0.002 q 0,0.19409 0.104004,0.30615 0.104736,0.11133 0.262207,0.11133 0.1604,0 0.263672,-0.11279 0.104004,-0.1128 0.104004,-0.32007 0,-0.13111 -0.04468,-0.22852 -0.04395,-0.0981 -0.129639,-0.15161 -0.08496,-0.0542 -0.191162,-0.0542 -0.150879,0 -0.260009,0.104 -0.108399,0.10328 -0.108399,0.34571 z"
     id="text21"
     style="font-size:1.5px;font-family:Arial, sans-serif;text-anchor:end;fill:#444444"
     aria-label="VCVRack Freedom" />
</svg>
