<?xml version="1.0" encoding="UTF-8" standalone="no"?>
<svg
   width="50.8mm"
   height="128.5mm"
   viewBox="0 0 50.8 128.5"
   version="1.1"
   id="svg22"
   sodipodi:docname="Scatter.svg"
   xmlns:inkscape="http://www.inkscape.org/namespaces/inkscape"
   xmlns:sodipodi="http://sodipodi.sourceforge.net/DTD/sodipodi-0.dtd"
   xmlns="http://www.w3.org/2000/svg"
   xmlns:svg="http://www.w3.org/2000/svg">
  <defs
     id="defs22" />
  <sodipodi:namedview
     id="namedview22"
     pagecolor="#ffffff"
     bordercolor="#000000"
     borderopacity="0.25"
     inkscape:showpageshadow="2"
     inkscape:pageopacity="0.0"
     inkscape:pagecheckerboard="0"
     inkscape:deskcolor="#d1d1d1"
     inkscape:document-units="mm" />
  <!-- Background -->
  <rect
     width="50.8"
     height="128.5"
     fill="#2a3030"
     id="rect1" />
  <!-- Panel border -->
  <rect
     x="0.5"
     y="0.5"
     width="49.8"
     height="127.5"
     fill="none"
     stroke="#446666"
     stroke-width="0.3"
     id="rect2" />
  <!-- Title -->
  <path
     d="m 13.960791,7.8354492 0.703125,-0.068359 q 0.06348,0.354004 0.256347,0.5200196 0.195313,0.1660156 0.524903,0.1660156 0.349121,0 0.524902,-0.1464844 0.178223,-0.1489258 0.178223,-0.3466797 0,-0.1269531 -0.07568,-0.2148437 -0.07324,-0.090332 -0.258789,-0.15625 -0.126953,-0.043945 -0.578613,-0.15625 -0.581055,-0.144043 -0.81543,-0.3540039 -0.32959,-0.2954102 -0.32959,-0.7202149 0,-0.2734375 0.153809,-0.5102539 0.15625,-0.2392578 0.446777,-0.3637695 0.292969,-0.1245117 0.705567,-0.1245117 0.673828,0 1.013183,0.2954101 0.341797,0.2954102 0.358887,0.7885743 l -0.722656,0.031738 Q 15.999365,6.199707 15.845556,6.0800781 15.694189,5.9580078 15.389013,5.9580078 q -0.314941,0 -0.493164,0.1293945 -0.114746,0.083008 -0.114746,0.222168 0,0.1269531 0.107422,0.2172852 0.136719,0.1147461 0.664063,0.2392578 0.527343,0.1245117 0.778808,0.258789 0.253906,0.131836 0.395508,0.3637696 0.144043,0.2294922 0.144043,0.5688476 0,0.3076172 -0.170899,0.5761719 -0.170898,0.2685547 -0.483398,0.4003906 -0.3125,0.1293946 -0.778809,0.1293946 -0.678711,0 -1.04248,-0.3125 -0.36377,-0.3149414 -0.43457,-0.9155274 z M 19.768896,7.684082 20.46958,7.90625 q -0.161133,0.5859375 -0.53711,0.871582 -0.373535,0.2832032 -0.949707,0.2832032 -0.71289,0 -1.171875,-0.4858399 -0.458984,-0.4882812 -0.458984,-1.3330078 0,-0.8935547 0.461426,-1.3867188 0.461425,-0.4956054 1.213379,-0.4956054 0.656738,0 1.066894,0.3881836 0.244141,0.2294922 0.366211,0.6591797 L 19.744482,6.578125 Q 19.681005,6.2998047 19.478369,6.1386719 19.278173,5.9775391 18.990088,5.9775391 q -0.39795,0 -0.646973,0.2856445 -0.246582,0.2856445 -0.246582,0.925293 0,0.6787109 0.24414,0.9667968 0.244141,0.288086 0.634766,0.288086 0.288086,0 0.495606,-0.1831055 0.207519,-0.1831055 0.297851,-0.5761719 z M 24.317236,9 h -0.786133 l -0.3125,-0.8129883 H 21.787939 L 21.492529,9 H 20.725927 L 22.11997,5.4208984 h 0.76416 z M 22.98667,7.5839844 22.493505,6.2558594 22.010107,7.5839844 Z M 25.135107,9 V 6.0263672 H 24.073095 V 5.4208984 h 2.844239 V 6.0263672 H 25.857763 V 9 Z m 3.054199,0 V 6.0263672 H 27.127295 V 5.4208984 h 2.844238 v 0.6054688 h -1.05957 V 9 Z m 2.248535,0 V 5.4208984 h 2.653809 v 0.6054688 h -1.931152 v 0.793457 h 1.796875 v 0.6030274 h -1.796875 v 0.9741211 h 1.999511 V 9 Z m 3.337403,0 V 5.4208984 h 1.520996 q 0.57373,0 0.832519,0.097656 0.261231,0.095215 0.417481,0.3417969 0.15625,0.246582 0.15625,0.5639648 0,0.402832 -0.236817,0.6665039 -0.236816,0.2612305 -0.708007,0.3295899 0.234375,0.1367187 0.385742,0.3002929 0.153808,0.1635742 0.412597,0.5810547 L 36.993017,9 H 36.128759 L 35.606298,8.2211914 Q 35.327978,7.8037109 35.225439,7.6962891 35.1229,7.5864258 35.008154,7.5473633 34.893408,7.5058594 34.644384,7.5058594 H 34.4979 V 9 Z M 34.4979,6.9345703 h 0.534668 q 0.52002,0 0.649414,-0.043945 0.129395,-0.043945 0.202637,-0.1513672 0.07324,-0.1074219 0.07324,-0.2685547 0,-0.180664 -0.09766,-0.2905273 -0.09522,-0.1123047 -0.270996,-0.1416016 -0.08789,-0.012207 -0.527344,-0.012207 H 34.4979 Z"
     id="text2"
     style="font-weight:bold;font-size:5px;font-family:Arial, sans-serif;text-anchor:middle;fill:#66ccaa"
     aria-label="SCATTER" />
  <path
     d="m 19.162207,15.085938 0.170898,0.02539 q 0.01074,0.0791 0.05957,0.115235 0.06543,0.04883 0.178711,0.04883 0.122071,0 0.188477,-0.04883 0.06641,-0.04883 0.08984,-0.136719 0.01367,-0.05371 0.0127,-0.225586 Q 19.747168,15 19.575293,15 19.361425,15 19.244238,14.845703 19.12705,14.691406 19.12705,14.475586 q 0,-0.148438 0.05371,-0.273438 0.05371,-0.125976 0.155274,-0.194335 0.102539,-0.06836 0.240234,-0.06836 0.183594,0 0.302735,0.148438 v -0.125 h 0.162109 v 0.896484 q 0,0.242188 -0.0498,0.342773 -0.04883,0.101563 -0.15625,0.160157 -0.106445,0.05859 -0.262695,0.05859 -0.185547,0 -0.299805,-0.08398 -0.114258,-0.08301 -0.110351,-0.250976 z m 0.145507,-0.623047 q 0,0.204101 0.08105,0.297851 0.08105,0.09375 0.203125,0.09375 0.121094,0 0.203125,-0.09277 0.08203,-0.09375 0.08203,-0.292969 0,-0.19043 -0.08496,-0.287109 -0.08398,-0.09668 -0.203125,-0.09668 -0.117187,0 -0.199218,0.0957 -0.08203,0.09473 -0.08203,0.282227 z M 20.304785,15 v -1.037109 h 0.158203 v 0.157226 q 0.06055,-0.110351 0.111328,-0.145508 0.05176,-0.03516 0.113281,-0.03516 0.08887,0 0.180664,0.05664 l -0.06055,0.163086 q -0.06445,-0.03809 -0.128906,-0.03809 -0.05762,0 -0.103515,0.03516 -0.0459,0.03418 -0.06543,0.0957 -0.0293,0.09375 -0.0293,0.205078 V 15 Z m 1.344726,-0.12793 q -0.09766,0.08301 -0.188476,0.117188 -0.08984,0.03418 -0.19336,0.03418 -0.170898,0 -0.262695,-0.08301 -0.0918,-0.08398 -0.0918,-0.213867 0,-0.07617 0.03418,-0.138672 0.03516,-0.06348 0.09082,-0.101563 0.05664,-0.03809 0.126953,-0.05762 0.05176,-0.01367 0.15625,-0.02637 0.212891,-0.02539 0.313477,-0.06055 9.76e-4,-0.03613 9.76e-4,-0.0459 0,-0.107421 -0.0498,-0.151367 -0.06738,-0.05957 -0.200196,-0.05957 -0.124023,0 -0.183593,0.04395 -0.05859,0.04297 -0.08691,0.153321 l -0.171875,-0.02344 q 0.02344,-0.110351 0.07715,-0.177734 0.05371,-0.06836 0.155274,-0.104492 0.101562,-0.03711 0.235351,-0.03711 0.132813,0 0.21582,0.03125 0.08301,0.03125 0.122071,0.0791 0.03906,0.04687 0.05469,0.11914 0.0088,0.04492 0.0088,0.16211 v 0.234375 q 0,0.245117 0.01074,0.310547 0.01172,0.06445 0.04492,0.124023 h -0.183593 q -0.02734,-0.05469 -0.03516,-0.12793 z m -0.01465,-0.392578 q -0.0957,0.03906 -0.287109,0.06641 -0.108399,0.01563 -0.153321,0.03516 -0.04492,0.01953 -0.06934,0.05762 -0.02441,0.03711 -0.02441,0.08301 0,0.07031 0.05273,0.117187 0.05371,0.04687 0.15625,0.04687 0.101562,0 0.180664,-0.04395 0.0791,-0.04492 0.116211,-0.12207 0.02832,-0.05957 0.02832,-0.175782 z M 22.085058,15 v -1.037109 h 0.158203 v 0.147461 q 0.114258,-0.170899 0.330078,-0.170899 0.09375,0 0.171875,0.03418 0.0791,0.0332 0.118165,0.08789 0.03906,0.05469 0.05469,0.129883 0.0098,0.04883 0.0098,0.170899 V 15 H 22.75205 v -0.630859 q 0,-0.107422 -0.02051,-0.160157 -0.02051,-0.05371 -0.07324,-0.08496 -0.05176,-0.03223 -0.12207,-0.03223 -0.112305,0 -0.194336,0.07129 -0.08105,0.07129 -0.08105,0.270508 V 15 Z m 1.791992,0 v -0.152344 q -0.121093,0.175782 -0.329101,0.175782 -0.0918,0 -0.171875,-0.03516 -0.0791,-0.03516 -0.118164,-0.08789 -0.03809,-0.05371 -0.05371,-0.13086 -0.01074,-0.05176 -0.01074,-0.164062 v -0.642578 h 0.175781 v 0.575195 q 0,0.137695 0.01074,0.185547 0.0166,0.06934 0.07031,0.109375 0.05371,0.03906 0.132812,0.03906 0.0791,0 0.148438,-0.04004 0.06934,-0.04101 0.09766,-0.110351 0.0293,-0.07031 0.0293,-0.203125 v -0.555664 h 0.175781 V 15 Z m 0.428711,0 v -1.431641 h 0.175782 V 15 Z m 1.125,-0.12793 q -0.09766,0.08301 -0.188476,0.117188 -0.08984,0.03418 -0.19336,0.03418 -0.170898,0 -0.262695,-0.08301 -0.0918,-0.08398 -0.0918,-0.213867 0,-0.07617 0.03418,-0.138672 0.03516,-0.06348 0.09082,-0.101563 0.05664,-0.03809 0.126953,-0.05762 0.05176,-0.01367 0.15625,-0.02637 0.212891,-0.02539 0.313477,-0.06055 9.76e-4,-0.03613 9.76e-4,-0.0459 0,-0.107421 -0.0498,-0.151367 -0.06738,-0.05957 -0.200196,-0.05957 -0.124023,0 -0.183593,0.04395 -0.05859,0.04297 -0.08691,0.153321 l -0.171875,-0.02344 q 0.02344,-0.110351 0.07715,-0.177734 0.05371,-0.06836 0.155274,-0.104492 0.101562,-0.03711 0.235351,-0.03711 0.132813,0 0.21582,0.03125 0.08301,0.03125 0.122071,0.0791 0.03906,0.04687 0.05469,0.11914 0.0088,0.04492 0.0088,0.16211 v 0.234375 q 0,0.245117 0.01074,0.310547 0.01172,0.06445 0.04492,0.124023 h -0.183593 q -0.02734,-0.05469 -0.03516,-0.12793 z m -0.01465,-0.392578 q -0.0957,0.03906 -0.287109,0.06641 -0.108399,0.01563 -0.153321,0.03516 -0.04492,0.01953 -0.06934,0.05762 -0.02441,0.03711 -0.02441,0.08301 0,0.07031 0.05273,0.117187 0.05371,0.04687 0.15625,0.04687 0.101562,0 0.180664,-0.04395 0.0791,-0.04492 0.116211,-0.12207 0.02832,-0.05957 0.02832,-0.175782 z M 25.864355,15 v -1.037109 h 0.158203 v 0.157226 q 0.06055,-0.110351 0.111328,-0.145508 0.05176,-0.03516 0.113282,-0.03516 0.08887,0 0.180664,0.05664 l -0.06055,0.163086 q -0.06445,-0.03809 -0.128906,-0.03809 -0.05762,0 -0.103516,0.03516 -0.0459,0.03418 -0.06543,0.0957 -0.0293,0.09375 -0.0293,0.205078 V 15 Z m 1.896484,0 v -0.130859 q -0.09863,0.154297 -0.290039,0.154297 -0.124023,0 -0.228515,-0.06836 -0.103516,-0.06836 -0.161133,-0.19043 -0.05664,-0.123046 -0.05664,-0.282226 0,-0.155274 0.05176,-0.28125 0.05176,-0.126953 0.155274,-0.194336 0.103515,-0.06738 0.231445,-0.06738 0.09375,0 0.166992,0.04004 0.07324,0.03906 0.119141,0.102539 v -0.513672 h 0.174804 V 15 Z m -0.555664,-0.517578 q 0,0.199219 0.08398,0.297851 0.08398,0.09863 0.198242,0.09863 0.115234,0 0.195312,-0.09375 0.08105,-0.09473 0.08105,-0.288086 0,-0.21289 -0.08203,-0.3125 -0.08203,-0.09961 -0.202149,-0.09961 -0.117187,0 -0.196289,0.0957 -0.07813,0.0957 -0.07813,0.301758 z m 1.705079,0.183594 0.18164,0.02246 q -0.04297,0.159179 -0.15918,0.24707 -0.11621,0.08789 -0.296875,0.08789 -0.227539,0 -0.361328,-0.139649 -0.132812,-0.140625 -0.132812,-0.393555 0,-0.261718 0.134765,-0.40625 0.134766,-0.144531 0.34961,-0.144531 0.208008,0 0.339844,0.141602 0.131836,0.141601 0.131836,0.398437 0,0.01563 -9.77e-4,0.04687 h -0.773438 q 0.0098,0.170899 0.09668,0.261719 0.08691,0.09082 0.216797,0.09082 0.09668,0 0.165039,-0.05078 0.06836,-0.05078 0.108399,-0.162109 z m -0.577149,-0.28418 h 0.579102 q -0.01172,-0.130859 -0.06641,-0.196289 -0.08398,-0.101563 -0.217773,-0.101563 -0.121094,0 -0.204102,0.08106 -0.08203,0.08105 -0.09082,0.216797 z M 29.308691,15 v -1.431641 h 0.175781 V 15 Z m 1.125,-0.12793 q -0.09766,0.08301 -0.188477,0.117188 -0.08984,0.03418 -0.193359,0.03418 -0.170898,0 -0.262695,-0.08301 -0.0918,-0.08398 -0.0918,-0.213867 0,-0.07617 0.03418,-0.138672 0.03516,-0.06348 0.09082,-0.101563 0.05664,-0.03809 0.126953,-0.05762 0.05176,-0.01367 0.15625,-0.02637 0.212891,-0.02539 0.313477,-0.06055 9.76e-4,-0.03613 9.76e-4,-0.0459 0,-0.107421 -0.0498,-0.151367 -0.06738,-0.05957 -0.200195,-0.05957 -0.124023,0 -0.183594,0.04395 -0.05859,0.04297 -0.08691,0.153321 l -0.171875,-0.02344 q 0.02344,-0.110351 0.07715,-0.177734 0.05371,-0.06836 0.155273,-0.104492 0.101563,-0.03711 0.235352,-0.03711 0.132812,0 0.21582,0.03125 0.08301,0.03125 0.12207,0.0791 0.03906,0.04687 0.05469,0.11914 0.0088,0.04492 0.0088,0.16211 v 0.234375 q 0,0.245117 0.01074,0.310547 0.01172,0.06445 0.04492,0.124023 h -0.183594 q -0.02734,-0.05469 -0.03516,-0.12793 z m -0.01465,-0.392578 q -0.0957,0.03906 -0.28711,0.06641 -0.108398,0.01563 -0.15332,0.03516 -0.04492,0.01953 -0.06934,0.05762 -0.02441,0.03711 -0.02441,0.08301 0,0.07031 0.05273,0.117187 0.05371,0.04687 0.15625,0.04687 0.101563,0 0.180664,-0.04395 0.0791,-0.04492 0.116211,-0.12207 0.02832,-0.05957 0.02832,-0.175782 z m 0.442382,0.919922 -0.01953,-0.165039 q 0.05762,0.01563 0.100586,0.01563 0.05859,0 0.09375,-0.01953 0.03516,-0.01953 0.05762,-0.05469 0.0166,-0.02637 0.05371,-0.130859 0.0049,-0.01465 0.01563,-0.04297 l -0.393554,-1.039062 h 0.189453 l 0.21582,0.600586 q 0.04199,0.114257 0.0752,0.240234 0.03027,-0.121094 0.07227,-0.236328 l 0.22168,-0.604492 h 0.175781 l -0.394531,1.054687 q -0.06348,0.170899 -0.09863,0.235352 -0.04687,0.08691 -0.107422,0.126953 -0.06055,0.04101 -0.144531,0.04101 -0.05078,0 -0.113282,-0.02148 z"
     id="text3"
     style="font-size:2px;font-family:Arial, sans-serif;text-anchor:middle;fill:#669988"
     aria-label="granular delay" />
  <!-- Parameter labels -->
  <path
     d="m 9.6492186,20 v -1.431641 h 0.4931644 q 0.166992,0 0.254882,0.02051 0.123047,0.02832 0.209961,0.102539 0.113282,0.0957 0.168946,0.245117 0.05664,0.148438 0.05664,0.339844 0,0.163086 -0.03809,0.289063 -0.03809,0.125976 -0.09766,0.208984 -0.05957,0.08203 -0.130859,0.129883 -0.07031,0.04687 -0.170899,0.07129 Q 10.295703,20 10.16582,20 Z m 0.1894531,-0.168945 h 0.3056643 q 0.141601,0 0.221679,-0.02637 0.08105,-0.02637 0.128907,-0.07422 0.06738,-0.06738 0.104492,-0.180664 0.03809,-0.114258 0.03809,-0.276368 0,-0.224609 -0.07422,-0.344726 -0.07324,-0.121094 -0.178711,-0.162109 -0.07617,-0.0293 -0.245117,-0.0293 H 9.8386717 Z M 11.097461,20 v -1.431641 h 1.035156 v 0.168946 h -0.845703 v 0.438476 h 0.791992 v 0.167969 h -0.791992 v 0.487305 H 12.16582 V 20 Z m 1.322265,0 v -1.431641 h 0.189453 v 1.262696 h 0.705079 V 20 Z m 0.962891,0 0.549805,-1.431641 h 0.204101 L 14.722461,20 H 14.50664 L 14.339648,19.566406 H 13.741015 L 13.583789,20 Z m 0.413086,-0.587891 h 0.485351 L 14.13164,19.015625 q -0.06836,-0.180664 -0.101562,-0.296875 -0.02734,0.137695 -0.07715,0.273437 z M 15.128711,20 v -0.606445 l -0.551758,-0.825196 h 0.230469 L 15.089648,19 q 0.07813,0.121094 0.145508,0.242187 0.06445,-0.112304 0.15625,-0.252929 l 0.277344,-0.420899 h 0.220703 l -0.571289,0.825196 V 20 Z"
     id="text4"
     style="font-size:2px;font-family:Arial, sans-serif;text-anchor:middle;fill:#aaaaaa"
     aria-label="DELAY" />
  <path
     d="m 35.967186,19.540039 0.178711,-0.01563 q 0.0127,0.107422 0.05859,0.176758 0.04687,0.06836 0.144531,0.111328 0.09766,0.04199 0.219726,0.04199 0.108399,0 0.191407,-0.03223 0.08301,-0.03223 0.123047,-0.08789 0.04102,-0.05664 0.04102,-0.123047 0,-0.06738 -0.03906,-0.117187 -0.03906,-0.05078 -0.128907,-0.08496 -0.05762,-0.02246 -0.254882,-0.06934 -0.197266,-0.04785 -0.276368,-0.08984 -0.102539,-0.05371 -0.15332,-0.132813 -0.0498,-0.08008 -0.0498,-0.17871 0,-0.108399 0.06152,-0.202149 0.06152,-0.09473 0.179687,-0.143555 0.118164,-0.04883 0.262696,-0.04883 0.159179,0 0.280273,0.05176 0.12207,0.05078 0.1875,0.150391 0.06543,0.09961 0.07031,0.225586 l -0.181641,0.01367 q -0.01465,-0.135743 -0.09961,-0.205079 -0.08398,-0.06934 -0.249024,-0.06934 -0.171875,0 -0.250976,0.06348 -0.07813,0.0625 -0.07813,0.151367 0,0.07715 0.05566,0.126953 0.05469,0.0498 0.285156,0.102539 0.231445,0.05176 0.317383,0.09082 0.125,0.05762 0.18457,0.146484 0.05957,0.08789 0.05957,0.203125 0,0.114258 -0.06543,0.21582 -0.06543,0.100586 -0.188477,0.157227 -0.12207,0.05566 -0.27539,0.05566 -0.194336,0 -0.326172,-0.05664 -0.13086,-0.05664 -0.206055,-0.169921 -0.07422,-0.114258 -0.07813,-0.257813 z M 37.39785,20 v -1.431641 h 0.189453 V 20 Z m 0.40918,0 v -0.175781 l 0.733398,-0.916992 q 0.07813,-0.09766 0.148438,-0.169922 h -0.798828 v -0.168946 h 1.02539 v 0.168946 l -0.803711,0.993164 -0.08691,0.100586 h 0.914063 V 20 Z m 1.339843,0 v -1.431641 h 1.035157 v 0.168946 h -0.845703 v 0.438476 h 0.791992 v 0.167969 h -0.791992 v 0.487305 h 0.878906 V 20 Z"
     id="text5"
     style="font-size:2px;font-family:Arial, sans-serif;text-anchor:middle;fill:#aaaaaa"
     aria-label="SIZE" />
  <path
     d="m 10.075976,38 v -1.431641 h 0.493164 q 0.166993,0 0.254883,0.02051 0.123047,0.02832 0.209961,0.102539 0.113281,0.0957 0.168945,0.245117 0.05664,0.148438 0.05664,0.339844 0,0.163086 -0.03809,0.289063 -0.03809,0.125976 -0.09766,0.208984 -0.05957,0.08203 -0.130859,0.129883 -0.07031,0.04687 -0.170899,0.07129 Q 10.722461,38 10.592578,38 Z m 0.189453,-0.168945 h 0.305665 q 0.141601,0 0.221679,-0.02637 0.08105,-0.02637 0.128906,-0.07422 0.06738,-0.06738 0.104493,-0.180664 0.03809,-0.114258 0.03809,-0.276368 0,-0.224609 -0.07422,-0.344726 -0.07324,-0.121094 -0.178711,-0.162109 -0.07617,-0.0293 -0.245117,-0.0293 H 10.265429 Z M 11.524219,38 v -1.431641 h 1.035156 v 0.168946 h -0.845703 v 0.438476 h 0.791992 v 0.167969 h -0.791992 v 0.487305 h 0.878906 V 38 Z m 1.328125,0 v -1.431641 h 0.194335 l 0.751954,1.124024 v -1.124024 h 0.18164 V 38 H 13.785937 L 13.033984,36.875 V 38 Z m 1.381835,-0.459961 0.178711,-0.01563 q 0.0127,0.107422 0.05859,0.176758 0.04687,0.06836 0.144531,0.111328 0.09766,0.04199 0.219727,0.04199 0.108398,0 0.191406,-0.03223 0.08301,-0.03223 0.123047,-0.08789 0.04102,-0.05664 0.04102,-0.123047 0,-0.06738 -0.03906,-0.117187 -0.03906,-0.05078 -0.128906,-0.08496 -0.05762,-0.02246 -0.254883,-0.06934 -0.197265,-0.04785 -0.276367,-0.08984 -0.102539,-0.05371 -0.15332,-0.132813 -0.04981,-0.08008 -0.04981,-0.17871 0,-0.108399 0.06152,-0.202149 0.06152,-0.09473 0.179688,-0.143555 0.118164,-0.04883 0.262695,-0.04883 0.15918,0 0.280274,0.05176 0.12207,0.05078 0.1875,0.150391 0.06543,0.09961 0.07031,0.225586 l -0.18164,0.01367 q -0.01465,-0.135743 -0.09961,-0.205079 -0.08398,-0.06934 -0.249023,-0.06934 -0.171875,0 -0.250977,0.06348 -0.07813,0.0625 -0.07813,0.151367 0,0.07715 0.05566,0.126953 0.05469,0.0498 0.285156,0.102539 0.231446,0.05176 0.317383,0.09082 0.125,0.05762 0.184571,0.146484 0.05957,0.08789 0.05957,0.203125 0,0.114258 -0.06543,0.21582 -0.06543,0.100586 -0.188476,0.157227 -0.122071,0.05566 -0.275391,0.05566 -0.194336,0 -0.326172,-0.05664 -0.130859,-0.05664 -0.206055,-0.169921 -0.07422,-0.114258 -0.07813,-0.257813 z"
     id="text6"
     style="font-size:2px;font-family:Arial, sans-serif;text-anchor:middle;fill:#aaaaaa"
     aria-label="DENS" />
  <path
     d="m 35.254295,38 v -1.431641 h 0.540039 q 0.142579,0 0.217774,0.01367 0.105469,0.01758 0.176758,0.06738 0.07129,0.04883 0.114257,0.137695 0.04395,0.08887 0.04395,0.195313 0,0.182617 -0.116211,0.30957 -0.116211,0.125977 -0.419922,0.125977 H 35.443748 V 38 Z m 0.189453,-0.750977 h 0.370118 q 0.183593,0 0.260742,-0.06836 0.07715,-0.06836 0.07715,-0.192383 0,-0.08984 -0.0459,-0.15332 -0.04492,-0.06445 -0.119141,-0.08496 -0.04785,-0.0127 -0.176758,-0.0127 H 35.443748 Z M 36.620506,38 v -1.431641 h 0.189453 V 38 Z m 0.887696,0 v -1.262695 h -0.47168 v -0.168946 h 1.134766 v 0.168946 H 37.697655 V 38 Z m 1.878906,-0.501953 0.189453,0.04785 q -0.05957,0.233399 -0.214844,0.356446 -0.154297,0.12207 -0.377929,0.12207 -0.231446,0 -0.376954,-0.09375 -0.144531,-0.09473 -0.220703,-0.273437 -0.0752,-0.178711 -0.0752,-0.38379 0,-0.223632 0.08496,-0.389648 0.08594,-0.166992 0.243164,-0.25293 0.158203,-0.08691 0.347656,-0.08691 0.214844,0 0.361328,0.109375 0.146485,0.109375 0.204102,0.307617 l -0.186524,0.04395 q -0.0498,-0.15625 -0.144531,-0.227539 -0.09473,-0.07129 -0.238281,-0.07129 -0.165039,0 -0.276367,0.0791 -0.110352,0.0791 -0.155274,0.212891 -0.04492,0.132812 -0.04492,0.274414 0,0.182617 0.05273,0.319336 0.05371,0.135742 0.166015,0.203125 0.112305,0.06738 0.243165,0.06738 0.159179,0 0.269531,-0.0918 0.110351,-0.0918 0.149414,-0.272461 z M 39.815819,38 v -1.431641 h 0.189453 v 0.587891 h 0.744141 v -0.587891 h 0.189453 V 38 H 40.749413 V 37.325195 H 40.005272 V 38 Z"
     id="text7"
     style="font-size:2px;font-family:Arial, sans-serif;text-anchor:middle;fill:#aaaaaa"
     aria-label="PITCH" />
  <path
     d="m 9.5105467,55.540039 0.1787109,-0.01563 q 0.012695,0.107422 0.058594,0.176758 0.046875,0.06836 0.1445312,0.111328 0.097656,0.04199 0.2197264,0.04199 0.108399,0 0.191406,-0.03223 0.08301,-0.03223 0.123047,-0.08789 0.04102,-0.05664 0.04102,-0.123047 0,-0.06738 -0.03906,-0.117187 -0.03906,-0.05078 -0.128906,-0.08496 -0.05762,-0.02246 -0.254883,-0.06934 Q 9.8474607,55.291992 9.7683592,55.25 9.6658201,55.196289 9.6150389,55.117187 q -0.049805,-0.08008 -0.049805,-0.17871 0,-0.108399 0.061523,-0.202149 0.061523,-0.09473 0.1796875,-0.143555 0.1181641,-0.04883 0.2626949,-0.04883 0.15918,0 0.280274,0.05176 0.12207,0.05078 0.1875,0.150391 0.06543,0.09961 0.07031,0.225586 l -0.18164,0.01367 q -0.01465,-0.135743 -0.09961,-0.205079 -0.08398,-0.06934 -0.249023,-0.06934 -0.1718751,0 -0.2509766,0.06348 -0.078125,0.0625 -0.078125,0.151367 0,0.07715 0.055664,0.126953 0.054687,0.0498 0.2851566,0.102539 0.231445,0.05176 0.317382,0.09082 0.125,0.05762 0.184571,0.146484 0.05957,0.08789 0.05957,0.203125 0,0.114258 -0.06543,0.21582 -0.06543,0.100586 -0.188476,0.157227 -0.12207,0.05566 -0.275391,0.05566 -0.1943357,0 -0.3261716,-0.05664 -0.1308594,-0.05664 -0.2060547,-0.169921 -0.074219,-0.114258 -0.078125,-0.257813 z m 2.4199223,-0.04199 0.189453,0.04785 q -0.05957,0.233399 -0.214844,0.356446 -0.154297,0.12207 -0.37793,0.12207 -0.231445,0 -0.376953,-0.09375 -0.144531,-0.09473 -0.220703,-0.273437 -0.07519,-0.178711 -0.07519,-0.38379 0,-0.223632 0.08496,-0.389648 0.08594,-0.166992 0.243164,-0.25293 0.158203,-0.08691 0.347656,-0.08691 0.214844,0 0.361328,0.109375 0.146484,0.109375 0.204102,0.307617 l -0.186524,0.04395 q -0.04981,-0.15625 -0.144531,-0.227539 -0.09473,-0.07129 -0.238281,-0.07129 -0.165039,0 -0.276368,0.0791 -0.110351,0.0791 -0.155273,0.212891 -0.04492,0.132812 -0.04492,0.274414 0,0.182617 0.05274,0.319336 0.05371,0.135742 0.166015,0.203125 0.112305,0.06738 0.243164,0.06738 0.15918,0 0.269531,-0.0918 0.110352,-0.0918 0.149415,-0.272461 z M 12.196094,56 12.745898,54.568359 H 12.95 L 13.535937,56 h -0.21582 L 13.153125,55.566406 H 12.554492 L 12.397265,56 Z m 0.413085,-0.587891 h 0.485352 l -0.149414,-0.396484 q -0.06836,-0.180664 -0.101563,-0.296875 -0.02734,0.137695 -0.07715,0.273437 z M 13.679492,56 v -1.431641 h 0.189453 v 1.262696 h 0.705078 V 56 Z m 1.124023,0 v -1.431641 h 1.035157 v 0.168946 h -0.845703 v 0.438476 h 0.791992 v 0.167969 h -0.791992 v 0.487305 h 0.878906 V 56 Z"
     id="text8"
     style="font-size:2px;font-family:Arial, sans-serif;text-anchor:middle;fill:#aaaaaa"
     aria-label="SCALE" />
  <path
     d="m 36.272362,56 v -1.431641 h 0.540039 q 0.142578,0 0.217773,0.01367 0.105469,0.01758 0.176758,0.06738 0.07129,0.04883 0.114258,0.137695 0.04395,0.08887 0.04395,0.195313 0,0.182617 -0.116211,0.30957 -0.116211,0.125977 -0.419922,0.125977 H 36.461815 V 56 Z m 0.189453,-0.750977 h 0.370117 q 0.183594,0 0.260742,-0.06836 0.07715,-0.06836 0.07715,-0.192383 0,-0.08984 -0.0459,-0.15332 -0.04492,-0.06445 -0.11914,-0.08496 -0.04785,-0.0127 -0.176758,-0.0127 H 36.461815 Z M 37.300682,56 37.850487,54.568359 h 0.204101 L 38.640526,56 h -0.21582 L 38.257713,55.566406 H 37.659081 L 37.501854,56 Z m 0.413086,-0.587891 h 0.485352 l -0.149414,-0.396484 q -0.06836,-0.180664 -0.101563,-0.296875 -0.02734,0.137695 -0.07715,0.273437 z M 38.78994,56 v -1.431641 h 0.194336 l 0.751953,1.124024 V 54.568359 H 39.91787 V 56 H 39.723534 L 38.971581,54.875 V 56 Z"
     id="text9"
     style="font-size:2px;font-family:Arial, sans-serif;text-anchor:middle;fill:#aaaaaa"
     aria-label="PAN" />
  <path
     d="m 10.19707,74 v -1.431641 h 0.96582 v 0.168946 h -0.776367 v 0.443359 h 0.671875 v 0.168945 H 10.386523 V 74 Z m 1.211914,0 v -1.431641 h 0.493164 q 0.166992,0 0.254883,0.02051 0.123047,0.02832 0.209961,0.102539 0.113281,0.0957 0.168945,0.245117 0.05664,0.148438 0.05664,0.339844 0,0.163086 -0.03809,0.289063 -0.03809,0.125976 -0.09766,0.208984 -0.05957,0.08203 -0.13086,0.129883 -0.07031,0.04687 -0.170898,0.07129 Q 12.055469,74 11.925586,74 Z m 0.189453,-0.168945 h 0.305664 q 0.141602,0 0.22168,-0.02637 0.08105,-0.02637 0.128906,-0.07422 0.06738,-0.06738 0.104492,-0.180664 0.03809,-0.114258 0.03809,-0.276368 0,-0.224609 -0.07422,-0.344726 -0.07324,-0.121094 -0.178711,-0.162109 -0.07617,-0.0293 -0.245117,-0.0293 H 11.598437 Z M 12.845508,74 v -1.431641 h 0.537109 q 0.164062,0 0.262695,0.04395 0.09961,0.04297 0.155274,0.133789 0.05664,0.08984 0.05664,0.188476 0,0.0918 -0.0498,0.172852 -0.04981,0.08106 -0.150391,0.130859 0.129883,0.03809 0.199219,0.129883 0.07031,0.0918 0.07031,0.216797 0,0.100586 -0.04297,0.1875 -0.04199,0.08594 -0.104493,0.132812 -0.0625,0.04687 -0.157226,0.07129 Q 13.528125,74 13.391406,74 Z m 0.189453,-0.830078 h 0.30957 q 0.125977,0 0.180664,-0.0166 0.07227,-0.02148 0.108399,-0.07129 0.03711,-0.0498 0.03711,-0.125 0,-0.07129 -0.03418,-0.125 -0.03418,-0.05469 -0.09766,-0.07422 -0.06348,-0.02051 -0.217773,-0.02051 h -0.286133 z m 0,0.661133 h 0.356445 q 0.0918,0 0.128906,-0.0068 0.06543,-0.01172 0.109375,-0.03906 0.04395,-0.02734 0.07227,-0.0791 0.02832,-0.05274 0.02832,-0.121094 0,-0.08008 -0.04101,-0.138672 -0.04102,-0.05957 -0.114258,-0.08301 -0.07227,-0.02441 -0.208985,-0.02441 H 13.034961 Z M 14.179492,74 v -1.431641 h 0.189453 v 0.709961 l 0.710938,-0.709961 h 0.256836 L 14.736133,73.148437 15.363086,74 h -0.25 L 14.60332,73.275391 14.368945,73.503906 V 74 Z"
     id="text10"
     style="font-size:2px;font-family:Arial, sans-serif;text-anchor:middle;fill:#aaaaaa"
     aria-label="FDBK" />
  <path
     d="m 36.470604,74 v -1.431641 h 0.285156 l 0.338867,1.013672 q 0.04687,0.141602 0.06836,0.211914 0.02441,-0.07813 0.07617,-0.229492 l 0.342773,-0.996094 h 0.254883 V 74 H 37.654198 V 72.801758 L 37.238182,74 H 37.067284 L 36.653221,72.78125 V 74 Z m 1.704102,0 v -1.431641 h 0.189453 V 74 Z m 0.377929,0 0.553711,-0.746094 -0.488281,-0.685547 h 0.225586 l 0.259765,0.367188 q 0.08105,0.114258 0.115235,0.175781 0.04785,-0.07813 0.113281,-0.163086 l 0.288086,-0.379883 h 0.206055 L 39.323143,73.243164 39.865135,74 H 39.63076 l -0.360351,-0.510742 q -0.03027,-0.04395 -0.0625,-0.0957 -0.04785,0.07813 -0.06836,0.107422 L 38.780174,74 Z"
     id="text11"
     style="font-size:2px;font-family:Arial, sans-serif;text-anchor:middle;fill:#aaaaaa"
     aria-label="MIX" />
  <!-- Scale legend -->
  <path
     d="m 20.468823,67.541064 q 0,-0.165039 0.03364,-0.265332 0.03428,-0.100927 0.100927,-0.155517 0.06729,-0.05459 0.168848,-0.05459 0.0749,0 0.131396,0.03047 0.0565,0.02983 0.09331,0.08696 0.03682,0.05649 0.05776,0.138379 0.02095,0.08125 0.02095,0.219628 0,0.16377 -0.03364,0.264698 -0.03364,0.100293 -0.100927,0.155517 -0.06665,0.05459 -0.168848,0.05459 -0.13457,0 -0.211377,-0.09648 -0.09204,-0.116162 -0.09204,-0.378321 z m 0.117432,0 q 0,0.229151 0.05332,0.305323 0.05395,0.07554 0.132666,0.07554 0.07871,0 0.132031,-0.07617 0.05396,-0.07617 0.05396,-0.304688 0,-0.229785 -0.05396,-0.305322 -0.05332,-0.07554 -0.133301,-0.07554 -0.07871,0 -0.125683,0.06665 -0.05903,0.08506 -0.05903,0.314209 z m 0.669043,-0.08506 v -0.130127 h 0.130127 v 0.130127 z m 0,0.543994 v -0.130127 h 0.130127 V 68 Z m 0.769336,-0.246924 0.112353,0.0146 q -0.01841,0.116162 -0.09458,0.182178 -0.07554,0.06538 -0.185986,0.06538 -0.138379,0 -0.222803,-0.09014 -0.08379,-0.09077 -0.08379,-0.259619 0,-0.10918 0.03618,-0.191065 0.03618,-0.08188 0.109815,-0.12251 0.07427,-0.04126 0.16123,-0.04126 0.109815,0 0.179639,0.05586 0.06982,0.05522 0.0895,0.157422 l -0.111084,0.01714 q -0.01587,-0.06792 -0.05649,-0.102197 -0.03999,-0.03428 -0.09712,-0.03428 -0.08633,0 -0.140283,0.06221 -0.05396,0.06157 -0.05396,0.195508 0,0.13584 0.05205,0.197412 0.05205,0.06157 0.13584,0.06157 0.06729,0 0.112354,-0.04126 0.04507,-0.04126 0.05713,-0.126953 z M 22.234741,68 v -0.930566 h 0.114258 v 0.333886 q 0.07998,-0.09267 0.201855,-0.09267 0.0749,0 0.130127,0.02983 0.05523,0.0292 0.07871,0.08125 0.02412,0.05205 0.02412,0.151074 V 68 h -0.114258 v -0.427197 q 0,-0.08569 -0.03745,-0.124414 -0.03682,-0.03936 -0.104736,-0.03936 -0.05078,0 -0.09585,0.02666 -0.04443,0.02603 -0.06348,0.07109 -0.01904,0.04507 -0.01904,0.124414 V 68 Z m 0.721728,0 v -0.674121 h 0.102832 v 0.102197 q 0.03936,-0.07173 0.07236,-0.09458 0.03364,-0.02285 0.07363,-0.02285 0.05776,0 0.117431,0.03682 l -0.03936,0.106006 q -0.04189,-0.02476 -0.08379,-0.02476 -0.03745,0 -0.06728,0.02285 -0.02983,0.02222 -0.04253,0.06221 -0.01904,0.06094 -0.01904,0.1333 V 68 Z m 1.193994,0 h -0.114257 v -0.728076 q -0.04126,0.03936 -0.108545,0.07871 -0.06665,0.03936 -0.119971,0.05903 v -0.110449 q 0.09585,-0.04507 0.167578,-0.10918 0.07173,-0.06411 0.101563,-0.124414 h 0.07363 z m 0.356104,-0.543994 v -0.130127 h 0.130127 v 0.130127 z m 0,0.543994 v -0.130127 h 0.130127 V 68 Z m 0.329444,0 v -0.674121 h 0.102197 v 0.09458 q 0.03174,-0.04951 0.08442,-0.07935 0.05268,-0.03047 0.11997,-0.03047 0.0749,0 0.12251,0.0311 0.04824,0.0311 0.06792,0.08696 0.07998,-0.118066 0.208203,-0.118066 0.100293,0 0.154248,0.05586 0.05396,0.05522 0.05396,0.170752 V 68 h -0.113623 v -0.424658 q 0,-0.06856 -0.01143,-0.09839 -0.01079,-0.03047 -0.03999,-0.04888 -0.0292,-0.01841 -0.06855,-0.01841 -0.07109,0 -0.118066,0.04761 -0.04697,0.04697 -0.04697,0.151075 V 68 h -0.114257 v -0.437988 q 0,-0.07617 -0.02793,-0.114258 -0.02793,-0.03809 -0.09141,-0.03809 -0.04824,0 -0.0895,0.02539 -0.04062,0.02539 -0.05903,0.07427 -0.01841,0.04888 -0.01841,0.140918 V 68 Z m 1.522802,-0.08315 q -0.06348,0.05395 -0.12251,0.07617 -0.0584,0.02222 -0.125683,0.02222 -0.111084,0 -0.170752,-0.05396 -0.05967,-0.05459 -0.05967,-0.139013 0,-0.04951 0.02222,-0.09014 0.02285,-0.04126 0.05903,-0.06602 0.03682,-0.02476 0.08252,-0.03745 0.03364,-0.0089 0.101563,-0.01714 0.138379,-0.0165 0.20376,-0.03936 6.34e-4,-0.02349 6.34e-4,-0.02983 0,-0.06982 -0.03237,-0.09839 -0.0438,-0.03872 -0.130127,-0.03872 -0.08061,0 -0.119335,0.02856 -0.03809,0.02793 -0.05649,0.09966 l -0.111718,-0.01523 q 0.01523,-0.07173 0.05015,-0.115527 0.03491,-0.04443 0.100928,-0.06792 0.06602,-0.02412 0.152978,-0.02412 0.08633,0 0.140284,0.02031 0.05395,0.02031 0.07935,0.05142 0.02539,0.03047 0.03555,0.07744 0.0057,0.0292 0.0057,0.105372 v 0.152343 q 0,0.159326 0.007,0.201856 0.0076,0.04189 0.0292,0.08061 h -0.119336 q -0.01777,-0.03555 -0.02285,-0.08315 z m -0.0095,-0.255176 q -0.06221,0.02539 -0.186621,0.04316 -0.07046,0.01016 -0.09966,0.02285 -0.0292,0.01269 -0.04507,0.03745 -0.01587,0.02412 -0.01587,0.05396 0,0.0457 0.03428,0.07617 0.03491,0.03047 0.101563,0.03047 0.06602,0 0.117431,-0.02856 0.05142,-0.0292 0.07554,-0.07935 0.01841,-0.03872 0.01841,-0.114258 z m 0.291992,-0.45957 v -0.132666 h 0.114257 V 67.2021 Z m -0.144727,1.059423 0.02158,-0.09712 q 0.03428,0.0089 0.05395,0.0089 0.03491,0 0.05205,-0.02349 0.01714,-0.02285 0.01714,-0.115528 v -0.708398 h 0.114257 v 0.710937 q 0,0.124414 -0.03237,0.173291 -0.04126,0.06348 -0.137109,0.06348 -0.04634,0 -0.0895,-0.01206 z m 1.364111,-0.371337 V 68 H 27.24558 q -0.0013,-0.04126 0.01333,-0.07935 0.02349,-0.06284 0.0749,-0.123779 0.05205,-0.06094 0.149805,-0.140918 0.151709,-0.124414 0.205029,-0.196777 0.05332,-0.073 0.05332,-0.137744 0,-0.06792 -0.04888,-0.114258 -0.04824,-0.04697 -0.126318,-0.04697 -0.08252,0 -0.132031,0.04951 -0.04951,0.04951 -0.05015,0.137109 l -0.117431,-0.01206 q 0.01206,-0.131397 0.09077,-0.199952 0.07871,-0.06919 0.211377,-0.06919 0.133935,0 0.212012,0.07427 0.07808,0.07427 0.07808,0.184082 0,0.05586 -0.02285,0.109814 -0.02285,0.05396 -0.07617,0.113623 -0.05269,0.05967 -0.17583,0.16377 -0.102832,0.08633 -0.132031,0.117431 -0.0292,0.03047 -0.04824,0.06157 z m 0.185987,-0.43418 v -0.130127 h 0.130127 v 0.130127 z m 0,0.543994 v -0.130127 h 0.130127 V 68 Z m 0.329443,0 v -0.674121 h 0.102198 v 0.09458 q 0.03174,-0.04951 0.08442,-0.07935 0.05269,-0.03047 0.119971,-0.03047 0.0749,0 0.12251,0.0311 0.04824,0.0311 0.06792,0.08696 0.07998,-0.118066 0.208203,-0.118066 0.100293,0 0.154248,0.05586 0.05395,0.05522 0.05395,0.170752 V 68 h -0.113623 v -0.424658 q 0,-0.06856 -0.01143,-0.09839 -0.01079,-0.03047 -0.03999,-0.04888 -0.0292,-0.01841 -0.06855,-0.01841 -0.07109,0 -0.118066,0.04761 -0.04697,0.04697 -0.04697,0.151075 V 68 h -0.114258 v -0.437988 q 0,-0.07617 -0.02793,-0.114258 -0.02793,-0.03809 -0.09141,-0.03809 -0.04824,0 -0.0895,0.02539 -0.04062,0.02539 -0.05903,0.07427 -0.01841,0.04888 -0.01841,0.140918 V 68 Z m 1.083545,-0.79917 V 67.069434 H 29.5739 v 0.131396 z m 0,0.79917 V 67.325879 H 29.5739 V 68 Z m 0.288183,0 v -0.674121 h 0.102832 v 0.09585 q 0.07427,-0.111084 0.214551,-0.111084 0.06094,0 0.111719,0.02222 0.05142,0.02158 0.07681,0.05713 0.02539,0.03555 0.03555,0.08442 0.0063,0.03174 0.0063,0.111084 V 68 h -0.114258 v -0.410059 q 0,-0.06982 -0.01333,-0.104101 -0.01333,-0.03491 -0.04761,-0.05522 -0.03364,-0.02095 -0.07935,-0.02095 -0.073,0 -0.126318,0.04634 -0.05269,0.04634 -0.05269,0.17583 V 68 Z"
     id="text12"
     style="font-size:1.3px;font-family:Arial, sans-serif;text-anchor:middle;fill:#668888"
     aria-label="0:chr 1:maj 2:min" />
  <path
     d="m 21.370825,70.754346 0.114258,-0.01524 q 0.01968,0.09712 0.06665,0.140284 0.04761,0.04253 0.115527,0.04253 0.08062,0 0.13584,-0.05586 0.05586,-0.05586 0.05586,-0.138378 0,-0.07871 -0.05142,-0.129493 -0.05142,-0.05142 -0.130762,-0.05142 -0.03237,0 -0.08061,0.0127 l 0.01269,-0.100293 q 0.01143,0.0013 0.01841,0.0013 0.073,0 0.131397,-0.03809 0.0584,-0.03809 0.0584,-0.117431 0,-0.06284 -0.04253,-0.104102 -0.04253,-0.04126 -0.109815,-0.04126 -0.06665,0 -0.111084,0.04189 -0.04443,0.04189 -0.05713,0.125683 l -0.114258,-0.02031 q 0.02095,-0.114893 0.09521,-0.177734 0.07427,-0.06348 0.184716,-0.06348 0.07617,0 0.140284,0.03301 0.06411,0.03237 0.09775,0.08887 0.03428,0.05649 0.03428,0.119971 0,0.0603 -0.03237,0.109814 -0.03237,0.04951 -0.09585,0.07871 0.08252,0.01904 0.128223,0.07935 0.0457,0.05967 0.0457,0.149804 0,0.121875 -0.08887,0.206934 -0.08887,0.08442 -0.224707,0.08442 -0.12251,0 -0.20376,-0.073 -0.08062,-0.073 -0.09204,-0.18916 z m 0.78584,-0.29834 v -0.130127 h 0.130127 v 0.130127 z m 0,0.543994 v -0.130127 h 0.130127 V 71 Z m 0.329443,0.25835 v -0.932471 h 0.104102 v 0.0876 q 0.03682,-0.05142 0.08315,-0.07681 0.04634,-0.02603 0.112353,-0.02603 0.08633,0 0.152344,0.04443 0.06602,0.04443 0.09966,0.125684 0.03364,0.08061 0.03364,0.177099 0,0.103467 -0.03745,0.186621 -0.03682,0.08252 -0.10791,0.126954 -0.07046,0.0438 -0.148535,0.0438 -0.05713,0 -0.102833,-0.02412 -0.04507,-0.02412 -0.07427,-0.06094 v 0.328174 z m 0.103467,-0.591602 q 0,0.130127 0.05269,0.192334 0.05269,0.06221 0.127588,0.06221 0.07617,0 0.130127,-0.06411 0.05459,-0.06475 0.05459,-0.199951 0,-0.128858 -0.05332,-0.192969 -0.05269,-0.06411 -0.126319,-0.06411 -0.073,0 -0.129492,0.06855 -0.05586,0.06792 -0.05586,0.198047 z m 1.081006,0.116162 0.118066,0.0146 q -0.02793,0.103467 -0.103467,0.160595 -0.07554,0.05713 -0.192968,0.05713 -0.147901,0 -0.234864,-0.09077 -0.08633,-0.09141 -0.08633,-0.255811 0,-0.170117 0.0876,-0.264062 0.0876,-0.09395 0.227246,-0.09395 0.135205,0 0.220898,0.09204 0.08569,0.09204 0.08569,0.258984 0,0.01016 -6.35e-4,0.03047 h -0.502734 q 0.0063,0.111084 0.06284,0.170117 0.05649,0.05903 0.140918,0.05903 0.06284,0 0.107276,-0.03301 0.04443,-0.03301 0.07046,-0.105371 z m -0.375147,-0.184717 h 0.376416 q -0.0076,-0.08506 -0.04316,-0.127588 -0.05459,-0.06602 -0.141553,-0.06602 -0.07871,0 -0.132666,0.05268 -0.05332,0.05269 -0.05903,0.140918 z M 23.932104,71 v -0.674121 h 0.102832 v 0.09585 q 0.07427,-0.111084 0.214551,-0.111084 0.06094,0 0.111719,0.02222 0.05142,0.02158 0.07681,0.05713 0.02539,0.03555 0.03555,0.08442 0.0063,0.03174 0.0063,0.111084 V 71 h -0.114258 v -0.410059 q 0,-0.06982 -0.01333,-0.104101 -0.01333,-0.03491 -0.04761,-0.05522 -0.03364,-0.02095 -0.07935,-0.02095 -0.073,0 -0.126318,0.04634 -0.05269,0.04634 -0.05269,0.17583 V 71 Z m 0.972461,-0.102197 0.0165,0.100927 q -0.04824,0.01016 -0.08633,0.01016 -0.06221,0 -0.09648,-0.01968 -0.03428,-0.01968 -0.04824,-0.05142 -0.01396,-0.03237 -0.01396,-0.135205 v -0.387842 h -0.08379 v -0.08887 h 0.08379 v -0.166943 l 0.113623,-0.06856 v 0.235498 h 0.114892 v 0.08887 h -0.114892 v 0.39419 q 0,0.04888 0.0057,0.06284 0.0063,0.01396 0.01968,0.02222 0.01397,0.0083 0.03936,0.0083 0.01904,0 0.05015,-0.0044 z M 25.711987,71 v -0.222803 h -0.403711 v -0.104736 l 0.424658,-0.603027 h 0.09331 v 0.603027 h 0.125683 v 0.104736 H 25.826245 V 71 Z m 0,-0.327539 v -0.41958 l -0.291358,0.41958 z m 0.420215,-0.216455 v -0.130127 h 0.130127 v 0.130127 z m 0,0.543994 v -0.130127 h 0.130127 V 71 Z m 0.434814,0 H 26.46101 v -0.930566 h 0.114258 v 0.331982 q 0.07236,-0.09077 0.184717,-0.09077 0.06221,0 0.117432,0.02539 0.05586,0.02476 0.09141,0.07046 0.03618,0.04507 0.05649,0.10918 0.02031,0.06411 0.02031,0.137109 0,0.173291 -0.08569,0.267871 -0.08569,0.09458 -0.205664,0.09458 -0.119336,0 -0.187256,-0.09966 z m -0.0013,-0.342139 q 0,0.121241 0.03301,0.175196 0.05395,0.08823 0.145996,0.08823 0.0749,0 0.129492,-0.06475 0.05459,-0.06538 0.05459,-0.194238 0,-0.132032 -0.05269,-0.194873 -0.05205,-0.06284 -0.126318,-0.06284 -0.0749,0 -0.129492,0.06538 -0.05459,0.06475 -0.05459,0.18789 z M 27.182104,71 v -0.930566 h 0.114258 V 71 Z m 0.733155,0 v -0.09902 q -0.07871,0.114257 -0.213916,0.114257 -0.05967,0 -0.111719,-0.02285 -0.05142,-0.02285 -0.07681,-0.05713 -0.02476,-0.03491 -0.03491,-0.08506 -0.007,-0.03364 -0.007,-0.10664 v -0.417676 h 0.114257 v 0.373877 q 0,0.0895 0.007,0.120605 0.01079,0.04507 0.0457,0.07109 0.03491,0.02539 0.08633,0.02539 0.05142,0 0.09648,-0.02603 0.04507,-0.02666 0.06348,-0.07173 0.01904,-0.0457 0.01904,-0.132031 v -0.361182 h 0.114258 V 71 Z m 0.742675,-0.21709 0.118066,0.0146 q -0.02793,0.103467 -0.103466,0.160595 -0.07554,0.05713 -0.192969,0.05713 -0.147901,0 -0.234863,-0.09077 -0.08633,-0.09141 -0.08633,-0.255811 0,-0.170117 0.0876,-0.264062 0.0876,-0.09395 0.227246,-0.09395 0.135205,0 0.220899,0.09204 0.08569,0.09204 0.08569,0.258984 0,0.01016 -6.35e-4,0.03047 H 28.27644 q 0.0063,0.111084 0.06284,0.170117 0.05649,0.05903 0.140918,0.05903 0.06284,0 0.107275,-0.03301 0.04443,-0.03301 0.07046,-0.105371 z m -0.375147,-0.184717 h 0.376416 q -0.0076,-0.08506 -0.04316,-0.127588 -0.05459,-0.06602 -0.141552,-0.06602 -0.07871,0 -0.132666,0.05268 -0.05332,0.05269 -0.05903,0.140918 z m 0.590967,0.200586 0.112989,-0.01777 q 0.0095,0.06792 0.05269,0.104101 0.0438,0.03618 0.121875,0.03618 0.07871,0 0.116797,-0.03174 0.03809,-0.03237 0.03809,-0.07554 0,-0.03872 -0.03364,-0.06094 -0.02349,-0.01523 -0.116796,-0.03872 -0.125684,-0.03174 -0.174561,-0.05459 -0.04824,-0.02349 -0.07363,-0.06411 -0.02476,-0.04126 -0.02476,-0.09077 0,-0.04507 0.02031,-0.08315 0.02095,-0.03872 0.05649,-0.06411 0.02666,-0.01968 0.07236,-0.03301 0.04634,-0.01396 0.09902,-0.01396 0.07935,0 0.139013,0.02285 0.0603,0.02285 0.08887,0.06221 0.02856,0.03872 0.03936,0.104102 l -0.111719,0.01523 q -0.0076,-0.05205 -0.04443,-0.08125 -0.03618,-0.0292 -0.102832,-0.0292 -0.07871,0 -0.112354,0.02603 -0.03364,0.02603 -0.03364,0.06094 0,0.02222 0.01396,0.03999 0.01396,0.01841 0.0438,0.03047 0.01714,0.0063 0.100928,0.0292 0.12124,0.03237 0.168848,0.05332 0.04824,0.02031 0.07554,0.05967 0.02729,0.03936 0.02729,0.09775 0,0.05713 -0.03364,0.10791 -0.03301,0.05015 -0.09585,0.07808 -0.06284,0.0273 -0.142187,0.0273 -0.131397,0 -0.200586,-0.05459 -0.06855,-0.05459 -0.0876,-0.161866 z"
     id="text13"
     style="font-size:1.3px;font-family:Arial, sans-serif;text-anchor:middle;fill:#668888"
     aria-label="3:pent 4:blues" />
  <!-- CV labels -->
  <path
     d="m 25.207959,87.548242 0.170507,0.04307 q -0.05361,0.210058 -0.193359,0.3208 -0.138867,0.109864 -0.340137,0.109864 -0.2083,0 -0.339257,-0.08438 -0.130079,-0.08525 -0.198633,-0.246094 -0.06768,-0.16084 -0.06768,-0.34541 0,-0.20127 0.07646,-0.350684 0.07734,-0.150293 0.218847,-0.227637 0.142383,-0.07822 0.312891,-0.07822 0.193359,0 0.325195,0.09844 0.131836,0.09844 0.183692,0.276856 l -0.167871,0.03955 q -0.04482,-0.140625 -0.130078,-0.204786 -0.08525,-0.06416 -0.214454,-0.06416 -0.148535,0 -0.24873,0.07119 -0.09932,0.07119 -0.139746,0.191601 -0.04043,0.119531 -0.04043,0.246973 0,0.164355 0.04746,0.287402 0.04834,0.122168 0.149414,0.182813 0.101074,0.06064 0.218848,0.06064 0.143262,0 0.242578,-0.08262 0.09932,-0.08262 0.134473,-0.245215 z M 25.956787,88 25.457568,86.711523 h 0.18457 l 0.334864,0.936036 q 0.04043,0.1125 0.06768,0.210937 0.02988,-0.105469 0.06943,-0.210937 l 0.348047,-0.936036 h 0.174023 L 26.131689,88 Z"
     id="text14"
     style="font-size:1.8px;font-family:Arial, sans-serif;text-anchor:middle;fill:#668888"
     aria-label="CV" />
  <path
     d="m 11.412402,101 v -1.07373 h 0.369873 q 0.125244,0 0.191162,0.01538 0.09228,0.02124 0.157471,0.0769 0.08496,0.0718 0.126709,0.18384 0.04248,0.11133 0.04248,0.25489 0,0.12231 -0.02856,0.21679 -0.02856,0.0945 -0.07324,0.15674 -0.04468,0.0615 -0.09814,0.0974 -0.05273,0.0352 -0.128174,0.0535 Q 11.897265,101 11.799853,101 Z m 0.14209,-0.12671 h 0.229248 q 0.106201,0 0.16626,-0.0198 0.06079,-0.0198 0.09668,-0.0557 0.05054,-0.0505 0.07837,-0.1355 0.02856,-0.0857 0.02856,-0.20727 0,-0.16846 -0.05566,-0.25855 -0.05493,-0.0908 -0.134033,-0.12158 -0.05713,-0.022 -0.183838,-0.022 H 11.554492 Z M 12.489795,101 v -1.07373 h 0.14209 v 0.94702 h 0.528808 V 101 Z m 1.03125,0 v -0.45483 l -0.413819,-0.6189 h 0.172852 l 0.21167,0.32373 q 0.05859,0.0908 0.109131,0.18164 0.04834,-0.0842 0.117187,-0.1897 l 0.208008,-0.31567 h 0.165527 l -0.428466,0.6189 V 101 Z"
     id="text15"
     style="font-size:1.5px;font-family:Arial, sans-serif;text-anchor:middle;fill:#888888"
     aria-label="DLY" />
  <path
     d="m 23.932226,101 v -1.07373 h 0.405029 q 0.106934,0 0.163331,0.01025 0.0791,0.01318 0.132568,0.05054 0.05347,0.03662 0.08569,0.103269 0.03296,0.0667 0.03296,0.14649 0,0.13696 -0.08716,0.23217 -0.08716,0.0945 -0.314941,0.0945 H 24.074316 V 101 Z m 0.14209,-0.56323 h 0.277588 q 0.137695,0 0.195557,-0.0513 0.05786,-0.0513 0.05786,-0.14429 0,-0.0674 -0.03442,-0.11499 -0.03369,-0.0483 -0.08936,-0.0637 -0.03589,-0.01 -0.132569,-0.01 h -0.274658 z m 1.624512,0.18677 0.14209,0.0359 q -0.04468,0.17505 -0.161133,0.26734 -0.115723,0.0915 -0.283447,0.0915 -0.173584,0 -0.282715,-0.0703 -0.108399,-0.071 -0.165528,-0.20508 -0.0564,-0.13403 -0.0564,-0.28784 0,-0.16773 0.06372,-0.29224 0.06445,-0.12524 0.182373,-0.189695 0.118652,-0.06519 0.260742,-0.06519 0.161133,0 0.270996,0.08203 0.109863,0.08203 0.153076,0.23071 l -0.139893,0.033 q -0.03735,-0.11719 -0.108398,-0.17065 -0.07104,-0.0535 -0.178711,-0.0535 -0.123779,0 -0.207275,0.0593 -0.08276,0.0593 -0.116455,0.15967 -0.03369,0.0996 -0.03369,0.20581 0,0.13696 0.03955,0.2395 0.04028,0.1018 0.124512,0.15234 0.08423,0.0505 0.182373,0.0505 0.119385,0 0.202148,-0.0689 0.08276,-0.0688 0.112061,-0.20434 z M 26.020361,101 v -1.07373 h 0.14209 v 0.44092 h 0.558105 v -0.44092 h 0.14209 V 101 h -0.14209 v -0.5061 H 26.162451 V 101 Z"
     id="text16"
     style="font-size:1.5px;font-family:Arial, sans-serif;text-anchor:middle;fill:#888888"
     aria-label="PCH" />
  <path
     d="m 36.877953,101 v -1.07373 h 0.213867 l 0.25415,0.76025 q 0.03516,0.1062 0.05127,0.15894 0.01831,-0.0586 0.05713,-0.17212 l 0.25708,-0.74707 h 0.191162 V 101 h -0.136963 v -0.89868 L 37.453636,101 h -0.128174 l -0.310547,-0.91406 V 101 Z m 1.278076,0 v -1.07373 h 0.14209 V 101 Z m 0.283447,0 0.415283,-0.55957 -0.366211,-0.51416 h 0.16919 l 0.194824,0.27539 q 0.06079,0.0857 0.08643,0.13184 0.03589,-0.0586 0.08496,-0.12232 l 0.216064,-0.28491 h 0.154541 l -0.377197,0.5061 L 39.423851,101 H 39.24807 l -0.270264,-0.38306 q -0.02271,-0.033 -0.04687,-0.0718 -0.03589,0.0586 -0.05127,0.0806 L 38.61013,101 Z"
     id="text17"
     style="font-size:1.5px;font-family:Arial, sans-serif;text-anchor:middle;fill:#888888"
     aria-label="MIX" />
  <!-- I/O labels -->
  <path
     d="m 11.462207,114 v -1.07373 h 0.14209 v 0.94702 h 0.528808 V 114 Z m 1.225342,0 v -1.07373 h 0.142089 V 114 Z m 0.391113,0 v -1.07373 h 0.145752 l 0.563965,0.84302 v -0.84302 h 0.13623 V 114 h -0.145752 l -0.563965,-0.84375 V 114 Z"
     id="text18"
     style="font-size:1.5px;font-family:Arial, sans-serif;text-anchor:middle;fill:#888888"
     aria-label="L IN" />
  <path
     d="m 36.717918,114 v -1.07373 h 0.476075 q 0.143554,0 0.218261,0.0293 0.07471,0.0286 0.119385,0.1018 0.04468,0.0732 0.04468,0.16187 0,0.11426 -0.07398,0.19263 -0.07397,0.0784 -0.228515,0.0996 0.0564,0.0271 0.08569,0.0535 0.06226,0.0571 0.11792,0.14282 L 37.664207,114 h -0.17871 l -0.14209,-0.22339 q -0.06226,-0.0967 -0.102539,-0.14795 -0.04028,-0.0513 -0.07251,-0.0718 -0.03149,-0.0205 -0.06445,-0.0286 -0.02417,-0.005 -0.0791,-0.005 H 36.860008 V 114 Z m 0.14209,-0.59985 h 0.30542 q 0.09741,0 0.152344,-0.0198 0.05493,-0.0205 0.0835,-0.0644 0.02856,-0.0447 0.02856,-0.0967 0,-0.0762 -0.05566,-0.12525 -0.05493,-0.0491 -0.174316,-0.0491 H 36.860008 Z M 38.239891,114 v -1.07373 h 0.14209 V 114 Z m 0.391113,0 v -1.07373 h 0.145752 l 0.563965,0.84302 v -0.84302 h 0.136231 V 114 H 39.3312 l -0.563965,-0.84375 V 114 Z"
     id="text19"
     style="font-size:1.5px;font-family:Arial, sans-serif;text-anchor:middle;fill:#888888"
     aria-label="R IN" />
  <path
     d="m 10.629077,126 v -1.07373 h 0.14209 v 0.94702 h 0.528808 V 126 Z m 1.157959,-0.52295 q 0,-0.26733 0.143555,-0.41821 0.143554,-0.15161 0.370605,-0.15161 0.148682,0 0.268067,0.071 0.119384,0.071 0.18164,0.19849 0.06299,0.12671 0.06299,0.28784 0,0.16333 -0.06592,0.29224 -0.06592,0.1289 -0.186767,0.19555 -0.12085,0.0659 -0.260742,0.0659 -0.151612,0 -0.270996,-0.0732 -0.119385,-0.0732 -0.180909,-0.19995 -0.06152,-0.12671 -0.06152,-0.26807 z m 0.146484,0.002 q 0,0.19409 0.104004,0.30615 0.104737,0.11133 0.262207,0.11133 0.160401,0 0.263672,-0.11279 0.104004,-0.1128 0.104004,-0.32007 0,-0.13111 -0.04468,-0.22852 -0.04394,-0.0981 -0.129638,-0.15161 -0.08496,-0.0542 -0.191162,-0.0542 -0.150879,0 -0.26001,0.104 -0.108399,0.10328 -0.108399,0.34571 z m 1.768067,-0.55298 h 0.14209 v 0.62036 q 0,0.16187 -0.03662,0.25708 -0.03662,0.0952 -0.132568,0.15527 -0.09521,0.0593 -0.250488,0.0593 -0.150879,0 -0.246826,-0.052 -0.09595,-0.052 -0.136963,-0.15015 -0.04102,-0.0989 -0.04102,-0.26953 v -0.62036 h 0.14209 v 0.61963 q 0,0.13989 0.02563,0.20654 0.02637,0.0659 0.08935,0.10181 0.06372,0.0359 0.155274,0.0359 0.156738,0 0.223388,-0.071 0.06665,-0.071 0.06665,-0.27319 z M 14.353442,126 v -0.94702 h -0.35376 v -0.12671 h 0.851075 v 0.12671 H 14.495532 V 126 Z"
     id="text20"
     style="font-size:1.5px;font-family:Arial, sans-serif;text-anchor:middle;fill:#ffffff"
     aria-label="L OUT" />
  <path
     d="m 35.884789,126 v -1.07373 h 0.476074 q 0.143554,0 0.218261,0.0293 0.07471,0.0286 0.119385,0.1018 0.04468,0.0732 0.04468,0.16187 0,0.11426 -0.07397,0.19263 -0.07397,0.0784 -0.228515,0.0996 0.0564,0.0271 0.08569,0.0535 0.06226,0.0571 0.11792,0.14282 L 36.831078,126 h -0.178711 l -0.14209,-0.22339 q -0.06226,-0.0967 -0.102539,-0.14795 -0.04028,-0.0513 -0.07251,-0.0718 -0.03149,-0.0205 -0.06445,-0.0286 -0.02417,-0.005 -0.0791,-0.005 H 36.026878 V 126 Z m 0.142089,-0.59985 h 0.30542 q 0.09741,0 0.152344,-0.0198 0.05493,-0.0205 0.0835,-0.0644 0.02857,-0.0447 0.02857,-0.0967 0,-0.0762 -0.05566,-0.12525 -0.05493,-0.0491 -0.174317,-0.0491 h -0.339844 z m 1.3125,0.0769 q 0,-0.26733 0.143555,-0.41821 0.143555,-0.15161 0.370606,-0.15161 0.148681,0 0.268066,0.071 0.119385,0.071 0.181641,0.19849 0.06299,0.12671 0.06299,0.28784 0,0.16333 -0.06592,0.29224 -0.06592,0.1289 -0.186768,0.19555 -0.120849,0.0659 -0.260742,0.0659 -0.151611,0 -0.270996,-0.0732 -0.119385,-0.0732 -0.180908,-0.19995 -0.06152,-0.12671 -0.06152,-0.26807 z m 0.146485,0.002 q 0,0.19409 0.104004,0.30615 0.104736,0.11133 0.262207,0.11133 0.1604,0 0.263672,-0.11279 0.104003,-0.1128 0.104003,-0.32007 0,-0.13111 -0.04468,-0.22852 -0.04395,-0.0981 -0.129639,-0.15161 -0.08496,-0.0542 -0.191162,-0.0542 -0.150879,0 -0.26001,0.104 -0.108398,0.10328 -0.108398,0.34571 z m 1.768066,-0.55298 h 0.14209 v 0.62036 q 0,0.16187 -0.03662,0.25708 -0.03662,0.0952 -0.132568,0.15527 -0.09522,0.0593 -0.250489,0.0593 -0.150879,0 -0.246826,-0.052 -0.09595,-0.052 -0.136963,-0.15015 -0.04101,-0.0989 -0.04101,-0.26953 v -0.62036 h 0.142089 v 0.61963 q 0,0.13989 0.02564,0.20654 0.02637,0.0659 0.08936,0.10181 0.06372,0.0359 0.155273,0.0359 0.156738,0 0.223389,-0.071 0.06665,-0.071 0.06665,-0.27319 z M 39.905785,126 v -0.94702 h -0.35376 v -0.12671 h 0.851074 v 0.12671 H 40.047874 V 126 Z"
     id="text21"
     style="font-size:1.5px;font-family:Arial, sans-serif;text-anchor:middle;fill:#ffffff"
     aria-label="R OUT" />
  <!-- Brand -->
  <path
     d="m 22.093847,127.16309 v -0.10079 l 0.363867,-5.8e-4 v 0.31875 q -0.08379,0.0668 -0.172851,0.10078 -0.08906,0.0334 -0.182813,0.0334 -0.126562,0 -0.230273,-0.0539 -0.103125,-0.0545 -0.15586,-0.15703 -0.05273,-0.10254 -0.05273,-0.2291 0,-0.12539 0.05215,-0.23379 0.05273,-0.10898 0.151171,-0.16172 0.09844,-0.0527 0.226758,-0.0527 0.09316,0 0.168164,0.0305 0.07559,0.0299 0.11836,0.0838 0.04277,0.0539 0.06504,0.14063 l -0.102539,0.0281 q -0.01934,-0.0656 -0.04805,-0.10312 -0.02871,-0.0375 -0.08203,-0.0598 -0.05332,-0.0229 -0.11836,-0.0229 -0.07793,0 -0.134765,0.024 -0.05684,0.0234 -0.09199,0.0621 -0.03457,0.0387 -0.05391,0.085 -0.03281,0.0797 -0.03281,0.17285 0,0.11484 0.03926,0.19219 0.03984,0.0773 0.11543,0.11484 0.07559,0.0375 0.160547,0.0375 0.07383,0 0.144141,-0.0281 0.07031,-0.0287 0.10664,-0.0609 v -0.15996 z M 22.620605,127.5 v -0.85898 h 0.113672 v 0.75761 h 0.423047 V 127.5 Z m 0.691406,0 v -0.85898 h 0.113672 V 127.5 Z m 0.226758,0 0.332227,-0.44766 -0.292969,-0.41132 h 0.135351 l 0.15586,0.22031 q 0.04863,0.0686 0.06914,0.10547 0.02871,-0.0469 0.06797,-0.0979 l 0.172852,-0.22793 h 0.123633 l -0.301758,0.40488 0.325195,0.4541 h -0.140625 l -0.216211,-0.30645 q -0.01816,-0.0264 -0.0375,-0.0574 -0.02871,0.0469 -0.04102,0.0645 L 23.675293,127.5 Z m 1.182422,-0.27598 0.107227,-0.009 q 0.0076,0.0644 0.03516,0.10605 0.02812,0.041 0.08672,0.0668 0.05859,0.0252 0.131835,0.0252 0.06504,0 0.114844,-0.0193 0.04981,-0.0193 0.07383,-0.0527 0.02461,-0.034 0.02461,-0.0738 0,-0.0404 -0.02344,-0.0703 -0.02344,-0.0305 -0.07734,-0.051 -0.03457,-0.0135 -0.152929,-0.0416 -0.11836,-0.0287 -0.165821,-0.0539 -0.06152,-0.0322 -0.09199,-0.0797 -0.02988,-0.048 -0.02988,-0.10722 0,-0.065 0.03692,-0.12129 0.03691,-0.0568 0.107812,-0.0861 0.0709,-0.0293 0.157617,-0.0293 0.09551,0 0.168164,0.0311 0.07324,0.0305 0.1125,0.0902 0.03926,0.0598 0.04219,0.13535 l -0.108985,0.008 q -0.0088,-0.0814 -0.05976,-0.12305 -0.05039,-0.0416 -0.149414,-0.0416 -0.103125,0 -0.150586,0.0381 -0.04687,0.0375 -0.04687,0.0908 0,0.0463 0.0334,0.0762 0.03281,0.0299 0.171094,0.0615 0.138867,0.0311 0.19043,0.0545 0.075,0.0346 0.110742,0.0879 0.03574,0.0527 0.03574,0.12187 0,0.0686 -0.03926,0.12949 -0.03926,0.0604 -0.113086,0.0943 -0.07324,0.0334 -0.165234,0.0334 -0.116602,0 -0.195703,-0.034 -0.07852,-0.034 -0.123633,-0.10195 -0.04453,-0.0686 -0.04687,-0.15469 z M 25.778808,127.5 v -0.75762 H 25.4958 v -0.10136 h 0.68086 v 0.10136 H 25.89248 V 127.5 Z m 1.078125,-0.85898 h 0.113672 v 0.49628 q 0,0.1295 -0.0293,0.20567 -0.0293,0.0762 -0.106054,0.12422 -0.07617,0.0475 -0.200391,0.0475 -0.120703,0 -0.197461,-0.0416 -0.07676,-0.0416 -0.10957,-0.12012 -0.03281,-0.0791 -0.03281,-0.21563 v -0.49628 h 0.113672 v 0.4957 q 0,0.11191 0.02051,0.16523 0.02109,0.0527 0.07148,0.0814 0.05098,0.0287 0.124219,0.0287 0.125391,0 0.178711,-0.0568 0.05332,-0.0568 0.05332,-0.21855 z m 0.30293,0.85898 v -0.85898 h 0.295898 q 0.100196,0 0.15293,0.0123 0.07383,0.017 0.125977,0.0615 0.06797,0.0574 0.101367,0.14707 0.03398,0.0891 0.03398,0.20391 0,0.0978 -0.02285,0.17344 -0.02285,0.0756 -0.05859,0.12539 -0.03574,0.0492 -0.07852,0.0779 -0.04219,0.0281 -0.102539,0.0428 -0.05976,0.0147 -0.137695,0.0147 z m 0.113672,-0.10137 h 0.183398 q 0.08496,0 0.133008,-0.0158 0.04863,-0.0158 0.07734,-0.0445 0.04043,-0.0404 0.0627,-0.1084 0.02285,-0.0685 0.02285,-0.16582 0,-0.13476 -0.04453,-0.20683 -0.04395,-0.0727 -0.107226,-0.0973 -0.0457,-0.0176 -0.14707,-0.0176 H 27.273535 Z M 28.0458,127.5 v -0.85898 h 0.113672 V 127.5 Z m 0.279493,-0.41836 q 0,-0.21387 0.114844,-0.33457 0.114843,-0.12129 0.296484,-0.12129 0.118945,0 0.214453,0.0568 0.09551,0.0568 0.145313,0.15879 0.05039,0.10136 0.05039,0.23027 0,0.13066 -0.05273,0.23379 -0.05273,0.10312 -0.149414,0.15644 -0.09668,0.0527 -0.208594,0.0527 -0.121289,0 -0.216797,-0.0586 -0.09551,-0.0586 -0.144726,-0.15996 -0.04922,-0.10136 -0.04922,-0.21445 z m 0.117187,0.002 q 0,0.15527 0.0832,0.24492 0.08379,0.0891 0.209765,0.0891 0.12832,0 0.210938,-0.0902 0.0832,-0.0902 0.0832,-0.25606 0,-0.10488 -0.03574,-0.18281 -0.03516,-0.0785 -0.103711,-0.12129 -0.06797,-0.0434 -0.15293,-0.0434 -0.120703,0 -0.208008,0.0832 -0.08672,0.0826 -0.08672,0.27656 z"
     id="text22"
     style="font-size:1.2px;font-family:Arial, sans-serif;text-anchor:middle;fill:#446666"
     aria-label="GLIX STUDIO" />
</svg>
