<?xml version="1.0" encoding="UTF-8" standalone="no"?>
<svg
   width="40.64mm"
   height="128.5mm"
   viewBox="0 0 40.64 128.5"
   version="1.1"
   id="svg16"
   sodipodi:docname="DriveVerb.svg"
   xmlns:inkscape="http://www.inkscape.org/namespaces/inkscape"
   xmlns:sodipodi="http://sodipodi.sourceforge.net/DTD/sodipodi-0.dtd"
   xmlns="http://www.w3.org/2000/svg"
   xmlns:svg="http://www.w3.org/2000/svg">
  <defs
     id="defs16" />
  <sodipodi:namedview
     id="namedview16"
     pagecolor="#ffffff"
     bordercolor="#000000"
     borderopacity="0.25"
     inkscape:showpageshadow="2"
     inkscape:pageopacity="0.0"
     inkscape:pagecheckerboard="0"
     inkscape:deskcolor="#d1d1d1"
     inkscape:document-units="mm" />
  <!-- Panel background -->
  <rect
     x="0"
     y="0"
     width="40.64"
     height="128.5"
     fill="#1e1e1e"
     id="rect1" />
  <!-- Top accent -->
  <rect
     x="0"
     y="0"
     width="40.64"
     height="3"
     fill="#9b59b6"
     id="rect2" />
  <!-- Module name -->
  <path
     d="m 16.229179,11.548828 q 0,0.40625 -0.185546,0.728516 -0.185547,0.320312 -0.46875,0.492187 -0.212891,0.128907 -0.466797,0.179688 Q 14.854179,13 14.506523,13 h -1.02539 v -2.908203 h 1.054687 q 0.355469,0 0.613281,0.06055 0.257813,0.05859 0.433594,0.167969 0.300781,0.183593 0.472656,0.496093 0.173828,0.310547 0.173828,0.732422 z m -0.77539,-0.0059 q 0,-0.28711 -0.105469,-0.490235 -0.103516,-0.205078 -0.330078,-0.320312 -0.115234,-0.05664 -0.236328,-0.07617 -0.119141,-0.02148 -0.361328,-0.02148 h -0.189453 v 1.820312 h 0.189453 q 0.267578,0 0.392578,-0.02344 0.125,-0.02539 0.24414,-0.08984 0.205079,-0.117188 0.300782,-0.3125 0.0957,-0.197266 0.0957,-0.486328 z m 2.978515,-0.560547 q 0,-0.109375 -0.04492,-0.1875 -0.04492,-0.07813 -0.154297,-0.123047 -0.07617,-0.03125 -0.177735,-0.03711 -0.101562,-0.0078 -0.236328,-0.0078 h -0.271484 v 0.783203 h 0.230469 q 0.179687,0 0.300781,-0.01758 0.121094,-0.01758 0.203125,-0.08008 0.07813,-0.06055 0.113281,-0.132812 0.03711,-0.07422 0.03711,-0.197266 z M 19.602226,13 H 18.686211 L 17.893242,11.933594 H 17.547539 V 13 h -0.746094 v -2.908203 h 1.257813 q 0.257812,0 0.443359,0.0293 0.185547,0.0293 0.347656,0.126953 0.164063,0.09766 0.259766,0.253906 0.09766,0.154297 0.09766,0.388672 0,0.322266 -0.150391,0.525391 -0.148437,0.203125 -0.425781,0.33789 z m 1.900391,0 h -1.703125 v -0.515625 h 0.476562 v -1.876953 h -0.476562 v -0.515625 h 1.703125 v 0.515625 h -0.476563 v 1.876953 h 0.476563 z M 24.750664,10.091797 23.690117,13 h -0.839844 l -1.060547,-2.908203 h 0.78711 l 0.703125,2.042969 0.703125,-2.042969 z M 27.272148,13 h -2.103515 v -2.908203 h 2.103515 v 0.5625 h -1.357422 v 0.501953 h 1.259766 v 0.5625 h -1.259766 v 0.71875 h 1.357422 z"
     id="text2"
     style="font-weight:bold;font-size:4px;text-anchor:middle;fill:#ffffff"
     aria-label="DRIVE" />
  <path
     d="M 17.346367,16.091797 16.28582,19 h -0.839844 l -1.060547,-2.908203 h 0.78711 l 0.703125,2.042969 0.703125,-2.042969 z M 19.867851,19 h -2.103515 v -2.908203 h 2.103515 v 0.5625 h -1.357422 v 0.501953 h 1.259766 v 0.5625 h -1.259766 v 0.71875 h 1.357422 z m 2.259766,-2.017578 q 0,-0.109375 -0.04492,-0.1875 -0.04492,-0.07813 -0.154297,-0.123047 -0.07617,-0.03125 -0.177734,-0.03711 -0.101563,-0.0078 -0.236328,-0.0078 h -0.271485 v 0.783203 h 0.230469 q 0.179688,0 0.300781,-0.01758 0.121094,-0.01758 0.203125,-0.08008 0.07813,-0.06055 0.113282,-0.132813 0.03711,-0.07422 0.03711,-0.197265 z M 23.297539,19 H 22.381523 L 21.588554,17.933594 H 21.242851 V 19 h -0.746093 v -2.908203 h 1.257812 q 0.257813,0 0.443359,0.0293 0.185547,0.0293 0.347657,0.126953 0.164062,0.09766 0.259765,0.253906 0.09766,0.154297 0.09766,0.388672 0,0.322266 -0.150391,0.525391 -0.148438,0.203125 -0.425781,0.33789 z m 2.816406,-0.890625 q 0,0.210937 -0.08594,0.376953 -0.08398,0.166016 -0.232422,0.275391 -0.171875,0.128906 -0.378907,0.183593 Q 25.211601,19 24.895195,19 h -1.269531 v -2.908203 h 1.128906 q 0.351563,0 0.513672,0.02344 0.164062,0.02344 0.324219,0.103516 0.166015,0.08398 0.246093,0.226562 0.08203,0.140625 0.08203,0.322266 0,0.210938 -0.111328,0.373047 -0.111329,0.160156 -0.314454,0.25 v 0.01563 q 0.285157,0.05664 0.451172,0.234375 0.167969,0.177734 0.167969,0.46875 z m -0.960937,-1.195313 q 0,-0.07227 -0.03711,-0.144531 -0.03516,-0.07227 -0.126953,-0.107422 -0.08203,-0.03125 -0.205078,-0.0332 Q 24.662773,16.625 24.44207,16.625 h -0.07031 v 0.615234 h 0.117187 q 0.177734,0 0.302734,-0.0059 0.125,-0.0059 0.197266,-0.03906 0.101563,-0.04492 0.132813,-0.115234 0.03125,-0.07227 0.03125,-0.166016 z m 0.183593,1.183594 q 0,-0.138672 -0.05469,-0.21289 -0.05274,-0.07617 -0.181641,-0.113282 -0.08789,-0.02539 -0.242187,-0.02734 -0.154297,-0.002 -0.322266,-0.002 h -0.164062 v 0.72461 h 0.05469 q 0.316406,0 0.453125,-0.002 0.136719,-0.002 0.251953,-0.05078 0.117188,-0.04883 0.160156,-0.128906 0.04492,-0.08203 0.04492,-0.1875 z"
     id="text3"
     style="font-weight:bold;font-size:4px;text-anchor:middle;fill:#9b59b6"
     aria-label="VERB" />
  <!-- Knob labels -->
  <path
     d="m 8.990078,39.584961 q 0,0.08496 -0.040039,0.167969 -0.039063,0.08301 -0.1103516,0.140625 -0.078125,0.0625 -0.1826171,0.09766 -0.1035157,0.03516 -0.25,0.03516 -0.1572266,0 -0.2832032,-0.0293 -0.125,-0.0293 -0.2548828,-0.08691 v -0.242187 h 0.013672 q 0.1103516,0.0918 0.2548828,0.141601 0.1445313,0.0498 0.2714844,0.0498 0.1796875,0 0.2792969,-0.06738 0.1005859,-0.06738 0.1005859,-0.179687 0,-0.09668 -0.047852,-0.142578 -0.046875,-0.0459 -0.1435547,-0.07129 -0.073242,-0.01953 -0.1591796,-0.03223 -0.084961,-0.0127 -0.1806641,-0.03223 -0.1933594,-0.04102 -0.2871094,-0.139648 -0.092773,-0.09961 -0.092773,-0.258789 0,-0.182617 0.1542969,-0.298828 0.1542968,-0.117188 0.3916015,-0.117188 0.1533203,0 0.28125,0.0293 0.1279297,0.0293 0.2265625,0.07227 v 0.228515 h -0.013672 q -0.083008,-0.07031 -0.21875,-0.116211 -0.1347656,-0.04687 -0.2763671,-0.04687 -0.1552735,0 -0.25,0.06445 -0.09375,0.06445 -0.09375,0.166015 0,0.09082 0.046875,0.142578 0.046875,0.05176 0.165039,0.0791 0.0625,0.01367 0.1777344,0.0332 0.1152344,0.01953 0.1953125,0.04004 0.1621094,0.04297 0.2441406,0.129883 0.082031,0.08691 0.082031,0.243164 z M 9.8133202,40 H 9.2391014 V 39.851562 H 9.4295311 V 38.694336 H 9.2391014 v -0.148438 h 0.5742188 v 0.148438 H 9.6228905 v 1.157226 h 0.1904297 z m 1.3916018,0 h -1.134766 v -0.179688 l 0.891602,-1.102539 h -0.858399 v -0.171875 h 1.080078 v 0.174805 l -0.90039,1.107422 h 0.921875 z m 1.265625,0 h -0.958008 v -1.454102 h 0.958008 v 0.171875 h -0.764649 v 0.398438 h 0.764649 v 0.171875 h -0.764649 v 0.540039 h 0.764649 z"
     id="text4"
     style="font-size:2px;text-anchor:middle;fill:#666666"
     aria-label="SIZE" />
  <path
     d="m 28.542988,39.274414 q 0,0.198242 -0.08691,0.359375 -0.08594,0.161133 -0.229492,0.25 -0.09961,0.06152 -0.222657,0.08887 Q 27.881855,40 27.68166,40 h -0.367188 v -1.454102 h 0.363281 q 0.212891,0 0.337891,0.03125 0.125977,0.03027 0.212891,0.08398 0.148437,0.09277 0.231445,0.24707 0.08301,0.154297 0.08301,0.366211 z m -0.202149,-0.0029 q 0,-0.170898 -0.05957,-0.288086 -0.05957,-0.117187 -0.177734,-0.18457 -0.08594,-0.04883 -0.182617,-0.06738 -0.09668,-0.01953 -0.231446,-0.01953 h -0.18164 v 1.12207 h 0.18164 q 0.139649,0 0.243164,-0.02051 0.104492,-0.02051 0.191407,-0.07617 0.108398,-0.06934 0.162109,-0.182618 0.05469,-0.113281 0.05469,-0.283203 z M 29.813496,40 h -0.958008 v -1.454102 h 0.958008 v 0.171875 h -0.764649 v 0.398438 h 0.764649 v 0.171875 h -0.764649 v 0.540039 h 0.764649 z m 1.429687,-0.105469 q -0.05371,0.02344 -0.09766,0.04395 -0.04297,0.02051 -0.113281,0.04297 -0.05957,0.01855 -0.129883,0.03125 -0.06934,0.01367 -0.15332,0.01367 -0.158204,0 -0.288086,-0.04395 -0.128907,-0.04492 -0.22461,-0.139649 -0.09375,-0.09277 -0.146484,-0.235351 -0.05274,-0.143555 -0.05274,-0.333008 0,-0.179687 0.05078,-0.321289 0.05078,-0.141602 0.146484,-0.239258 0.09277,-0.09473 0.223633,-0.144531 0.131836,-0.0498 0.291992,-0.0498 0.117188,0 0.233399,0.02832 0.117187,0.02832 0.259765,0.09961 v 0.229492 h -0.01465 q -0.120117,-0.100586 -0.238282,-0.146484 -0.118164,-0.0459 -0.252929,-0.0459 -0.110352,0 -0.199219,0.03613 -0.08789,0.03516 -0.157227,0.110352 -0.06738,0.07324 -0.105468,0.185547 -0.03711,0.111328 -0.03711,0.257812 0,0.15332 0.04102,0.263672 0.04199,0.110351 0.107422,0.179687 0.06836,0.07227 0.15918,0.107422 0.0918,0.03418 0.193359,0.03418 0.139648,0 0.261719,-0.04785 0.12207,-0.04785 0.228515,-0.143554 h 0.01367 z M 32.663105,40 H 32.45705 L 32.314472,39.594727 H 31.685566 L 31.542988,40 h -0.196289 l 0.529297,-1.454102 h 0.257812 z m -0.408203,-0.571289 -0.254883,-0.713867 -0.255859,0.713867 z m 1.580078,-0.882813 -0.511719,0.816407 V 40 H 33.129902 V 39.382812 L 32.61623,38.545898 h 0.213867 l 0.397461,0.650391 0.401367,-0.650391 z"
     id="text5"
     style="font-size:2px;text-anchor:middle;fill:#666666"
     aria-label="DECAY" />
  <path
     d="M 9.7015038,64 H 9.5081444 V 62.74707 L 9.1038475,63.599609 H 8.9886131 L 8.5872459,62.74707 V 64 h -0.180664 v -1.454102 h 0.2636719 l 0.3876953,0.809571 0.375,-0.809571 h 0.2685547 z m 0.9033202,0 h -0.574219 v -0.148438 h 0.19043 v -1.157226 h -0.19043 v -0.148438 h 0.574219 v 0.148438 h -0.19043 v 1.157226 h 0.19043 z m 1.438477,-1.454102 -0.501953,0.71875 L 12.042324,64 H 11.818691 L 11.422207,63.401367 11.015957,64 h -0.210938 l 0.506836,-0.726563 -0.495117,-0.727539 h 0.222656 l 0.391602,0.590821 0.400391,-0.590821 z"
     id="text6"
     style="font-size:2px;text-anchor:middle;fill:#666666"
     aria-label="MIX" />
  <path
     d="m 28.701191,63.274414 q 0,0.198242 -0.08691,0.359375 -0.08594,0.161133 -0.229492,0.25 -0.09961,0.06152 -0.222657,0.08887 Q 28.040058,64 27.839863,64 h -0.367188 v -1.454102 h 0.363282 q 0.21289,0 0.33789,0.03125 0.125977,0.03027 0.212891,0.08398 0.148437,0.09277 0.231445,0.24707 0.08301,0.154297 0.08301,0.366211 z m -0.202148,-0.0029 q 0,-0.170898 -0.05957,-0.288086 -0.05957,-0.117187 -0.177734,-0.18457 -0.08594,-0.04883 -0.182617,-0.06738 -0.09668,-0.01953 -0.231446,-0.01953 h -0.18164 v 1.12207 h 0.18164 q 0.139649,0 0.243164,-0.02051 0.104493,-0.02051 0.191407,-0.07617 0.108398,-0.06934 0.162109,-0.182618 0.05469,-0.113281 0.05469,-0.283203 z M 30.216816,64 H 29.965839 L 29.479511,63.421875 H 29.20705 V 64 h -0.193359 v -1.454102 h 0.407227 q 0.131835,0 0.219726,0.01758 0.08789,0.0166 0.158203,0.06055 0.0791,0.0498 0.123047,0.125977 0.04492,0.0752 0.04492,0.191406 0,0.157227 -0.0791,0.263672 -0.0791,0.105469 -0.217773,0.15918 z m -0.452148,-1.044922 q 0,-0.0625 -0.02246,-0.110351 -0.02149,-0.04883 -0.07227,-0.08203 -0.04199,-0.02832 -0.09961,-0.03906 -0.05762,-0.01172 -0.135743,-0.01172 H 29.20705 v 0.548828 h 0.195313 q 0.0918,0 0.160156,-0.01563 0.06836,-0.0166 0.116211,-0.06055 0.04394,-0.04102 0.06445,-0.09375 0.02149,-0.05371 0.02149,-0.135742 z M 30.917011,64 h -0.574218 v -0.148438 h 0.190429 v -1.157226 h -0.190429 v -0.148438 h 0.574218 v 0.148438 h -0.190429 v 1.157226 h 0.190429 z M 32.392597,62.545898 31.8633,64 h -0.257812 l -0.529297,-1.454102 h 0.207031 l 0.456055,1.279297 0.456055,-1.279297 z M 33.571308,64 H 32.6133 v -1.454102 h 0.958008 v 0.171875 H 32.80666 v 0.398438 h 0.764648 v 0.171875 H 32.80666 v 0.540039 h 0.764648 z"
     id="text7"
     style="font-size:2px;text-anchor:middle;fill:#666666"
     aria-label="DRIVE" />
  <path
     d="M 7.8709373,86.717773 H 7.1355858 v 0.410157 h 0.6318359 v 0.171875 H 7.1355858 V 88 H 6.9422264 V 86.545898 H 7.8709373 Z M 8.6043358,88 H 8.030117 V 87.851562 H 8.2205467 V 86.694336 H 8.030117 v -0.148438 h 0.5742188 v 0.148438 H 8.4139061 v 1.157226 h 0.1904297 z m 1.2490234,0 H 8.9334373 v -1.454102 h 0.1933594 v 1.282227 H 9.8533592 Z M 10.917812,86.717773 H 10.398281 V 88 H 10.204922 V 86.717773 H 9.6853905 V 86.545898 H 10.917812 Z M 12.071133,88 h -0.958008 v -1.454102 h 0.958008 v 0.171875 h -0.764649 v 0.398438 h 0.764649 v 0.171875 h -0.764649 v 0.540039 h 0.764649 z m 1.509765,0 H 13.329922 L 12.843594,87.421875 H 12.571133 V 88 h -0.19336 V 86.545898 H 12.785 q 0.131836,0 0.219726,0.01758 0.08789,0.0166 0.158204,0.06055 0.0791,0.04981 0.123046,0.125977 0.04492,0.07519 0.04492,0.191406 0,0.157227 -0.0791,0.263672 -0.0791,0.105469 -0.217774,0.15918 z M 13.12875,86.955078 q 0,-0.0625 -0.02246,-0.110351 -0.02148,-0.04883 -0.07227,-0.08203 -0.04199,-0.02832 -0.09961,-0.03906 -0.05762,-0.01172 -0.135742,-0.01172 h -0.227539 v 0.548828 h 0.195312 q 0.0918,0 0.160156,-0.01563 0.06836,-0.0166 0.116211,-0.06055 0.04395,-0.04101 0.06445,-0.09375 0.02149,-0.05371 0.02149,-0.135742 z"
     id="text8"
     style="font-size:2px;text-anchor:middle;fill:#666666"
     aria-label="FILTER" />
  <path
     d="m 26.551777,86.985352 q 0,0.09668 -0.03418,0.179687 -0.0332,0.08203 -0.09375,0.142578 -0.07519,0.0752 -0.177734,0.113281 -0.102539,0.03711 -0.258789,0.03711 h -0.19336 V 88 h -0.193359 v -1.454102 h 0.394531 q 0.13086,0 0.22168,0.02246 0.09082,0.02148 0.161133,0.06836 0.08301,0.05566 0.127929,0.138672 0.0459,0.08301 0.0459,0.209961 z m -0.201172,0.0049 q 0,-0.0752 -0.02637,-0.130859 -0.02637,-0.05566 -0.08008,-0.09082 -0.04687,-0.03027 -0.107422,-0.04297 -0.05957,-0.01367 -0.151367,-0.01367 h -0.191407 v 0.581055 h 0.163086 q 0.117188,0 0.19043,-0.02051 0.07324,-0.02148 0.119141,-0.06738 0.0459,-0.04687 0.06445,-0.09863 0.01953,-0.05176 0.01953,-0.116211 z M 28.009785,88 H 27.758808 L 27.27248,87.421875 H 27.000019 V 88 H 26.80666 v -1.454102 h 0.407226 q 0.131836,0 0.219727,0.01758 0.08789,0.0166 0.158203,0.06055 0.0791,0.04981 0.123047,0.125977 0.04492,0.07519 0.04492,0.191406 0,0.157227 -0.0791,0.263672 -0.0791,0.105469 -0.217773,0.15918 z m -0.452149,-1.044922 q 0,-0.0625 -0.02246,-0.110351 -0.02148,-0.04883 -0.07226,-0.08203 -0.04199,-0.02832 -0.09961,-0.03906 -0.05762,-0.01172 -0.135742,-0.01172 h -0.227539 v 0.548828 h 0.195313 q 0.0918,0 0.160156,-0.01563 0.06836,-0.0166 0.116211,-0.06055 0.04395,-0.04101 0.06445,-0.09375 0.02148,-0.05371 0.02148,-0.135742 z M 29.155293,88 h -0.958008 v -1.454102 h 0.958008 v 0.171875 h -0.764649 v 0.398438 h 0.764649 v 0.171875 h -0.764649 v 0.540039 h 0.764649 z m 0.951171,-1.519531 -0.700195,1.816406 h -0.168945 l 0.697265,-1.816406 z m 1.214844,0.504883 q 0,0.09668 -0.03418,0.179687 -0.0332,0.08203 -0.09375,0.142578 -0.0752,0.0752 -0.177734,0.113281 -0.102539,0.03711 -0.258789,0.03711 H 30.563496 V 88 h -0.19336 v -1.454102 h 0.394532 q 0.130859,0 0.221679,0.02246 0.09082,0.02148 0.161133,0.06836 0.08301,0.05566 0.12793,0.138672 0.0459,0.08301 0.0459,0.209961 z m -0.201172,0.0049 q 0,-0.0752 -0.02637,-0.130859 -0.02637,-0.05566 -0.08008,-0.09082 -0.04687,-0.03027 -0.107422,-0.04297 -0.05957,-0.01367 -0.151367,-0.01367 h -0.191406 v 0.581055 h 0.163086 q 0.117187,0 0.190429,-0.02051 0.07324,-0.02148 0.119141,-0.06738 0.0459,-0.04687 0.06445,-0.09863 0.01953,-0.05176 0.01953,-0.116211 z m 1.540039,-0.277343 q 0.08887,0.09766 0.135743,0.239257 0.04785,0.141602 0.04785,0.321289 0,0.179688 -0.04883,0.322266 -0.04785,0.141602 -0.134766,0.236328 -0.08984,0.09863 -0.21289,0.148438 -0.122071,0.0498 -0.279297,0.0498 -0.15332,0 -0.279297,-0.05078 -0.125,-0.05078 -0.212891,-0.147461 -0.08789,-0.09668 -0.135742,-0.237304 -0.04687,-0.140625 -0.04687,-0.32129 0,-0.177734 0.04687,-0.318359 0.04687,-0.141601 0.136719,-0.242187 0.08594,-0.0957 0.212891,-0.146485 0.127929,-0.05078 0.27832,-0.05078 0.15625,0 0.280273,0.05176 0.125,0.05078 0.211914,0.145508 z m -0.01758,0.560546 q 0,-0.283203 -0.126953,-0.436523 -0.126953,-0.154297 -0.34668,-0.154297 -0.221679,0 -0.348632,0.154297 -0.125977,0.15332 -0.125977,0.436523 0,0.286133 0.128906,0.438477 0.128907,0.151367 0.345703,0.151367 0.216797,0 0.344727,-0.151367 0.128906,-0.152344 0.128906,-0.438477 z m 1.564453,0.311524 q 0,0.08496 -0.04004,0.167969 -0.03906,0.08301 -0.110351,0.140625 -0.07813,0.0625 -0.182617,0.09766 -0.103516,0.03516 -0.25,0.03516 -0.157227,0 -0.283204,-0.0293 -0.125,-0.0293 -0.254882,-0.08691 v -0.242187 h 0.01367 q 0.110352,0.0918 0.254883,0.141601 0.144532,0.04981 0.271485,0.04981 0.179687,0 0.279297,-0.06738 0.100585,-0.06738 0.100585,-0.179687 0,-0.09668 -0.04785,-0.142578 -0.04687,-0.0459 -0.143555,-0.07129 -0.07324,-0.01953 -0.159179,-0.03223 -0.08496,-0.0127 -0.180665,-0.03223 -0.193359,-0.04102 -0.287109,-0.139648 -0.09277,-0.09961 -0.09277,-0.258789 0,-0.182617 0.154297,-0.298828 0.154296,-0.117188 0.391601,-0.117188 0.15332,0 0.28125,0.0293 0.12793,0.0293 0.226563,0.07227 v 0.228515 h -0.01367 q -0.08301,-0.07031 -0.21875,-0.116211 -0.134766,-0.04687 -0.276367,-0.04687 -0.155274,0 -0.25,0.06445 -0.09375,0.06445 -0.09375,0.166015 0,0.09082 0.04687,0.142578 0.04687,0.05176 0.165039,0.0791 0.0625,0.01367 0.177734,0.0332 0.115234,0.01953 0.195312,0.04004 0.16211,0.04297 0.244141,0.129883 0.08203,0.08691 0.08203,0.243164 z m 1.347657,-0.867188 H 35.035175 V 88 h -0.193359 v -1.282227 h -0.519531 v -0.171875 h 1.232422 z"
     id="text9"
     style="font-size:2px;text-anchor:middle;fill:#666666"
     aria-label="PRE/POST" />
  <!-- I/O labels -->
  <path
     d="m 18.347295,102 h -0.174024 v -1.12764 l -0.363867,0.76729 h -0.103711 l -0.36123,-0.76729 V 102 h -0.162598 v -1.30869 h 0.237305 l 0.348925,0.72861 0.3375,-0.72861 h 0.2417 z m 0.812988,0 h -0.516797 v -0.13359 h 0.171387 v -1.04151 h -0.171387 v -0.13359 h 0.516797 v 0.13359 h -0.171387 v 1.04151 h 0.171387 z m 1.294629,-1.30869 -0.451758,0.64687 L 20.454033,102 h -0.20127 L 19.895927,101.46123 19.530302,102 h -0.189843 l 0.456152,-0.65391 -0.445605,-0.65478 h 0.20039 l 0.352442,0.53174 0.360351,-0.53174 z m 1.878222,1.21377 q -0.04834,0.0211 -0.08789,0.0396 -0.03867,0.0185 -0.101953,0.0387 -0.05361,0.0167 -0.116895,0.0281 -0.0624,0.0123 -0.137988,0.0123 -0.142383,0 -0.259277,-0.0396 -0.116016,-0.0404 -0.202149,-0.12568 -0.08437,-0.0835 -0.131836,-0.21182 -0.04746,-0.1292 -0.04746,-0.29971 0,-0.16172 0.0457,-0.28916 0.0457,-0.12744 0.131836,-0.21533 0.0835,-0.0852 0.20127,-0.13008 0.118652,-0.0448 0.262793,-0.0448 0.105469,0 0.210058,0.0255 0.105469,0.0255 0.233789,0.0896 v 0.20655 h -0.01318 q -0.108106,-0.0905 -0.214453,-0.13184 -0.106348,-0.0413 -0.227637,-0.0413 -0.09932,0 -0.179297,0.0325 -0.0791,0.0316 -0.141504,0.0993 -0.06064,0.0659 -0.09492,0.16699 -0.0334,0.1002 -0.0334,0.23203 0,0.13799 0.03691,0.23731 0.03779,0.0993 0.09668,0.16172 0.06152,0.065 0.143261,0.0967 0.08262,0.0308 0.174024,0.0308 0.125683,0 0.235547,-0.0431 0.109863,-0.0431 0.205664,-0.1292 h 0.0123 z m 1.27793,-1.21377 L 23.134697,102 h -0.232031 l -0.476367,-1.30869 h 0.186328 l 0.410449,1.15137 0.410449,-1.15137 z"
     id="text10"
     style="font-size:1.8px;text-anchor:middle;fill:#555555"
     aria-label="MIX CV" />
  <path
     d="M 8.0389452,120 H 7.3490038 v -1.09058 h 0.1450195 v 0.96167 h 0.5449219 z"
     id="text11"
     style="font-size:1.5px;text-anchor:middle;fill:#555555"
     aria-label="L" />
  <path
     d="m 18.307344,120 h -0.188232 l -0.364746,-0.43359 H 17.55002 V 120 h -0.145019 v -1.09058 h 0.30542 q 0.09888,0 0.164795,0.0132 0.06592,0.0124 0.118652,0.0454 0.05933,0.0374 0.09229,0.0945 0.03369,0.0564 0.03369,0.14355 0,0.11792 -0.05933,0.19776 -0.05933,0.0791 -0.16333,0.11938 z m -0.339111,-0.78369 q 0,-0.0469 -0.01685,-0.0828 -0.01611,-0.0366 -0.0542,-0.0615 -0.03149,-0.0212 -0.07471,-0.0293 -0.04321,-0.009 -0.101806,-0.009 H 17.55002 v 0.41162 h 0.146485 q 0.06885,0 0.120117,-0.0117 0.05127,-0.0125 0.08716,-0.0454 0.03296,-0.0308 0.04834,-0.0703 0.01611,-0.0403 0.01611,-0.10181 z"
     id="text12"
     style="font-size:1.5px;text-anchor:middle;fill:#555555"
     aria-label="R" />
  <path
     d="m 28.358946,120 h -0.689942 v -1.09058 h 0.14502 v 0.96167 h 0.544922 z"
     id="text13"
     style="font-size:1.5px;text-anchor:middle;fill:#555555"
     aria-label="L" />
  <path
     d="M 38.627342,120 H 38.43911 l -0.364746,-0.43359 H 37.870018 V 120 h -0.14502 v -1.09058 h 0.30542 q 0.09888,0 0.164795,0.0132 0.06592,0.0124 0.118653,0.0454 0.05933,0.0374 0.09229,0.0945 0.03369,0.0564 0.03369,0.14355 0,0.11792 -0.05933,0.19776 -0.05933,0.0791 -0.16333,0.11938 z m -0.339111,-0.78369 q 0,-0.0469 -0.01685,-0.0828 -0.01611,-0.0366 -0.0542,-0.0615 -0.03149,-0.0212 -0.07471,-0.0293 -0.04321,-0.009 -0.101807,-0.009 h -0.170654 v 0.41162 h 0.146484 q 0.06885,0 0.120118,-0.0117 0.05127,-0.0125 0.08716,-0.0454 0.03296,-0.0308 0.04834,-0.0703 0.01611,-0.0403 0.01611,-0.10181 z"
     id="text14"
     style="font-size:1.5px;text-anchor:middle;fill:#555555"
     aria-label="R" />
  <path
     d="m 12.354297,125 h -0.430664 v -0.11133 h 0.142822 v -0.86792 h -0.142822 v -0.11133 h 0.430664 v 0.11133 h -0.142823 v 0.86792 h 0.142823 z m 1.078857,0 h -0.179443 l -0.51709,-0.97559 V 125 h -0.135498 v -1.09058 h 0.224853 l 0.47168,0.89063 v -0.89063 h 0.135498 z"
     id="text15"
     style="font-size:1.5px;text-anchor:middle;fill:#444444"
     aria-label="IN" />
  <path
     d="m 32.378033,124.03467 q 0.06665,0.0732 0.101806,0.17944 0.03589,0.1062 0.03589,0.24097 0,0.13476 -0.03662,0.2417 -0.03589,0.1062 -0.101074,0.17724 -0.06738,0.074 -0.159668,0.11133 -0.09155,0.0374 -0.209473,0.0374 -0.11499,0 -0.209473,-0.0381 -0.09375,-0.0381 -0.159668,-0.1106 -0.06592,-0.0725 -0.101806,-0.17798 -0.03516,-0.10546 -0.03516,-0.24096 0,-0.1333 0.03516,-0.23877 0.03516,-0.1062 0.102539,-0.18164 0.06445,-0.0718 0.159668,-0.10987 0.09595,-0.0381 0.20874,-0.0381 0.117188,0 0.210205,0.0388 0.09375,0.0381 0.158936,0.10913 z m -0.01318,0.42041 q 0,-0.2124 -0.09521,-0.32739 -0.09522,-0.11573 -0.26001,-0.11573 -0.166259,0 -0.261474,0.11573 -0.09448,0.11499 -0.09448,0.32739 0,0.2146 0.09668,0.32886 0.09668,0.11352 0.259277,0.11352 0.162598,0 0.258545,-0.11352 0.09668,-0.11426 0.09668,-0.32886 z m 1.201904,0.10693 q 0,0.11865 -0.02637,0.20728 -0.02564,0.0879 -0.08496,0.14648 -0.0564,0.0557 -0.131836,0.0813 -0.07544,0.0256 -0.175781,0.0256 -0.102539,0 -0.178711,-0.0271 -0.07617,-0.0271 -0.128174,-0.0798 -0.05933,-0.0601 -0.08569,-0.14502 -0.02563,-0.085 -0.02563,-0.20874 v -0.65259 h 0.14502 v 0.65992 q 0,0.0886 0.01172,0.13989 0.01245,0.0513 0.04102,0.093 0.03223,0.0476 0.08716,0.0718 0.05566,0.0242 0.133301,0.0242 0.07837,0 0.133301,-0.0234 0.05493,-0.0242 0.08789,-0.0725 0.02857,-0.0418 0.04028,-0.0952 0.01245,-0.0542 0.01245,-0.13403 v -0.66358 h 0.145019 z m 1.054688,-0.52368 H 34.231792 V 125 h -0.145019 v -0.96167 h -0.389649 v -0.12891 h 0.924317 z"
     id="text16"
     style="font-size:1.5px;text-anchor:middle;fill:#444444"
     aria-label="OUT" />
  <!-- Bottom accent -->
  <rect
     x="0"
     y="125.5"
     width="40.64"
     height="3"
     fill="#9b59b6"
     id="rect16" />
</svg>
